<?xml version="1.0" standalone="no"?>
<!DOCTYPE svg PUBLIC "-//W3C//DTD SVG 20010904//EN"
 "http://www.w3.org/TR/2001/REC-SVG-20010904/DTD/svg10.dtd">
<svg version="1.0" xmlns="http://www.w3.org/2000/svg"
 width="700.000000pt" height="700.000000pt" viewBox="0 0 700.000000 700.000000"
 preserveAspectRatio="xMidYMid meet">
<metadata>
Created by potrace 1.11, written by Peter Selinger 2001-2013
</metadata>
<g transform="translate(0.000000,700.000000) scale(0.100000,-0.100000)"
fill="#000000" stroke="none">
<path d="M3357 6993 c-2 -1 -41 -4 -87 -8 -100 -6 -160 -12 -215 -20 -22 -3
-56 -8 -75 -10 -19 -3 -44 -7 -56 -10 -12 -2 -39 -7 -60 -11 -48 -8 -69 -12
-69 -14 0 -1 -9 -3 -20 -5 -11 -1 -33 -6 -50 -10 -16 -4 -38 -7 -47 -8 -10 -1
-18 -4 -18 -7 0 -4 -6 -7 -12 -7 -29 -1 -80 -14 -147 -37 -39 -13 -71 -22 -71
-20 0 2 -20 -5 -44 -16 -24 -10 -47 -16 -50 -13 -3 4 -6 1 -6 -6 0 -7 -4 -9
-10 -6 -5 3 -10 1 -10 -5 0 -6 -6 -10 -13 -8 -17 4 -157 -53 -157 -64 0 -5 -5
-6 -10 -3 -6 4 -22 -1 -36 -10 -13 -9 -29 -13 -34 -10 -6 4 -13 -1 -16 -9 -3
-9 -15 -16 -25 -16 -10 0 -19 -5 -19 -11 0 -5 -4 -8 -9 -4 -5 3 -17 -2 -25
-11 -9 -8 -16 -13 -16 -9 0 6 -105 -49 -127 -68 -7 -5 -13 -6 -13 -1 0 5 -4 4
-8 -1 -4 -6 -24 -19 -44 -30 -21 -11 -38 -23 -38 -27 0 -5 -3 -7 -7 -6 -11 2
-68 -32 -101 -59 -15 -13 -31 -23 -37 -23 -5 0 -23 -11 -39 -25 -16 -14 -32
-25 -35 -25 -3 0 -19 -11 -34 -25 -15 -14 -27 -23 -27 -18 0 4 -7 -2 -15 -13
-8 -10 -15 -16 -15 -11 0 4 -8 -1 -18 -10 -11 -10 -28 -25 -38 -33 -46 -36
-132 -107 -169 -140 -76 -68 -275 -271 -275 -281 0 -6 -4 -7 -10 -4 -5 3 -10
2 -10 -3 0 -8 -33 -49 -80 -99 -11 -13 -19 -23 -16 -23 3 0 -5 -10 -17 -23
-33 -35 -62 -72 -57 -73 3 0 -3 -8 -13 -18 -9 -10 -31 -39 -49 -64 -17 -26
-35 -48 -40 -50 -4 -2 -8 -9 -8 -16 0 -7 -10 -23 -22 -36 -12 -13 -23 -30 -25
-38 -1 -8 -8 -19 -15 -23 -7 -5 -10 -9 -6 -9 5 0 -1 -9 -12 -20 -11 -11 -20
-27 -20 -35 0 -8 -4 -15 -8 -15 -5 0 -14 -16 -22 -35 -8 -19 -17 -35 -22 -35
-4 0 -8 -5 -8 -11 0 -6 -9 -24 -21 -40 -11 -16 -17 -29 -13 -29 4 0 0 -8 -9
-17 -8 -10 -17 -25 -19 -33 -2 -8 -5 -17 -8 -20 -6 -6 -40 -79 -39 -83 0 -1
-12 -27 -27 -57 -16 -30 -29 -57 -29 -60 -1 -10 -59 -155 -65 -165 -7 -9 -23
-67 -21 -73 1 -1 -6 -16 -14 -32 -9 -17 -13 -30 -10 -30 3 0 -1 -10 -9 -22 -7
-13 -12 -31 -11 -40 2 -10 0 -18 -4 -18 -4 0 -8 -12 -9 -27 -1 -15 -6 -29 -11
-32 -4 -3 -7 -14 -5 -23 1 -10 -2 -20 -6 -23 -5 -3 -7 -14 -5 -25 2 -11 0 -20
-4 -20 -5 0 -12 -21 -16 -46 -3 -25 -9 -56 -11 -67 -34 -155 -57 -304 -57
-369 0 -21 -3 -38 -6 -38 -3 0 -6 -21 -6 -48 1 -26 -2 -59 -6 -73 -4 -16 -2
-32 4 -38 6 -6 7 -11 1 -11 -16 0 -9 -331 12 -525 3 -27 7 -66 9 -85 2 -19 4
-35 5 -35 1 0 3 -11 4 -25 5 -47 21 -137 26 -142 1 -2 3 -16 5 -33 1 -16 3
-30 4 -30 3 0 6 -13 15 -60 3 -16 8 -39 11 -50 12 -51 34 -133 43 -162 6 -17
8 -34 4 -37 -3 -3 0 -6 6 -6 7 0 11 -3 11 -7 -1 -5 0 -11 1 -15 1 -5 4 -12 5
-18 1 -5 3 -11 5 -12 1 -2 4 -16 6 -33 3 -16 9 -32 13 -35 7 -4 23 -56 22 -70
0 -3 7 -15 15 -28 8 -12 12 -22 10 -22 -3 0 8 -29 24 -64 15 -35 26 -67 23
-70 -4 -3 -1 -6 5 -6 7 0 12 -5 12 -11 0 -16 62 -143 74 -151 6 -4 7 -8 3 -8
-5 0 1 -15 12 -33 11 -19 18 -37 14 -40 -3 -4 -1 -7 6 -7 11 0 36 -47 33 -62
-1 -5 3 -8 8 -8 6 0 10 -6 10 -13 0 -7 8 -22 18 -33 10 -10 18 -21 18 -24 0
-11 87 -144 97 -148 4 -2 7 -10 7 -17 0 -8 8 -19 18 -24 9 -6 13 -11 9 -11 -7
0 60 -95 96 -134 9 -11 17 -24 17 -28 0 -5 5 -6 12 -2 6 4 8 3 5 -3 -6 -9 23
-48 80 -109 13 -12 23 -25 23 -28 0 -3 31 -37 70 -77 39 -39 70 -74 70 -77 0
-7 53 -52 62 -52 4 0 10 -9 13 -21 4 -11 9 -18 11 -16 3 2 27 -16 53 -42 50
-47 104 -94 155 -133 16 -13 39 -33 51 -45 13 -12 25 -20 28 -17 3 3 15 -8 27
-23 12 -15 24 -26 27 -24 3 1 16 -6 29 -18 13 -11 27 -21 30 -20 3 0 19 -11
35 -25 16 -15 34 -24 38 -21 5 2 11 -1 14 -9 5 -13 21 -24 87 -58 14 -7 33
-20 43 -28 10 -8 20 -13 24 -12 3 2 9 -1 12 -6 4 -6 65 -40 136 -77 72 -36
135 -70 142 -75 7 -6 17 -10 23 -10 6 0 32 -11 59 -25 27 -13 51 -21 55 -18 3
4 6 1 6 -5 0 -7 3 -11 8 -10 7 1 20 -4 82 -30 19 -8 40 -16 45 -17 30 -4 65
-18 65 -26 0 -4 9 -6 20 -4 11 2 20 -1 20 -7 0 -5 6 -8 14 -5 7 3 18 1 22 -3
5 -5 19 -11 31 -13 13 -2 26 -6 29 -10 4 -4 20 -7 36 -7 15 0 28 -5 28 -12 0
-6 3 -9 6 -5 3 3 26 0 50 -8 24 -7 44 -11 44 -9 0 3 9 0 21 -6 11 -7 37 -13
57 -16 38 -4 77 -11 77 -14 0 -2 18 -6 70 -15 22 -3 51 -9 65 -12 14 -3 254
-7 535 -8 378 -2 512 0 517 8 6 9 8 8 8 -1 0 -10 5 -10 23 -1 12 7 22 11 22 9
0 -3 80 8 118 16 23 5 41 9 97 19 19 4 38 12 42 18 5 8 8 7 8 -3 0 -9 3 -11 8
-5 6 9 24 13 72 18 8 1 17 5 20 9 3 4 19 10 35 13 33 7 43 9 65 18 24 8 114
37 130 42 8 2 15 4 15 5 0 1 11 4 25 6 13 2 27 8 30 12 5 7 27 14 48 15 6 0
12 4 12 9 0 4 3 7 8 6 4 -1 16 3 27 9 11 6 22 11 25 11 3 -1 26 9 52 21 26 11
52 21 57 21 6 0 11 5 11 12 0 6 3 9 6 5 4 -3 43 13 88 35 44 23 85 42 89 42 4
1 11 7 16 14 5 8 12 14 17 14 15 0 82 37 89 48 4 6 10 8 15 5 4 -3 13 2 20 10
7 8 19 15 26 15 8 0 14 5 14 10 0 6 7 10 15 10 8 0 15 5 15 10 0 6 7 10 15 10
8 0 23 9 32 20 10 11 21 20 26 20 8 0 88 53 113 75 6 6 22 17 34 25 26 17 64
48 91 73 10 9 23 17 29 17 5 0 17 11 26 25 9 14 19 24 21 21 3 -3 21 10 41 27
61 55 322 313 322 320 0 3 19 26 43 51 60 64 86 96 79 96 -4 0 0 6 8 13 16 13
42 53 68 107 9 19 20 37 25 38 4 2 7 7 7 12 0 4 7 25 16 46 9 22 16 40 15 41
0 2 8 23 19 48 11 25 19 48 19 50 0 3 2 18 5 33 23 104 30 166 28 262 -1 113
-4 153 -10 165 -3 5 -7 21 -8 35 -1 14 -5 39 -9 55 -4 17 -8 36 -8 43 0 6 -4
12 -9 12 -4 0 -8 10 -8 23 0 13 -5 28 -12 35 -7 7 -9 12 -6 12 4 0 1 12 -7 27
-8 15 -12 30 -9 35 3 4 0 8 -6 8 -6 0 -8 5 -5 10 3 6 2 10 -4 10 -5 0 -15 16
-21 35 -6 19 -16 35 -21 35 -5 0 -9 5 -9 10 0 16 -72 120 -83 120 -6 0 -7 3
-4 6 7 7 -152 174 -165 174 -5 0 -17 8 -27 18 -34 30 -50 42 -57 42 -4 0 -15
6 -23 14 -27 23 -178 97 -201 98 -3 0 -11 4 -17 10 -7 6 -13 8 -13 4 0 -4 -13
0 -29 8 -16 9 -31 13 -34 10 -3 -3 -12 -2 -19 2 -7 5 -17 9 -23 10 -5 1 -28 5
-50 9 -22 3 -51 8 -65 10 -34 6 -218 6 -255 1 -36 -5 -81 -14 -115 -21 -14 -3
-36 -8 -50 -11 -14 -3 -29 -9 -34 -14 -5 -5 -15 -6 -22 -3 -8 3 -14 0 -14 -7
0 -6 -3 -9 -8 -6 -4 2 -23 -3 -42 -11 -19 -9 -38 -15 -42 -15 -5 1 -8 -3 -8
-9 0 -6 -7 -9 -15 -5 -8 3 -15 1 -15 -4 0 -6 -7 -10 -15 -10 -8 0 -15 -4 -15
-10 0 -5 -5 -10 -11 -10 -6 0 -24 -9 -40 -21 -16 -11 -29 -18 -29 -15 0 3 -8
-2 -18 -11 -10 -10 -29 -25 -42 -33 -13 -8 -30 -23 -39 -32 -8 -10 -22 -18
-30 -18 -8 0 -11 -3 -8 -7 4 -3 -8 -17 -25 -30 -18 -12 -28 -23 -24 -23 4 0 1
-7 -8 -15 -8 -8 -19 -15 -25 -15 -6 0 -10 -3 -8 -8 5 -16 -124 -162 -145 -162
-5 0 -6 -4 -3 -10 3 -5 -1 -10 -10 -10 -9 0 -13 -4 -10 -10 3 -5 1 -10 -4 -10
-10 0 -36 -19 -67 -48 -8 -7 -14 -10 -14 -6 0 4 -8 -2 -17 -13 -10 -11 -28
-23 -40 -27 -13 -4 -23 -12 -23 -17 0 -5 -7 -9 -15 -9 -8 0 -15 -4 -15 -10 0
-5 -3 -9 -7 -8 -5 1 -36 -12 -70 -30 -35 -18 -63 -30 -63 -26 0 3 -7 -2 -16
-10 -14 -14 -35 -21 -56 -17 -5 0 -8 -4 -8 -11 0 -6 -3 -9 -6 -6 -3 4 -20 0
-39 -7 -18 -8 -35 -11 -39 -8 -3 4 -6 2 -6 -3 0 -5 -8 -10 -17 -11 -10 0 -43
-6 -73 -13 -30 -6 -82 -13 -115 -15 -33 -2 -60 -5 -60 -6 0 -1 -44 -3 -97 -4
-54 -1 -98 1 -98 4 0 3 -19 7 -43 7 -38 1 -112 10 -112 14 0 1 -13 4 -30 6
-16 3 -37 7 -45 11 -14 6 -20 7 -52 16 -7 2 -25 7 -40 12 -16 4 -28 11 -28 17
0 5 -4 7 -8 4 -4 -2 -21 1 -37 9 -17 7 -45 19 -62 26 -18 8 -33 18 -33 22 0 5
-4 6 -9 3 -5 -3 -14 1 -21 9 -7 8 -17 15 -23 15 -14 0 -153 95 -196 134 -82
75 -196 196 -185 196 4 0 -3 8 -14 19 -12 10 -22 23 -22 30 0 6 -4 11 -10 11
-5 0 -10 6 -10 14 0 8 -4 16 -8 18 -11 4 -67 101 -64 111 1 4 -3 7 -8 7 -5 0
-9 3 -8 8 1 4 -11 34 -26 67 -16 33 -29 65 -30 70 -1 6 -7 19 -13 30 -6 11 -9
28 -8 38 2 9 0 17 -4 17 -4 0 -8 8 -9 18 -4 34 -8 52 -15 58 -4 4 -7 20 -7 35
0 15 -4 39 -10 53 -6 16 -6 27 1 31 5 4 6 12 2 18 -15 24 -25 197 -11 197 4 0
3 11 -2 24 -5 13 -7 26 -4 29 3 2 7 24 9 48 2 24 4 44 5 44 1 0 3 14 5 30 1
17 4 31 5 33 1 1 4 7 5 12 1 6 3 11 5 13 1 1 3 16 4 32 1 17 7 39 13 50 6 11
9 28 8 38 -2 9 1 17 6 17 5 0 8 3 7 8 -2 10 9 39 53 137 13 28 22 53 21 58 -1
4 2 7 8 7 5 0 10 4 10 10 0 5 17 35 38 66 20 31 42 64 47 73 6 9 19 24 29 33
10 10 16 18 12 18 -5 0 7 15 26 34 18 19 41 42 50 53 9 10 23 23 31 30 8 7 17
16 18 20 6 13 149 124 149 116 0 -4 5 0 11 10 5 9 14 17 20 17 5 0 20 9 32 20
12 11 27 18 33 16 7 -3 15 2 18 10 3 9 10 12 16 9 5 -3 10 -2 10 3 0 9 42 28
64 30 5 0 12 5 16 12 4 6 17 12 28 13 12 1 22 5 22 9 0 4 8 8 18 8 10 0 22 3
26 7 7 7 17 10 66 20 16 3 30 8 30 12 0 6 25 10 83 14 15 1 27 5 27 8 0 3 6 6
13 6 28 0 132 15 139 19 4 3 8 1 8 -5 0 -6 7 -8 16 -4 27 10 79 10 86 -1 5 -7
8 -6 8 3 0 10 3 11 14 2 10 -8 16 -9 21 -1 3 6 11 7 17 3 7 -3 32 -8 57 -10
42 -3 79 -9 91 -13 3 -1 8 -2 12 -1 3 0 28 -6 54 -14 26 -8 51 -12 56 -9 4 3
8 1 8 -5 0 -6 6 -8 14 -5 8 3 17 1 21 -5 3 -6 12 -11 19 -11 8 0 31 -8 52 -17
22 -9 41 -17 44 -18 14 -3 106 -49 110 -55 3 -3 20 -13 38 -21 17 -8 32 -17
32 -21 0 -5 6 -8 14 -8 8 0 16 -3 18 -7 2 -5 23 -21 47 -38 24 -16 45 -35 48
-42 3 -7 10 -13 17 -13 6 0 28 -18 50 -40 21 -22 43 -40 48 -40 5 0 6 -4 3
-10 -3 -5 1 -10 9 -10 9 0 16 -4 16 -10 0 -5 40 -49 88 -97 95 -95 142 -137
142 -126 0 3 8 -3 18 -13 20 -22 50 -42 75 -50 9 -4 17 -11 17 -16 0 -5 4 -7
9 -4 5 3 14 -1 21 -9 7 -8 16 -15 20 -15 4 0 34 -12 66 -27 33 -14 63 -26 68
-24 4 1 14 -4 22 -10 8 -6 14 -8 14 -4 0 4 7 2 15 -5 8 -7 15 -9 15 -4 0 4 5
3 11 -3 6 -6 18 -9 25 -6 8 3 14 1 14 -3 0 -5 15 -10 33 -11 71 -6 97 -9 103
-16 4 -4 13 -2 21 4 7 6 13 7 13 2 0 -5 45 -9 100 -9 55 1 100 3 100 6 0 3 15
7 33 8 27 2 95 17 167 36 57 16 171 66 181 79 3 5 9 8 13 7 9 -1 125 69 146
89 9 9 36 32 59 51 23 19 47 40 53 46 44 48 74 83 100 121 17 24 35 43 40 43
5 0 7 4 4 9 -3 4 6 23 19 41 14 19 25 39 25 46 0 7 7 20 16 28 8 9 16 25 17
36 1 11 5 20 9 20 4 0 10 16 14 35 3 19 9 35 13 35 6 0 10 17 13 58 1 6 4 12
8 12 4 0 7 6 8 13 0 6 3 28 7 47 3 19 7 41 7 48 1 6 6 12 12 12 7 0 7 3 1 8
-13 9 -18 32 -7 32 18 0 5 317 -15 370 -3 8 -7 22 -8 30 -7 35 -14 60 -23 77
-6 10 -11 21 -11 25 -3 16 -14 45 -35 88 -11 25 -20 48 -18 53 1 4 -2 7 -8 7
-5 0 -10 10 -10 22 0 12 -3 18 -6 15 -4 -4 -16 13 -27 36 -12 23 -26 45 -31
49 -6 4 -8 8 -4 8 8 0 -19 35 -60 76 -13 13 -20 24 -16 24 3 0 -8 13 -25 29
-17 16 -31 31 -31 35 0 9 -242 248 -305 301 -33 28 -73 64 -89 80 -17 17 -32
29 -34 27 -3 -3 -61 40 -86 64 -22 21 -240 166 -263 175 -12 4 -23 13 -23 19
0 5 -5 10 -11 10 -6 0 -23 9 -39 20 -15 11 -29 17 -32 14 -3 -2 -11 2 -18 11
-7 8 -16 15 -21 15 -5 0 -31 14 -57 30 -27 17 -57 30 -66 30 -9 0 -16 4 -16 9
0 5 -10 13 -22 17 -13 4 -50 20 -84 35 -34 16 -68 29 -76 29 -9 0 -21 7 -28
15 -7 8 -16 13 -20 10 -5 -3 -11 -1 -15 5 -3 5 -15 10 -26 10 -10 0 -19 5 -19
12 0 6 -3 8 -7 5 -3 -4 -12 -2 -20 4 -7 6 -13 8 -13 4 0 -4 -7 -2 -15 5 -8 7
-15 9 -15 5 0 -4 -6 -3 -12 2 -7 6 -40 18 -73 28 -33 9 -73 23 -89 30 -16 7
-36 12 -45 10 -8 -1 -21 4 -29 11 -7 7 -19 11 -27 8 -8 -4 -15 -2 -15 3 0 5
-10 9 -22 8 -13 -1 -32 2 -43 8 -11 6 -29 12 -40 13 -11 1 -33 5 -50 9 -16 3
-46 9 -65 12 -19 3 -43 10 -52 15 -12 6 -18 5 -18 -3 0 -8 -4 -8 -12 -1 -12 9
-30 13 -138 27 -59 8 -142 16 -210 21 -69 5 -409 11 -413 7z"/>
<path d="M3485 4162 c-5 -5 -50 -11 -102 -15 -13 0 -23 -4 -23 -7 0 -3 -11 -7
-24 -8 -31 -2 -166 -63 -166 -74 0 -5 -4 -6 -10 -3 -5 3 -10 1 -10 -4 0 -6 -5
-11 -12 -11 -6 0 -18 -7 -27 -15 -9 -9 -40 -38 -68 -65 -29 -27 -53 -52 -53
-55 0 -3 -8 -15 -18 -26 -11 -10 -25 -32 -33 -47 -7 -15 -20 -38 -28 -51 -9
-13 -16 -29 -18 -35 -1 -6 -9 -30 -17 -53 -16 -43 -27 -88 -28 -113 0 -8 -4
-20 -9 -25 -4 -6 -4 -17 0 -24 5 -7 5 -28 1 -47 -5 -23 -4 -34 4 -34 6 0 4 -5
-4 -10 -8 -5 -10 -10 -5 -10 6 0 11 -21 12 -47 2 -27 7 -49 12 -51 5 -2 7 -11
4 -20 -2 -10 1 -31 8 -47 7 -17 13 -32 14 -35 0 -3 6 -15 13 -26 6 -12 9 -24
6 -26 -2 -3 2 -11 11 -18 8 -7 15 -16 15 -21 0 -22 149 -203 150 -182 0 4 5 0
11 -9 5 -10 16 -18 22 -18 7 0 19 -9 27 -19 7 -11 17 -18 21 -15 4 2 10 0 13
-5 13 -20 188 -90 210 -83 5 2 16 0 25 -4 25 -11 168 -13 201 -4 18 5 30 5 30
-1 0 -5 11 -2 25 7 14 9 25 14 25 10 0 -7 110 33 129 48 12 9 13 8 6 -4 -4 -8
3 -5 17 8 13 12 30 22 36 22 7 0 12 5 12 12 0 6 3 9 6 5 10 -10 129 101 180
168 32 44 94 166 94 188 0 8 3 17 7 20 6 6 12 38 15 75 1 6 6 12 11 12 5 0 4
6 -2 13 -6 8 -8 17 -4 21 9 8 11 166 2 166 -3 0 -6 6 -6 13 -1 35 -15 95 -32
133 -11 23 -17 45 -13 48 3 3 0 6 -6 6 -7 0 -12 9 -12 20 0 11 -4 20 -9 20 -5
0 -14 14 -21 30 -7 17 -16 30 -21 30 -5 0 -9 5 -9 11 0 18 -170 179 -170 161
0 -4 -4 -2 -8 3 -28 41 -202 103 -306 110 -28 2 -51 4 -51 5 0 4 -46 6 -50 2z"/>
</g>
</svg>
