<svg width="34" height="47" viewBox="0 0 34 47" fill="none" xmlns="http://www.w3.org/2000/svg">
<path d="M3.64645 34.3536C3.84171 34.5488 4.15829 34.5488 4.35355 34.3536L7.53553 31.1716C7.7308 30.9763 7.7308 30.6597 7.53553 30.4645C7.34027 30.2692 7.02369 30.2692 6.82843 30.4645L4 33.2929L1.17157 30.4645C0.976311 30.2692 0.659728 30.2692 0.464466 30.4645C0.269204 30.6597 0.269204 30.9763 0.464466 31.1716L3.64645 34.3536ZM3.5 0L3.5 34H4.5L4.5 0L3.5 0Z" fill="white"/>
<path d="M17.6464 46.3536C17.8417 46.5488 18.1583 46.5488 18.3536 46.3536L21.5355 43.1716C21.7308 42.9763 21.7308 42.6597 21.5355 42.4645C21.3403 42.2692 21.0237 42.2692 20.8284 42.4645L18 45.2929L15.1716 42.4645C14.9763 42.2692 14.6597 42.2692 14.4645 42.4645C14.2692 42.6597 14.2692 42.9763 14.4645 43.1716L17.6464 46.3536ZM17.5 13L17.5 46H18.5L18.5 13H17.5Z" fill="white"/>
<path d="M29.6464 34.3536C29.8417 34.5488 30.1583 34.5488 30.3536 34.3536L33.5355 31.1716C33.7308 30.9763 33.7308 30.6597 33.5355 30.4645C33.3403 30.2692 33.0237 30.2692 32.8284 30.4645L30 33.2929L27.1716 30.4645C26.9763 30.2692 26.6597 30.2692 26.4645 30.4645C26.2692 30.6597 26.2692 30.9763 26.4645 31.1716L29.6464 34.3536ZM29.5 1L29.5 34H30.5L30.5 1H29.5Z" fill="white"/>
</svg>
