<svg width="200" height="184" viewBox="0 0 200 184" fill="none" xmlns="http://www.w3.org/2000/svg">
<g opacity="0.504511">
<path opacity="0.504511" fill-rule="evenodd" clip-rule="evenodd" d="M185.178 132.647C187.662 151.226 127.428 163.344 75.5835 154.887C23.7389 146.43 -0.0449991 113.405 24.6944 95.8078C49.4338 78.2108 182.695 114.069 185.178 132.647Z" fill="#F2F2F2"/>
</g>
<g opacity="0.7">
<path opacity="0.7" fill-rule="evenodd" clip-rule="evenodd" d="M137.789 87.5055C141.479 87.314 146.042 89.4678 146.436 93.4787C146.722 96.3929 146.634 99.2987 147.076 102.209C147.43 104.534 148.178 106.767 149.199 108.885C150.181 110.922 152.217 112.656 152.746 114.832C153.084 116.219 152.895 118.17 152.429 119.526C151.863 121.175 152.164 121.045 153.292 122.428C155.502 125.14 157.492 127.921 158.9 131.159C160.927 135.824 162.256 141.277 161.503 146.383C161.408 147.032 161.294 149.359 160.401 149.521C159.404 149.703 159.87 148.372 159.924 147.943C160.263 145.2 160.564 142.802 160.155 140.016C158.576 129.267 150.865 122.185 145.844 113.062C145.568 112.592 144.985 111.472 144.58 110.733C143.94 109.566 143.297 107.346 142.431 106.48C140.801 104.851 142.3 108.127 142.618 108.753C143.019 109.544 143.461 110.385 143.873 111.078C145.757 114.292 147.859 117.801 149.805 121.114C141.391 123.031 135.465 112.915 133.207 106.264C131.346 100.785 129.12 87.9743 137.789 87.5055Z" fill="#69A1AC"/>
<path opacity="0.7" fill-rule="evenodd" clip-rule="evenodd" d="M187.244 77.3296C181.076 77.819 177.116 81.8892 175.273 87.5822C174.279 90.6501 174.165 93.8018 173.613 96.9546C172.783 101.698 170.996 105.293 167.503 108.672C166.422 109.719 165.624 110.793 165.058 111.943C163.933 113.091 162.954 114.39 162.234 115.978C161.315 118.006 161.055 120.44 162.116 122.462C162.402 123.005 163.113 124.096 163.851 124.592C161.089 130.473 159.571 136.914 159.742 143.347C159.846 147.23 160.035 151.115 160.256 154.993C160.316 156.035 160.655 157.754 161.164 156.008C161.631 154.41 161.046 151.903 160.992 150.234C160.729 142.104 160.504 134.712 163.85 127.116C164.201 126.32 164.573 125.53 164.961 124.747C164.984 124.734 165.005 124.718 165.026 124.702C165.041 124.714 165.054 124.726 165.069 124.737C165.094 124.693 165.128 124.64 165.167 124.582C165.279 124.467 165.376 124.322 165.468 124.16C165.765 123.749 166.101 123.266 166.102 123.001C166.102 122.999 166.101 122.996 166.101 122.994C168.173 119.612 170.546 116.416 172.97 113.283C172.952 113.306 175.599 109.701 175.19 111.695C174.992 112.655 173.045 114.485 172.259 115.502C170.519 117.766 168.476 120.634 166.778 123.408C166.55 123.539 166.227 124.183 165.994 124.664C165.865 124.907 165.745 125.152 165.626 125.366C171.642 127.353 176.321 123.35 179.512 118.694C179.516 118.688 179.519 118.682 179.523 118.677C180.494 117.39 181.488 116.113 182.731 115.096C184.804 113.399 187.024 113.099 189.469 112.264C196.135 109.986 198.969 101.347 199.869 94.9374C200.884 87.7057 195.917 76.6166 187.244 77.3296Z" fill="#89C5CC"/>
<path opacity="0.7" fill-rule="evenodd" clip-rule="evenodd" d="M175.06 57.0785C168.729 63.6673 165.671 72.8062 163.249 81.3977C160.544 90.9935 158.757 100.737 158.689 110.714C158.644 117.269 158.465 123.864 158.848 130.412C158.984 132.737 159.216 135.066 159.584 137.366C159.614 137.555 160.439 142.691 161.228 141.494C161.677 140.814 160.383 136.167 160.285 135.393C159.735 131.033 159.607 126.641 159.634 122.25C159.678 115.02 159.465 107.827 160.198 100.624C160.307 99.5486 160.393 98.419 160.649 97.3669C160.92 96.2484 160.575 96.7366 161.458 96.2938C162.317 95.8633 163.377 95.9248 164.268 95.3848C167.801 93.2423 169.609 87.7392 171.015 84.1284C172.624 79.9993 173.602 75.5962 174.383 71.2509C174.957 68.0583 175.367 64.8851 175.599 61.6513C175.672 60.6322 175.676 59.5664 175.876 58.5643C175.93 58.294 176.201 57.8158 176.191 57.5764C176.17 57.0698 175.865 56.7718 175.84 56.3461C175.575 56.5846 175.314 56.8289 175.06 57.0785Z" fill="#89C5CC"/>
<path opacity="0.7" fill-rule="evenodd" clip-rule="evenodd" d="M140.54 144.864C140.54 155.761 149.373 164.594 160.27 164.594C171.166 164.594 180 155.761 180 144.864" fill="#89C5CC"/>
<path opacity="0.7" fill-rule="evenodd" clip-rule="evenodd" d="M161.853 144.927H160.81C160.883 143.62 160.978 142.314 161.197 141.02C162.033 136.074 164.648 128.808 170.383 128.005C170.595 127.975 171.373 127.97 172.316 128.026C172.763 127.776 173.263 127.625 173.791 127.59C178.674 127.23 184.127 131.17 186.482 135.269C188.381 138.574 188.061 142.915 186.888 146.426C186.103 148.777 184.389 152.129 181.53 152.162C177.954 152.203 177.782 147.783 177.713 145.199C177.621 141.763 177.187 138.771 174.48 136.429C173.849 135.884 173.159 135.404 172.522 134.866C171.524 134.024 170.422 133.162 170.293 131.769C170.116 129.847 171.2 129.502 172.857 129.859C173.139 129.919 175.983 131.195 175.562 130.187C175.433 129.879 174.964 129.634 174.371 129.451C172.837 129.285 171.009 129.091 170.483 129.207C164.808 130.452 162.599 138.312 162.012 143.306C161.949 143.845 161.897 144.386 161.853 144.927Z" fill="#69A1AC"/>
</g>
<g opacity="0.5">
<path opacity="0.5" fill-rule="evenodd" clip-rule="evenodd" d="M48.2229 68.5768C49.1873 67.2017 50.977 63.7092 52.3345 63.2178C53.2088 62.9013 52.9539 66.1752 52.9647 66.7995C53.0067 69.2147 52.7716 71.6146 52.4812 74.0095C51.9581 78.3288 50.2475 82.1754 47.9014 85.8515C46.6941 87.7431 45.278 89.6576 43.3167 90.8379C42.4139 91.3814 41.3277 91.4724 40.4361 91.9407C39.3977 92.4859 39.9632 92.0452 39.4953 93.1272C38.8454 94.6294 38.6376 96.5675 38.3369 98.1704C36.9564 105.529 33.6141 144.427 34.1935 151.912C34.245 152.575 33.3199 152.734 33.2737 151.924C33.0283 147.63 35.1522 117.891 36.2238 108.166C37.2954 98.441 38.3797 89.8492 39.467 86.4846C40.7861 82.4026 43.1684 77.4937 45.1515 73.6871C46.0726 71.9186 47.0767 70.211 48.2229 68.5768Z" fill="#69A1AC"/>
<path opacity="0.5" fill-rule="evenodd" clip-rule="evenodd" d="M55.3813 116.275C57.8909 114.432 60.6073 117.91 58.3364 119.752C57.081 120.771 55.7685 120.408 55.0296 119.56C54.55 120.144 54.101 120.756 53.6697 121.272C52.3554 122.845 51.1132 124.456 49.926 126.105C47.4598 129.53 45.3463 133.148 43.1366 136.7C40.9558 140.206 38.7924 143.73 36.8158 147.325C35.1413 150.37 32.9095 153.953 32.3362 157.292C33.206 150.211 36.5066 143.405 40.4371 137.162C44.3356 130.971 48.8095 124.21 54.8458 119.324C54.2315 118.42 54.2144 117.131 55.3813 116.275Z" fill="#C1DEE2"/>
<path opacity="0.5" fill-rule="evenodd" clip-rule="evenodd" d="M7.75964 99.0051C9.16401 99.2798 11.4587 102.457 12.6164 103.667C13.9921 105.106 15.2403 106.639 16.4168 108.245C18.9496 111.703 21.2148 115.379 23.1409 119.212C26.2811 125.462 28.7968 131.877 30.6225 138.683C31.7401 142.849 32.4637 147.166 32.8925 151.454C32.9735 152.263 33.8213 158.497 32.5997 158.665C31.501 158.816 31.8403 153.931 31.7873 153.267C31.1882 145.77 29.3933 138.476 26.8966 131.41C26.3528 129.87 25.8476 127.985 24.9779 126.6C24.3516 125.602 24.9734 125.95 23.8728 125.572C22.9277 125.248 21.851 125.327 20.8832 124.93C18.7808 124.068 17.0974 122.394 15.6218 120.711C12.7542 117.439 10.4817 113.899 9.29716 109.707C8.64006 107.382 8.03622 105.044 7.70113 102.648C7.61444 102.028 6.85509 98.8282 7.75964 99.0051Z" fill="#69A1AC"/>
<path opacity="0.5" fill-rule="evenodd" clip-rule="evenodd" d="M13.3018 46.1478C18.5918 55.322 22.9389 65.3996 25.7458 75.6066C27.4465 81.7909 28.6358 88.137 29.8175 94.4372C31.6471 104.192 33.3778 113.947 33.8701 123.875C34.3653 133.861 35.3447 145.378 32.0748 154.996C33.7081 145.231 32.1531 134.838 31.8778 125.012C31.7462 120.322 31.3649 115.677 30.8648 111.014C30.3794 106.49 29.5865 101.988 28.8481 97.5004C28.4884 95.3147 28.1106 93.1323 27.726 90.9511C27.6112 90.3003 27.5627 88.3693 27.1499 87.9247C26.7344 87.4772 24.6146 87.2948 23.949 86.9664C22.6089 86.3051 21.3483 85.3657 20.2326 84.3732C18.0939 82.4705 16.2333 79.9843 14.7648 77.5336C11.367 71.8629 10.0085 64.9426 10.0772 58.3752C10.0904 57.1001 12.141 43.3695 11.3174 43.1804C11.367 43.1223 11.4139 43.0624 11.4581 43C12.0817 44.0439 12.6935 45.095 13.3018 46.1478Z" fill="#89C5CC"/>
<path opacity="0.5" fill-rule="evenodd" clip-rule="evenodd" d="M70.398 79.2349C70.4796 79.1172 71.0108 78.2984 70.7433 78.3507C71.288 78.2442 69.9942 79.2538 71.3513 78.6343C70.7069 79.2429 71.0788 80.0334 71.0874 80.8525C71.1014 82.1822 70.879 83.5011 70.6285 84.8024C70.2327 86.8593 69.6432 88.8592 68.7874 90.7723C66.9223 94.9416 63.7552 98.9552 59.9952 101.562C58.139 102.849 56.3199 103.287 54.2029 103.879C52.8658 104.254 52.7597 104.945 52.0499 106.243C50.5722 108.945 49.1209 111.638 47.8177 114.432C46.2616 117.768 44.751 121.108 43.326 124.503C38.5257 135.938 34.6186 147.785 32.5668 160.045C32.5165 152.82 34.1879 145.379 36.2962 138.492C37.832 133.475 39.8313 128.638 41.9637 123.85C42.4804 122.69 43.2635 121.198 43.4829 119.918C43.6366 119.021 43.1668 118.158 42.9518 117.213C42.1132 113.532 42.1733 109.409 42.9096 105.708C43.7215 101.628 46.0693 99.7343 50.041 99.1563C51.4936 98.9449 53.3398 99.0224 54.6717 98.4031C56.1228 97.7286 56.7214 95.5118 57.5465 94.0887C59.7628 90.2661 62.3961 86.6 65.4199 83.3791C66.2571 82.4872 67.1575 81.6644 68.1127 80.9017C68.715 80.4205 69.9875 79.8277 70.398 79.2349Z" fill="#89C5CC"/>
<path opacity="0.5" fill-rule="evenodd" clip-rule="evenodd" d="M25.8623 152.242H39.9575C40.5913 152.242 41.105 152.756 41.105 153.39C41.105 153.446 41.1009 153.502 41.0927 153.557L40.0033 160.944C39.6712 163.196 37.7388 164.865 35.4624 164.865H30.3574C28.081 164.865 26.1486 163.196 25.8165 160.944L24.727 153.557C24.6346 152.93 25.0679 152.347 25.6948 152.254C25.7503 152.246 25.8062 152.242 25.8623 152.242Z" fill="#C1DEE2"/>
</g>
<path fill-rule="evenodd" clip-rule="evenodd" d="M58.0957 104.129C57.1092 102.915 56.4416 101.428 56.5531 99.7622C56.8746 94.9615 63.2522 96.0176 64.4927 98.4406C65.7333 100.864 65.5859 107.01 63.9826 107.443C63.3432 107.615 61.981 107.192 60.5947 106.317L61.4649 112.767H56.3269L58.0957 104.129Z" fill="#EACDB3"/>
<path fill-rule="evenodd" clip-rule="evenodd" d="M66.769 95.0817C66.6626 94.6898 66.3764 94.3543 65.9907 94.2547C65.8972 94.2306 65.8006 94.2208 65.7044 94.2249C65.6698 94.2263 65.6602 94.2368 65.644 94.2115C65.6321 94.1927 65.6318 94.1469 65.6269 94.1249C65.6115 94.0563 65.5924 93.9887 65.5687 93.9227C65.488 93.6979 65.3524 93.4989 65.1889 93.3312C64.8832 93.0176 64.47 92.8012 64.0407 92.762C63.8058 92.7406 63.5726 92.7806 63.3504 92.8607C63.2355 92.9022 63.124 92.9538 63.0154 93.0108C62.9827 93.028 62.8766 93.1122 62.8438 93.1067C62.8075 93.1007 62.7347 93.0063 62.7052 92.9826C62.341 92.6898 61.8912 92.5747 61.4375 92.5782C60.9254 92.5822 60.4323 92.609 60.0052 92.9361C59.9148 93.0053 59.8287 93.0812 59.7467 93.161C59.7036 93.203 59.6617 93.2466 59.6219 93.292C59.5978 93.3194 59.5744 93.3475 59.5518 93.3762C59.5135 93.4251 59.5197 93.4411 59.4661 93.407C59.2606 93.2762 59.0224 93.215 58.7825 93.2459C58.64 93.2642 58.5014 93.3091 58.3698 93.368C58.325 93.3881 58.2213 93.4682 58.1735 93.469C58.1262 93.4698 58.0239 93.3955 57.9751 93.3767C57.7115 93.2747 57.4274 93.2496 57.1504 93.2967C56.8646 93.3453 56.5838 93.4648 56.3417 93.6299C56.2252 93.7093 56.1236 93.7973 56.042 93.9154C56.0068 93.9664 55.9749 94.0203 55.935 94.0676C55.9116 94.0952 55.8653 94.1236 55.8527 94.1587C55.8603 94.1377 55.5402 94.0084 55.51 94.0001C55.3491 93.9561 55.1853 93.965 55.0277 94.0194C54.7314 94.1215 54.4766 94.3506 54.2672 94.5855C54.1597 94.7062 54.0656 94.8396 53.9857 94.9817C53.9474 95.0497 53.9124 95.1197 53.8803 95.1912C53.8648 95.2258 53.8545 95.2692 53.8341 95.3004C53.8077 95.3406 53.79 95.3413 53.7423 95.3589C53.4998 95.4479 53.2787 95.5985 53.1104 95.8021C52.9402 96.0081 52.8297 96.2617 52.7834 96.5288C52.7806 96.5446 52.779 96.6098 52.7702 96.6183C52.7582 96.63 52.7094 96.6248 52.691 96.6271C52.6271 96.6349 52.5637 96.6466 52.5011 96.6622C52.3857 96.6908 52.2735 96.7329 52.1672 96.7879C51.7532 97.0026 51.4571 97.405 51.3122 97.8578C51.1602 98.3331 51.1628 98.8775 51.3446 99.3439C51.3739 99.4192 51.4089 99.4923 51.4499 99.5615C51.4751 99.6039 51.4832 99.604 51.4669 99.6486C51.4486 99.6981 51.4153 99.7463 51.3937 99.7947C51.323 99.9527 51.2736 100.12 51.2425 100.292C51.1913 100.572 51.1659 100.867 51.2164 101.15C51.2398 101.282 51.2807 101.41 51.343 101.527C51.3748 101.587 51.4119 101.643 51.4539 101.696C51.4757 101.723 51.4988 101.749 51.523 101.774C51.5369 101.788 51.555 101.8 51.5668 101.816C51.5955 101.855 51.6016 101.823 51.5868 101.88C51.5661 101.959 51.5191 102.038 51.4903 102.115C51.4607 102.195 51.4339 102.275 51.4094 102.357C51.3598 102.522 51.3178 102.69 51.2916 102.861C51.2412 103.189 51.25 103.539 51.3982 103.84C51.4616 103.969 51.5525 104.082 51.6627 104.17C51.7166 104.213 51.7751 104.25 51.8364 104.281C51.8679 104.296 51.9081 104.303 51.9225 104.335C51.938 104.369 51.915 104.437 51.9098 104.476C51.8642 104.81 51.8414 105.16 51.9361 105.487C52.0233 105.789 52.2154 106.055 52.4647 106.231C52.9485 106.573 53.6005 106.553 54.1088 106.28C54.2413 106.209 54.3653 106.12 54.4758 106.016C54.7574 106.413 55.3368 106.4 55.7483 106.287C56.261 106.146 56.6724 105.772 56.9094 105.282C57.2335 105.695 57.9137 105.561 58.1385 105.112C58.1935 105.003 58.2261 104.882 58.2422 104.759C58.2506 104.695 58.2452 104.63 58.2516 104.566C58.2597 104.485 58.3116 104.406 58.3414 104.327C58.3995 104.174 58.4355 104.015 58.4371 103.85C58.4379 103.764 58.4274 103.68 58.4196 103.594C58.4126 103.517 58.433 103.445 58.4445 103.369C58.3131 103.392 58.1529 103.355 58.029 103.315C57.9074 103.276 57.7936 103.172 57.7077 103.078C57.5085 102.859 57.3868 102.572 57.3036 102.286C57.1208 101.659 57.1957 100.907 57.7976 100.563C58.078 100.403 58.9181 100.403 59.252 100.482C59.6032 100.566 60.0013 101.378 60.0208 101.454C60.033 101.501 60.0269 101.56 60.0683 101.591C60.1593 101.66 60.3094 101.54 60.3765 101.481C60.4923 101.379 60.5749 101.242 60.6465 101.105C60.8024 100.804 60.9281 100.482 61.0168 100.153C61.0853 99.8991 61.1291 99.6375 61.2185 99.3903C61.3075 99.1444 61.4479 98.9245 61.6661 98.7852C61.9034 98.6336 62.1755 98.5538 62.4361 98.4585C62.6944 98.3641 62.9482 98.2487 63.1485 98.0484C63.1925 98.0044 63.2352 97.9576 63.2707 97.9057C63.2986 97.8648 63.3263 97.7864 63.3689 97.7605C63.4352 97.7201 63.5319 97.8251 63.5892 97.8632C63.8718 98.0513 64.1077 98.3137 64.2979 98.6003C64.4871 98.8854 64.6423 99.1597 64.7684 99.478C64.8619 99.7141 64.9203 100.016 65.0849 100.21C65.1583 100.296 65.7044 100.349 65.8812 100.273C66.0581 100.198 66.2563 100.002 66.3157 99.8791C66.3764 99.7535 66.391 99.6155 66.365 99.478C66.3497 99.3971 66.3185 99.3215 66.3015 99.2421C66.2871 99.1753 66.2741 99.1122 66.2431 99.0511C66.1843 98.9352 66.0839 98.8519 65.9628 98.8171C66.0888 98.6953 66.1932 98.5497 66.2655 98.3869C66.3405 98.2178 66.4041 98.0121 66.4222 97.8265C66.4369 97.6757 66.4142 97.5195 66.3355 97.39C66.2528 97.2541 66.1065 97.1654 65.9798 97.0806C66.1733 96.922 66.3388 96.7291 66.475 96.5156C66.7397 96.1003 66.9034 95.5768 66.769 95.0817Z" fill="url(#paint0_linear)"/>
<path fill-rule="evenodd" clip-rule="evenodd" d="M41.9834 140.809H66.6029C68.4947 140.809 70.0282 142.416 70.0282 144.398V165.036C70.0282 167.018 68.4947 168.625 66.6029 168.625H41.9834C40.0917 168.625 38.5581 167.018 38.5581 165.036V144.398C38.5581 142.416 40.0917 140.809 41.9834 140.809ZM45.4087 147.09C44.9358 147.09 44.5524 147.491 44.5524 147.987V161.446C44.5524 161.942 44.9358 162.344 45.4087 162.344H63.1776C63.6505 162.344 64.0339 161.942 64.0339 161.446V147.987C64.0339 147.491 63.6505 147.09 63.1776 147.09H45.4087Z" fill="#C5CFD6"/>
<path fill-rule="evenodd" clip-rule="evenodd" d="M85.3372 167.875C82.5942 161.514 80.6105 155.975 79.8143 153.052C78.4509 148.048 77.4137 143.645 77.1516 142C76.5265 138.079 81.9603 137.851 82.6785 139.799C83.7656 142.749 85.6634 152.44 87.9437 167.079L85.3372 167.875ZM53.5201 147.911C56.0368 146.869 64.8501 143.607 69.1008 142.684C70.3222 142.419 71.5061 142.173 72.6192 141.95C75.9276 141.288 77.6417 147.542 74.4553 148.023C66.5199 149.219 55.2701 150.455 54.3074 150.594C52.9581 150.788 51.9384 148.566 53.5201 147.911Z" fill="#EACDB3"/>
<path fill-rule="evenodd" clip-rule="evenodd" d="M74.6498 140.229L61.0369 132.967V131.387H62.6558C75.8257 134.903 82.5554 137.157 82.8452 138.147C82.8483 138.158 82.8511 138.169 82.8537 138.179C82.8604 138.188 82.8669 138.198 82.8733 138.207C85.4833 141.968 87.0464 160.331 87.5594 161.706L82.5581 162.487C80.645 155.054 74.5241 149.875 74.6867 140.972C74.6428 140.711 74.6317 140.463 74.6498 140.229Z" fill="#070D37"/>
<path fill-rule="evenodd" clip-rule="evenodd" d="M62.1678 144.541C60.9223 144.28 59.7753 144.047 58.7938 143.866C52.4541 142.701 50.6054 139.145 51.6984 131.387L63.3792 131.387C65.2873 131.961 75.2035 136.318 80.3484 138.636C83.7536 140.17 82.6802 145.7 80.7518 147.139C80.7414 147.227 80.7067 147.287 80.6449 147.314C70.2716 151.819 62.0654 149.455 59.3241 150.21L58.0561 146.019L62.1678 144.541Z" fill="#0A114B"/>
<path fill-rule="evenodd" clip-rule="evenodd" d="M54.4257 147.258C53.7378 147.335 53.2488 147.447 52.9588 147.597C52.606 147.779 52.1191 148.104 51.498 148.573C51.692 148.993 53.4348 152.768 56.7267 159.896C57.8104 159.702 58.2437 159.269 58.0266 158.596C57.8094 157.923 57.6344 157.361 57.5017 156.91L57.3576 150.47C57.3549 150.346 57.2557 150.25 57.1362 150.256C57.1342 150.256 57.1321 150.256 57.1301 150.256L56.1742 150.33C55.6364 149.88 55.2828 149.472 55.1134 149.105C54.9757 148.807 54.9029 148.335 54.895 147.689L54.895 147.689C54.892 147.441 54.6957 147.247 54.4566 147.256C54.4463 147.256 54.436 147.257 54.4257 147.258Z" fill="#8F6E5D"/>
<path fill-rule="evenodd" clip-rule="evenodd" d="M84.0888 166.696C83.8492 167.366 83.7295 167.867 83.7295 168.199C83.7295 168.604 83.7938 169.194 83.9224 169.97C84.3703 169.97 88.3952 169.97 95.9971 169.97C96.3109 168.883 96.1297 168.297 95.4537 168.21C94.7776 168.123 94.2161 168.045 93.7689 167.975L88.1567 165.353C88.0487 165.303 87.9222 165.354 87.874 165.467C87.8732 165.469 87.8724 165.471 87.8716 165.473L87.5109 166.39C86.885 166.696 86.3765 166.849 85.9852 166.849C85.6673 166.849 85.2283 166.714 84.6681 166.445L84.6681 166.445C84.4532 166.342 84.199 166.441 84.1005 166.666C84.0962 166.676 84.0923 166.686 84.0888 166.696Z" fill="#8F6E5D"/>
<path fill-rule="evenodd" clip-rule="evenodd" d="M73.4632 127.824L79.5277 134.023C81.2923 134.812 82.7381 135.683 83.8651 136.636C84.1186 136.956 84.3945 137.57 83.202 137.296C82.0095 137.021 80.7434 136.788 80.5193 137.194C80.2951 137.601 80.9555 138.224 80.5413 138.755C80.2652 139.11 79.3365 137.982 77.7553 135.372L71.449 131.476L73.4632 127.824ZM46.5452 128.698L51.019 128.717C48.2567 138.061 46.7654 143.019 46.5452 143.59C46.0499 144.877 47.0981 146.836 47.5464 147.889C46.0864 148.573 46.2419 146.038 44.4001 146.936C42.719 147.756 41.4402 149.24 39.4979 147.985C39.2591 147.83 38.9974 147.249 39.6297 146.795C41.2048 145.663 43.4747 143.682 43.7814 143.03C44.1997 142.141 45.1209 137.364 46.5452 128.698Z" fill="#EACDB3"/>
<path fill-rule="evenodd" clip-rule="evenodd" d="M59.2592 109.028L61.1103 108.695C64.2975 117.038 69.862 124.618 77.8037 131.436L71.8025 139.076C63.8617 129.368 58.967 119.352 59.2592 109.028Z" fill="url(#paint1_linear)"/>
<path fill-rule="evenodd" clip-rule="evenodd" d="M51.189 133.405H67.6733C63.8543 123.675 61.9448 115.409 61.9448 108.608L56.9722 107.832C53.0643 114.418 51.9607 122.526 51.189 133.405Z" fill="#DDE3E9"/>
<path fill-rule="evenodd" clip-rule="evenodd" d="M56.8672 107.836C56.8678 107.834 56.8685 107.833 56.8691 107.832H57.1937C57.5821 107.846 58.1737 107.871 58.9684 107.908L60.17 111.506C60.2971 115.893 61.0393 124.733 62.3966 138.027H51.5908C51.6191 138.946 51.6658 139.872 51.7309 140.808H43.6963C44.8981 126.6 49.2871 115.608 56.8632 107.832L56.8672 107.836V107.836Z" fill="url(#paint2_linear)"/>
<path fill-rule="evenodd" clip-rule="evenodd" d="M52.3046 126.279C52.6122 132.003 53.3821 135.949 54.6145 138.116H51.5936C51.4614 133.998 51.6984 130.053 52.3046 126.279V126.279Z" fill="black" fill-opacity="0.1"/>
<path fill-rule="evenodd" clip-rule="evenodd" d="M53.9961 131.162L59.3244 128.566V131.162H53.9961Z" fill="white" fill-opacity="0.2"/>
<path d="M76.8187 91.3951C77.3123 92.6334 76.5183 93.7092 75.8967 94.3442C75.35 94.9026 74.6424 95.4232 74.0115 95.8604C76.1775 95.6485 79.9588 95.1211 83.8402 94.4689C86.2646 94.0615 88.7026 93.6098 90.7727 93.1644C92.8656 92.714 94.5149 92.2839 95.4046 91.9293C99.9352 90.1232 103.652 87.6526 106.007 85.1612C108.425 82.603 109.152 80.3264 108.526 78.7556C107.9 77.1849 105.806 76.0332 102.291 75.84C98.8677 75.6519 94.4709 76.4154 89.9402 78.2215C85.4096 80.0275 81.6933 82.4981 79.3383 84.9896C76.9202 87.5478 76.1926 89.8243 76.8187 91.3951Z" fill="#FFFDFD" fill-opacity="0.6" stroke="#C4C4C4" stroke-width="2"/>
<path d="M122.864 103.834C122.624 104.46 122.726 105.067 122.96 105.566C123.184 106.043 123.542 106.46 123.908 106.811C124.491 107.368 125.238 107.89 125.909 108.331C123.626 108.105 119.655 107.556 115.58 106.882C110.424 106.029 105.322 105.011 103.366 104.261C98.5508 102.415 94.5663 99.9011 92.0092 97.3696C90.7295 96.1028 89.842 94.8659 89.3672 93.7425C88.8951 92.6254 88.8528 91.6815 89.1491 90.9087C89.4454 90.1358 90.1078 89.4621 91.2057 88.9469C92.3099 88.4288 93.7967 88.1022 95.5953 88.0155C99.1893 87.8422 103.833 88.6362 108.648 90.482C113.463 92.3279 117.447 94.8418 120.004 97.3733C121.284 98.6401 122.172 99.877 122.646 101C123.119 102.118 123.161 103.061 122.864 103.834Z" fill="#FFFDFD" fill-opacity="0.6" stroke="#C4C4C4" stroke-width="2"/>
<path opacity="0.9" fill-rule="evenodd" clip-rule="evenodd" d="M141.939 106.434C143.038 105.243 143.619 103.662 143.556 102.041C143.218 97.2087 136.51 98.2722 135.204 100.711C133.898 103.151 134.057 109.352 135.741 109.771C136.403 109.944 137.849 109.518 139.307 108.641L138.392 115.135H143.795L141.939 106.434Z" fill="#F2E2D4"/>
<path fill-rule="evenodd" clip-rule="evenodd" d="M138.334 97.8455C139.051 97.7256 140.99 97.6456 141.322 97.6456C141.547 97.6456 141.793 97.6989 141.932 97.4856C142.072 97.2724 141.999 97.0258 142.032 96.8191C142.065 96.6125 142.125 96.3593 142.178 96.1527C142.332 95.5084 142.576 94.8892 142.902 94.3132C143.5 93.2374 144.433 92.3877 145.557 91.8938C146.841 91.3794 148.231 91.1873 149.606 91.334C151.022 91.5184 152.41 91.872 153.742 92.387C155.04 92.8362 156.425 92.9709 157.785 92.7803C159.159 92.567 160.201 91.8139 161.363 91.1074C162.54 90.3249 163.936 89.9396 165.346 90.0077C166.645 90.1482 167.886 90.6209 168.951 91.3806C169.98 92.0106 170.792 92.9406 171.281 94.0466C171.56 94.6354 171.677 95.2888 171.618 95.9384C171.56 96.5879 171.329 97.2098 170.949 97.7389C169.741 99.3251 167.484 99.7383 165.638 99.6917C164.558 99.6672 163.489 99.4691 162.472 99.1052C161.154 98.5444 159.879 97.8896 158.655 97.1457C158.059 96.8349 157.434 96.5848 156.789 96.3993C156.497 96.2791 156.181 96.2275 155.866 96.2483C155.551 96.2691 155.244 96.3617 154.97 96.5192C154.403 96.9454 153.785 97.2991 153.131 97.5723C152.472 97.8223 151.772 97.9488 151.067 97.9455C149.694 97.8398 148.335 97.5965 147.011 97.219C145.919 96.9103 144.776 96.8287 143.652 96.9791C143.194 97.0724 142.517 97.2657 142.324 97.7456C145.132 98.2587 146.234 101.744 145.444 104.304C145.019 105.69 142.45 107.303 141.461 106.576C140.797 106.117 141.216 105.51 141.461 105.117C141.939 104.35 142.125 103.371 141.222 102.837C140.459 102.378 139.662 103.471 139.642 103.464C138.39 102.862 137.281 101.999 136.389 100.931C135.161 101.005 134.975 100.192 135.268 99.5251C135.56 98.8586 137.352 97.9855 138.334 97.8455Z" fill="#191847"/>
<path fill-rule="evenodd" clip-rule="evenodd" d="M118.286 139.534C116.776 137.487 113.002 138.842 113.005 140.537C113.011 144.988 117.072 166.116 117.284 167.45C117.496 168.784 119.768 169.221 119.9 167.554C120.111 164.902 120.502 155.708 120.11 151.431C119.996 150.181 119.876 148.974 119.754 147.842C121.889 151.677 125.135 157.097 129.492 164.102L131.913 162.996C130.012 156.73 128.452 152.307 127.235 149.726C125.152 145.307 123.198 141.522 122.375 140.189C121.289 138.429 119.527 138.662 118.286 139.534Z" fill="#B28B67"/>
<path fill-rule="evenodd" clip-rule="evenodd" d="M131.74 159.517L123.429 139.827C121.438 136.624 115.855 140.479 116.534 142.337C118.076 146.554 125.916 160.209 126.375 161.465L131.74 159.517Z" fill="url(#paint3_linear)"/>
<path fill-rule="evenodd" clip-rule="evenodd" d="M112.794 142.075C112.794 147.656 115.241 160.775 115.242 162.003L121.168 161.804C120.132 150.398 119.696 144.656 119.858 144.579C120.223 144.405 134.818 146.599 139.195 146.765C145.508 147.003 148.119 143.131 148.331 135.782H136.104C125.649 137.03 118.777 137.898 115.489 138.386C113.378 138.7 112.794 140.538 112.794 142.075Z" fill="url(#paint4_linear)"/>
<g opacity="0.9">
<path fill-rule="evenodd" clip-rule="evenodd" d="M132.241 162.379C132.621 162.932 132.849 163.359 132.925 163.662C133.016 164.03 133.089 164.582 133.142 165.318C132.716 165.425 128.88 166.381 121.635 168.188C121.089 167.273 121.129 166.697 121.753 166.457C122.378 166.218 122.896 166.013 123.306 165.843L128.06 162.125C128.151 162.054 128.284 162.07 128.355 162.161C128.356 162.163 128.358 162.165 128.359 162.166L128.911 162.914C129.576 163.044 130.096 163.062 130.469 162.969C130.772 162.894 131.159 162.667 131.632 162.289L131.632 162.289C131.814 162.144 132.078 162.174 132.223 162.355C132.23 162.363 132.236 162.371 132.241 162.379Z" fill="url(#paint5_linear)"/>
</g>
<g opacity="0.9">
<path fill-rule="evenodd" clip-rule="evenodd" d="M120.222 164.411C120.457 165.039 120.574 165.509 120.574 165.821C120.574 166.2 120.511 166.753 120.385 167.481C119.945 167.481 115.992 167.481 108.525 167.481C108.217 166.462 108.395 165.912 109.059 165.831C109.723 165.749 110.274 165.676 110.714 165.61L116.226 163.153C116.332 163.106 116.456 163.153 116.504 163.259C116.504 163.261 116.505 163.263 116.506 163.265L116.86 164.124C117.475 164.411 117.975 164.555 118.359 164.555C118.671 164.555 119.102 164.429 119.653 164.176L119.653 164.176C119.864 164.08 120.113 164.172 120.21 164.383C120.214 164.392 120.218 164.402 120.222 164.411Z" fill="url(#paint6_linear)"/>
</g>
<path d="M109.955 167.481H119.628C120.035 167.481 120.364 167.811 120.364 168.217C120.364 168.624 120.035 168.953 119.628 168.953H109.955C109.549 168.953 109.219 168.624 109.219 168.217C109.219 167.811 109.549 167.481 109.955 167.481Z" fill="#2F3676"/>
<path fill-rule="evenodd" clip-rule="evenodd" d="M148.962 136.991H126.462C125.301 136.991 124.36 137.933 124.36 139.094V149.397H150.223C150.688 149.397 151.064 149.021 151.064 148.556V139.094C151.064 137.933 150.123 136.991 148.962 136.991Z" fill="url(#paint7_linear)"/>
<path fill-rule="evenodd" clip-rule="evenodd" d="M126.462 136.991H126.001C124.971 136.991 124.093 137.737 123.926 138.753L119.313 166.85H121.56" fill="url(#paint8_linear)"/>
<path d="M120.364 171.055C118.274 171.055 116.579 169.361 116.579 167.27C116.579 165.18 118.274 163.485 120.364 163.485C122.455 163.485 124.149 165.18 124.149 167.27C124.149 169.361 122.455 171.055 120.364 171.055Z" fill="#191847"/>
<path fill-rule="evenodd" clip-rule="evenodd" d="M148.331 170.636C157.157 170.636 164.312 163.481 164.312 154.655C164.312 145.829 157.157 138.674 148.331 138.674C139.505 138.674 132.35 145.829 132.35 154.655C132.35 163.481 139.505 170.636 148.331 170.636ZM148.331 167.692C141.13 167.692 135.294 161.855 135.294 154.655C135.294 147.455 141.13 141.618 148.331 141.618C155.531 141.618 161.368 147.455 161.368 154.655C161.368 161.855 155.531 167.692 148.331 167.692Z" fill="url(#paint9_linear)"/>
<path d="M147.49 140.776H149.172V168.533H147.49V140.776Z" fill="url(#paint10_linear)"/>
<path d="M138.22 145.139L138.815 144.544C138.979 144.38 139.245 144.38 139.41 144.544L158.442 163.576C158.606 163.741 158.606 164.007 158.442 164.171L157.847 164.766C157.683 164.93 157.416 164.93 157.252 164.766L138.22 145.734C138.056 145.57 138.056 145.303 138.22 145.139Z" fill="url(#paint11_linear)"/>
<path d="M134.453 155.075V154.234C134.453 154.002 134.641 153.813 134.873 153.813H161.789C162.021 153.813 162.209 154.002 162.209 154.234V155.075C162.209 155.307 162.021 155.496 161.789 155.496H134.873C134.641 155.496 134.453 155.307 134.453 155.075Z" fill="url(#paint12_linear)"/>
<path d="M138.815 164.765L138.22 164.17C138.056 164.006 138.056 163.74 138.22 163.576L157.252 144.544C157.416 144.38 157.682 144.38 157.847 144.544L158.441 145.139C158.606 145.303 158.606 145.569 158.441 145.733L139.409 164.765C139.245 164.929 138.979 164.929 138.815 164.765Z" fill="url(#paint13_linear)"/>
<path opacity="0.9" fill-rule="evenodd" clip-rule="evenodd" d="M157.985 128.774L153.308 129.698C157.985 138.432 160.493 143.063 160.832 143.589C161.6 144.767 160.885 146.936 160.618 148.068C162.275 148.449 161.62 145.959 163.712 146.481C165.623 146.957 167.239 148.175 169.017 146.535C169.237 146.327 169.398 145.698 168.649 145.377C166.792 144.567 164.046 143.06 163.605 142.471C163.017 141.668 161.144 137.102 157.985 128.774ZM124.724 127.777L116.499 124.155C115.263 122.876 113.858 121.773 112.323 120.874C111.923 120.747 111.234 120.707 111.969 121.778C112.704 122.849 113.419 124.008 113.125 124.382C112.831 124.757 111.989 124.342 111.655 124.951C111.435 125.36 112.858 125.849 115.938 126.411L122.099 131.144L124.724 127.777Z" fill="#F4E5D9"/>
<path fill-rule="evenodd" clip-rule="evenodd" d="M140.802 111.413L138.842 111.081C134.576 115.206 132.843 125.109 129.997 126.424C127.331 127.666 123.498 126.464 118.965 124.843L117.579 127.932C121.692 132.369 130.463 136.115 134.016 133.976C139.695 130.555 141.008 118.334 140.802 111.413Z" fill="url(#paint14_linear)"/>
<path fill-rule="evenodd" clip-rule="evenodd" d="M149.2 135.946H131.989C131.201 135.946 131.327 134.813 131.466 134.237C132.79 127.613 137.9 120.485 137.9 111.052L142.865 110.271C146.976 116.882 148.386 125.016 149.2 135.946Z" fill="#DDE3E9"/>
<path fill-rule="evenodd" clip-rule="evenodd" d="M150.957 129.274C154.496 135.619 157.472 140.185 159.885 142.973L163.525 142.27C161.183 127.822 154.394 117.156 143.157 110.271H141.154C136.658 125.501 135.418 135.652 137.434 140.723H153.067C152.763 136.844 152.056 133.008 150.957 129.274Z" fill="url(#paint15_linear)"/>
<defs>
<linearGradient id="paint0_linear" x1="59.003" y1="92.5781" x2="59.003" y2="106.486" gradientUnits="userSpaceOnUse">
<stop stop-color="#CECFD1"/>
<stop offset="0.505208" stop-color="#9D9EA1"/>
</linearGradient>
<linearGradient id="paint1_linear" x1="69.431" y1="109.458" x2="66.7582" y2="138.614" gradientUnits="userSpaceOnUse">
<stop stop-color="#191847"/>
<stop offset="1" stop-color="#240749"/>
</linearGradient>
<linearGradient id="paint2_linear" x1="53.0465" y1="107.832" x2="53.0465" y2="140.808" gradientUnits="userSpaceOnUse">
<stop stop-color="#2F3676"/>
<stop offset="1" stop-color="#2E0662"/>
</linearGradient>
<linearGradient id="paint3_linear" x1="119.744" y1="138.857" x2="127.787" y2="160.956" gradientUnits="userSpaceOnUse">
<stop stop-color="#872F2A"/>
<stop offset="1" stop-color="#4F062E"/>
</linearGradient>
<linearGradient id="paint4_linear" x1="130.563" y1="135.782" x2="130.563" y2="162.003" gradientUnits="userSpaceOnUse">
<stop stop-color="#B23D37"/>
<stop offset="1" stop-color="#69093E"/>
</linearGradient>
<linearGradient id="paint5_linear" x1="126.358" y1="162.531" x2="127.409" y2="166.748" gradientUnits="userSpaceOnUse">
<stop stop-color="#26162B"/>
<stop offset="1" stop-color="#2F0718"/>
</linearGradient>
<linearGradient id="paint6_linear" x1="114.476" y1="163.135" x2="114.476" y2="167.481" gradientUnits="userSpaceOnUse">
<stop stop-color="#26162B"/>
<stop offset="1" stop-color="#2F0718"/>
</linearGradient>
<linearGradient id="paint7_linear" x1="137.712" y1="136.991" x2="137.712" y2="149.397" gradientUnits="userSpaceOnUse">
<stop stop-color="#4E4D79"/>
<stop offset="1" stop-color="#191847"/>
</linearGradient>
<linearGradient id="paint8_linear" x1="122.888" y1="136.991" x2="122.888" y2="166.85" gradientUnits="userSpaceOnUse">
<stop stop-color="#4E4D79"/>
<stop offset="1" stop-color="#191847"/>
</linearGradient>
<linearGradient id="paint9_linear" x1="148.331" y1="138.674" x2="148.331" y2="170.636" gradientUnits="userSpaceOnUse">
<stop stop-color="#4E4D79"/>
<stop offset="1" stop-color="#191847"/>
</linearGradient>
<linearGradient id="paint10_linear" x1="148.331" y1="140.776" x2="148.331" y2="168.533" gradientUnits="userSpaceOnUse">
<stop stop-color="#4E4D79"/>
<stop offset="1" stop-color="#191847"/>
</linearGradient>
<linearGradient id="paint11_linear" x1="138.518" y1="144.842" x2="158.144" y2="164.468" gradientUnits="userSpaceOnUse">
<stop stop-color="#4E4D79"/>
<stop offset="1" stop-color="#191847"/>
</linearGradient>
<linearGradient id="paint12_linear" x1="134.453" y1="154.655" x2="162.209" y2="154.655" gradientUnits="userSpaceOnUse">
<stop stop-color="#4E4D79"/>
<stop offset="1" stop-color="#191847"/>
</linearGradient>
<linearGradient id="paint13_linear" x1="138.517" y1="164.468" x2="158.144" y2="144.841" gradientUnits="userSpaceOnUse">
<stop stop-color="#4E4D79"/>
<stop offset="1" stop-color="#191847"/>
</linearGradient>
<linearGradient id="paint14_linear" x1="129.2" y1="111.081" x2="129.2" y2="134.595" gradientUnits="userSpaceOnUse">
<stop stop-color="#E28D09"/>
<stop offset="1" stop-color="#B9522A"/>
</linearGradient>
<linearGradient id="paint15_linear" x1="150.011" y1="110.271" x2="150.011" y2="142.973" gradientUnits="userSpaceOnUse">
<stop stop-color="#FDA403"/>
<stop offset="1" stop-color="#E76B33"/>
</linearGradient>
</defs>
</svg>
