<?xml version="1.0" encoding="UTF-8"?>
<svg width="329px" height="89px" viewBox="0 0 329 89" version="1.1" xmlns="http://www.w3.org/2000/svg" xmlns:xlink="http://www.w3.org/1999/xlink">
    <!-- Generator: Sketch 43.2 (39069) - http://www.bohemiancoding.com/sketch -->
    <title>circlestitle-big copy</title>
    <desc>Created with Sketch.</desc>
    <defs></defs>
    <g id="Page-1" stroke="none" stroke-width="1" fill="none" fill-rule="evenodd">
        <g id="circlestitle-big-copy" transform="translate(5.000000, 5.000000)" stroke-width="9">
            <path d="M167.382224,58.1674074 C167.382224,66.7111111 165.15852,72.0948148 161.881483,75.1377778 C158.604446,78.1807407 154.391113,79 150.645928,79 C146.783705,79 142.570372,78.1807407 139.293335,75.1377778 C136.016298,72.0948148 133.792594,66.7111111 133.792594,58.1674074 C133.792594,56.88 134.37778,56.2948148 135.665187,56.2948148 C136.952594,56.2948148 137.53778,56.88 137.53778,58.1674074 C137.53778,69.8711111 141.751113,75.3718519 150.645928,75.3718519 C159.189631,75.3718519 163.754076,69.8711111 163.754076,58.1674074 L163.754076,21.0666667 C163.754076,9.362963 159.072594,3.7451852 150.645928,3.7451852 C141.86815,3.7451852 137.53778,9.362963 137.53778,21.0666667 C137.53778,22.3540741 136.952594,22.9392593 135.665187,22.9392593 C134.37778,22.9392593 133.792594,22.3540741 133.792594,21.0666667 C133.792594,12.2888889 136.016298,7.2562963 139.293335,4.0962963 C142.570372,0.9362963 146.783705,0.117037 150.645928,0.117037 C154.391113,0.117037 158.604446,0.9362963 161.881483,4.0962963 C165.15852,7.2562963 167.382224,12.2888889 167.382224,21.0666667 L167.382224,58.1674074 Z" id="Path" stroke="#3CC1CA" fill="#3CC1CA" fill-rule="nonzero"></path>
            <path d="M-3.99680289e-15,10.1249106 C0.959621326,7.4678064 2.29750449,5.45009513 3.8814816,3.9792593 C7.1585186,0.9362963 11.3718519,0.117037 15.1170371,0.117037 C18.9792593,0.117037 23.1925927,0.9362963 26.4696297,3.9792593 C29.7466668,7.0222222 31.9703705,12.4059259 31.9703705,20.9496296 C31.9703705,22.237037 31.3851853,22.8222222 30.0977779,22.8222222 C28.8103705,22.8222222 28.2251853,22.237037 28.2251853,20.9496296 C28.2251853,9.2459259 24.0118519,3.7451852 15.1170371,3.7451852 C6.5733334,3.7451852 2.008889,9.2459259 2.008889,20.9496296 L2.008889,58.0503704 C2.008889,69.7540741 6.6903705,75.3718519 15.1170371,75.3718519 C23.8948149,75.3718519 28.2251853,69.7540741 28.2251853,58.0503704 C28.2251853,56.762963 28.8103705,56.1777778 30.0977779,56.1777778 C31.3851853,56.1777778 31.9703705,56.762963 31.9703705,58.0503704 C31.9703705,66.8281481 29.7466668,71.8607407 26.4696297,75.0207407 C23.1925927,78.1807407 18.9792593,79 15.1170371,79 C11.3718519,79 7.1585186,78.1807407 3.8814816,75.0207407 C2.29750449,73.4933342 0.959621326,71.5284274 3.33066907e-16,68.9145517 L0,10.1249106 Z" id="Combined-Shape" stroke="#F6EEE7" fill-opacity="0" fill="#000000"></path>
            <path d="M53.6222229,1.8725926 C53.6222229,0.9362963 54.4414821,0.117037 55.4948155,0.117037 C56.5481488,0.117037 57.3674081,0.9362963 57.3674081,1.8725926 L57.3674081,77.1274074 C57.3674081,78.4148148 56.7822229,79 55.4948155,79 C54.2074081,79 53.6222229,78.4148148 53.6222229,77.1274074 L53.6222229,1.8725926 Z" id="CIRCLES-path" stroke="#F6EEE7" fill-opacity="0" fill="#000000"></path>
            <path d="M111.906668,77.0103704 C111.906668,78.2977778 111.321483,78.882963 110.034075,78.882963 C109.097779,78.882963 108.27852,78.0637037 108.27852,77.0103704 L108.27852,56.997037 C108.27852,47.282963 102.894816,41.8992593 93.531853,41.8992593 L82.9985197,41.8992593 L82.9985197,77.0103704 C82.9985197,78.2977778 82.4133345,78.882963 81.1259271,78.882963 C80.1896308,78.882963 79.3703716,78.0637037 79.3703716,77.0103704 L79.3703716,1.7555556 C79.3703716,0.8192593 80.1896308,0 81.1259271,0 L93.531853,0 C106.054816,0 111.789631,6.437037 111.789631,20.8325926 C111.789631,27.9718519 110.385186,33.2385185 107.45926,36.6325926 C106.171853,38.1540741 104.650372,39.3244444 102.660742,40.1437037 C104.182223,40.962963 105.469631,41.7822222 106.757038,43.0696296 C110.151112,46.3466667 111.906668,51.0281481 111.906668,56.997037 L111.906668,77.0103704 Z" id="CIRCLES-path" stroke="#F6EEE7" fill-opacity="0" fill="#000000"></path>
            <path d="M82.9985197,3.6281481 L82.9985197,38.2711111 L93.531853,38.2711111 C103.714075,38.2711111 108.044446,33.4725926 108.044446,20.8325926 C108.044446,8.6607407 103.831112,3.6281481 93.531853,3.6281481 L82.9985197,3.6281481 Z" id="CIRCLES-path" stroke="#F6EEE7" fill-opacity="0" fill="#000000"></path>
            <path d="M189.385188,79 C188.09778,79 187.512595,78.4148148 187.512595,77.1274074 L187.512595,1.8725926 C187.512595,0.9362963 188.331854,0.117037 189.385188,0.117037 C190.321484,0.117037 191.140743,0.9362963 191.140743,1.8725926 L191.140743,75.3718519 L215.835558,75.3718519 C216.888891,75.3718519 217.70815,76.1911111 217.70815,77.1274074 C217.70815,78.4148148 217.122965,79 215.835558,79 L189.385188,79 Z" id="CIRCLES-path" stroke="#F6EEE7" fill-opacity="0" fill="#000000"></path>
            <path d="M240.413336,41.3140741 L240.413336,75.3718519 L263.235558,75.3718519 C264.288892,75.3718519 265.108151,76.1911111 265.108151,77.1274074 C265.108151,78.4148148 264.522966,79 263.235558,79 L238.657781,79 C237.370373,79 236.785188,78.4148148 236.785188,77.1274074 L236.785188,1.8725926 C236.785188,0.9362963 237.604447,0.117037 238.657781,0.117037 L263.235558,0.117037 C264.288892,0.117037 265.108151,0.9362963 265.108151,1.8725926 C265.108151,3.16 264.522966,3.7451852 263.235558,3.7451852 L240.413336,3.7451852 L240.413336,37.6859259 L263.235558,37.6859259 C264.522966,37.6859259 265.108151,38.2711111 265.108151,39.5585185 C265.108151,40.4948148 264.288892,41.3140741 263.235558,41.3140741 L240.413336,41.3140741 Z" id="CIRCLES-path" stroke="#F6EEE7" fill-opacity="0" fill="#000000"></path>
            <path d="M319,8.07603231 C316.308909,2.75592975 311.473857,0 304.549633,0 C293.665189,0 287.6963,9.1288889 287.6963,20.9496296 C287.6963,27.8548148 290.388152,32.3022222 293.665189,35.4622222 C296.825189,38.7392593 300.570374,40.3777778 302.911115,41.3140741 L304.900744,42.2503704 L308.528892,44.0059259 C310.050374,44.7081481 311.454818,45.6444444 312.859263,46.8148148 C315.551115,49.2725926 317.774818,53.0177778 317.774818,58.6355556 C317.774818,69.0518519 312.9763,75.2548148 304.549633,75.2548148 C301.740744,75.2548148 298.463707,74.7866667 295.888892,72.3288889 C293.314078,69.9881481 291.324448,65.6577778 291.324448,58.0503704 C291.324448,56.997037 290.505189,56.1777778 289.568892,56.1777778 C288.281485,56.1777778 287.6963,56.762963 287.6963,58.0503704 C287.6963,71.6266667 293.314078,78.882963 304.549633,78.882963 C310.050374,78.882963 314.263707,76.8933333 317.30667,72.9140741 C317.936734,72.0648571 318.502679,71.1451086 319.000001,70.1608318 L319,48.6468288 C317.987323,46.9066891 316.74835,45.4603955 315.434078,44.24 C312.15704,41.197037 308.294818,39.6755556 306.305189,38.7392593 L304.432596,37.92 C302.091855,36.9837037 298.931855,35.4622222 296.240003,32.8874074 C293.431115,30.3125926 291.324448,26.5674074 291.324448,20.9496296 C291.324448,10.7674074 296.240003,3.6281481 304.549633,3.6281481 C313.444448,3.6281481 317.774818,9.1288889 317.774818,20.9496296 C317.774818,21.6778575 318.290995,24.3066231 319,23.9608243 L319,8.07603231 Z" id="Combined-Shape" stroke="#F6EEE7" fill-opacity="0" fill="#000000"></path>
        </g>
    </g>
</svg>