<?xml version="1.0" encoding="UTF-8"?>
<svg width="1366px" height="4668px" viewBox="0 0 1366 4668" version="1.1" xmlns="http://www.w3.org/2000/svg" xmlns:xlink="http://www.w3.org/1999/xlink">
    <!-- Generator: Sketch 43.2 (39069) - http://www.bohemiancoding.com/sketch -->
    <title>home-background-clear</title>
    <desc>Created with Sketch.</desc>
    <defs>
        <rect id="path-1" x="0" y="0.11182" width="1366" height="4667.89"></rect>
        <linearGradient x1="100%" y1="92.2443517%" x2="-18.0263526%" y2="68.676668%" id="linearGradient-3">
            <stop stop-color="#660F33" offset="0%"></stop>
            <stop stop-color="#CC1E66" offset="100%"></stop>
        </linearGradient>
        <linearGradient x1="100%" y1="92.2419546%" x2="-18.0265124%" y2="68.6761138%" id="linearGradient-4">
            <stop stop-color="#660F33" offset="0%"></stop>
            <stop stop-color="#CC1E66" offset="100%"></stop>
        </linearGradient>
        <linearGradient x1="19.5583632%" y1="21.3443912%" x2="109.032258%" y2="63.8178705%" id="linearGradient-5">
            <stop stop-color="#FF8E00" offset="0%"></stop>
            <stop stop-color="#D12D5F" offset="100%"></stop>
        </linearGradient>
        <linearGradient x1="7.6775441%" y1="26.2007707%" x2="91.151289%" y2="74.1186781%" id="linearGradient-6">
            <stop stop-color="#22A7AD" offset="0%"></stop>
            <stop stop-color="#05E48E" offset="100%"></stop>
        </linearGradient>
        <linearGradient x1="50%" y1="-6.56607441e-05%" x2="50%" y2="100%" id="linearGradient-7">
            <stop stop-color="#48B2B7" offset="0%"></stop>
            <stop stop-color="#06FC9D" offset="100%"></stop>
        </linearGradient>
        <linearGradient x1="42.5344047%" y1="4.2110311%" x2="42.5344047%" y2="105.786291%" id="linearGradient-8">
            <stop stop-color="#FFFFFF" stop-opacity="0.08" offset="0%"></stop>
            <stop stop-color="#FFFFFF" stop-opacity="0.2" offset="100%"></stop>
        </linearGradient>
        <linearGradient x1="50.6024176%" y1="-11.7598143%" x2="50.6024176%" y2="100.56224%" id="linearGradient-9">
            <stop stop-color="#FFFFFF" stop-opacity="0.08" offset="0%"></stop>
            <stop stop-color="#FFFFFF" stop-opacity="0.2" offset="100%"></stop>
        </linearGradient>
        <linearGradient x1="49.999899%" y1="5.31031168%" x2="49.9998902%" y2="-100.106412%" id="linearGradient-10">
            <stop stop-color="#FFFFFF" stop-opacity="0.08" offset="0%"></stop>
            <stop stop-color="#FFFFFF" stop-opacity="0.2" offset="100%"></stop>
        </linearGradient>
        <linearGradient x1="49.9999894%" y1="105.030493%" x2="49.9999794%" y2="1.55665622%" id="linearGradient-11">
            <stop stop-color="#FFFFFF" stop-opacity="0.08" offset="0%"></stop>
            <stop stop-color="#FFFFFF" stop-opacity="0.2" offset="100%"></stop>
        </linearGradient>
    </defs>
    <g id="Page-1" stroke="none" stroke-width="1" fill="none" fill-rule="evenodd">
        <g id="home-background-clear">
            <g id="Clipped">
                <g id="Group-Clipped">
                    <g>
                        <mask id="mask-2" fill="white">
                            <use xlink:href="#path-1"></use>
                        </mask>
                        <g id="path-1"></g>
                        <g id="Group" mask="url(#mask-2)">
                            <g transform="translate(-801.000000, -420.000000)" id="Oval">
                                <g>
                                    <g id="Group" fill-rule="nonzero">
                                        <g id="Oval">
                                            <ellipse fill="url(#linearGradient-3)" transform="translate(1447.000000, 2074.200000) rotate(-180.000000) translate(-1447.000000, -2074.200000) " cx="1447" cy="2074.2" rx="1072" ry="1102.54"></ellipse>
                                            <ellipse fill="url(#linearGradient-4)" transform="translate(1428.500000, 4750.350000) rotate(-180.000000) translate(-1428.500000, -4750.350000) " cx="1428.5" cy="4750.35" rx="950.5" ry="977.588"></ellipse>
                                            <ellipse fill="url(#linearGradient-5)" transform="translate(1473.000000, 870.375000) rotate(-180.000000) translate(-1473.000000, -870.375000) " cx="1473" cy="870.375" rx="837" ry="869.701"></ellipse>
                                            <ellipse fill="url(#linearGradient-6)" transform="translate(1478.000000, 2077.500000) rotate(-180.000000) translate(-1478.000000, -2077.500000) " cx="1478" cy="2077.5" rx="737" ry="757.961"></ellipse>
                                            <ellipse fill="url(#linearGradient-7)" transform="translate(1465.500000, 2815.420000) rotate(-180.000000) translate(-1465.500000, -2815.420000) " cx="1465.5" cy="2815.42" rx="1465.5" ry="1522.98"></ellipse>
                                        </g>
                                    </g>
                                </g>
                            </g>
                        </g>
                    </g>
                </g>
            </g>
            <g id="Birds" transform="translate(973.000000, 493.000000)" stroke="#FFFFFF" stroke-linecap="round">
                <path d="M136,339.219 L136,339.219 C159.39,329.147 186.61,335.713 202.84,355.338 L211.25,365.513 L221.65,353.554 C236.82,336.103 263.11,333.872 281,348.518 L281,348.518" id="Shape" stroke-opacity="0.8" stroke-width="10"></path>
                <path d="M0,282.403 L0,282.403 C19.158,274.066 41.522,279.474 54.753,295.644 L61.759,304.208 L70.33,294.244 C82.72,279.841 104.36,278.004 119,290.114 L119,290.114" id="Shape" stroke-opacity="0.6" stroke-width="10"></path>
                <path d="M54,213.691 L54,213.691 C68.65,207.315 85.75,211.451 95.87,223.817 L101.23,230.365 L107.78,222.746 C117.26,211.731 133.8,210.327 145,219.588 L145,219.588" id="Shape" stroke-opacity="0.6" stroke-width="10"></path>
                <path d="M121,145.061 L121,145.061 C136.03,138.661 153.48,142.855 163.96,155.386 L169.27,161.735 L175.9,154.189 C185.68,143.067 202.49,141.641 214,150.958 L214,150.958" id="Shape" stroke-opacity="0.6" stroke-width="6"></path>
                <path d="M208,87.67 L208,87.67 C219.46,82.753 232.79,85.964 240.75,95.559 L244.85,100.496 L249.93,94.672 C257.37,86.145 270.23,85.054 279,92.206 L279,92.206" id="Shape" stroke-opacity="0.4" stroke-width="6"></path>
                <path d="M248,225.305 L248,225.305 C263.03,218.905 280.48,223.099 290.96,235.631 L296.27,241.979 L302.9,234.433 C312.68,223.311 329.49,221.885 341,231.202 L341,231.202" id="Shape" stroke-opacity="0.4" stroke-width="6"></path>
                <path d="M137,45.436 L137,45.436 C148.46,40.519 161.79,43.73 169.75,53.325 L173.85,58.262 L178.93,52.438 C186.37,43.911 199.23,42.82 208,49.972 L208,49.972" id="Shape" stroke-opacity="0.4" stroke-width="6"></path>
                <path d="M316,90.235 L316,90.235 C325.4,86.287 336.27,88.89 342.85,96.665 L346.1,100.496 L350.21,95.88 C356.35,88.995 366.79,88.109 374,93.864 L374,93.864" id="Shape" stroke-opacity="0.6" stroke-width="6"></path>
                <path d="M248,35.331 L248,35.331 C257.21,31.395 267.9,33.97 274.31,41.663 L277.58,45.592 L281.66,40.94 C287.64,34.108 297.95,33.233 305,38.96 L305,38.96" id="Shape" stroke-opacity="0.4" stroke-width="6"></path>
                <path d="M314,52.678 L314,52.678 C321.14,49.712 329.38,51.678 334.41,57.549 L336.84,60.374 L339.94,56.93 C344.62,51.74 352.52,51.071 358,55.4 L358,55.4" id="Shape" stroke-opacity="0.4" stroke-width="3"></path>
                <path d="M352,38.123 L352,38.123 C357.63,35.671 364.21,37.262 368.1,42.018 L370.16,44.536 L372.69,41.606 C376.33,37.37 382.69,36.83 387,40.391 L387,40.391" id="Shape" stroke-opacity="0.6" stroke-width="3"></path>
                <path d="M328,9.615 L328,9.615 C333.44,7.176 339.85,8.737 343.56,13.407 L345.65,16.029 L348.13,13.061 C351.62,8.88 357.85,8.351 362,11.883 L362,11.883" id="Shape" stroke-opacity="0.4" stroke-width="3"></path>
                <path d="M358,0.981 L358,0.981 C362.42,-0.764 367.46,0.418 370.64,3.946 L372.01,5.47 L373.87,3.506 C376.81,0.413 381.59,0.01 385,2.568 L385,2.568" id="Shape" stroke-opacity="0.4" stroke-width="3"></path>
            </g>
            <path d="M0,921.585 L0.997808619,896.693984 L0.997808619,0.11182 L1366,0.11182 L1312.26801,72.7405608 C1268.82342,131.478564 1197.00115,161.762483 1124.86957,151.758126 L1114.9314,150.380809 C1039.90617,139.973188 965.477625,173.167229 922.797359,236.075402 L901.788498,267.041459 C877.378108,303.021231 832.664308,319.055487 791.115557,306.728852 L667.938079,270.18431 C632.694481,259.728539 594.947381,261.771943 561.023883,275.971449 C509.091936,297.709583 472.305725,345.239556 464.112719,401.190925 L451.543324,487.018936 C444.334156,536.24623 402.320427,572.721555 352.826126,572.721555 L222.849579,572.721555 C183.811315,572.721555 148.358177,595.609292 132.115848,631.298152 L0,921.585 Z" id="Shape" fill="url(#linearGradient-8)" fill-rule="nonzero"></path>
            <path d="M151.771,247.195 L0,265.657 L0,0.11182 L1365,0.11182 L1129.97,10.9676 C1108.61,11.9543 1088.12,19.7623 1071.53,33.2458 L1037,61.2976 C1015.3,78.9217 987.223,86.6622 959.563,82.643 L921.053,77.0473 C889.149,72.4115 856.598,75.5569 826.172,86.2153 L743.509,115.173 L685.991,127.781 L556.285,138.988 L332.105,138.988 C305.796,138.988 280.547,149.356 261.83,167.844 L209.97,219.07 C194.218,234.629 173.749,244.521 151.771,247.195 Z" id="Shape" fill="url(#linearGradient-9)" fill-rule="nonzero"></path>
            <path d="M166.406949,2542.29 L3.5,2564.76 L3.5,2273.44 L1365,2273.44 L1129.67682,2297.49 C1110.81391,2299.41 1092.86754,2307.12 1077.996,2319.69 L1040.69395,2351.21 C1019.56434,2369.07 992.541299,2376.89 965.897685,2372.86 L924.987641,2366.68 C894.401935,2362.05 863.229843,2365.2 833.98642,2375.85 L750.794483,2406.17 L693.858849,2419.15 L565.466886,2430.69 L342.530747,2430.69 C317.106225,2430.69 292.665255,2441.21 274.315802,2460.07 L222.040707,2513.78 C206.821275,2529.42 187.321718,2539.41 166.406949,2542.29 Z" id="Shape" fill="url(#linearGradient-10)" fill-rule="nonzero"></path>
            <path d="M1216.10023,1999.62 L1365.99009,1977.19 L1366,2273.97 L2.55,2273.98 L249.167504,2248.8 C268.247187,2246.85 286.38591,2239.04 301.385792,2226.32 L338.592313,2194.77 C359.757953,2176.83 386.888286,2168.89 413.683834,2172.79 L454.823564,2178.8 C485.581048,2183.28 516.897163,2180 546.246178,2169.22 L629.738981,2138.53 L686.910677,2125.3 L815.903318,2113.19 L1039.96256,2112.2 C1065.50713,2112.09 1090.0315,2101.45 1108.40497,2082.52 L1161.01945,2028.28 C1176.0748,2012.76 1195.35951,2002.73 1216.10023,1999.62 Z" id="Shape" fill="url(#linearGradient-11)" fill-rule="nonzero"></path>
        </g>
    </g>
</svg>