<?xml version="1.0" encoding="UTF-8"?>
<svg width="1369px" height="4668px" viewBox="0 0 1369 4668" version="1.1" xmlns="http://www.w3.org/2000/svg" xmlns:xlink="http://www.w3.org/1999/xlink">
    <!-- Generator: Sketch 43.2 (39069) - http://www.bohemiancoding.com/sketch -->
    <title>home-background-clear</title>
    <desc>Created with Sketch.</desc>
    <defs>
        <rect id="path-1" x="0" y="0.11182" width="1366" height="4667.89"></rect>
        <linearGradient x1="100%" y1="94.68562%" x2="-18.0263526%" y2="69.7559782%" id="linearGradient-3">
            <stop stop-color="#660F33" offset="0%"></stop>
            <stop stop-color="#CC1E66" offset="100%"></stop>
        </linearGradient>
        <linearGradient x1="100%" y1="94.6839428%" x2="-18.0265124%" y2="69.7557714%" id="linearGradient-4">
            <stop stop-color="#660F33" offset="0%"></stop>
            <stop stop-color="#CC1E66" offset="100%"></stop>
        </linearGradient>
        <linearGradient x1="19.5583632%" y1="19.0615421%" x2="109.032258%" y2="64.9186711%" id="linearGradient-5">
            <stop stop-color="#FF8E00" offset="0%"></stop>
            <stop stop-color="#D12D5F" offset="100%"></stop>
        </linearGradient>
        <linearGradient x1="7.6775441%" y1="24.8277731%" x2="91.151289%" y2="75.510105%" id="linearGradient-6">
            <stop stop-color="#22A7AD" offset="0%"></stop>
            <stop stop-color="#05E48E" offset="100%"></stop>
        </linearGradient>
        <linearGradient x1="50%" y1="-6.56607441e-05%" x2="50%" y2="100%" id="linearGradient-7">
            <stop stop-color="#48B2B7" offset="0%"></stop>
            <stop stop-color="#06FC9D" offset="100%"></stop>
        </linearGradient>
        <linearGradient x1="42.5344047%" y1="4.2110311%" x2="42.5344047%" y2="105.786291%" id="linearGradient-8">
            <stop stop-color="#FFFFFF" stop-opacity="0.08" offset="0%"></stop>
            <stop stop-color="#FFFFFF" stop-opacity="0.2" offset="100%"></stop>
        </linearGradient>
        <linearGradient x1="50.6024176%" y1="-11.7598143%" x2="50.6024176%" y2="100.56224%" id="linearGradient-9">
            <stop stop-color="#FFFFFF" stop-opacity="0.08" offset="0%"></stop>
            <stop stop-color="#FFFFFF" stop-opacity="0.2" offset="100%"></stop>
        </linearGradient>
        <linearGradient x1="49.9977945%" y1="5.31031168%" x2="49.9976024%" y2="-100.106412%" id="linearGradient-10">
            <stop stop-color="#FFFFFF" stop-opacity="0.08" offset="0%"></stop>
            <stop stop-color="#FFFFFF" stop-opacity="0.2" offset="100%"></stop>
        </linearGradient>
        <linearGradient x1="49.9997749%" y1="105.030493%" x2="49.9995642%" y2="1.55665622%" id="linearGradient-11">
            <stop stop-color="#FFFFFF" stop-opacity="0.08" offset="0%"></stop>
            <stop stop-color="#FFFFFF" stop-opacity="0.2" offset="100%"></stop>
        </linearGradient>
    </defs>
    <g id="Page-1" stroke="none" stroke-width="1" fill="none" fill-rule="evenodd">
        <g id="home-background-clear">
            <g id="Clipped">
                <g id="Group-Clipped">
                    <g>
                        <mask id="mask-2" fill="white">
                            <use xlink:href="#path-1"></use>
                        </mask>
                        <g id="path-1"></g>
                        <g id="Group" mask="url(#mask-2)">
                            <g transform="translate(-801.000000, -420.000000)" id="Oval">
                                <g>
                                    <g id="Group" fill-rule="nonzero">
                                        <ellipse id="Oval" fill="url(#linearGradient-3)" transform="translate(1447.000000, 2074.200000) rotate(-180.000000) translate(-1447.000000, -2074.200000) " cx="1447" cy="2074.2" rx="1072" ry="1102.54"></ellipse>
                                        <ellipse id="Oval" fill="url(#linearGradient-4)" transform="translate(1428.500000, 4750.350000) rotate(-180.000000) translate(-1428.500000, -4750.350000) " cx="1428.5" cy="4750.35" rx="950.5" ry="977.588"></ellipse>
                                        <ellipse id="Oval" fill="url(#linearGradient-5)" transform="translate(1473.000000, 870.375000) rotate(-180.000000) translate(-1473.000000, -870.375000) " cx="1473" cy="870.375" rx="837" ry="869.701"></ellipse>
                                        <ellipse id="Oval" fill="url(#linearGradient-6)" transform="translate(1478.000000, 2077.500000) rotate(-180.000000) translate(-1478.000000, -2077.500000) " cx="1478" cy="2077.5" rx="737" ry="757.961"></ellipse>
                                        <ellipse id="Oval" fill="url(#linearGradient-7)" transform="translate(1465.500000, 2815.420000) rotate(-180.000000) translate(-1465.500000, -2815.420000) " cx="1465.5" cy="2815.42" rx="1465.5" ry="1522.98"></ellipse>
                                    </g>
                                </g>
                            </g>
                        </g>
                    </g>
                </g>
            </g>
            <path d="M1109,832.219 L1109,832.219 C1132.39,822.147 1159.61,828.713 1175.84,848.338 L1184.25,858.513 L1194.65,846.554 C1209.82,829.103 1236.11,826.872 1254,841.518 L1254,841.518" id="Shape" stroke-opacity="0.8" stroke="#FFFFFF" stroke-width="10" stroke-linecap="round"></path>
            <path d="M973,775.403 L973,775.403 C992.158,767.066 1014.522,772.474 1027.753,788.644 L1034.759,797.208 L1043.33,787.244 C1055.72,772.841 1077.36,771.004 1092,783.114 L1092,783.114" id="Shape" stroke-opacity="0.6" stroke="#FFFFFF" stroke-width="10" stroke-linecap="round"></path>
            <path d="M1027,706.691 L1027,706.691 C1041.65,700.315 1058.75,704.451 1068.87,716.817 L1074.23,723.365 L1080.78,715.746 C1090.26,704.731 1106.8,703.327 1118,712.588 L1118,712.588" id="Shape" stroke-opacity="0.6" stroke="#FFFFFF" stroke-width="10" stroke-linecap="round"></path>
            <path d="M1094,638.061 L1094,638.061 C1109.03,631.661 1126.48,635.855 1136.96,648.386 L1142.27,654.735 L1148.9,647.189 C1158.68,636.067 1175.49,634.641 1187,643.958 L1187,643.958" id="Shape" stroke-opacity="0.6" stroke="#FFFFFF" stroke-width="6" stroke-linecap="round"></path>
            <path d="M1181,580.67 L1181,580.67 C1192.46,575.753 1205.79,578.964 1213.75,588.559 L1217.85,593.496 L1222.93,587.672 C1230.37,579.145 1243.23,578.054 1252,585.206 L1252,585.206" id="Shape" stroke-opacity="0.4" stroke="#FFFFFF" stroke-width="6" stroke-linecap="round"></path>
            <path d="M1221,718.305 L1221,718.305 C1236.03,711.905 1253.48,716.099 1263.96,728.631 L1269.27,734.979 L1275.9,727.433 C1285.68,716.311 1302.49,714.885 1314,724.202 L1314,724.202" id="Shape" stroke-opacity="0.4" stroke="#FFFFFF" stroke-width="6" stroke-linecap="round"></path>
            <path d="M1110,538.436 L1110,538.436 C1121.46,533.519 1134.79,536.73 1142.75,546.325 L1146.85,551.262 L1151.93,545.438 C1159.37,536.911 1172.23,535.82 1181,542.972 L1181,542.972" id="Shape" stroke-opacity="0.4" stroke="#FFFFFF" stroke-width="6" stroke-linecap="round"></path>
            <path d="M1289,583.235 L1289,583.235 C1298.4,579.287 1309.27,581.89 1315.85,589.665 L1319.1,593.496 L1323.21,588.88 C1329.35,581.995 1339.79,581.109 1347,586.864 L1347,586.864" id="Shape" stroke-opacity="0.6" stroke="#FFFFFF" stroke-width="6" stroke-linecap="round"></path>
            <path d="M1221,528.331 L1221,528.331 C1230.21,524.395 1240.9,526.97 1247.31,534.663 L1250.58,538.592 L1254.66,533.94 C1260.64,527.108 1270.95,526.233 1278,531.96 L1278,531.96" id="Shape" stroke-opacity="0.4" stroke="#FFFFFF" stroke-width="6" stroke-linecap="round"></path>
            <path d="M1287,545.678 L1287,545.678 C1294.14,542.712 1302.38,544.678 1307.41,550.549 L1309.84,553.374 L1312.94,549.93 C1317.62,544.74 1325.52,544.071 1331,548.4 L1331,548.4" id="Shape" stroke-opacity="0.4" stroke="#FFFFFF" stroke-width="3" stroke-linecap="round"></path>
            <path d="M1325,531.123 L1325,531.123 C1330.63,528.671 1337.21,530.262 1341.1,535.018 L1343.16,537.536 L1345.69,534.606 C1349.33,530.37 1355.69,529.83 1360,533.391 L1360,533.391" id="Shape" stroke-opacity="0.6" stroke="#FFFFFF" stroke-width="3" stroke-linecap="round"></path>
            <path d="M1301,502.615 L1301,502.615 C1306.44,500.176 1312.85,501.737 1316.56,506.407 L1318.65,509.029 L1321.13,506.061 C1324.62,501.88 1330.85,501.351 1335,504.883 L1335,504.883" id="Shape" stroke-opacity="0.4" stroke="#FFFFFF" stroke-width="3" stroke-linecap="round"></path>
            <path d="M1331,493.981 L1331,493.981 C1335.42,492.236 1340.46,493.418 1343.64,496.946 L1345.01,498.47 L1346.87,496.506 C1349.81,493.413 1354.59,493.01 1358,495.568 L1358,495.568" id="Shape" stroke-opacity="0.4" stroke="#FFFFFF" stroke-width="3" stroke-linecap="round"></path>
            <path d="M0,921.585 L1,896.772 L1,3 L1369,3 L1315.15,75.4011 C1271.61,133.955 1199.63,164.144 1127.34,154.171 L1117.38,152.798 C1042.19,142.423 967.598,175.513 924.824,238.224 L903.769,269.093 C879.305,304.96 834.493,320.944 792.853,308.656 L669.405,272.226 C634.084,261.803 596.254,263.84 562.256,277.995 C510.21,299.665 473.343,347.046 465.132,402.822 L452.535,488.381 C445.31,537.454 403.204,573.815 353.601,573.815 L223.339,573.815 C184.215,573.815 148.684,596.631 132.406,632.208 L0,921.585 Z" id="Shape" fill="url(#linearGradient-8)" fill-rule="nonzero"></path>
            <path d="M151.771,247.195 L0,265.657 L0,0.11182 L1365,0.11182 L1129.97,10.9676 C1108.61,11.9543 1088.12,19.7623 1071.53,33.2458 L1037,61.2976 C1015.3,78.9217 987.223,86.6622 959.563,82.643 L921.053,77.0473 C889.149,72.4115 856.598,75.5569 826.172,86.2153 L743.509,115.173 L685.991,127.781 L556.285,138.988 L332.105,138.988 C305.796,138.988 280.547,149.356 261.83,167.844 L209.97,219.07 C194.218,234.629 173.749,244.521 151.771,247.195 Z" id="Shape" fill="url(#linearGradient-9)" fill-rule="nonzero"></path>
            <path d="M166.406949,2542.29 L3.5,2564.76 L3.5,2273.44 L1365,2273.44 L1129.67682,2297.49 C1110.81391,2299.41 1092.86754,2307.12 1077.996,2319.69 L1040.69395,2351.21 C1019.56434,2369.07 992.541299,2376.89 965.897685,2372.86 L924.987641,2366.68 C894.401935,2362.05 863.229843,2365.2 833.98642,2375.85 L750.794483,2406.17 L693.858849,2419.15 L565.466886,2430.69 L342.530747,2430.69 C317.106225,2430.69 292.665255,2441.21 274.315802,2460.07 L222.040707,2513.78 C206.821275,2529.42 187.321718,2539.41 166.406949,2542.29 Z" id="Shape" fill="url(#linearGradient-10)" fill-rule="nonzero"></path>
            <path d="M1217.47982,1999.62 L1367.54008,1977.19 L1367.55,2273.97 L2.55,2273.98 L249.447864,2248.8 C268.549237,2246.85 286.708581,2239.04 301.725515,2226.32 L338.974333,2194.77 C360.164035,2176.83 387.32521,2168.89 414.15122,2172.79 L455.337719,2178.8 C486.130168,2183.28 517.481884,2180 546.864264,2169.22 L630.451983,2138.53 L687.688673,2125.3 L816.827956,2113.19 L1041.14191,2112.2 C1066.71552,2112.09 1091.26777,2101.45 1109.66213,2082.52 L1162.33642,2028.28 C1177.40889,2012.76 1196.71552,2002.73 1217.47982,1999.62 Z" id="Shape" fill="url(#linearGradient-11)" fill-rule="nonzero"></path>
        </g>
    </g>
</svg>