<?xml version="1.0" encoding="UTF-8"?>
<svg width="1393px" height="4668px" viewBox="0 0 1393 4668" version="1.1" xmlns="http://www.w3.org/2000/svg" xmlns:xlink="http://www.w3.org/1999/xlink">
    <!-- Generator: Sketch 43.2 (39069) - http://www.bohemiancoding.com/sketch -->
    <title>home-background-clear</title>
    <desc>Created with Sketch.</desc>
    <defs>
        <rect id="path-1" x="0" y="0.11182" width="1366" height="4667.89"></rect>
        <linearGradient x1="100%" y1="97.2679673%" x2="-18.0263526%" y2="70.8976608%" id="linearGradient-3">
            <stop stop-color="#660F33" offset="0%"></stop>
            <stop stop-color="#CC1E66" offset="100%"></stop>
        </linearGradient>
        <linearGradient x1="100%" y1="97.2671012%" x2="-18.0265124%" y2="70.8978435%" id="linearGradient-4">
            <stop stop-color="#660F33" offset="0%"></stop>
            <stop stop-color="#CC1E66" offset="100%"></stop>
        </linearGradient>
        <linearGradient x1="19.5583632%" y1="16.5968299%" x2="109.032258%" y2="66.107167%" id="linearGradient-5">
            <stop stop-color="#FF8E00" offset="0%"></stop>
            <stop stop-color="#D12D5F" offset="100%"></stop>
        </linearGradient>
        <linearGradient x1="7.6775441%" y1="23.3755661%" x2="91.151289%" y2="76.9818045%" id="linearGradient-6">
            <stop stop-color="#22A7AD" offset="0%"></stop>
            <stop stop-color="#05E48E" offset="100%"></stop>
        </linearGradient>
        <linearGradient x1="50%" y1="-6.56607441e-05%" x2="50%" y2="100%" id="linearGradient-7">
            <stop stop-color="#48B2B7" offset="0%"></stop>
            <stop stop-color="#06FC9D" offset="100%"></stop>
        </linearGradient>
        <linearGradient x1="42.5344047%" y1="4.2110311%" x2="42.5344047%" y2="105.786291%" id="linearGradient-8">
            <stop stop-color="#FFFFFF" stop-opacity="0.08" offset="0%"></stop>
            <stop stop-color="#FFFFFF" stop-opacity="0.2" offset="100%"></stop>
        </linearGradient>
        <linearGradient x1="50.6024176%" y1="-11.7598143%" x2="50.6024176%" y2="100.56224%" id="linearGradient-9">
            <stop stop-color="#FFFFFF" stop-opacity="0.08" offset="0%"></stop>
            <stop stop-color="#FFFFFF" stop-opacity="0.2" offset="100%"></stop>
        </linearGradient>
        <linearGradient x1="49.9504022%" y1="5.31031168%" x2="49.9460826%" y2="-100.106412%" id="linearGradient-10">
            <stop stop-color="#FFFFFF" stop-opacity="0.08" offset="0%"></stop>
            <stop stop-color="#FFFFFF" stop-opacity="0.2" offset="100%"></stop>
        </linearGradient>
        <linearGradient x1="49.9951575%" y1="105.030493%" x2="49.9906256%" y2="1.55665622%" id="linearGradient-11">
            <stop stop-color="#FFFFFF" stop-opacity="0.08" offset="0%"></stop>
            <stop stop-color="#FFFFFF" stop-opacity="0.2" offset="100%"></stop>
        </linearGradient>
    </defs>
    <g id="Page-1" stroke="none" stroke-width="1" fill="none" fill-rule="evenodd">
        <g id="home-background-clear">
            <g id="Clipped" transform="translate(8.000000, 0.000000)">
                <g id="Group-Clipped">
                    <mask id="mask-2" fill="white">
                        <use xlink:href="#path-1"></use>
                    </mask>
                    <g id="path-1"></g>
                    <g id="Group" mask="url(#mask-2)">
                        <g transform="translate(-801.000000, -420.000000)" id="Oval">
                            <g>
                                <ellipse fill="url(#linearGradient-3)" fill-rule="nonzero" transform="translate(1447.000000, 2074.200000) rotate(-180.000000) translate(-1447.000000, -2074.200000) " cx="1447" cy="2074.2" rx="1072" ry="1102.54"></ellipse>
                                <ellipse fill="url(#linearGradient-4)" fill-rule="nonzero" transform="translate(1428.500000, 4750.350000) rotate(-180.000000) translate(-1428.500000, -4750.350000) " cx="1428.5" cy="4750.35" rx="950.5" ry="977.588"></ellipse>
                                <ellipse fill="url(#linearGradient-5)" fill-rule="nonzero" transform="translate(1473.000000, 870.375000) rotate(-180.000000) translate(-1473.000000, -870.375000) " cx="1473" cy="870.375" rx="837" ry="869.701"></ellipse>
                                <ellipse fill="url(#linearGradient-6)" fill-rule="nonzero" transform="translate(1478.000000, 2077.500000) rotate(-180.000000) translate(-1478.000000, -2077.500000) " cx="1478" cy="2077.5" rx="737" ry="757.961"></ellipse>
                                <ellipse fill="url(#linearGradient-7)" fill-rule="nonzero" transform="translate(1465.500000, 2815.420000) rotate(-180.000000) translate(-1465.500000, -2815.420000) " cx="1465.5" cy="2815.42" rx="1465.5" ry="1522.98"></ellipse>
                            </g>
                        </g>
                    </g>
                </g>
            </g>
            <path d="M1117,832.219 L1117,832.219 C1140.39,822.147 1167.61,828.713 1183.84,848.338 L1192.25,858.513 L1202.65,846.554 C1217.82,829.103 1244.11,826.872 1262,841.518 L1262,841.518" id="Shape" stroke-opacity="0.8" stroke="#FFFFFF" stroke-width="10" stroke-linecap="round"></path>
            <path d="M981,775.403 L981,775.403 C1000.158,767.066 1022.522,772.474 1035.753,788.644 L1042.759,797.208 L1051.33,787.244 C1063.72,772.841 1085.36,771.004 1100,783.114 L1100,783.114" id="Shape" stroke-opacity="0.6" stroke="#FFFFFF" stroke-width="10" stroke-linecap="round"></path>
            <path d="M1035,706.691 L1035,706.691 C1049.65,700.315 1066.75,704.451 1076.87,716.817 L1082.23,723.365 L1088.78,715.746 C1098.26,704.731 1114.8,703.327 1126,712.588 L1126,712.588" id="Shape" stroke-opacity="0.6" stroke="#FFFFFF" stroke-width="10" stroke-linecap="round"></path>
            <path d="M1102,638.061 L1102,638.061 C1117.03,631.661 1134.48,635.855 1144.96,648.386 L1150.27,654.735 L1156.9,647.189 C1166.68,636.067 1183.49,634.641 1195,643.958 L1195,643.958" id="Shape" stroke-opacity="0.6" stroke="#FFFFFF" stroke-width="6" stroke-linecap="round"></path>
            <path d="M1189,580.67 L1189,580.67 C1200.46,575.753 1213.79,578.964 1221.75,588.559 L1225.85,593.496 L1230.93,587.672 C1238.37,579.145 1251.23,578.054 1260,585.206 L1260,585.206" id="Shape" stroke-opacity="0.4" stroke="#FFFFFF" stroke-width="6" stroke-linecap="round"></path>
            <path d="M1229,718.305 L1229,718.305 C1244.03,711.905 1261.48,716.099 1271.96,728.631 L1277.27,734.979 L1283.9,727.433 C1293.68,716.311 1310.49,714.885 1322,724.202 L1322,724.202" id="Shape" stroke-opacity="0.4" stroke="#FFFFFF" stroke-width="6" stroke-linecap="round"></path>
            <path d="M1118,538.436 L1118,538.436 C1129.46,533.519 1142.79,536.73 1150.75,546.325 L1154.85,551.262 L1159.93,545.438 C1167.37,536.911 1180.23,535.82 1189,542.972 L1189,542.972" id="Shape" stroke-opacity="0.4" stroke="#FFFFFF" stroke-width="6" stroke-linecap="round"></path>
            <path d="M1297,583.235 L1297,583.235 C1306.4,579.287 1317.27,581.89 1323.85,589.665 L1327.1,593.496 L1331.21,588.88 C1337.35,581.995 1347.79,581.109 1355,586.864 L1355,586.864" id="Shape" stroke-opacity="0.6" stroke="#FFFFFF" stroke-width="6" stroke-linecap="round"></path>
            <path d="M1229,528.331 L1229,528.331 C1238.21,524.395 1248.9,526.97 1255.31,534.663 L1258.58,538.592 L1262.66,533.94 C1268.64,527.108 1278.95,526.233 1286,531.96 L1286,531.96" id="Shape" stroke-opacity="0.4" stroke="#FFFFFF" stroke-width="6" stroke-linecap="round"></path>
            <path d="M1295,545.678 L1295,545.678 C1302.14,542.712 1310.38,544.678 1315.41,550.549 L1317.84,553.374 L1320.94,549.93 C1325.62,544.74 1333.52,544.071 1339,548.4 L1339,548.4" id="Shape" stroke-opacity="0.4" stroke="#FFFFFF" stroke-width="3" stroke-linecap="round"></path>
            <path d="M1333,531.123 L1333,531.123 C1338.63,528.671 1345.21,530.262 1349.1,535.018 L1351.16,537.536 L1353.69,534.606 C1357.33,530.37 1363.69,529.83 1368,533.391 L1368,533.391" id="Shape" stroke-opacity="0.6" stroke="#FFFFFF" stroke-width="3" stroke-linecap="round"></path>
            <path d="M1309,502.615 L1309,502.615 C1314.44,500.176 1320.85,501.737 1324.56,506.407 L1326.65,509.029 L1329.13,506.061 C1332.62,501.88 1338.85,501.351 1343,504.883 L1343,504.883" id="Shape" stroke-opacity="0.4" stroke="#FFFFFF" stroke-width="3" stroke-linecap="round"></path>
            <path d="M1339,493.981 L1339,493.981 C1343.42,492.236 1348.46,493.418 1351.64,496.946 L1353.01,498.47 L1354.87,496.506 C1357.81,493.413 1362.59,493.01 1366,495.568 L1366,495.568" id="Shape" stroke-opacity="0.4" stroke="#FFFFFF" stroke-width="3" stroke-linecap="round"></path>
            <path d="M8,921.585 L9,896.772 L9,3 L1377,3 L1323.15,75.4011 C1279.61,133.955 1207.63,164.144 1135.34,154.171 L1125.38,152.798 C1050.19,142.423 975.598,175.513 932.824,238.224 L911.769,269.093 C887.305,304.96 842.493,320.944 800.853,308.656 L677.405,272.226 C642.084,261.803 604.254,263.84 570.256,277.995 C518.21,299.665 481.343,347.046 473.132,402.822 L460.535,488.381 C453.31,537.454 411.204,573.815 361.601,573.815 L231.339,573.815 C192.215,573.815 156.684,596.631 140.406,632.208 L8,921.585 Z" id="Shape" fill="url(#linearGradient-8)" fill-rule="nonzero"></path>
            <path d="M159.771,247.195 L8,265.657 L8,0.11182 L1373,0.11182 L1137.97,10.9676 C1116.61,11.9543 1096.12,19.7623 1079.53,33.2458 L1045,61.2976 C1023.3,78.9217 995.223,86.6622 967.563,82.643 L929.053,77.0473 C897.149,72.4115 864.598,75.5569 834.172,86.2153 L751.509,115.173 L693.991,127.781 L564.285,138.988 L340.105,138.988 C313.796,138.988 288.547,149.356 269.83,167.844 L217.97,219.07 C202.218,234.629 181.749,244.521 159.771,247.195 Z" id="Shape" fill="url(#linearGradient-9)" fill-rule="nonzero"></path>
            <path d="M176.8,2542.29 L11.5,2564.76 L11.5,2273.44 L1393,2273.44 L1154.22,2297.49 C1135.08,2299.41 1116.87,2307.12 1101.78,2319.69 L1063.93,2351.21 C1042.49,2369.07 1015.07,2376.89 988.035,2372.86 L946.524,2366.68 C915.489,2362.05 883.859,2365.2 854.186,2375.85 L769.772,2406.17 L712,2419.15 L581.722,2430.69 L355.511,2430.69 C329.713,2430.69 304.913,2441.21 286.294,2460.07 L233.251,2513.78 C217.808,2529.42 198.022,2539.41 176.8,2542.29 Z" id="Shape" fill="url(#linearGradient-10)" fill-rule="nonzero"></path>
            <path d="M1225.21,1999.62 L1376.54,1977.19 L1376.55,2273.97 L0,2273.98 L248.987,2248.8 C268.25,2246.85 286.563,2239.04 301.707,2226.32 L339.271,2194.77 C360.64,2176.83 388.031,2168.89 415.084,2172.79 L456.619,2178.8 C487.672,2183.28 519.289,2180 548.92,2169.22 L633.215,2138.53 L690.936,2125.3 L821.168,2113.19 L1047.38,2112.2 C1073.17,2112.09 1097.93,2101.45 1116.48,2082.52 L1169.6,2028.28 C1184.8,2012.76 1204.27,2002.73 1225.21,1999.62 Z" id="Shape" fill="url(#linearGradient-11)" fill-rule="nonzero"></path>
        </g>
    </g>
</svg>