<?xml version="1.0" encoding="UTF-8"?>
<svg width="24px" height="24px" viewBox="0 0 24 24" version="1.1" xmlns="http://www.w3.org/2000/svg" xmlns:xlink="http://www.w3.org/1999/xlink">
    <!-- Generator: Sketch 43.2 (39069) - http://www.bohemiancoding.com/sketch -->
    <title>Frame</title>
    <desc>Created with Sketch.</desc>
    <defs></defs>
    <g id="Page-1" stroke="none" stroke-width="1" fill="none" fill-rule="evenodd">
        <g id="Frame" fill-rule="nonzero" fill="#FFFFFF">
            <path d="M14.2968844,12 C14.2968844,12.4543116 14.1621709,12.8983719 13.9097487,13.2761005 C13.6574472,13.6538291 13.2986533,13.9482211 12.8789548,14.1220101 C12.4592563,14.2959196 11.9974553,14.3413869 11.5518995,14.2527437 C11.1063558,14.1641005 10.6970894,13.9453266 10.3758633,13.6241608 C10.0546372,13.3028744 9.83588744,12.8936683 9.74725628,12.4480402 C9.65863719,12.0025447 9.70411658,11.5407196 9.87796583,11.1210211 C10.0518151,10.7013226 10.346207,10.342601 10.7239236,10.0902151 C11.1016402,9.83782915 11.5457246,9.70312764 12,9.70312764 C12.6091658,9.70312764 13.1933668,9.94511759 13.6241608,10.3758633 C14.0548342,10.806609 14.2968844,11.3908342 14.2968844,12 Z" id="Shape"></path>
            <path d="M17.3714171,7.93599196 C17.2569648,7.63883819 17.0814874,7.36897688 16.8563216,7.14379899 C16.6311558,6.91862111 16.3612462,6.74313166 16.0640804,6.62865528 C15.8213065,6.53489849 15.4546734,6.42192965 14.7843618,6.39146533 C14.0578492,6.35817889 13.8399196,6.35114774 12.0000241,6.35114774 C10.1601769,6.35114774 9.94221106,6.35817889 9.21565025,6.39099497 C8.54392764,6.42192965 8.17877789,6.53161809 7.93596784,6.62865528 C7.63881407,6.74322814 7.36892864,6.91875377 7.14369045,7.14390754 C6.91845226,7.36906131 6.74284221,7.63888643 6.62814874,7.93599196 C6.53440402,8.17880201 6.42190553,8.54537487 6.39095879,9.21568643 C6.35815477,9.94224724 6.35065327,10.1602131 6.35065327,12.0000603 C6.35065327,13.8399196 6.35815477,14.0578492 6.39095879,14.7848442 C6.42190553,15.456603 6.53158191,15.8213065 6.62814874,16.0640804 C6.74291457,16.3612462 6.91854874,16.6310352 7.14377487,16.8563216 C7.36900101,17.0814874 7.63883819,17.257206 7.93596784,17.3718995 C8.17877789,17.4657286 8.54533869,17.5786131 9.21565025,17.6091256 C9.94221106,17.6424121 10.1597065,17.649407 12.0000241,17.649407 C13.8402814,17.649407 14.0578492,17.6424121 14.7843618,17.6091256 C15.4561206,17.5786131 15.8213065,17.4662111 16.0640804,17.3718995 C16.3612462,17.2573266 16.6310352,17.081608 16.856201,16.8564422 C17.0813668,16.6311558 17.2568442,16.3612462 17.3714171,16.0640804 C17.4651256,15.8213065 17.5781307,15.454794 17.6091256,14.7848442 C17.6419296,14.0578492 17.6489246,13.8399196 17.6489246,12.0000603 C17.6489246,10.1602131 17.6419296,9.94224724 17.6091256,9.21568643 C17.5781307,8.54396382 17.4660905,8.17880201 17.3714171,7.93599196 Z M12.0000241,15.5381307 C11.3002492,15.5381307 10.6161889,15.3306935 10.0343518,14.9418693 C9.45250251,14.5531658 8.99901106,14.0005628 8.73122412,13.3540101 C8.46343719,12.7075779 8.39336683,11.9961286 8.52987739,11.309801 C8.6664,10.6234734 9.00337688,9.99304523 9.49818693,9.49822312 C9.99300905,9.00341307 10.6234372,8.66643618 11.3097648,8.52991357 C11.9961045,8.39339095 12.7074573,8.46346131 13.3540101,8.7312603 C14.0005628,8.99904724 14.5530452,9.45253869 14.9418693,10.0343759 C15.3306935,10.6162251 15.5381307,11.3002854 15.5381307,12.0000603 C15.5381307,12.4646834 15.446593,12.9247839 15.2688241,13.3540101 C15.0910553,13.7833568 14.8304322,14.1733869 14.5019095,14.5019095 C14.1732663,14.8304322 13.7832362,15.0910553 13.3540101,15.2688241 C12.9247839,15.4467136 12.4646834,15.5381307 12.0000241,15.5381307 Z M15.6782714,9.14865528 C15.5147337,9.14865528 15.3549347,9.1001608 15.2188945,9.00929849 C15.0829749,8.91843618 14.9769648,8.78929447 14.9143719,8.63820302 C14.8517789,8.48711156 14.8353769,8.3208603 14.8673367,8.16045829 C14.8991759,8.00005628 14.9779296,7.85272764 15.0935879,7.73708141 C15.2092462,7.62144724 15.3566231,7.54269347 15.5170251,7.51079397 C15.6774271,7.47888241 15.8436181,7.4952603 15.9947337,7.55784121 C16.1458492,7.62042211 16.2750151,7.72640804 16.3658291,7.86238794 C16.4566432,7.99836784 16.5051256,8.1582392 16.5051256,8.32177688 C16.5051256,8.54108141 16.4180503,8.75138894 16.2629548,8.9064603 C16.1079799,9.06153166 15.8976482,9.14865528 15.6782714,9.14865528 Z" id="Shape"></path>
            <path d="M12,0 C5.37374472,0 0,5.37374472 0,12 C0,18.6262915 5.37374472,24 12,24 C18.6262915,24 24,18.6262915 24,12 C24,5.37374472 18.6262915,0 12,0 Z M18.8489246,14.8410452 C18.8156382,15.574191 18.6988945,16.0752965 18.5287236,16.5135678 C18.351799,16.9714975 18.0810452,17.3873367 17.7339497,17.7344322 C17.3868543,18.0815276 16.9710151,18.3522814 16.5130854,18.529206 C16.0748141,18.6993769 15.5756382,18.8161206 14.8406834,18.849407 C14.105608,18.8826935 13.8717588,18.8906533 12,18.8906533 C10.1282774,18.8906533 9.89390955,18.8826935 9.15890653,18.8489246 C8.42390352,18.8151558 7.92469146,18.6988945 7.48640804,18.5287236 C7.02868342,18.3515578 6.61298894,18.0806834 6.26591759,17.7335879 C5.91884623,17.3864925 5.6480201,16.9708945 5.47078191,16.5130854 C5.30062312,16.0748141 5.18390352,15.5756382 5.15062915,14.8406834 C5.11734271,14.105608 5.10937085,13.8712764 5.10937085,12 C5.10937085,10.1287477 5.11734271,9.89390955 5.1510995,9.15890653 C5.18484422,8.42390352 5.30062312,7.92469146 5.47078191,7.48640804 C5.64815276,7.02875578 5.91901508,6.61313367 6.26607437,6.26607437 C6.61313367,5.91901508 7.02875578,5.64815276 7.48640804,5.47078191 C7.92469146,5.30062312 8.42390352,5.18390352 9.15890653,5.15062915 C9.89390955,5.11734271 10.1287477,5.10937085 12,5.10937085 C13.8712764,5.10937085 14.1060905,5.11734271 14.8410452,5.1510995 C15.5761206,5.18484422 16.0752965,5.30109347 16.5135678,5.47078191 C16.9713769,5.64797186 17.3870955,5.91877387 17.734191,6.26585729 C18.0811658,6.6129407 18.3520402,7.0286593 18.529206,7.48640804 C18.6998593,7.92469146 18.8161206,8.42390352 18.8498894,9.15890653 C18.8835377,9.89390955 18.8906533,10.1287477 18.8906533,12 C18.8906533,13.8712764 18.8826935,14.1060905 18.8489246,14.8410452 Z" id="Shape"></path>
        </g>
    </g>
</svg>