<svg width="451" height="186" viewBox="0 0 451 186" fill="none" xmlns="http://www.w3.org/2000/svg">
<path d="M279.139 87.8276L263.752 77.0846C253.538 69.9529 241.03 66.8909 228.677 68.4982L220.879 69.5128C203.327 71.7966 186.695 78.6984 172.683 89.5132L160.391 99L145.534 80.942C137.413 71.0722 127.476 62.8506 116.26 56.7222L98.6915 47.1226C91.3392 43.1053 83.0952 41 74.717 41H67.8469C48.1919 41 28.9727 46.7922 12.5908 57.6528L0 66V186H390.534C396.294 186 402.025 185.183 407.555 183.573L418.359 180.429C432.074 176.437 442.713 165.579 446.425 151.786L447.112 149.233C448.986 142.269 448.53 134.884 445.814 128.204C442.389 119.777 435.64 113.135 427.159 109.843L415.748 105.415C404.948 101.224 393.184 100.173 381.812 102.382L376.827 103.351C362.852 106.066 349.871 112.508 339.255 121.994L320.782 138.5L305.766 115.369C298.748 104.558 289.706 95.2063 279.139 87.8276Z" fill="url(#paint0_linear)" fill-opacity="0.5"/>
<path d="M280.292 61.4526L264.687 47.4879C253.673 37.6322 238.78 33.3113 224.201 35.7423C204.359 39.0512 186.028 48.4225 171.727 62.5691L160.171 74L143.789 48.4816C136.758 37.5302 127.658 28.0564 116.998 20.5915L99.7796 8.53393C91.8477 2.97944 82.3989 0 72.7156 0C50.3303 0 28.6741 7.95795 11.6152 22.4524L0.5 31.8966V185H384.819C393.476 185 402.052 183.341 410.085 180.112L419.159 176.464C431.733 171.409 441.473 161.115 445.826 148.281C448.869 139.308 449.096 129.62 446.477 120.515L445.705 117.832C441.413 102.91 431.052 90.4766 417.15 83.5621L416.622 83.2993C404.553 77.2968 390.741 75.789 377.661 79.0463L374.429 79.8514C361.376 83.102 349.634 90.2772 340.787 100.409L319.841 124.397L302.816 90.7855C297.197 79.6925 289.559 69.7448 280.292 61.4526Z" fill="url(#paint1_linear)" fill-opacity="0.5"/>
<defs>
<linearGradient id="paint0_linear" x1="235.056" y1="41" x2="235.056" y2="186" gradientUnits="userSpaceOnUse">
<stop stop-color="#D12D5F"/>
<stop offset="1" stop-color="#FF8E00"/>
</linearGradient>
<linearGradient id="paint1_linear" x1="234.5" y1="0" x2="234.5" y2="185" gradientUnits="userSpaceOnUse">
<stop stop-color="#D12D5F"/>
<stop offset="1" stop-color="#FF8E00"/>
</linearGradient>
</defs>
</svg>
