<?xml version="1.0" encoding="UTF-8"?>
<svg width="279px" height="532px" viewBox="0 0 279 532" version="1.1" xmlns="http://www.w3.org/2000/svg" xmlns:xlink="http://www.w3.org/1999/xlink">
    <!-- Generator: Sketch 43.2 (39069) - http://www.bohemiancoding.com/sketch -->
    <title>Group</title>
    <desc>Created with Sketch.</desc>
    <defs></defs>
    <g id="Page-1" stroke="none" stroke-width="1" fill="none" fill-rule="evenodd" opacity="0.5">
        <g id="Plants">
            <g id="Group">
                <path d="M178.223,112.176 C182.425,106.184 190.224,90.9662 196.138,88.8251 C199.948,87.446 198.837,101.712 198.884,104.432 C199.067,114.955 198.043,125.412 196.778,135.848 C194.498,154.668 187.045,171.429 176.822,187.447 C171.562,195.689 165.391,204.031 156.845,209.174 C152.912,211.542 148.179,211.939 144.294,213.979 C139.769,216.355 142.233,214.434 140.194,219.149 C137.363,225.695 136.457,234.139 135.147,241.124 C129.132,273.186 114.568,442.676 117.093,475.29 C117.317,478.18 113.287,478.871 113.085,475.343 C112.016,456.631 121.27,327.054 125.94,284.678 C130.609,242.303 135.334,204.866 140.071,190.205 C145.819,172.419 156.199,151.029 164.84,134.443 C168.854,126.737 173.229,119.297 178.223,112.176 Z" id="Shape" fill="#69A1AC"></path>
                <path d="M209.414,320.009 C220.349,311.981 232.186,327.132 222.29,335.162 C216.82,339.6 211.101,338.021 207.882,334.323 C205.792,336.87 203.836,339.534 201.956,341.784 C196.229,348.64 190.817,355.66 185.644,362.843 C174.898,377.766 165.689,393.532 156.06,409.01 C146.558,424.286 137.132,439.639 128.519,455.302 C121.223,468.572 111.498,484.183 109,498.731 C112.79,467.878 127.172,438.222 144.298,411.022 C161.285,384.046 180.779,354.584 207.081,333.295 C204.404,329.358 204.33,323.739 209.414,320.009 Z" id="Shape" fill="#C1DEE2"></path>
                <path d="M1.9132,244.762 C8.03244,245.959 18.0312,259.802 23.0753,265.076 C29.0699,271.343 34.5084,278.024 39.6349,285.023 C50.6711,300.089 60.5411,316.107 68.9339,332.811 C82.6164,360.042 93.5779,387.996 101.533,417.649 C106.403,435.801 109.556,454.614 111.424,473.297 C111.777,476.82 115.471,503.984 110.148,504.716 C105.361,505.376 106.84,484.09 106.609,481.195 C103.998,448.529 96.1772,416.746 85.2985,385.958 C82.929,379.251 80.7276,371.036 76.9381,365 C74.2092,360.653 76.9186,362.169 72.1228,360.523 C68.0049,359.11 63.3131,359.455 59.0963,357.725 C49.9356,353.968 42.6006,346.675 36.1709,339.339 C23.6758,325.083 13.774,309.66 8.61264,291.392 C5.74947,281.263 3.11836,271.075 1.65826,260.633 C1.28056,257.934 -2.02816,243.991 1.9132,244.762 Z" id="Shape" fill="#69A1AC"></path>
                <path d="M26.0614,14.4475 C49.1113,54.4219 68.0528,98.3327 80.2834,142.808 C87.6937,169.755 92.876,197.406 98.025,224.858 C105.997,267.363 113.538,309.866 115.683,353.126 C117.841,396.638 122.108,446.823 107.861,488.731 C114.978,446.183 108.202,400.894 107.002,358.081 C106.429,337.643 104.768,317.405 102.588,297.087 C100.473,277.377 97.0184,257.76 93.8009,238.205 C92.2336,228.682 90.5876,219.172 88.9118,209.668 C88.4115,206.832 88.2002,198.418 86.4014,196.481 C84.5911,194.531 75.3543,193.736 72.4544,192.306 C66.6149,189.424 61.1221,185.331 56.2609,181.006 C46.9418,172.715 38.8347,161.883 32.4359,151.204 C17.6307,126.495 11.7116,96.3415 12.0108,67.7256 C12.0682,62.1697 21.0034,2.3414 17.4149,1.51751 C17.631,1.26447 17.8353,1.00321 18.028,0.731445 C20.7448,5.28023 23.4108,9.85984 26.0614,14.4475 Z" id="Shape" fill="#89C5CC"></path>
                <path d="M274.846,158.619 C275.202,158.106 277.517,154.538 276.351,154.766 C278.724,154.302 273.087,158.701 279,156.002 C276.192,158.653 277.813,162.098 277.85,165.667 C277.911,171.461 276.942,177.208 275.851,182.878 C274.126,191.84 271.557,200.554 267.828,208.891 C259.701,227.057 245.901,244.546 229.518,255.903 C221.43,261.511 213.504,263.42 204.28,266.002 C198.453,267.632 197.991,270.646 194.898,276.3 C188.46,288.076 182.136,299.81 176.457,311.983 C169.677,326.519 163.095,341.071 156.886,355.863 C135.969,405.689 118.945,457.309 110.005,510.731 C109.786,479.25 117.069,446.827 126.255,416.82 C132.947,394.957 141.658,373.882 150.95,353.021 C153.201,347.967 156.613,341.466 157.57,335.886 C158.239,331.977 156.192,328.217 155.255,324.099 C151.601,308.061 151.863,290.094 155.071,273.971 C158.609,256.192 168.839,247.94 186.145,245.422 C192.474,244.501 200.519,244.838 206.322,242.14 C212.645,239.201 215.253,229.542 218.849,223.341 C228.506,206.685 239.98,190.711 253.155,176.676 C256.803,172.79 260.726,169.205 264.888,165.882 C267.513,163.785 273.058,161.202 274.846,158.619 Z" id="Shape" fill="#89C5CC"></path>
                <path d="M80.7914,476.731 L142.209,476.731 C144.97,476.731 147.209,478.97 147.209,481.731 C147.209,481.976 147.191,482.219 147.155,482.461 L142.408,514.649 C140.961,524.462 132.541,531.731 122.622,531.731 L100.378,531.731 C90.4592,531.731 82.039,524.462 80.5919,514.649 L75.8449,482.461 C75.4421,479.729 77.3301,477.188 80.0619,476.785 C80.3035,476.749 80.5473,476.731 80.7914,476.731 Z" id="Shape" fill="#C1DEE2"></path>
            </g>
        </g>
    </g>
</svg>