<?xml version="1.0" encoding="UTF-8"?>
<svg width="33px" height="33px" viewBox="0 0 33 33" version="1.1" xmlns="http://www.w3.org/2000/svg" xmlns:xlink="http://www.w3.org/1999/xlink">
    <!-- Generator: Sketch 43.2 (39069) - http://www.bohemiancoding.com/sketch -->
    <title>tg</title>
    <desc>Created with Sketch.</desc>
    <defs></defs>
    <g id="Page-1" stroke="none" stroke-width="1" fill="none" fill-rule="evenodd">
        <g id="tg" fill-rule="nonzero" fill="#7E133F">
            <path d="M16.5,32.75 C7.52513,32.75 0.25,25.4749 0.25,16.5 C0.25,7.52513 7.52513,0.25 16.5,0.25 C25.4749,0.25 32.75,7.52513 32.75,16.5 C32.75,25.4749 25.4749,32.75 16.5,32.75 Z M11.4463,18.4013 L11.4674,18.3899 L12.8811,23.0536 C13.0631,23.559 13.3134,23.65 13.6172,23.6077 C13.9227,23.5671 14.0836,23.403 14.2835,23.2112 L16.214,21.3458 L20.3577,24.4138 C21.115,24.8314 21.6594,24.6152 21.8479,23.7118 L24.5405,11.001 C24.8379,9.818 24.3179,9.3435 23.3997,9.7205 L7.58362,15.8305 C6.50462,16.2628 6.51113,16.8673 7.38863,17.1354 L11.4463,18.4029 L11.4463,18.4013 Z" id="Shape"></path>
        </g>
    </g>
</svg>