<svg width="463" height="204" viewBox="0 0 463 204" fill="none" xmlns="http://www.w3.org/2000/svg">
<path d="M279.792 61.4526L264.187 47.4879C253.173 37.6322 238.28 33.3113 223.701 35.7423C203.859 39.0512 185.528 48.4225 171.227 62.5691L159.671 74L143.289 48.4816C136.258 37.5302 127.158 28.0564 116.498 20.5915L99.2796 8.53393C91.3477 2.97944 81.8989 0 72.2156 0C49.8303 0 28.1741 7.95795 11.1152 22.4524L0 31.8966V203.5H208H386.677C393.761 203.5 400.765 201.995 407.223 199.083L424.578 191.261C433.633 187.18 441.267 180.494 446.507 172.057L449.724 166.877C457.993 153.561 458.892 136.946 452.107 122.816L448.044 114.355C441.838 101.431 431.498 90.9471 418.662 84.5627C404.954 77.7447 389.265 76.0321 374.409 79.7319L373.929 79.8514C360.876 83.102 349.134 90.2772 340.287 100.409L319.341 124.397L302.316 90.7855C296.697 79.6925 289.059 69.7448 279.792 61.4526Z" fill="url(#paint0_linear)" fill-opacity="0.3"/>
<path d="M277.294 102.321L261.624 92.5359C252.004 86.529 240.627 83.9711 229.362 85.2819L217.951 86.6097C201.703 88.5004 186.167 94.3481 172.704 103.64L159.671 112.636L145.4 97.1253C136.969 87.9605 126.899 80.4512 115.71 74.9837L97.4819 66.0764C90.6462 62.7362 83.1384 61 75.5303 61H64.9563C47.01 61 29.3943 65.8295 13.9573 74.982L0 83.2571V203H208H389.747C394.836 203 399.894 202.223 404.749 200.697L429.302 192.974C435.301 191.087 440.676 187.61 444.857 182.913L447.337 180.127C456.534 169.794 457.486 154.516 449.644 143.12C442.384 132.571 431.944 124.616 419.845 120.418L415.517 118.915C403.65 114.797 390.932 113.765 378.557 115.915L375.562 116.436C361.336 118.908 347.964 124.929 336.685 133.943L319.341 147.803L305.255 128.398C297.699 117.988 288.205 109.134 277.294 102.321Z" fill="url(#paint1_linear)" fill-opacity="0.3"/>
<defs>
<linearGradient id="paint0_linear" x1="234" y1="0" x2="234" y2="185" gradientUnits="userSpaceOnUse">
<stop stop-color="#48B2B7"/>
<stop offset="1" stop-color="#06FC9D"/>
</linearGradient>
<linearGradient id="paint1_linear" x1="234" y1="61" x2="234" y2="190.091" gradientUnits="userSpaceOnUse">
<stop stop-color="#48B2B7"/>
<stop offset="1" stop-color="#06FC9D"/>
</linearGradient>
</defs>
</svg>
