<svg width="103" height="103" viewBox="0 0 103 103" fill="none" xmlns="http://www.w3.org/2000/svg">
<path d="M75.9625 10.3C68.1671 10.3 61.8 16.6671 61.8 24.4625C61.8 24.4826 61.8 24.5078 61.8 24.5279C53.1848 25.1917 46.35 32.4138 46.35 41.2C46.35 50.4187 53.8688 57.9375 63.0875 57.9375C72.3062 57.9375 79.825 50.4187 79.825 41.2C79.825 40.1539 79.7144 39.138 79.5283 38.1472C85.6137 36.5579 90.125 31.0257 90.125 24.4625C90.125 16.6671 83.7579 10.3 75.9625 10.3ZM75.9625 12.875C82.3648 12.875 87.55 18.0602 87.55 24.4625C87.55 29.8589 83.8484 34.3752 78.8594 35.6678C78.447 34.4859 77.8988 33.3694 77.245 32.3283C77.245 32.278 77.25 32.2327 77.25 32.1875C77.25 31.589 76.8376 31.071 76.2592 30.9352C74.3732 28.5211 71.8485 26.6351 68.9366 25.5438C69.3037 25.3074 69.525 24.9 69.525 24.4625C69.525 23.7534 68.9466 23.175 68.2375 23.175C67.5284 23.175 66.95 23.7534 66.95 24.4625C66.95 24.6335 66.9852 24.8045 67.0506 24.9654C66.1856 24.7492 65.2903 24.5983 64.375 24.5279C64.375 24.5078 64.375 24.4826 64.375 24.4625C64.375 18.0602 69.5602 12.875 75.9625 12.875ZM75.9625 15.45C75.2534 15.45 74.675 16.0284 74.675 16.7375C74.675 17.4466 75.2534 18.025 75.9625 18.025C76.6716 18.025 77.25 17.4466 77.25 16.7375C77.25 16.0284 76.6716 15.45 75.9625 15.45ZM70.5158 17.7132C70.1688 17.7081 69.8368 17.8439 69.5904 18.0904C69.0875 18.5933 69.0875 19.408 69.5904 19.911C70.0933 20.4139 70.9081 20.4139 71.411 19.911C71.9139 19.408 71.9139 18.5933 71.411 18.0904C71.1746 17.854 70.8527 17.7182 70.5158 17.7132ZM81.4444 17.7182C81.0974 17.7081 80.7605 17.8439 80.514 18.0904C80.2726 18.3318 80.1368 18.6587 80.1368 19.0007C80.1368 19.3427 80.2726 19.6696 80.514 19.916C81.0169 20.4139 81.8317 20.4139 82.3346 19.911C82.8376 19.408 82.8376 18.5933 82.3346 18.0904C82.0982 17.854 81.7764 17.7182 81.4444 17.7182ZM83.6875 23.175C82.9784 23.175 82.4 23.7534 82.4 24.4625C82.4 25.1716 82.9784 25.75 83.6875 25.75C84.3966 25.75 84.975 25.1716 84.975 24.4625C84.975 23.7534 84.3966 23.175 83.6875 23.175ZM63.0875 27.0375C70.9081 27.0375 77.25 33.3794 77.25 41.2C77.25 49.0205 70.9081 55.3625 63.0875 55.3625C55.2669 55.3625 48.925 49.0205 48.925 41.2C48.925 33.3794 55.2669 27.0375 63.0875 27.0375ZM81.4394 28.6418C81.0924 28.6318 80.7554 28.7676 80.509 29.014C80.0111 29.522 80.0111 30.3367 80.514 30.8396C81.0169 31.3375 81.8317 31.3375 82.3346 30.8396C82.8376 30.3367 82.8376 29.5169 82.3346 29.014C82.0982 28.7776 81.7764 28.6418 81.4394 28.6418ZM63.0875 29.6125C62.3784 29.6125 61.8 30.1909 61.8 30.9C61.8 31.6091 62.3784 32.1875 63.0875 32.1875C63.7966 32.1875 64.375 31.6091 64.375 30.9C64.375 30.1909 63.7966 29.6125 63.0875 29.6125ZM57.9023 30.9955C57.6911 30.9955 57.4798 31.0559 57.2938 31.1615C56.6751 31.5186 56.4639 32.3082 56.821 32.9218C57.1781 33.5353 57.9627 33.7516 58.5813 33.3945C58.873 33.2235 59.0892 32.9419 59.1797 32.6099C59.2703 32.283 59.225 31.931 59.049 31.6343C58.8176 31.2269 58.3751 30.9805 57.9023 30.9955ZM68.1772 30.9955C67.7396 31.0157 67.3423 31.2571 67.121 31.6393C66.95 31.931 66.9047 32.283 66.9902 32.615C67.0808 32.9469 67.297 33.2285 67.5938 33.3945C68.2073 33.7516 68.9969 33.5404 69.349 32.9268C69.7061 32.3082 69.4948 31.5236 68.8813 31.1665C68.665 31.0408 68.4236 30.9855 68.1772 30.9955ZM71.9743 34.7625C71.758 34.7675 71.5468 34.8279 71.3607 34.9335C71.064 35.1045 70.8477 35.3861 70.7622 35.7181C70.6717 36.045 70.7169 36.397 70.893 36.6937C71.245 37.3073 72.0346 37.5185 72.6482 37.1615C73.2618 36.8094 73.478 36.0198 73.1209 35.4062C72.8846 34.9989 72.447 34.7524 71.9743 34.7625ZM54.1052 34.7625C53.6676 34.7876 53.2703 35.029 53.049 35.4062C52.878 35.703 52.8328 36.055 52.9233 36.3819C53.0088 36.7139 53.2251 36.9955 53.5218 37.1665C53.8185 37.3375 54.1706 37.3827 54.4975 37.2973C54.8294 37.2067 55.111 36.9905 55.282 36.6937C55.6391 36.0802 55.4229 35.2906 54.8093 34.9385C54.598 34.8128 54.3516 34.7524 54.1052 34.7625ZM52.7875 39.9125C52.0784 39.9125 51.5 40.4909 51.5 41.2C51.5 41.9091 52.0784 42.4875 52.7875 42.4875C53.4966 42.4875 54.075 41.9091 54.075 41.2C54.075 40.4909 53.4966 39.9125 52.7875 39.9125ZM73.3875 39.9125C72.6784 39.9125 72.1 40.4909 72.1 41.2C72.1 41.9091 72.6784 42.4875 73.3875 42.4875C74.0966 42.4875 74.675 41.9091 74.675 41.2C74.675 40.4909 74.0966 39.9125 73.3875 39.9125ZM54.1354 45.0625C53.9191 45.0675 53.7079 45.1279 53.5218 45.2335C53.2251 45.4045 53.0088 45.6861 52.9233 46.0181C52.8328 46.345 52.878 46.697 53.049 46.9937C53.4061 47.6073 54.1957 47.8185 54.8093 47.4615C55.4229 47.1094 55.6391 46.3198 55.282 45.7062C55.0457 45.2989 54.6081 45.0524 54.1354 45.0625ZM71.9441 45.0675C71.5065 45.0876 71.1092 45.329 70.893 45.7062C70.5359 46.3248 70.7471 47.1094 71.3607 47.4665C71.9793 47.8236 72.7639 47.6123 73.1209 46.9937C73.478 46.3802 73.2668 45.5956 72.6482 45.2385C72.437 45.1128 72.1905 45.0575 71.9441 45.0675ZM68.2023 48.8294C67.9911 48.8345 67.7798 48.8948 67.5938 49.0055C67.297 49.1714 67.0808 49.4531 66.9902 49.785C66.9047 50.1169 66.95 50.469 67.121 50.7607C67.4781 51.3793 68.2626 51.5905 68.8813 51.2334C69.4948 50.8764 69.7061 50.0918 69.349 49.4732C69.1176 49.0658 68.6751 48.8194 68.2023 48.8294ZM57.8772 48.8345C57.4346 48.8546 57.0373 49.096 56.821 49.4782C56.4639 50.0918 56.6751 50.8814 57.2938 51.2385C57.5855 51.4095 57.9375 51.4547 58.2694 51.3642C58.6014 51.2787 58.883 51.0624 59.049 50.7657C59.225 50.469 59.2703 50.1169 59.1797 49.79C59.0892 49.4581 58.873 49.1764 58.5813 49.0055C58.365 48.8797 58.1186 48.8244 57.8772 48.8345ZM29.6125 50.2125C28.3502 50.2125 27.1431 50.4539 26.0316 50.8713C25.9914 50.8764 26.0417 50.8512 25.8959 50.8965L25.9311 50.8864C23.1448 51.7313 9.95801 55.4077 9.95801 55.4077C9.49532 55.5184 9.13321 55.8704 9.0125 56.3231C8.88677 56.7807 9.02256 57.2686 9.36456 57.5955C9.70152 57.9174 10.1944 58.033 10.642 57.8922C10.642 57.8922 23.5371 54.3013 26.5899 53.3759C26.6804 53.3608 26.771 53.3407 26.8565 53.3055C27.7215 52.9736 28.6419 52.7875 29.6125 52.7875C31.0257 52.7875 32.3384 53.1697 33.48 53.8336C33.5253 53.8638 33.5756 53.8839 33.6209 53.904C33.6309 53.909 33.641 53.914 33.651 53.9191C41.7633 57.7514 58.2443 65.9994 58.2845 66.0246H58.2946C58.2141 65.9844 58.2242 65.9894 58.3801 66.09C58.4103 66.1101 58.4404 66.1302 58.4656 66.1453C59.6877 66.8041 60.5125 68.0514 60.5125 69.525C60.5125 70.2995 60.2862 71.0036 59.8939 71.6121C58.7623 73.3724 56.5695 73.7446 54.5226 72.7588C54.4975 72.7488 54.4723 72.7387 54.4522 72.7236L53.5721 72.3665C53.1446 72.1754 52.6417 72.2358 52.2695 72.5224C51.8973 72.8041 51.7062 73.2718 51.7766 73.7345C51.842 74.1972 52.1588 74.5895 52.6014 74.7555L53.4765 75.1125L53.4061 75.0773C55.9962 76.3246 59.1596 76.043 61.1814 74.0715L62.5846 75.0321C62.9417 75.2785 63.4044 75.3238 63.8067 75.1578L84.9297 66.4269L84.3916 65.3557C84.6984 65.9642 85.4226 66.2308 86.0462 65.9642C86.5089 65.7681 87.0119 65.6625 87.55 65.6625C89.6975 65.6625 91.4125 67.3775 91.4125 69.525C91.4125 70.9935 90.5927 72.2358 89.3857 72.8996C88.8023 73.2165 88.5559 73.9357 88.8325 74.5492L88.3497 73.4629L62.9668 86.9364C63.007 86.9163 62.9718 86.9314 62.9115 86.9515C62.8511 86.9716 62.7908 86.9917 62.7355 87.0219C62.0414 87.3538 61.3021 87.55 60.5125 87.55C59.7531 87.55 59.0389 87.374 58.3751 87.0672C58.3449 87.0571 58.3147 87.042 58.2845 87.032C58.189 86.9968 58.1739 86.9867 58.2393 87.0219L26.2529 73.4881C25.9612 73.3674 25.6394 73.3523 25.3426 73.4529L9.89263 78.6029C9.21871 78.8292 8.85157 79.5584 9.07789 80.2324C9.3042 80.9063 10.0335 81.2734 10.7074 81.0471L25.6947 76.048L57.2032 89.3756C57.3994 89.4661 57.4396 89.4661 57.3943 89.446C58.3348 89.8685 59.391 90.125 60.5125 90.125C61.7246 90.125 62.8562 89.8232 63.852 89.3404C63.9274 89.3153 63.9978 89.3002 64.0934 89.2499C64.1085 89.2449 64.1235 89.2348 64.1336 89.2298L90.6128 75.1779C90.8291 75.0622 91.0051 74.8912 91.1258 74.68C92.7855 73.5233 93.9875 71.7077 93.9875 69.525C93.9875 65.9844 91.0906 63.0875 87.55 63.0875C86.8459 63.0875 86.1921 63.2786 85.5584 63.4898H85.5534C85.3824 63.4898 85.2114 63.52 85.0555 63.5904L63.4647 72.5124L62.4035 71.7932C62.7002 71.0589 63.0875 70.3598 63.0875 69.525C63.0875 67.0807 61.6944 64.9584 59.6877 63.8771L59.7782 63.9324C59.8235 63.9576 59.738 63.8771 59.5066 63.7514C59.4966 63.7463 59.4865 63.7413 59.4714 63.7363C59.4714 63.7363 42.91 55.4379 34.7223 51.5754C34.7122 51.5704 34.7022 51.5654 34.6971 51.5603C34.5513 51.5 34.5412 51.5 34.6066 51.5251C33.128 50.7003 31.4281 50.2125 29.6125 50.2125ZM63.0875 50.2125C62.3784 50.2125 61.8 50.7909 61.8 51.5C61.8 52.2091 62.3784 52.7875 63.0875 52.7875C63.7966 52.7875 64.375 52.2091 64.375 51.5C64.375 50.7909 63.7966 50.2125 63.0875 50.2125ZM37.3375 66.95C36.6284 66.95 36.05 67.5284 36.05 68.2375C36.05 68.9466 36.6284 69.525 37.3375 69.525C38.0466 69.525 38.625 68.9466 38.625 68.2375C38.625 67.5284 38.0466 66.95 37.3375 66.95ZM41.2 68.2375C40.4909 68.2375 39.9125 68.8159 39.9125 69.525C39.9125 70.2341 40.4909 70.8125 41.2 70.8125C41.9091 70.8125 42.4875 70.2341 42.4875 69.525C42.4875 68.8159 41.9091 68.2375 41.2 68.2375ZM45.0625 69.525C44.3534 69.525 43.775 70.1034 43.775 70.8125C43.775 71.5216 44.3534 72.1 45.0625 72.1C45.7716 72.1 46.35 71.5216 46.35 70.8125C46.35 70.1034 45.7716 69.525 45.0625 69.525ZM48.925 70.8125C48.2159 70.8125 47.6375 71.3909 47.6375 72.1C47.6375 72.8091 48.2159 73.3875 48.925 73.3875C49.6341 73.3875 50.2125 72.8091 50.2125 72.1C50.2125 71.3909 49.6341 70.8125 48.925 70.8125Z" fill="url(#paint0_linear)"/>
<defs>
<linearGradient id="paint0_linear" x1="51.4769" y1="10.3" x2="51.4769" y2="90.125" gradientUnits="userSpaceOnUse">
<stop stop-color="#FF8E00"/>
<stop offset="0.515625" stop-color="#D12D5F"/>
</linearGradient>
</defs>
</svg>
