<?xml version="1.0" encoding="UTF-8"?>
<svg width="673px" height="199px" viewBox="0 0 673 199" version="1.1" xmlns="http://www.w3.org/2000/svg" xmlns:xlink="http://www.w3.org/1999/xlink">
    <!-- Generator: Sketch 43.2 (39069) - http://www.bohemiancoding.com/sketch -->
    <title>circlestitle-big</title>
    <desc>Created with Sketch.</desc>
    <defs></defs>
    <g id="Page-1" stroke="none" stroke-width="1" fill="none" fill-rule="evenodd">
        <g id="circlestitle-big" fill-rule="nonzero">
            <path d="M0.712,138.552 C0.712,161.304 7.048,174.552 15.976,183.48 C25.48,192.696 37.288,195 48.232,195 C58.6,195 70.696,192.696 80.2,183.48 C89.128,174.552 95.176,161.304 95.176,138.552 L95.176,134.52 C95.176,128.76 90.568,124.152 85.096,124.152 L76.744,124.152 C70.984,124.152 66.376,128.76 66.376,134.52 L66.376,138.552 C66.376,148.92 64.936,156.696 61.48,161.304 C58.888,164.184 53.704,166.488 48.232,166.488 C35.848,166.488 29.8,157.848 29.8,138.552 L29.8,57.048 C29.8,37.752 36.136,29.4 48.232,29.4 C60.04,29.4 66.376,37.752 66.376,57.048 L66.376,61.08 C66.376,66.84 70.984,71.448 76.744,71.448 L85.096,71.448 C90.568,71.448 95.176,66.84 95.176,61.08 L95.176,57.048 C95.176,35.16 89.128,20.76 79.912,12.12 C70.408,3.48 58.888,0.888 48.232,0.888 C37.288,0.888 25.768,3.48 16.264,12.12 C7.048,20.76 0.712,35.16 0.712,57.048 L0.712,138.552 Z M142.28,11.256 C142.28,5.496 137.384,0.888 131.912,0.888 L123.848,0.888 C118.088,0.888 113.48,5.496 113.48,11.256 L113.48,184.632 C113.48,190.392 118.088,195 123.848,195 L131.912,195 C137.384,195 142.28,190.392 142.28,184.632 L142.28,11.256 Z M254.618,136.248 C254.618,121.272 250.586,109.464 242.234,100.536 C243.098,99.672 243.674,99.096 244.538,98.232 C253.466,89.304 256.634,74.904 256.634,57.048 C256.634,18.456 244.25,0.6 208.826,0.6 L172.538,0.6 C166.778,0.6 162.17,5.208 162.17,10.968 L162.17,184.344 C162.17,190.104 166.778,194.712 172.538,194.712 L180.602,194.712 C186.074,194.712 190.682,190.104 190.682,184.344 L190.682,113.784 L203.642,113.784 C217.754,113.784 225.818,121.848 225.818,136.248 L225.818,184.344 C225.818,190.104 230.426,194.712 236.186,194.712 L244.25,194.712 C250.01,194.712 254.618,190.104 254.618,184.344 L254.618,136.248 Z M190.682,29.4 L208.826,29.4 C223.802,29.4 228.122,37.464 228.122,57.048 C228.122,76.632 219.77,84.696 203.642,84.696 L190.682,84.696 L190.682,29.4 Z" id="Shape" fill="#F6EEE7"></path>
            <path d="M368.288,60.448 C368.288,37.696 361.952,24.448 353.024,15.52 C343.52,6.304 331.712,4 320.768,4 C310.4,4 298.304,6.304 288.8,15.52 C279.872,24.448 273.824,37.696 273.824,60.448 L273.824,64.48 C273.824,70.24 278.432,74.848 283.904,74.848 L292.256,74.848 C298.016,74.848 302.624,70.24 302.624,64.48 L302.624,60.448 C302.624,50.08 304.064,42.304 307.52,37.696 C310.112,34.816 315.296,32.512 320.768,32.512 C333.152,32.512 339.2,41.152 339.2,60.448 L339.2,141.952 C339.2,161.248 332.864,169.6 320.768,169.6 C308.96,169.6 302.624,161.248 302.624,141.952 L302.624,137.92 C302.624,132.16 298.016,127.552 292.256,127.552 L283.904,127.552 C278.432,127.552 273.824,132.16 273.824,137.92 L273.824,141.952 C273.824,163.84 279.872,178.24 289.088,186.88 C298.592,195.52 310.112,198.112 320.768,198.112 C331.712,198.112 343.232,195.52 352.736,186.88 C361.952,178.24 368.288,163.84 368.288,141.952 L368.288,60.448 Z" id="Shape" fill="#3CC1CA"></path>
            <path d="M468.352,176.856 C468.352,171.096 463.744,166.488 457.984,166.488 L415.072,166.488 L415.072,11.256 C415.072,5.496 410.464,0.888 404.992,0.888 L396.64,0.888 C390.88,0.888 386.272,5.496 386.272,11.256 L386.272,184.632 C386.272,190.392 390.88,195 396.64,195 L457.984,195 C463.744,195 468.352,190.392 468.352,184.632 L468.352,176.856 Z M494.837,0.888 C489.077,0.888 484.469,5.496 484.469,11.256 L484.469,184.632 C484.469,190.392 489.077,195 494.837,195 L557.045,195 C562.805,195 567.413,190.392 567.413,184.632 L567.413,176.856 C567.413,171.096 562.805,166.488 557.045,166.488 L512.981,166.488 L512.981,112.056 L549.269,112.056 C555.029,112.056 559.637,107.448 559.637,101.688 L559.637,93.912 C559.637,88.152 555.029,83.544 549.269,83.544 L512.981,83.544 L512.981,29.4 L557.045,29.4 C562.805,29.4 567.413,24.792 567.413,19.032 L567.413,11.256 C567.413,5.496 562.805,0.888 557.045,0.888 L494.837,0.888 Z M577.007,138.552 C577.007,176.28 592.847,194.712 624.527,194.712 C655.055,194.712 672.047,177.432 672.047,145.176 C672.047,117.24 652.751,102.552 633.743,87.864 L634.031,87.864 C619.919,76.92 605.807,65.688 605.807,51 C605.807,36.024 612.431,29.4 624.527,29.4 C637.199,29.4 643.247,38.04 643.247,57.048 L643.247,61.08 C643.247,66.84 647.855,71.448 653.615,71.448 L661.679,71.448 C667.439,71.448 672.047,66.84 672.047,61.08 L672.047,57.048 C672.047,20.472 655.631,0.6 624.527,0.6 C593.999,0.6 577.007,19.32 577.007,51.864 C577.007,80.376 596.879,95.928 615.887,110.904 L615.887,110.616 C629.999,121.56 643.247,132.216 643.247,145.752 C643.247,161.016 636.623,166.2 624.527,166.2 C620.495,166.2 615.599,165.624 612.431,162.456 C608.399,159 605.807,152.376 605.807,138.552 L605.807,134.808 C605.807,129.048 600.911,124.44 595.439,124.44 L587.375,124.44 C581.615,124.44 577.007,129.048 577.007,134.808 L577.007,138.552 Z" id="Shape" fill="#F6EEE7"></path>
        </g>
    </g>
</svg>