<svg width="80" height="84" viewBox="0 0 80 84" fill="none" xmlns="http://www.w3.org/2000/svg">
<path d="M40 0C37.7273 0 35.7913 0.921728 34.549 2.32541C33.3067 3.72909 32.7273 5.52899 32.7273 7.30435C32.7273 7.81634 32.7887 8.32843 32.8871 8.83441L12.8303 18.9064C12.791 18.8596 12.7644 18.8061 12.7237 18.7602C11.4814 17.3565 9.54545 16.4348 7.27273 16.4348C5 16.4348 3.06405 17.3565 1.82173 18.7602C0.579419 20.1639 0 21.9638 0 23.7391C0 25.5145 0.579419 27.3144 1.82173 28.7181C3.06405 30.1218 5 31.0435 7.27273 31.0435C9.49014 31.0435 11.3759 30.1572 12.6207 28.8108L32.397 39.8458C32.5814 39.9541 32.7834 40.029 32.9936 40.0669C32.8342 40.7029 32.7273 41.35 32.7273 42C32.7273 43.7754 33.3067 45.5753 34.549 46.9789C35.4347 47.9797 36.7527 48.5893 38.2138 48.9406C38.1911 49.0604 38.1803 49.1823 38.1818 49.3043V69.7622C36.7345 70.1168 35.4283 70.7232 34.549 71.7167C34.5083 71.7627 34.4817 71.8162 34.4425 71.8629L14.3857 61.7909C14.484 61.285 14.5455 60.7729 14.5455 60.2609C14.5455 58.4855 13.966 56.6856 12.7237 55.2819C11.4814 53.8783 9.54545 52.9565 7.27273 52.9565C5 52.9565 3.06405 53.8783 1.82173 55.2819C0.579419 56.6856 0 58.4855 0 60.2609C0 62.0362 0.579419 63.8361 1.82173 65.2398C3.06405 66.6435 5 67.5652 7.27273 67.5652C9.54545 67.5652 11.4814 66.6435 12.7237 65.2398C12.765 65.1931 12.7904 65.1375 12.8303 65.09L32.8871 75.1656C32.7887 75.6716 32.7273 76.1837 32.7273 76.6957C32.7273 78.471 33.3067 80.2709 34.549 81.6746C35.7913 83.0783 37.7273 84 40 84C42.2727 84 44.2087 83.0783 45.451 81.6746C46.6933 80.2709 47.2727 78.471 47.2727 76.6957C47.2727 76.1837 47.2113 75.6716 47.1129 75.1656L67.1697 65.0936C67.209 65.1404 67.2356 65.1939 67.2763 65.2398C68.5186 66.6435 70.4545 67.5652 72.7273 67.5652C75 67.5652 76.936 66.6435 78.1783 65.2398C79.4206 63.8361 80 62.0362 80 60.2609C80 58.4855 79.4206 56.6856 78.1783 55.2819C76.936 53.8783 75 52.9565 72.7273 52.9565C70.4545 52.9565 68.5186 53.8783 67.2763 55.2819C66.034 56.6856 65.4545 58.4855 65.4545 60.2609C65.4545 60.7729 65.516 61.285 65.6143 61.7909L45.5575 71.8629C45.5183 71.8162 45.4917 71.7627 45.451 71.7167C44.5717 70.7232 43.2655 70.1168 41.8182 69.7622V49.3043C41.8197 49.1823 41.809 49.0604 41.7862 48.9406C43.2473 48.5893 44.5653 47.9797 45.451 46.9789C46.6933 45.5753 47.2727 43.7754 47.2727 42C47.2727 41.3646 47.1693 40.7321 47.017 40.1097C47.1778 40.0669 47.3319 40.0021 47.4751 39.9171L67.3793 28.8144C68.6241 30.1598 70.5108 31.0435 72.7273 31.0435C75 31.0435 76.936 30.1218 78.1783 28.7181C79.4206 27.3144 80 25.5145 80 23.7391C80 21.9638 79.4206 20.1639 78.1783 18.7602C76.936 17.3565 75 16.4348 72.7273 16.4348C70.4545 16.4348 68.5186 17.3565 67.2763 18.7602C66.034 20.1639 65.4545 21.9638 65.4545 23.7391C65.4545 24.3562 65.5525 24.9706 65.696 25.5759L45.7102 36.725C45.5909 36.7884 45.4789 36.865 45.3764 36.9533C44.1321 35.5914 42.2325 34.6957 40 34.6957C37.7555 34.6957 35.8461 35.6003 34.6023 36.9747C34.4724 36.8461 34.3239 36.7379 34.1619 36.6537L14.304 25.5759C14.4475 24.9706 14.5455 24.3562 14.5455 23.7391C14.5455 23.2271 14.484 22.715 14.3857 22.2091L34.4425 12.1371C34.4817 12.1838 34.5083 12.2373 34.549 12.2833C35.7913 13.687 37.7273 14.6087 40 14.6087C42.2727 14.6087 44.2087 13.687 45.451 12.2833C46.6933 10.8796 47.2727 9.07971 47.2727 7.30435C47.2727 5.52899 46.6933 3.72909 45.451 2.32541C44.2087 0.921728 42.2727 0 40 0ZM40 3.65217C41.3636 3.65217 42.155 4.10001 42.7308 4.75068C43.3067 5.40135 43.6364 6.34058 43.6364 7.30435C43.6364 8.26812 43.3067 9.20735 42.7308 9.85802C42.155 10.5087 41.3636 10.9565 40 10.9565C38.6364 10.9565 37.845 10.5087 37.2692 9.85802C36.6933 9.20735 36.3636 8.26812 36.3636 7.30435C36.3636 6.34058 36.6933 5.40135 37.2692 4.75068C37.845 4.10001 38.6364 3.65217 40 3.65217ZM7.27273 20.087C8.63636 20.087 9.42768 20.5348 10.0036 21.1855C10.5794 21.8361 10.9091 22.7754 10.9091 23.7391C10.9091 24.7029 10.5794 25.6421 10.0036 26.2928C9.42768 26.9435 8.63636 27.3913 7.27273 27.3913C5.90909 27.3913 5.11777 26.9435 4.5419 26.2928C3.96604 25.6421 3.63636 24.7029 3.63636 23.7391C3.63636 22.7754 3.96604 21.8361 4.5419 21.1855C5.11777 20.5348 5.90909 20.087 7.27273 20.087ZM72.7273 20.087C74.0909 20.087 74.8822 20.5348 75.4581 21.1855C76.034 21.8361 76.3636 22.7754 76.3636 23.7391C76.3636 24.7029 76.034 25.6421 75.4581 26.2928C74.8822 26.9435 74.0909 27.3913 72.7273 27.3913C71.3636 27.3913 70.5723 26.9435 69.9965 26.2928C69.4206 25.6421 69.0909 24.7029 69.0909 23.7391C69.0909 22.7754 69.4206 21.8361 69.9965 21.1855C70.5723 20.5348 71.3636 20.087 72.7273 20.087ZM40 38.3478C41.3636 38.3478 42.155 38.7957 42.7308 39.4463C43.3067 40.097 43.6364 41.0362 43.6364 42C43.6364 42.9638 43.3067 43.903 42.7308 44.5537C42.155 45.2043 41.3636 45.6522 40 45.6522C38.6364 45.6522 37.845 45.2043 37.2692 44.5537C36.6933 43.903 36.3636 42.9638 36.3636 42C36.3636 41.0362 36.6933 40.097 37.2692 39.4463C37.845 38.7957 38.6364 38.3478 40 38.3478ZM7.27273 56.6087C8.63636 56.6087 9.42768 57.0565 10.0036 57.7072C10.5794 58.3579 10.9091 59.2971 10.9091 60.2609C10.9091 61.2246 10.5794 62.1639 10.0036 62.8145C9.42768 63.4652 8.63636 63.913 7.27273 63.913C5.90909 63.913 5.11777 63.4652 4.5419 62.8145C3.96604 62.1639 3.63636 61.2246 3.63636 60.2609C3.63636 59.2971 3.96604 58.3579 4.5419 57.7072C5.11777 57.0565 5.90909 56.6087 7.27273 56.6087ZM72.7273 56.6087C74.0909 56.6087 74.8822 57.0565 75.4581 57.7072C76.034 58.3579 76.3636 59.2971 76.3636 60.2609C76.3636 61.2246 76.034 62.1639 75.4581 62.8145C74.8822 63.4652 74.0909 63.913 72.7273 63.913C71.3636 63.913 70.5723 63.4652 69.9965 62.8145C69.4206 62.1639 69.0909 61.2246 69.0909 60.2609C69.0909 59.2971 69.4206 58.3579 69.9965 57.7072C70.5723 57.0565 71.3636 56.6087 72.7273 56.6087ZM39.9467 73.0649C39.9834 73.0672 40.0201 73.0684 40.0568 73.0684C41.3683 73.0868 42.1671 73.505 42.7308 74.142C43.3067 74.7926 43.6364 75.7319 43.6364 76.6957C43.6364 77.6594 43.3067 78.5986 42.7308 79.2493C42.155 79.9 41.3636 80.3478 40 80.3478C38.6364 80.3478 37.845 79.9 37.2692 79.2493C36.6933 78.5986 36.3636 77.6594 36.3636 76.6957C36.3636 75.7319 36.6933 74.7927 37.2692 74.142C37.8338 73.504 38.6314 73.0819 39.9467 73.0649Z" fill="url(#paint0_linear)"/>
<defs>
<linearGradient id="paint0_linear" x1="40" y1="0" x2="40" y2="84" gradientUnits="userSpaceOnUse">
<stop stop-color="#FF8E00"/>
<stop offset="0.515625" stop-color="#D12D5F"/>
</linearGradient>
</defs>
</svg>
