<svg width="1393" height="4224" viewBox="0 0 1393 4224" fill="none" xmlns="http://www.w3.org/2000/svg">
<g mask="url(#mask0)">
<g filter="url(#filter0_d)">
<ellipse cx="654" cy="1498.08" rx="1072" ry="997.222" transform="rotate(-180 654 1498.08)" fill="url(#paint0_linear)"/>
</g>
<g filter="url(#filter1_d)">
<ellipse cx="635.5" cy="3670.3" rx="950.5" ry="884.207" transform="rotate(-180 635.5 3670.3)" fill="url(#paint1_linear)"/>
</g>
<g filter="url(#filter2_d)">
<ellipse cx="680" cy="409.253" rx="837" ry="786.625" transform="rotate(-180 680 409.253)" fill="url(#paint2_linear)"/>
</g>
<g filter="url(#filter3_d)">
<ellipse cx="685" cy="1501.07" rx="737" ry="685.559" transform="rotate(-180 685 1501.07)" fill="url(#paint3_linear)"/>
</g>
<g filter="url(#filter4_d)">
<ellipse cx="660" cy="2715.86" rx="973" ry="914.576" transform="rotate(-180 660 2715.86)" fill="url(#paint4_linear)"/>
</g>
<g filter="url(#filter5_d)">
<ellipse cx="692.5" cy="3065.68" rx="814.5" ry="757.251" transform="rotate(-180 692.5 3065.68)" fill="url(#paint5_linear)"/>
</g>
</g>
<path d="M827 765.2V765.2C857.906 752.529 893.451 760.975 915.354 786.194L925.608 798L938.933 783.406C959.241 761.163 993.243 758.286 1017 776.8V776.8" stroke="white" stroke-opacity="0.8" stroke-width="10" stroke-linecap="round"/>
<path d="M865 853.5V853.5C903.538 837.667 947.882 848.21 975.169 879.695L988 894.5L1004.64 876.24C1029.95 848.461 1072.38 844.87 1102 868V868" stroke="white" stroke-opacity="0.8" stroke-width="10" stroke-linecap="round"/>
<path d="M1117 790.096V790.096C1140.61 780.467 1167.72 786.9 1184.49 806.106L1192.25 815L1202.4 803.945C1217.93 787.02 1243.85 784.828 1262 798.904V798.904" stroke="white" stroke-opacity="0.8" stroke-width="10" stroke-linecap="round"/>
<path d="M897 699.348V699.348C916.34 691.377 938.611 696.678 952.286 712.507L958.759 720L967.125 710.789C979.816 696.816 1001.14 695.011 1016 706.652V706.652" stroke="white" stroke-opacity="0.6" stroke-width="10" stroke-linecap="round"/>
<path d="M1035 671.207V671.207C1049.79 665.112 1066.82 669.165 1077.28 681.27L1082.23 687L1088.63 679.956C1098.33 669.271 1114.64 667.891 1126 676.793V676.793" stroke="white" stroke-opacity="0.6" stroke-width="10" stroke-linecap="round"/>
<path d="M1102 606.207V606.207C1117.17 600.09 1134.55 604.197 1145.37 616.458L1150.27 622L1156.74 615.025C1166.75 604.24 1183.32 602.84 1195 611.793V611.793" stroke="white" stroke-opacity="0.6" stroke-width="6" stroke-linecap="round"/>
<path d="M1189 551.852V551.852C1200.57 547.152 1213.84 550.297 1222.07 559.687L1225.85 564L1230.81 558.617C1238.43 550.347 1251.1 549.275 1260 556.148V556.148" stroke="white" stroke-opacity="0.4" stroke-width="6" stroke-linecap="round"/>
<path d="M1229 682.207V682.207C1244.17 676.09 1261.55 680.197 1272.37 692.458L1277.27 698L1283.74 691.025C1293.75 680.24 1310.32 678.84 1322 687.793V687.793" stroke="white" stroke-opacity="0.4" stroke-width="6" stroke-linecap="round"/>
<path d="M1118 511.852V511.852C1129.57 507.152 1142.84 510.297 1151.07 519.687L1154.85 524L1159.81 518.617C1167.43 510.347 1180.1 509.275 1189 516.148V516.148" stroke="white" stroke-opacity="0.4" stroke-width="6" stroke-linecap="round"/>
<path d="M1297 554.281V554.281C1306.48 550.509 1317.31 553.056 1324.11 560.66L1327.1 564L1331.11 559.734C1337.39 553.06 1347.69 552.191 1355 557.719V557.719" stroke="white" stroke-opacity="0.6" stroke-width="6" stroke-linecap="round"/>
<path d="M1229 502.281V502.281C1238.29 498.519 1248.95 501.041 1255.56 508.568L1258.58 512L1262.56 507.7C1268.68 501.075 1278.85 500.215 1286 505.719V505.719" stroke="white" stroke-opacity="0.4" stroke-width="6" stroke-linecap="round"/>
<path d="M1295 518.711V518.711C1302.21 515.876 1310.41 517.8 1315.61 523.541L1317.84 526L1320.86 522.817C1325.65 517.788 1333.44 517.131 1339 521.289V521.289" stroke="white" stroke-opacity="0.4" stroke-width="3" stroke-linecap="round"/>
<path d="M1333 504.926V504.926C1338.69 502.581 1345.24 504.141 1349.26 508.796L1351.16 511L1353.63 508.291C1357.36 504.181 1363.63 503.65 1368 507.074V507.074" stroke="white" stroke-opacity="0.6" stroke-width="3" stroke-linecap="round"/>
<path d="M1309 477.926V477.926C1314.5 475.593 1320.88 477.124 1324.71 481.699L1326.65 484L1329.07 481.256C1332.65 477.197 1338.79 476.677 1343 480.074V480.074" stroke="white" stroke-opacity="0.4" stroke-width="3" stroke-linecap="round"/>
<path d="M1339 469.748V469.748C1343.46 468.082 1348.48 469.236 1351.76 472.682L1353.01 474L1354.83 472.187C1357.83 469.192 1362.55 468.797 1366 471.252V471.252" stroke="white" stroke-opacity="0.4" stroke-width="3" stroke-linecap="round"/>
<path d="M8 870L9 846.5V0H1377L1322.86 68.9435C1279.27 124.459 1209.64 152.884 1139.65 143.739L1121.06 141.31C1048.12 131.779 975.838 163.055 932.852 222.744L911.53 252.35C887.017 286.389 843.865 301.511 803.466 290.22L675 254.314C641.135 244.849 605.105 246.708 572.393 259.607C519.109 280.619 480.961 328.308 472.163 384.906L461.114 455.984C453.541 504.697 411.598 540.624 362.301 540.624H229.871C191.503 540.624 156.518 562.576 139.828 597.124L8 870Z" fill="url(#paint6_linear)"/>
<path d="M160.895 235.885L8 253.5V2H1373L1136.65 12.3394C1116.1 13.2381 1096.33 20.4488 1080.04 32.989L1044.12 60.6223C1022.91 76.9473 996.029 84.0835 969.508 80.4338L926.578 74.5257C896.256 70.3527 865.381 73.1949 836.33 82.8333L751.509 110.975L693.991 122.916L564.285 133.531H338.527C313.157 133.531 288.736 143.174 270.209 160.506L217.767 209.567C202.119 224.207 182.182 233.432 160.895 235.885Z" fill="url(#paint7_linear)"/>
<path d="M176.8 2409.73L11.5 2431V2155.09H1393L1154.22 2177.86C1135.08 2179.69 1116.87 2186.99 1101.78 2198.9L1063.93 2228.75C1042.49 2245.66 1015.07 2253.07 988.035 2249.25L946.524 2243.4C915.489 2239.02 883.859 2242 854.186 2252.09L769.772 2280.8L712 2293.09L581.722 2304.02H355.511C329.713 2304.02 304.913 2313.99 286.294 2331.85L233.251 2382.72C217.808 2397.53 198.022 2406.99 176.8 2409.73Z" fill="url(#paint8_linear)"/>
<path d="M1225.21 1895.75L1376.54 1874.51L1376.55 2155.6L0 2155.6L248.987 2131.75C268.25 2129.91 286.563 2122.51 301.707 2110.47L339.271 2080.59C360.64 2063.59 388.031 2056.07 415.084 2059.77L456.619 2065.45C487.672 2069.7 519.289 2066.59 548.92 2056.38L633.215 2027.32L690.936 2014.79L821.168 2003.32L1047.38 2002.38C1073.17 2002.27 1097.93 1992.2 1116.48 1974.27L1169.6 1922.9C1184.8 1908.2 1204.27 1898.69 1225.21 1895.75Z" fill="url(#paint9_linear)"/>
<defs>
<filter id="filter0_d" x="-422" y="500.86" width="2152" height="2002.44" filterUnits="userSpaceOnUse" color-interpolation-filters="sRGB">
<feFlood flood-opacity="0" result="BackgroundImageFix"/>
<feColorMatrix in="SourceAlpha" type="matrix" values="0 0 0 0 0 0 0 0 0 0 0 0 0 0 0 0 0 0 127 0"/>
<feOffset dy="4"/>
<feGaussianBlur stdDeviation="2"/>
<feColorMatrix type="matrix" values="0 0 0 0 0 0 0 0 0 0 0 0 0 0 0 0 0 0 0.25 0"/>
<feBlend mode="normal" in2="BackgroundImageFix" result="effect1_dropShadow"/>
<feBlend mode="normal" in="SourceGraphic" in2="effect1_dropShadow" result="shape"/>
</filter>
<filter id="filter1_d" x="-319" y="2786.1" width="1909" height="1776.41" filterUnits="userSpaceOnUse" color-interpolation-filters="sRGB">
<feFlood flood-opacity="0" result="BackgroundImageFix"/>
<feColorMatrix in="SourceAlpha" type="matrix" values="0 0 0 0 0 0 0 0 0 0 0 0 0 0 0 0 0 0 127 0"/>
<feOffset dy="4"/>
<feGaussianBlur stdDeviation="2"/>
<feColorMatrix type="matrix" values="0 0 0 0 0 0 0 0 0 0 0 0 0 0 0 0 0 0 0.25 0"/>
<feBlend mode="normal" in2="BackgroundImageFix" result="effect1_dropShadow"/>
<feBlend mode="normal" in="SourceGraphic" in2="effect1_dropShadow" result="shape"/>
</filter>
<filter id="filter2_d" x="-161" y="-377.373" width="1682" height="1581.25" filterUnits="userSpaceOnUse" color-interpolation-filters="sRGB">
<feFlood flood-opacity="0" result="BackgroundImageFix"/>
<feColorMatrix in="SourceAlpha" type="matrix" values="0 0 0 0 0 0 0 0 0 0 0 0 0 0 0 0 0 0 127 0"/>
<feOffset dy="4"/>
<feGaussianBlur stdDeviation="2"/>
<feColorMatrix type="matrix" values="0 0 0 0 0 0 0 0 0 0 0 0 0 0 0 0 0 0 0.25 0"/>
<feBlend mode="normal" in2="BackgroundImageFix" result="effect1_dropShadow"/>
<feBlend mode="normal" in="SourceGraphic" in2="effect1_dropShadow" result="shape"/>
</filter>
<filter id="filter3_d" x="-56" y="815.51" width="1482" height="1379.12" filterUnits="userSpaceOnUse" color-interpolation-filters="sRGB">
<feFlood flood-opacity="0" result="BackgroundImageFix"/>
<feColorMatrix in="SourceAlpha" type="matrix" values="0 0 0 0 0 0 0 0 0 0 0 0 0 0 0 0 0 0 127 0"/>
<feOffset dy="4"/>
<feGaussianBlur stdDeviation="2"/>
<feColorMatrix type="matrix" values="0 0 0 0 0 0 0 0 0 0 0 0 0 0 0 0 0 0 0.25 0"/>
<feBlend mode="normal" in2="BackgroundImageFix" result="effect1_dropShadow"/>
<feBlend mode="normal" in="SourceGraphic" in2="effect1_dropShadow" result="shape"/>
</filter>
<filter id="filter4_d" x="-317" y="1801.28" width="1954" height="1837.15" filterUnits="userSpaceOnUse" color-interpolation-filters="sRGB">
<feFlood flood-opacity="0" result="BackgroundImageFix"/>
<feColorMatrix in="SourceAlpha" type="matrix" values="0 0 0 0 0 0 0 0 0 0 0 0 0 0 0 0 0 0 127 0"/>
<feOffset dy="4"/>
<feGaussianBlur stdDeviation="2"/>
<feColorMatrix type="matrix" values="0 0 0 0 0 0 0 0 0 0 0 0 0 0 0 0 0 0 0.25 0"/>
<feBlend mode="normal" in2="BackgroundImageFix" result="effect1_dropShadow"/>
<feBlend mode="normal" in="SourceGraphic" in2="effect1_dropShadow" result="shape"/>
</filter>
<filter id="filter5_d" x="-126" y="2308.43" width="1637" height="1522.5" filterUnits="userSpaceOnUse" color-interpolation-filters="sRGB">
<feFlood flood-opacity="0" result="BackgroundImageFix"/>
<feColorMatrix in="SourceAlpha" type="matrix" values="0 0 0 0 0 0 0 0 0 0 0 0 0 0 0 0 0 0 127 0"/>
<feOffset dy="4"/>
<feGaussianBlur stdDeviation="2"/>
<feColorMatrix type="matrix" values="0 0 0 0 0 0 0 0 0 0 0 0 0 0 0 0 0 0 0.25 0"/>
<feBlend mode="normal" in2="BackgroundImageFix" result="effect1_dropShadow"/>
<feBlend mode="normal" in="SourceGraphic" in2="effect1_dropShadow" result="shape"/>
</filter>
<linearGradient id="paint0_linear" x1="1726" y1="2495.3" x2="-773.476" y2="1823.58" gradientUnits="userSpaceOnUse">
<stop stop-color="#660F33"/>
<stop offset="1" stop-color="#CC1E66"/>
</linearGradient>
<linearGradient id="paint1_linear" x1="1586" y1="4554.51" x2="-630.19" y2="3958.92" gradientUnits="userSpaceOnUse">
<stop stop-color="#660F33"/>
<stop offset="1" stop-color="#CC1E66"/>
</linearGradient>
<linearGradient id="paint2_linear" x1="170.407" y1="-158.127" x2="1580.95" y2="809.974" gradientUnits="userSpaceOnUse">
<stop stop-color="#FF8E00"/>
<stop offset="1" stop-color="#D12D5F"/>
</linearGradient>
<linearGradient id="paint3_linear" x1="61.167" y1="1114.96" x2="1207.94" y2="2000.65" gradientUnits="userSpaceOnUse">
<stop stop-color="#22A7AD"/>
<stop offset="1" stop-color="#05E48E"/>
</linearGradient>
<linearGradient id="paint4_linear" x1="660" y1="1801.28" x2="660" y2="3630.43" gradientUnits="userSpaceOnUse">
<stop stop-color="#06FC9D"/>
<stop offset="1" stop-color="#48B2B7"/>
</linearGradient>
<linearGradient id="paint5_linear" x1="692.5" y1="2308.43" x2="692.5" y2="3822.93" gradientUnits="userSpaceOnUse">
<stop stop-color="#FF8E00"/>
<stop offset="0.515625" stop-color="#D12D5F"/>
</linearGradient>
<linearGradient id="paint6_linear" x1="590.296" y1="36.636" x2="590.296" y2="920.341" gradientUnits="userSpaceOnUse">
<stop stop-color="white" stop-opacity="0.08"/>
<stop offset="1" stop-color="white" stop-opacity="0.2"/>
</linearGradient>
<linearGradient id="paint7_linear" x1="698.723" y1="-27.5759" x2="698.723" y2="254.914" gradientUnits="userSpaceOnUse">
<stop stop-color="white" stop-opacity="0.08"/>
<stop offset="1" stop-color="white" stop-opacity="0.2"/>
</linearGradient>
<linearGradient id="paint8_linear" x1="686.841" y1="2169.75" x2="685.637" y2="1878.89" gradientUnits="userSpaceOnUse">
<stop stop-color="white" stop-opacity="0.08"/>
<stop offset="1" stop-color="white" stop-opacity="0.2"/>
</linearGradient>
<linearGradient id="paint9_linear" x1="686.841" y1="2169.75" x2="685.637" y2="1878.89" gradientUnits="userSpaceOnUse">
<stop stop-color="white" stop-opacity="0.08"/>
<stop offset="1" stop-color="white" stop-opacity="0.2"/>
</linearGradient>
</defs>
</svg>
