<svg width="450" height="187" viewBox="0 0 450 187" fill="none" xmlns="http://www.w3.org/2000/svg">
<path d="M170.861 88.8276L186.248 78.0846C196.462 70.9529 208.97 67.8909 221.323 69.4982L229.121 70.5128C246.673 72.7966 263.305 79.6984 277.317 90.5132L289.609 100L304.466 81.942C312.587 72.0722 322.524 63.8506 333.74 57.7222L351.309 48.1226C358.661 44.1053 366.905 42 375.283 42H382.153C401.808 42 421.027 47.7922 437.409 58.6528L450 67V187H59.4656C53.7057 187 47.975 186.183 42.4446 184.573L31.641 181.429C17.926 177.437 7.28702 166.579 3.5752 152.786L2.88815 150.233C1.01431 143.269 1.46994 135.884 4.18558 129.204C7.61133 120.777 14.3599 114.135 22.8405 110.843L34.252 106.415C45.0516 102.224 56.8162 101.173 68.1877 103.382L73.1725 104.351C87.1476 107.066 100.129 113.508 110.745 122.994L129.218 139.5L144.234 116.369C151.252 105.558 160.294 96.2063 170.861 88.8276Z" fill="url(#paint0_linear)" fill-opacity="0.5"/>
<path d="M170.208 61.4526L185.813 47.4879C196.827 37.6322 211.72 33.3113 226.299 35.7423C246.141 39.0512 264.472 48.4225 278.773 62.5691L290.329 74L306.711 48.4816C313.742 37.5302 322.842 28.0564 333.502 20.5915L350.72 8.53393C358.652 2.97944 368.101 0 377.784 0C400.17 0 421.826 7.95795 438.885 22.4524L450 31.8966V185H65.6813C57.0243 185 48.4475 183.341 40.4153 180.112L31.3413 176.464C18.7669 171.409 9.02679 161.115 4.67389 148.281C1.63086 139.308 1.40372 129.62 4.02292 120.515L4.7948 117.832C9.08731 102.91 19.4477 90.4766 33.3499 83.5621L33.8782 83.2993C45.9469 77.2968 59.759 75.789 72.8386 79.0463L76.0712 79.8514C89.1237 83.102 100.866 90.2772 109.713 100.409L130.659 124.397L147.684 90.7855C153.303 79.6925 160.941 69.7448 170.208 61.4526Z" fill="url(#paint1_linear)" fill-opacity="0.5"/>
<defs>
<linearGradient id="paint0_linear" x1="214.944" y1="42" x2="214.944" y2="187" gradientUnits="userSpaceOnUse">
<stop stop-color="#D12D5F"/>
<stop offset="1" stop-color="#FF8E00"/>
</linearGradient>
<linearGradient id="paint1_linear" x1="216" y1="0" x2="216" y2="185" gradientUnits="userSpaceOnUse">
<stop stop-color="#D12D5F"/>
<stop offset="1" stop-color="#FF8E00"/>
</linearGradient>
</defs>
</svg>
