<svg width="94" height="88" viewBox="0 0 94 88" fill="none" xmlns="http://www.w3.org/2000/svg">
<path d="M47 0C42.1405 0 38.1875 3.9474 38.1875 8.8C38.1875 13.6526 42.1405 17.6 47 17.6C51.8595 17.6 55.8125 13.6526 55.8125 8.8C55.8125 3.9474 51.8595 0 47 0ZM47 2.93333C50.2416 2.93333 52.875 5.56302 52.875 8.8C52.875 12.037 50.2416 14.6667 47 14.6667C43.7584 14.6667 41.125 12.037 41.125 8.8C41.125 5.56302 43.7584 2.93333 47 2.93333ZM24.9688 5.86667C20.9182 5.86667 17.625 9.15521 17.625 13.2C17.625 17.2448 20.9182 20.5333 24.9688 20.5333C29.0193 20.5333 32.3125 17.2448 32.3125 13.2C32.3125 9.15521 29.0193 5.86667 24.9688 5.86667ZM69.0312 5.86667C64.9807 5.86667 61.6875 9.15521 61.6875 13.2C61.6875 17.2448 64.9807 20.5333 69.0312 20.5333C73.0818 20.5333 76.375 17.2448 76.375 13.2C76.375 9.15521 73.0818 5.86667 69.0312 5.86667ZM24.9688 8.8C27.3956 8.8 29.375 10.7766 29.375 13.2C29.375 15.6234 27.3956 17.6 24.9688 17.6C22.5419 17.6 20.5625 15.6234 20.5625 13.2C20.5625 10.7766 22.5419 8.8 24.9688 8.8ZM69.0312 8.8C71.4581 8.8 73.4375 10.7766 73.4375 13.2C73.4375 15.6234 71.4581 17.6 69.0312 17.6C66.6044 17.6 64.625 15.6234 64.625 13.2C64.625 10.7766 66.6044 8.8 69.0312 8.8ZM46.9197 19.0667C44.8657 19.0724 42.8118 19.3589 40.8152 19.9318C38.1588 20.6938 35.7606 22.1031 33.8386 24.0396C32.8862 23.5125 31.8593 23.1 30.7864 22.7906C30.729 22.7734 30.6372 22.762 30.5511 22.7505C26.8793 21.7365 23.0181 21.7479 19.3462 22.7906C16.3628 23.6385 13.7638 25.3745 11.8246 27.7922C10.1321 29.9062 9.09937 32.5016 8.86413 35.2H4.40625C1.97937 35.2 0 37.1766 0 39.6V83.6C0 86.0234 1.97937 88 4.40625 88H89.5938C92.0206 88 94 86.0234 94 83.6V39.6C94 37.1766 92.0206 35.2 89.5938 35.2H85.3424C85.1072 32.5016 84.0745 29.9062 82.382 27.7922C80.4427 25.3745 77.8323 23.6385 74.8489 22.7906C74.7915 22.7734 74.6997 22.762 74.6136 22.7505C70.9418 21.7365 67.0806 21.7479 63.4087 22.7906C62.3071 23.1 61.2629 23.5411 60.2933 24.0854C58.3541 22.1146 55.9559 20.6938 53.2709 19.9318C53.2135 19.9146 53.1217 19.9031 53.0184 19.8917C51.0219 19.3302 48.9736 19.0552 46.9197 19.0667ZM47 22C48.8073 22 50.6145 22.2464 52.3759 22.7505C52.4332 22.762 52.525 22.7734 52.6111 22.7906C54.5962 23.375 56.369 24.4062 57.855 25.7812C58.3254 26.2109 58.75 26.6922 59.1631 27.1906C59.3639 27.4542 59.5704 27.7349 59.7598 28.0099C61.0679 29.9635 61.7908 32.2953 61.7908 34.6729V35.2H32.3125V34.6729C32.3125 32.2667 33.0297 29.9234 34.3837 27.9583C34.5615 27.6891 34.7509 27.4427 34.9402 27.1906C35.3533 26.675 35.8123 26.1938 36.2942 25.7411C37.8088 24.349 39.6276 23.3177 41.6241 22.7505C43.3855 22.2464 45.1927 22 47 22ZM25.0204 24.9333C26.6613 24.9333 28.2964 25.1625 29.8856 25.6094C29.9487 25.638 30.0348 25.6495 30.1266 25.6495C30.7405 25.8443 31.3429 26.0792 31.9166 26.3542C30.27 28.8063 29.375 31.7109 29.375 34.6729V35.2H11.8533C12.0713 33.1719 12.8344 31.224 14.1138 29.6255C15.6686 27.6891 17.757 26.2969 20.1666 25.6094C21.7501 25.1625 23.3853 24.9333 25.0204 24.9333ZM69.0829 24.9333C70.7238 24.9333 72.3589 25.1625 73.9481 25.6094C74.0112 25.638 74.0973 25.6495 74.1891 25.6495C76.5242 26.3542 78.5609 27.7177 80.0928 29.6255C81.3722 31.224 82.1353 33.1719 82.359 35.2H64.7283V34.6729C64.7283 31.7224 63.8447 28.8349 62.1981 26.4C62.8464 26.0792 63.5234 25.8156 64.2291 25.6094C65.8126 25.1625 67.4478 24.9333 69.0829 24.9333ZM4.40625 38.1333H89.5938C90.4027 38.1333 91.0625 38.7922 91.0625 39.6V83.6C91.0625 84.4078 90.4027 85.0667 89.5938 85.0667H4.40625C3.59729 85.0667 2.9375 84.4078 2.9375 83.6V39.6C2.9375 38.7922 3.59729 38.1333 4.40625 38.1333ZM24.9688 42.5333C24.1598 42.5333 23.5 43.1922 23.5 44V46.9333C23.5 47.7411 24.1598 48.4 24.9688 48.4C25.7777 48.4 26.4375 47.7411 26.4375 46.9333V44C26.4375 43.1922 25.7777 42.5333 24.9688 42.5333ZM32.3125 42.5333C31.5035 42.5333 30.8438 43.1922 30.8438 44V46.9333C30.8438 47.7411 31.5035 48.4 32.3125 48.4C33.1215 48.4 33.7812 47.7411 33.7812 46.9333V44C33.7812 43.1922 33.1215 42.5333 32.3125 42.5333ZM39.6562 42.5333C38.8473 42.5333 38.1875 43.1922 38.1875 44V46.9333C38.1875 47.4948 38.5145 47.9646 38.9735 48.2109C35.1353 51.1099 32.6051 56.0312 32.6051 61.6C32.6051 67.1688 35.1353 72.0901 38.9735 74.9891C38.5145 75.2354 38.1875 75.7052 38.1875 76.2667V79.2C38.1875 80.0078 38.8473 80.6667 39.6562 80.6667C40.4652 80.6667 41.125 80.0078 41.125 79.2V76.3125C42.4962 77.0057 43.9764 77.4755 45.5312 77.6474V79.2C45.5312 80.0078 46.191 80.6667 47 80.6667C47.809 80.6667 48.4688 80.0078 48.4688 79.2V77.6474C50.0236 77.4755 51.5038 77.0057 52.875 76.3125V79.2C52.875 80.0078 53.5348 80.6667 54.3438 80.6667C55.1527 80.6667 55.8125 80.0078 55.8125 79.2V76.2667C55.8125 75.7052 55.4855 75.2354 55.0265 74.9891C58.8647 72.0901 61.3949 67.1688 61.3949 61.6C61.3949 56.0312 58.8647 51.1099 55.0265 48.2109C55.4855 47.9646 55.8125 47.4948 55.8125 46.9333V44C55.8125 43.1922 55.1527 42.5333 54.3438 42.5333C53.5348 42.5333 52.875 43.1922 52.875 44V46.8875C51.5038 46.1943 50.0236 45.7245 48.4688 45.5526V44C48.4688 43.1922 47.809 42.5333 47 42.5333C46.191 42.5333 45.5312 43.1922 45.5312 44V45.5526C43.9764 45.7245 42.4962 46.1943 41.125 46.8875V44C41.125 43.1922 40.4652 42.5333 39.6562 42.5333ZM61.6875 42.5333C60.8785 42.5333 60.2188 43.1922 60.2188 44V46.9333C60.2188 47.7411 60.8785 48.4 61.6875 48.4C62.4965 48.4 63.1562 47.7411 63.1562 46.9333V44C63.1562 43.1922 62.4965 42.5333 61.6875 42.5333ZM69.0312 42.5333C68.2223 42.5333 67.5625 43.1922 67.5625 44V46.9333C67.5625 47.7411 68.2223 48.4 69.0312 48.4C69.8402 48.4 70.5 47.7411 70.5 46.9333V44C70.5 43.1922 69.8402 42.5333 69.0312 42.5333ZM10.2812 44C9.47229 44 8.8125 44.6589 8.8125 45.4667C8.8125 46.2745 9.47229 46.9333 10.2812 46.9333H17.625C18.434 46.9333 19.0938 46.2745 19.0938 45.4667C19.0938 44.6589 18.434 44 17.625 44H10.2812ZM76.375 44C75.566 44 74.9062 44.6589 74.9062 45.4667C74.9062 46.2745 75.566 46.9333 76.375 46.9333H83.7188C84.5277 46.9333 85.1875 46.2745 85.1875 45.4667C85.1875 44.6589 84.5277 44 83.7188 44H76.375ZM47 48.4C53.3168 48.4 58.4574 54.324 58.4574 61.6C58.4574 68.876 53.3168 74.8 47 74.8C40.6832 74.8 35.5426 68.876 35.5426 61.6C35.5426 54.324 40.6832 48.4 47 48.4ZM13.2188 55.7333C9.97717 55.7333 7.34375 58.363 7.34375 61.6C7.34375 64.837 9.97717 67.4667 13.2188 67.4667C16.4603 67.4667 19.0938 64.837 19.0938 61.6C19.0938 58.363 16.4603 55.7333 13.2188 55.7333ZM80.7812 55.7333C77.5397 55.7333 74.9062 58.363 74.9062 61.6C74.9062 64.837 77.5397 67.4667 80.7812 67.4667C84.0228 67.4667 86.6562 64.837 86.6562 61.6C86.6562 58.363 84.0228 55.7333 80.7812 55.7333ZM80.7812 58.2083C82.6516 58.2083 84.1777 59.7323 84.1777 61.6C84.1777 63.4677 82.6516 64.9917 80.7812 64.9917C78.9109 64.9917 77.3848 63.4677 77.3848 61.6C77.3848 59.7323 78.9109 58.2083 80.7812 58.2083ZM13.2188 58.237C15.0776 58.237 16.5865 59.7438 16.5865 61.6C16.5865 63.4563 15.0776 64.963 13.2188 64.963C11.3599 64.963 9.85095 63.4563 9.85095 61.6C9.85095 59.7438 11.3599 58.237 13.2188 58.237ZM24.9688 74.8C24.1598 74.8 23.5 75.4589 23.5 76.2667V79.2C23.5 80.0078 24.1598 80.6667 24.9688 80.6667C25.7777 80.6667 26.4375 80.0078 26.4375 79.2V76.2667C26.4375 75.4589 25.7777 74.8 24.9688 74.8ZM32.3125 74.8C31.5035 74.8 30.8438 75.4589 30.8438 76.2667V79.2C30.8438 80.0078 31.5035 80.6667 32.3125 80.6667C33.1215 80.6667 33.7812 80.0078 33.7812 79.2V76.2667C33.7812 75.4589 33.1215 74.8 32.3125 74.8ZM61.6875 74.8C60.8785 74.8 60.2188 75.4589 60.2188 76.2667V79.2C60.2188 80.0078 60.8785 80.6667 61.6875 80.6667C62.4965 80.6667 63.1562 80.0078 63.1562 79.2V76.2667C63.1562 75.4589 62.4965 74.8 61.6875 74.8ZM69.0312 74.8C68.2223 74.8 67.5625 75.4589 67.5625 76.2667V79.2C67.5625 80.0078 68.2223 80.6667 69.0312 80.6667C69.8402 80.6667 70.5 80.0078 70.5 79.2V76.2667C70.5 75.4589 69.8402 74.8 69.0312 74.8ZM10.2812 76.2667C9.47229 76.2667 8.8125 76.9255 8.8125 77.7333C8.8125 78.5411 9.47229 79.2 10.2812 79.2H17.625C18.434 79.2 19.0938 78.5411 19.0938 77.7333C19.0938 76.9255 18.434 76.2667 17.625 76.2667H10.2812ZM76.375 76.2667C75.566 76.2667 74.9062 76.9255 74.9062 77.7333C74.9062 78.5411 75.566 79.2 76.375 79.2H83.7188C84.5277 79.2 85.1875 78.5411 85.1875 77.7333C85.1875 76.9255 84.5277 76.2667 83.7188 76.2667H76.375Z" fill="url(#paint0_linear)"/>
<defs>
<linearGradient id="paint0_linear" x1="47" y1="0" x2="47" y2="88" gradientUnits="userSpaceOnUse">
<stop stop-color="#FF8E00"/>
<stop offset="0.515625" stop-color="#D12D5F"/>
</linearGradient>
</defs>
</svg>
