<?xml version="1.0" encoding="UTF-8"?>
<svg width="254px" height="401px" viewBox="0 0 254 401" version="1.1" xmlns="http://www.w3.org/2000/svg" xmlns:xlink="http://www.w3.org/1999/xlink">
    <!-- Generator: Sketch 43.2 (39069) - http://www.bohemiancoding.com/sketch -->
    <title>Group</title>
    <desc>Created with Sketch.</desc>
    <defs></defs>
    <g id="Page-1" stroke="none" stroke-width="1" fill="none" fill-rule="evenodd" opacity="0.7">
        <g id="Plants" transform="translate(-1054.000000, -130.000000)">
            <g id="Group" transform="translate(1054.000000, 130.000000)">
                <path d="M23.82,115.501 C37.47,114.793 54.36,122.762 55.82,137.602 C56.87,148.385 56.55,159.136 58.18,169.903 C59.49,178.508 62.26,186.768 66.04,194.606 C69.67,202.143 77.2,208.559 79.16,216.611 C80.41,221.741 79.71,228.958 77.99,233.977 C75.9,240.078 77.01,239.596 81.18,244.716 C89.36,254.749 96.72,265.038 101.93,277.021 C109.43,294.281 114.35,314.456 111.56,333.35 C111.21,335.749 110.79,344.359 107.49,344.96 C103.8,345.633 105.52,340.709 105.72,339.119 C106.97,328.969 108.09,320.098 106.58,309.79 C100.73,270.02 72.2,243.816 53.62,210.062 C52.6,208.322 50.45,204.177 48.95,201.442 C46.58,197.125 44.2,188.91 41,185.709 C34.96,179.678 40.51,191.802 41.69,194.117 C43.17,197.044 44.81,200.156 46.33,202.721 C53.3,214.613 61.08,227.594 68.28,239.852 C37.15,246.946 15.22,209.517 6.87,184.91 C-0.02,164.636 -8.25,117.236 23.82,115.501 Z" id="Shape" fill="#69A1AC"></path>
                <path d="M206.81,77.853 C183.98,79.663 169.33,94.723 162.51,115.787 C158.84,127.138 158.41,138.8 156.37,150.465 C153.3,168.016 146.69,181.316 133.76,193.82 C129.76,197.693 126.81,201.669 124.72,205.922 C120.55,210.169 116.93,214.976 114.27,220.852 C110.87,228.356 109.91,237.359 113.83,244.841 C114.89,246.852 117.52,250.889 120.25,252.724 C110.03,274.484 104.42,298.316 105.05,322.117 C105.43,336.485 106.13,350.858 106.95,365.208 C107.17,369.062 108.43,375.424 110.31,368.962 C112.04,363.052 109.87,353.773 109.67,347.598 C108.7,317.517 107.87,290.167 120.25,262.062 C121.55,259.117 122.92,256.195 124.36,253.296 C124.44,253.247 124.52,253.189 124.6,253.131 C124.65,253.173 124.7,253.219 124.76,253.26 C124.85,253.097 124.98,252.902 125.12,252.685 C125.53,252.261 125.89,251.725 126.23,251.126 C127.33,249.604 128.57,247.816 128.58,246.837 L128.58,246.81 C136.24,234.297 145.02,222.473 153.99,210.881 C153.92,210.965 163.72,197.629 162.2,205.004 C161.47,208.558 154.27,215.327 151.36,219.091 C144.92,227.467 137.36,238.079 131.08,248.341 C130.24,248.827 129.04,251.212 128.18,252.988 C127.7,253.888 127.26,254.796 126.82,255.586 C149.08,262.94 166.39,248.127 178.2,230.899 C178.21,230.879 178.22,230.858 178.24,230.838 C181.83,226.077 185.51,221.35 190.11,217.587 C197.78,211.308 205.99,210.2 215.04,207.109 C239.7,198.683 250.19,166.719 253.52,143.001 C257.27,116.244 238.89,75.214 206.81,77.853 Z" id="Shape" fill="#89C5CC"></path>
                <path d="M161.72,2.922 C138.3,27.301 126.98,61.115 118.02,92.903 C108.01,128.408 101.4,164.46 101.15,201.374 C100.98,225.626 100.32,250.03 101.74,274.255 C102.24,282.858 103.1,291.476 104.46,299.987 C104.57,300.686 107.63,319.689 110.54,315.261 C112.2,312.743 107.42,295.548 107.06,292.684 C105.02,276.554 104.55,260.304 104.65,244.057 C104.81,217.307 104.02,190.693 106.73,164.041 C107.14,160.062 107.46,155.882 108.4,151.989 C109.41,147.851 108.13,149.657 111.4,148.019 C114.57,146.426 118.5,146.654 121.79,144.655 C134.87,136.728 141.55,116.367 146.76,103.007 C152.71,87.729 156.33,71.438 159.22,55.36 C161.34,43.547 162.86,31.806 163.72,19.842 C163.99,16.071 164,12.127 164.74,8.42 C164.94,7.419 165.95,5.65 165.91,4.764 C165.83,2.89 164.7,1.787 164.61,0.212 C163.63,1.095 162.66,1.999 161.72,2.922 Z" id="Shape" fill="#89C5CC"></path>
                <path d="M34,327.731 C34,368.048 66.68,400.731 107,400.731 C147.32,400.731 180,368.048 180,327.731" id="Shape" fill="#89C5CC"></path>
                <path d="M112.86,327.964 L109,327.964 C109.27,323.124 109.62,318.293 110.43,313.508 C113.53,295.205 123.2,268.323 144.42,265.352 C145.2,265.241 148.08,265.223 151.57,265.427 C153.22,264.503 155.08,263.945 157.03,263.816 C175.1,262.484 195.27,277.06 203.99,292.228 C211.01,304.458 209.83,320.517 205.49,333.509 C202.58,342.208 196.24,354.61 185.67,354.73 C172.43,354.882 171.8,338.528 171.54,328.967 C171.2,316.257 169.59,305.184 159.58,296.521 C157.24,294.502 154.69,292.727 152.33,290.736 C148.64,287.621 144.56,284.431 144.09,279.278 C143.43,272.167 147.44,270.888 153.57,272.209 C154.62,272.434 165.14,277.155 163.58,273.423 C163.11,272.283 161.37,271.38 159.18,270.703 C153.5,270.086 146.73,269.37 144.79,269.797 C123.79,274.404 115.62,303.486 113.45,321.964 C113.21,323.959 113.02,325.96 112.86,327.964 Z" id="Shape" fill="#69A1AC"></path>
            </g>
        </g>
    </g>
</svg>