<svg width="117" height="118" viewBox="0 0 117 118" fill="none" xmlns="http://www.w3.org/2000/svg">
<path d="M58.5 118C26.1905 118 0 91.5857 0 59C0 26.4143 26.1905 0 58.5 0C90.8095 0 117 26.4143 117 59C117 91.5857 90.8095 118 58.5 118ZM40.3065 65.903L40.3825 65.8617L45.472 82.7947C46.1272 84.6296 47.0281 84.96 48.1221 84.8066C49.2219 84.6591 49.801 84.0632 50.5206 83.367L57.4704 76.5938L72.3879 87.733C75.114 89.2493 77.0738 88.4646 77.7523 85.1842L87.4458 39.0344C88.5163 34.7392 86.6443 33.0164 83.3391 34.3852L26.4011 56.5692C22.5166 58.1386 22.5401 60.3334 25.6991 61.3069L40.3065 65.9089V65.903Z" fill="url(#paint0_linear)"/>
<defs>
<linearGradient id="paint0_linear" x1="117" y1="118" x2="-20.7838" y2="83.846" gradientUnits="userSpaceOnUse">
<stop stop-color="#660F33"/>
<stop offset="1" stop-color="#CC1E66"/>
</linearGradient>
</defs>
</svg>
