<svg width="33" height="33" viewBox="0 0 33 33" fill="none" xmlns="http://www.w3.org/2000/svg">
<path d="M16.5 32.75C7.52513 32.75 0.25 25.4749 0.25 16.5C0.25 7.52513 7.52513 0.25 16.5 0.25C25.4749 0.25 32.75 7.52513 32.75 16.5C32.75 25.4749 25.4749 32.75 16.5 32.75ZM11.4463 18.4013L11.4674 18.3899L12.8811 23.0536C13.0631 23.559 13.3134 23.65 13.6172 23.6077C13.9227 23.5671 14.0836 23.403 14.2835 23.2112L16.214 21.3458L20.3577 24.4138C21.115 24.8314 21.6594 24.6152 21.8479 23.7118L24.5405 11.001C24.8379 9.818 24.3179 9.3435 23.3997 9.7205L7.58362 15.8305C6.50462 16.2628 6.51113 16.8673 7.38863 17.1354L11.4463 18.4029V18.4013Z" fill="white"/>
</svg>
