<svg width="469" height="203" viewBox="0 0 469 203" fill="none" xmlns="http://www.w3.org/2000/svg">
<path d="M185.55 61.3299L201.317 47.4353C212.533 37.5508 227.595 33.2232 242.347 35.6459C262.489 38.9536 281.13 48.3646 295.751 62.6072L307.26 73.8182L323.871 48.3368C330.982 37.4294 340.154 28.0156 350.872 20.6238L368.38 8.55038C376.454 2.98197 386.031 0 395.839 0C418.537 0 440.512 7.98086 457.919 22.5463L469 31.8182V203H258.305H77.0235C70.0356 203 63.1252 201.535 56.7382 198.7L38.746 190.714C29.6864 186.692 22.0265 180.069 16.7391 171.685L13.5422 166.616C5.12292 153.266 4.20923 136.51 11.1268 122.324L14.9813 114.419C21.3767 101.304 31.9651 90.6966 45.0694 84.2781C58.8667 77.5203 74.5992 75.8229 89.5205 79.4823L90.1388 79.6339C103.421 82.8914 115.396 90.1176 124.47 100.35L145.52 124.091L162.739 90.6152C168.448 79.5153 176.185 69.5824 185.55 61.3299Z" fill="url(#paint0_linear)" fill-opacity="0.3"/>
<path d="M187.942 102.426L204.298 92.3436C213.847 86.4574 225.098 83.9531 236.242 85.2332L248.78 86.6735C264.879 88.5228 280.287 94.2566 293.678 103.381L307.26 112.636L321.84 96.9916C330.299 87.9145 340.374 80.491 351.549 75.1001L370.484 65.966C377.259 62.6975 384.685 61 392.208 61H403.86C421.615 61 439.05 65.7273 454.374 74.6962L469 83.2571V203H258.305H74.009C68.9818 203 63.9835 202.242 59.1824 200.751L33.9557 192.918C27.9952 191.068 22.6438 187.644 18.4646 183.009L15.9589 180.23C6.61411 169.865 5.64859 154.425 13.6293 142.977C20.9195 132.518 31.3506 124.653 43.4106 120.522L48.1933 118.883C60.156 114.784 72.9567 113.757 85.4199 115.895L88.5256 116.428C102.969 118.906 116.563 124.959 128.069 134.035L145.521 147.803L159.852 128.312C167.465 117.959 177.002 109.17 187.942 102.426Z" fill="url(#paint1_linear)" fill-opacity="0.3"/>
<defs>
<linearGradient id="paint0_linear" x1="231.968" y1="0" x2="231.968" y2="184.545" gradientUnits="userSpaceOnUse">
<stop stop-color="#48B2B7"/>
<stop offset="1" stop-color="#06FC9D"/>
</linearGradient>
<linearGradient id="paint1_linear" x1="231.968" y1="61" x2="231.968" y2="190.091" gradientUnits="userSpaceOnUse">
<stop stop-color="#48B2B7"/>
<stop offset="1" stop-color="#06FC9D"/>
</linearGradient>
</defs>
</svg>
