<svg width="507" height="456" viewBox="0 0 507 456" fill="none" xmlns="http://www.w3.org/2000/svg">
<path d="M220.915 74.2336C220.915 74.2336 236.028 77.4645 238.289 75.9594C239.667 75.09 241.421 75.09 242.799 75.9594C255.586 71.0805 242.682 56.1846 242.305 50.1769C242.136 47.3742 240.395 44.0784 238.601 41.3665C236.548 38.2524 234.404 35.9038 234.404 35.9038L220.915 74.2336Z" fill="#2F2F41"/>
<path d="M207.218 60.1943C207.218 68.4338 190.728 86.5477 190.728 86.5477L222.071 135.141C222.071 135.141 234.443 85.7302 227.023 83.2519C219.602 80.7866 227.841 69.2513 227.841 69.2513L207.218 60.1943Z" fill="#A0616A"/>
<path d="M170.923 141.732L193.197 155.733L187.427 164.79C187.427 164.79 182.476 160.677 182.476 159.846C182.476 159.016 149.482 143.38 146.181 140.902C142.88 138.424 153.601 127.719 153.601 127.719L170.923 141.732Z" fill="#A0616A"/>
<path d="M259.705 140.629C259.705 140.629 237.731 154.902 236.899 156.55C236.068 158.198 242.669 177.143 246.892 176.416C251.116 175.689 246.801 162.312 246.801 162.312C246.801 162.312 266.593 146.663 273.194 140.902C279.796 135.141 271.544 121.958 271.544 121.958L259.705 140.629Z" fill="#A0616A"/>
<path d="M268.412 328.165L273.389 346.201L285.228 345.708L279.133 323.234L268.412 328.165Z" fill="#A0616A"/>
<path d="M194.847 324.558L198.967 342.672H207.218V324.558H194.847Z" fill="#A0616A"/>
<path d="M222.059 74.1945C232.078 74.1945 240.2 66.0847 240.2 56.0807C240.2 46.0767 232.078 37.9668 222.059 37.9668C212.04 37.9668 203.917 46.0767 203.917 56.0807C203.917 66.0847 212.04 74.1945 222.059 74.1945Z" fill="#A0616A"/>
<path fill-rule="evenodd" clip-rule="evenodd" d="M195.614 80.7861C195.614 80.7861 193.197 84.0819 184.127 86.5473C175.056 89.0126 149.482 112.901 148.663 130.197C147.844 147.493 170.105 142.55 170.105 142.55C170.105 142.55 190.728 145.846 190.728 146.663C190.728 147.48 189.909 152.424 189.909 152.424C176.706 168.89 175.069 196.891 175.069 196.891C175.069 196.891 166.817 319.601 168.468 329.489C170.118 339.376 209.701 333.602 209.701 333.602L211.351 223.245C211.351 223.245 227.842 322.067 231.142 330.306C234.443 338.546 281.459 327.841 281.459 327.841C281.459 327.841 242.695 163.959 242.695 153.255C242.695 142.55 255.066 140.071 255.066 140.071C255.066 140.071 268.269 142.537 269.088 137.606C269.907 132.662 274.858 125.253 274.858 125.253C274.858 125.253 264.955 103.844 255.885 92.3084C246.814 80.7732 227.023 83.2515 227.023 83.2515L216.302 120.31L195.614 80.7861Z" fill="url(#paint0_linear)"/>
<path d="M271.544 340.673C271.544 340.673 269.841 358.995 269.893 361.603C269.945 363.926 286.397 364.561 288.047 362.096C289.698 359.631 295.467 362.096 295.467 363.744C295.467 365.392 311.958 364.224 311.958 364.224C333.4 354.337 308.891 351.612 308.891 351.612C308.891 351.612 294.285 344.722 287.683 342.256C281.082 339.791 283.733 341.27 283.733 341.27C282.096 347.044 271.544 340.673 271.544 340.673Z" fill="#2F2F41"/>
<path d="M192.365 358.32C191.547 359.138 194.016 369.855 205.568 368.208C217.121 366.56 213.82 354.207 213.82 352.559C213.82 350.911 212.17 338.558 211.351 335.263C210.532 331.967 196.511 337.728 196.511 337.728C196.511 337.728 193.197 357.49 192.365 358.32Z" fill="#2F2F41"/>
<path d="M236.652 39.2904C235.846 41.8725 235.222 44.5065 234.768 47.1795C234.391 50.1898 227.243 50.9294 227.243 50.9294C227.997 50.9294 227.997 46.4269 227.997 46.4269C227.997 49.061 223.865 51.682 223.865 51.682C220.083 53.9138 216.666 56.7036 213.703 59.9475C208.44 65.5788 215.21 66.3314 215.21 66.3314C214.703 75.3884 196.133 79.0605 196.133 79.0605C174.692 71.5476 191.026 45.843 191.026 45.843C207.205 15.7916 220.278 28.9618 220.278 28.9618C234.391 26.8987 236.652 39.2904 236.652 39.2904Z" fill="#2F2F41"/>
<path d="M190.793 152.151L243.578 152.969L277.417 291.029C277.417 291.029 206.556 303.771 162.516 290.393C162.529 290.406 164.14 183.643 190.793 152.151Z" fill="url(#paint1_linear)"/>
<path d="M224.099 4.50269C222.786 4.93089 221.539 5.56669 220.421 6.3582C211.78 -2.11484 196.757 -2.11484 186.868 6.3582C182.671 9.95243 179.903 14.7145 179.032 19.7879C172.21 20.281 166.752 25.7177 166.843 31.92C166.934 38.1224 172.535 42.7546 179.357 42.2616C182.203 42.054 184.958 40.951 187.141 39.1474C197.16 46.271 212.156 44.2339 220.655 34.606C222.838 32.1277 224.437 29.299 225.372 26.2887C232.078 27.0023 238.51 22.5517 239.745 16.3753C240.966 10.186 236.522 4.59352 229.817 3.89284C227.906 3.68523 225.957 3.89284 224.099 4.50269Z" fill="url(#paint2_linear)"/>
<path d="M239.823 42.1706C221.695 45.635 203.905 51.5 187.271 59.48C186.271 59.96 185.114 59.7914 184.672 59.1037C184.62 59.0258 184.594 58.948 184.555 58.8701L178.876 41.6905L235.938 22.9019L241.616 40.0815C241.863 40.8471 241.214 41.7424 240.148 42.0927C240.057 42.1187 239.94 42.1446 239.823 42.1706Z" fill="url(#paint3_linear)"/>
<path d="M179.851 29.1695L179.591 29.2473C178.577 26.224 178.343 22.9801 178.889 19.7622L179.149 19.7882C178.616 22.9672 178.85 26.1721 179.851 29.1695Z" fill="#403D56"/>
<path d="M225.45 14.1437L225.191 14.2216C224.229 11.2891 222.566 8.62913 220.317 6.43626L220.512 6.26758C222.799 8.49937 224.476 11.1853 225.45 14.1437Z" fill="#403D56"/>
<path d="M180.748 47.1532L180.618 46.9586C180.683 46.9197 187.401 42.9492 197.745 38.6672C207.296 34.7097 221.994 29.6752 237.744 28.144L237.757 28.3906C222.046 29.9217 207.387 34.9432 197.849 38.8878C187.505 43.1568 180.813 47.1143 180.748 47.1532Z" fill="#403D56"/>
<path d="M181.761 50.2284L181.631 50.0338C181.696 49.9949 188.415 46.0243 198.759 41.7424C208.31 37.7849 223.007 32.7504 238.757 31.2192L238.77 31.4658C223.059 32.9969 208.401 38.0184 198.863 41.963C188.519 46.219 181.826 50.1895 181.761 50.2284Z" fill="#403D56"/>
<path d="M182.774 53.2909L182.645 53.0963C182.71 53.0574 189.428 49.0868 199.772 44.8049C209.323 40.8474 224.021 35.8129 239.771 34.2817L239.784 34.5283C224.073 36.0594 209.414 41.0809 199.876 45.0255C189.532 49.2945 182.839 53.252 182.774 53.2909Z" fill="#403D56"/>
<path d="M244.241 162.48C224.827 161.131 204.983 161.624 185.66 163.934C184.503 164.076 183.386 163.7 183.152 163.09C183.126 163.025 183.113 162.96 183.113 162.896C183.113 162.896 187.011 151.581 191.014 150.037C200.097 146.546 243.799 150.854 243.799 150.854L246.736 161.313C246.749 161.935 245.801 162.454 244.631 162.48C244.501 162.493 244.371 162.493 244.241 162.48Z" fill="url(#paint4_linear)"/>
<path d="M187.011 154.578L186.933 154.396C187.011 154.383 192.092 153.319 203.762 152.398C214.534 151.542 228.179 150.659 244.397 152.917L244.332 153.099C228.166 150.841 214.547 151.723 203.801 152.58C192.157 153.514 187.089 154.565 187.011 154.578Z" fill="#403D56"/>
<path d="M185.595 157.264L185.517 157.082C185.595 157.069 192.158 155.811 203.827 154.876C214.6 154.02 228.959 153.345 245.177 155.603L245.112 155.785C228.946 153.527 214.613 154.215 203.866 155.058C192.223 155.992 185.673 157.251 185.595 157.264Z" fill="#403D56"/>
<path d="M184.412 159.911L184.334 159.729C184.412 159.716 192.222 158.289 203.891 157.368C214.664 156.512 229.687 156.031 245.891 158.289L245.826 158.471C229.661 156.213 214.664 156.693 203.917 157.55C192.287 158.471 184.49 159.898 184.412 159.911Z" fill="#403D56"/>
<path fill-rule="evenodd" clip-rule="evenodd" d="M334.946 193.232L356.881 191.467L361.196 186.601L411.161 189.534L400.493 200.29C400.493 200.29 373.801 209.464 371.423 209.464C369.019 209.464 341.976 200.044 341.976 200.044L334.946 193.232Z" fill="#9B7631"/>
<path fill-rule="evenodd" clip-rule="evenodd" d="M395.256 209.776C393.593 228.318 375.309 220.532 377.284 211.852C378.128 208.05 395.256 209.776 395.256 209.776Z" fill="#E16C0E"/>
<path fill-rule="evenodd" clip-rule="evenodd" d="M394.203 210.269C394.203 210.269 390.773 223.672 381.026 216.549C371.241 209.425 394.203 210.269 394.203 210.269Z" fill="#F09417"/>
<path fill-rule="evenodd" clip-rule="evenodd" d="M375.62 202.12C369.084 211.956 385.366 226.449 394.021 208.219L375.62 202.12Z" fill="#F09417"/>
<path fill-rule="evenodd" clip-rule="evenodd" d="M375.62 202.12C369.577 211.216 383.066 224.295 391.968 211.748L389.707 211.709C383.599 217.496 373.502 209.802 378.375 203.041L375.62 202.12Z" fill="#E16C0E"/>
<path fill-rule="evenodd" clip-rule="evenodd" d="M398.959 199.162C400.48 216.692 382.859 216.16 378.934 203.327L398.959 199.162Z" fill="#F09417"/>
<path fill-rule="evenodd" clip-rule="evenodd" d="M398.998 199.72C400.09 216.679 382.82 216.004 378.934 203.314L379.961 203.106C380.805 203.703 381.832 204.443 383.066 205.403C396.1 215.524 396.737 202.198 396.737 202.198C397.309 200.641 398.154 199.966 398.998 199.72Z" fill="#E16C0E"/>
<path fill-rule="evenodd" clip-rule="evenodd" d="M374.178 190.87C374.178 190.87 369.266 196.554 373.749 201.938C377.777 206.804 387.134 207.894 391.162 201.653C389.889 201.653 388.342 201.692 386.393 201.757C369.162 202.289 377.427 190.896 377.427 190.896C375.477 190.844 374.178 190.87 374.178 190.87Z" fill="#E16C0E"/>
<path fill-rule="evenodd" clip-rule="evenodd" d="M394.515 210.969C394.45 211.462 394.554 210.684 394.476 211.112C391.968 223.776 380.247 220.844 377.349 214.784C379.298 221.804 393.164 225.995 395.152 210.839C395.191 210.489 395.113 211.047 395.152 210.697C395.152 210.684 394.866 211.008 394.515 210.969Z" fill="#FFEAAF"/>
<path fill-rule="evenodd" clip-rule="evenodd" d="M397.725 207.829C393.735 213.642 385.042 212.267 380.987 205.286C380.598 204.611 381.299 206.064 380.987 205.286L380.065 205.247C379.285 205.208 379.428 204.715 379.714 205.39C383.716 213.759 394.021 215.342 397.725 207.829Z" fill="#FFEAAF"/>
<path fill-rule="evenodd" clip-rule="evenodd" d="M387.914 203.353C386.536 204.157 384.977 204.585 383.391 204.689C382.014 204.793 380.598 204.624 379.259 204.261C377.843 203.872 376.543 203.236 375.413 202.432C374.711 201.9 374.1 201.342 373.541 200.706C372.658 199.616 372.125 198.526 371.878 197.462C371.982 198.876 372.476 200.42 373.749 201.938C374.1 202.393 374.529 202.821 374.984 203.21C376.361 204.339 378.025 205.182 379.818 205.611C381.832 206.104 383.989 206.104 385.925 205.546C387.16 205.195 388.33 204.598 389.317 203.742C388.836 203.638 388.369 203.534 387.914 203.353Z" fill="#FFEAAF"/>
<path fill-rule="evenodd" clip-rule="evenodd" d="M390.214 212.669C383.261 219.689 374.529 213.473 374.152 206.363C373.554 214.33 383.833 222.024 391.344 212.604C390.98 212.63 390.591 212.669 390.214 212.669Z" fill="#FFEAAF"/>
<path fill-rule="evenodd" clip-rule="evenodd" d="M377.141 213.435C377.102 212.903 377.141 212.371 377.284 211.852C377.531 210.658 379.363 210.022 381.767 209.698C380.493 211.255 378.869 212.487 377.141 213.435Z" fill="#BF5F18"/>
<path fill-rule="evenodd" clip-rule="evenodd" d="M375.62 202.12C373.047 206 374.035 210.619 376.712 213.655C379.818 212.072 382.573 209.607 383.95 205.935C384.054 205.624 384.158 205.299 384.262 204.988L375.62 202.12Z" fill="#CC7919"/>
<path fill-rule="evenodd" clip-rule="evenodd" d="M375.62 202.12C373.047 206 374.035 210.619 376.712 213.655C377.739 213.123 378.687 212.527 379.61 211.826C377.141 209.75 376.049 206.285 378.376 203.041L375.62 202.12Z" fill="#BF5F18"/>
<path fill-rule="evenodd" clip-rule="evenodd" d="M382.261 209.062C380.819 207.583 379.649 205.636 378.947 203.314L384.951 202.081C384.769 203.275 384.457 204.585 383.963 205.922C383.496 207.09 382.937 208.154 382.261 209.062Z" fill="#CC7919"/>
<path fill-rule="evenodd" clip-rule="evenodd" d="M382.261 209.062C380.819 207.583 379.649 205.636 378.947 203.314L379.974 203.106C380.819 203.703 381.845 204.442 383.08 205.403C383.366 205.61 383.652 205.831 383.898 206.038C383.47 207.167 382.898 208.153 382.261 209.062Z" fill="#BF5F18"/>
<path fill-rule="evenodd" clip-rule="evenodd" d="M374.178 190.87C374.178 190.87 369.266 196.553 373.749 201.938C376.049 204.728 380.143 206.272 383.95 205.922C386.25 199.745 384.73 194.815 382.677 191.428C378.31 190.766 374.178 190.87 374.178 190.87Z" fill="#CC7919"/>
<path fill-rule="evenodd" clip-rule="evenodd" d="M374.178 190.87C374.178 190.87 369.266 196.554 373.749 201.938C376.049 204.728 380.142 206.272 383.95 205.922C384.483 204.482 384.795 203.106 384.977 201.796C369.617 201.653 377.414 190.896 377.414 190.896C375.477 190.844 374.178 190.87 374.178 190.87Z" fill="#BF5F18"/>
<path fill-rule="evenodd" clip-rule="evenodd" d="M383.963 193.971C382.586 194.75 381.104 195.45 379.48 195.943C379.48 195.943 381.039 199.616 384.951 202.003C385.367 198.915 384.873 196.203 383.963 193.971Z" fill="#CC7919"/>
<path fill-rule="evenodd" clip-rule="evenodd" d="M384.704 196.307C383.534 195.918 382.261 195.463 380.922 194.996C380.429 194.815 379.545 194.854 379.61 195.982C380.455 197.358 382.183 199.616 385.042 201.134C385.198 199.369 385.055 197.786 384.704 196.307Z" fill="#BF5F18"/>
<path fill-rule="evenodd" clip-rule="evenodd" d="M382.014 190.455C376.335 190.105 370.396 185.446 376.933 177.765C376.543 177.129 376.114 176.532 375.763 175.857C374.035 177.168 371.488 179.659 371.033 183.228C370.929 184.11 370.968 185.057 371.137 186.082C371.592 188.34 372.553 190.131 373.645 191.584C376.153 194.763 379.467 195.957 379.467 195.957C381.091 195.464 382.572 194.763 383.95 193.984C383.43 192.635 382.715 191.467 382.014 190.455Z" fill="#BF5F18"/>
<path fill-rule="evenodd" clip-rule="evenodd" d="M383.002 207.946C382.261 207.167 381.585 206.285 380.987 205.299C380.598 204.624 381.299 206.077 380.987 205.299L380.065 205.26C379.285 205.221 379.428 204.728 379.714 205.403C380.416 206.817 381.273 208.05 382.261 209.075C382.508 208.711 382.755 208.322 383.002 207.946Z" fill="#D6B47D"/>
<path fill-rule="evenodd" clip-rule="evenodd" d="M384.379 204.586C384.067 204.624 383.742 204.689 383.391 204.689C382.014 204.793 380.598 204.624 379.259 204.261C377.843 203.872 376.543 203.236 375.413 202.432C374.711 201.9 374.1 201.342 373.541 200.706C372.658 199.616 372.125 198.526 371.878 197.462C371.982 198.876 372.476 200.42 373.749 201.938C374.1 202.393 374.529 202.821 374.984 203.21C376.361 204.339 378.025 205.182 379.818 205.611C381.156 205.922 382.573 206.065 383.95 205.922C384.093 205.468 384.275 205.014 384.379 204.586Z" fill="#D6B47D"/>
<path fill-rule="evenodd" clip-rule="evenodd" d="M377.466 213.266C375.594 211.501 374.282 208.997 374.152 206.35C373.944 209.036 374.958 211.67 376.725 213.655C376.972 213.552 377.219 213.409 377.466 213.266Z" fill="#D6B47D"/>
<path fill-rule="evenodd" clip-rule="evenodd" d="M385.055 201.134C382.196 199.616 380.468 197.358 379.623 195.983L379.48 195.944C379.48 195.944 381.039 199.616 384.951 202.003C384.977 201.731 385.016 201.42 385.055 201.134Z" fill="#D6B47D"/>
<path fill-rule="evenodd" clip-rule="evenodd" d="M379.545 194.853C379.545 194.853 376.543 193.763 374.1 190.935C373.957 190.753 373.853 190.623 373.71 190.442C372.58 189.027 371.657 187.237 371.202 184.979C371.098 184.382 371.059 183.785 371.02 183.214C370.916 184.097 370.955 185.044 371.124 186.069C371.579 188.327 372.541 190.117 373.632 191.571C376.14 194.75 379.454 195.943 379.454 195.943C381.078 195.45 382.56 194.75 383.937 193.971C383.794 193.66 383.69 193.374 383.547 193.128C382.339 193.802 380.987 194.399 379.545 194.853Z" fill="#D6B47D"/>
<path fill-rule="evenodd" clip-rule="evenodd" d="M370.228 208.439C372.45 226.955 352.918 223.075 353.061 214.187C353.1 210.307 370.228 208.439 370.228 208.439Z" fill="#E16C0E"/>
<path fill-rule="evenodd" clip-rule="evenodd" d="M369.266 209.14C369.266 209.14 368.707 222.959 357.687 218.028C346.667 213.084 369.266 209.14 369.266 209.14Z" fill="#F09417"/>
<path fill-rule="evenodd" clip-rule="evenodd" d="M349.383 205.014C345.069 216.017 364.003 226.8 368.668 207.207L349.383 205.014Z" fill="#F09417"/>
<path fill-rule="evenodd" clip-rule="evenodd" d="M349.383 205.014C345.394 215.199 361.325 225.178 367.394 211.047L365.211 211.475C360.403 218.417 348.928 212.994 352.281 205.338L349.383 205.014Z" fill="#E16C0E"/>
<path fill-rule="evenodd" clip-rule="evenodd" d="M371.631 197.293C376.751 214.109 359.415 217.249 352.879 205.506L371.631 197.293Z" fill="#F09417"/>
<path fill-rule="evenodd" clip-rule="evenodd" d="M371.774 197.851C376.4 214.174 359.337 217.133 352.879 205.507L353.867 205.078C354.815 205.507 355.985 206.026 357.362 206.7C372.228 213.863 370.071 200.706 370.071 200.706C370.331 199.084 370.968 198.24 371.774 197.851Z" fill="#E16C0E"/>
<path fill-rule="evenodd" clip-rule="evenodd" d="M345.641 194.335C345.641 194.335 342.041 200.887 347.551 205.26C353.022 209.633 364.081 208.05 365.107 198.772C366.16 189.469 345.641 194.335 345.641 194.335Z" fill="#F09417"/>
<path fill-rule="evenodd" clip-rule="evenodd" d="M345.641 194.335C345.641 194.335 342.041 200.887 347.551 205.26C352.463 209.179 361.885 208.296 364.497 201.342C363.262 201.627 361.742 201.977 359.831 202.432C343.094 206.558 348.812 193.686 348.812 193.686C346.914 194.01 345.641 194.335 345.641 194.335Z" fill="#E16C0E"/>
<path fill-rule="evenodd" clip-rule="evenodd" d="M345.472 177.934C345.472 177.934 338.792 183.357 341.69 190.273C344.627 197.189 351.891 198.201 351.891 198.201L362.482 197.319C362.482 197.319 364.458 188.016 363.535 187.302C362.664 186.601 345.472 177.934 345.472 177.934Z" fill="#F09417"/>
<path fill-rule="evenodd" clip-rule="evenodd" d="M357.297 137.67L355.361 137.709C355.361 137.709 348.928 136.023 347.278 142.225C345.589 148.427 359.597 153.124 359.597 153.124C359.597 153.124 354.477 146.792 357.297 137.67Z" fill="#F09417"/>
<path fill-rule="evenodd" clip-rule="evenodd" d="M367.928 140.772C368.85 134.284 348.123 132.844 356.349 145.456C361.924 153.994 367.928 140.772 367.928 140.772Z" fill="#F09417"/>
<path fill-rule="evenodd" clip-rule="evenodd" d="M367.928 140.772C368.317 137.917 364.497 136.048 360.832 135.906L360.975 136.334C360.975 136.334 364.406 136.866 360.377 141.407C356.349 145.923 366.628 142.082 366.628 142.082C366.628 142.082 367.161 141.654 367.759 141.135C367.85 140.875 367.928 140.772 367.928 140.772Z" fill="#E16C0E"/>
<path fill-rule="evenodd" clip-rule="evenodd" d="M371.098 147.467L371.137 143.691C371.241 133.505 345.953 144.041 357.155 156.42C361.326 161.857 371.098 147.467 371.098 147.467Z" fill="#F09417"/>
<path fill-rule="evenodd" clip-rule="evenodd" d="M371.098 147.467L371.137 143.691C371.176 140.447 368.629 139.318 365.523 139.669L362.313 141.394C371.423 138.112 369.876 148.726 357.895 151.23C355.777 151.684 354.997 152.281 354.893 152.917C355.075 153.41 355.322 153.864 355.634 154.357C356.66 155.343 358.389 156.161 358.389 156.161C358.389 156.161 361.391 155.486 364.951 154.681C368.239 151.697 371.098 147.467 371.098 147.467Z" fill="#E16C0E"/>
<path fill-rule="evenodd" clip-rule="evenodd" d="M348.045 161.182C348.045 161.182 341.196 164.608 341.222 172.185C341.222 179.737 347.902 180.788 349.552 186.783L354.243 184.811L360.429 175.857C360.442 175.857 353.658 163.686 348.045 161.182Z" fill="#F09417"/>
<path fill-rule="evenodd" clip-rule="evenodd" d="M348.045 161.182C348.045 161.182 341.196 164.608 341.222 172.185C341.222 179.737 347.902 180.788 349.552 186.783L351.917 185.797C350.293 182.267 347.928 178.855 346.862 176.065C344.354 169.512 350.15 165.49 350.15 165.49L350.995 164.569C351.176 164.218 351.28 163.868 351.345 163.544C350.267 162.493 349.136 161.649 348.045 161.182Z" fill="#E16C0E"/>
<path fill-rule="evenodd" clip-rule="evenodd" d="M351.437 166.541C351.437 166.541 335.622 154.552 347.265 142.212C350.579 150.036 357.752 147.143 361.534 153.566L351.437 166.541Z" fill="#F09417"/>
<path fill-rule="evenodd" clip-rule="evenodd" d="M362.21 187.211C362.21 187.211 358.467 194.542 351.892 198.214C351.892 198.214 356.583 204.91 365.315 203.612C374.035 202.301 378.739 190.104 373.996 183.578C369.305 177.09 362.21 187.211 362.21 187.211Z" fill="#F09417"/>
<path fill-rule="evenodd" clip-rule="evenodd" d="M356.908 177.401C356.908 177.401 349.072 172.146 350.267 163.336C351.502 154.487 368.707 150.36 371.137 143.691C371.137 143.691 382.716 153.072 375.412 166.58C368.096 180.048 356.908 177.401 356.908 177.401Z" fill="#F09417"/>
<path fill-rule="evenodd" clip-rule="evenodd" d="M356.907 177.401C356.907 177.401 354.828 176.026 352.983 173.483C355.881 169.395 360.325 167.034 364.172 164.737C372.047 160.079 376.036 153.137 368.837 148.518L367.953 148.271C368.018 147.986 368.096 147.713 368.161 147.428C369.578 146.26 370.63 145.027 371.124 143.691C371.124 143.691 382.703 153.072 375.399 166.58C368.096 180.048 356.907 177.401 356.907 177.401Z" fill="#E16C0E"/>
<path fill-rule="evenodd" clip-rule="evenodd" d="M370.006 189.144C369.721 191.545 368.59 194.931 365.029 196.943C362.56 198.318 358.428 197.617 353.126 196.982C352.593 196.917 351.748 197.124 351.995 198.175C353.308 199.551 355.946 201.77 359.831 202.444C361.105 202.691 362.443 202.756 363.925 202.587L364.484 202.522C367.485 202.068 369.993 200.342 371.826 198.007C374.438 194.62 375.646 190.001 374.763 186.121C373.437 187.38 371.813 188.405 370.006 189.144Z" fill="#E16C0E"/>
<path fill-rule="evenodd" clip-rule="evenodd" d="M375.413 166.58C388.408 191.48 356.31 195.321 349.565 186.783C349.565 186.783 354.4 169.045 375.413 166.58Z" fill="#F09417"/>
<path fill-rule="evenodd" clip-rule="evenodd" d="M356.102 145.002C353.906 141.511 354.088 139.111 355.361 137.696C355.361 137.696 354.906 137.554 354.166 137.489C354.166 137.489 352.086 139.253 353.386 143.38C354.088 145.56 353.698 146.805 353.139 147.467C353.035 147.61 352.931 147.713 352.788 147.817C353.347 148.064 353.88 148.271 354.451 148.492C354.724 147.259 355.283 146.053 356.102 145.002Z" fill="#E16C0E"/>
<path fill-rule="evenodd" clip-rule="evenodd" d="M353.1 158.081C344.692 152.294 346.499 145.067 347.135 143.276C347.239 142.991 347.317 142.822 347.317 142.848L347.135 143.03C341.275 150.153 344.237 157.069 347.564 161.468C348.448 162.662 349.396 163.661 350.176 164.426C350.215 164.076 350.241 163.687 350.28 163.336C350.319 163.09 350.345 162.882 350.384 162.7C350.761 161.014 351.749 159.495 353.1 158.081Z" fill="#E16C0E"/>
<path fill-rule="evenodd" clip-rule="evenodd" d="M372.722 170.628C373.008 173.626 372.787 177.998 370.071 181.424C368.655 183.189 366.537 184.707 363.47 185.615C362.833 185.797 362.157 185.965 361.417 186.108C358.805 186.601 355.595 186.705 351.67 186.316C353.36 188.392 356.583 189.767 360.325 190.234C361.391 190.377 362.521 190.416 363.639 190.416C364.418 190.377 365.159 190.351 365.9 190.234C369.435 189.391 372.709 187.691 374.866 185.057C378.011 181.255 378.856 175.468 374.905 167.423L374.555 166.684C373.879 166.748 373.216 166.865 372.618 166.995C372.436 167.034 372.267 167.06 372.124 167.138C372.163 167.358 372.553 168.734 372.722 170.628Z" fill="#E16C0E"/>
<path fill-rule="evenodd" clip-rule="evenodd" d="M357.505 190.624C352.346 194.568 339.455 192.311 345.602 180.931C345.069 180.399 344.575 179.867 344.042 179.309C342.626 180.97 340.651 183.928 340.975 187.484C341.079 188.366 341.287 189.313 341.677 190.273C342.6 192.388 343.86 193.945 345.277 195.1C348.383 197.708 351.878 198.201 351.878 198.201C354.347 196.826 356.401 194.919 358.025 193.128C358.701 192.35 359.337 191.571 359.857 190.87C359.064 190.844 358.246 190.728 357.505 190.624Z" fill="#E16C0E"/>
<path fill-rule="evenodd" clip-rule="evenodd" d="M369.72 209.775C369.759 210.268 369.681 209.464 369.72 209.918C369.902 222.829 357.817 222.362 353.724 217.042C357.076 223.529 371.527 224.723 370.318 209.49C370.279 209.14 370.318 209.698 370.279 209.347C370.292 209.347 370.084 209.736 369.72 209.775Z" fill="#FFEAAF"/>
<path fill-rule="evenodd" clip-rule="evenodd" d="M372.203 206.039C369.552 212.565 360.728 212.981 355.322 207.025C354.789 206.428 355.777 207.725 355.322 207.025L354.4 207.167C353.659 207.31 353.659 206.817 354.114 207.375C359.727 214.745 370.149 214.148 372.203 206.039Z" fill="#FFEAAF"/>
<path fill-rule="evenodd" clip-rule="evenodd" d="M351.826 166.048C351.787 165.412 351.826 164.737 351.891 164.037C351.891 163.894 351.93 163.79 351.93 163.647C352.32 160.793 354.36 158.431 357.05 156.316C358.363 155.291 359.844 154.305 361.326 153.384C365.003 151.061 368.85 148.946 371.111 146.546C371.644 146.014 372.06 145.456 372.423 144.885C371.683 144.106 371.15 143.691 371.15 143.691C369.954 147 365.107 149.686 360.377 152.605C360.13 152.787 359.844 152.917 359.597 153.098C358.467 153.799 357.336 154.538 356.284 155.317C353.386 157.471 351.06 159.794 350.384 162.687C350.345 162.869 350.319 163.076 350.28 163.323C350.176 164.063 350.137 164.763 350.176 165.477C350.28 170.914 353.737 174.677 355.647 176.402C355.855 176.156 356.076 175.948 356.284 175.728C354.399 173.768 351.995 170.459 351.826 166.048Z" fill="#FFEAAF"/>
<path fill-rule="evenodd" clip-rule="evenodd" d="M351.852 185.836C352.06 185.135 352.593 183.76 353.516 182.034C354.256 180.594 355.283 178.933 356.66 177.233C357.466 176.247 358.389 175.183 359.454 174.197C362.599 171.238 366.835 168.513 372.631 167.008C366.732 168.176 362.287 170.564 358.896 173.314C357.947 174.093 357.063 174.897 356.284 175.754C356.076 175.961 355.855 176.182 355.647 176.429C354.126 178.089 352.957 179.776 352.086 181.294C350.215 184.434 349.578 186.796 349.578 186.796C351.488 189.222 355.478 190.676 359.896 190.883C361.131 190.922 362.365 190.922 363.639 190.78C364.977 190.637 366.29 190.39 367.563 190.04C366.29 190.248 364.99 190.39 363.678 190.429C362.547 190.429 361.417 190.39 360.364 190.248C356.621 189.793 353.412 188.418 351.709 186.329C351.683 186.329 351.748 186.147 351.852 185.836Z" fill="#FFEAAF"/>
<path fill-rule="evenodd" clip-rule="evenodd" d="M361.677 203.703C360.507 204.767 359.065 205.507 357.544 205.922C356.206 206.311 354.789 206.454 353.412 206.35C351.97 206.285 350.553 205.922 349.241 205.364C348.461 205.014 347.72 204.585 347.083 204.053C345.992 203.21 345.251 202.224 344.757 201.238C345.147 202.613 345.992 204.028 347.551 205.26C348.006 205.611 348.5 205.935 348.994 206.207C350.579 207.051 352.385 207.518 354.257 207.583C356.31 207.622 358.389 207.194 360.195 206.246C361.326 205.611 362.353 204.806 363.158 203.781C362.625 203.781 362.132 203.742 361.677 203.703Z" fill="#FFEAAF"/>
<path fill-rule="evenodd" clip-rule="evenodd" d="M365.874 212.319C360.507 220.61 350.722 216.367 348.812 209.503C349.903 217.431 361.56 222.803 366.966 212.008C366.615 212.137 366.264 212.241 365.874 212.319Z" fill="#FFEAAF"/>
<path fill-rule="evenodd" clip-rule="evenodd" d="M364.496 202.509C364.315 202.509 364.107 202.548 363.938 202.574C362.456 202.756 361.118 202.678 359.844 202.432C355.959 201.757 353.308 199.538 352.008 198.163L351.904 198.202C351.904 198.202 354.23 201.484 358.584 203.002C359.532 203.353 360.559 203.599 361.69 203.703C362.144 203.742 362.638 203.768 363.171 203.768C363.847 203.768 364.587 203.703 365.328 203.586C368.083 203.158 370.448 201.679 372.255 199.603C375.503 195.801 376.842 190.079 375.191 185.706C375.048 185.81 374.945 185.953 374.802 186.095C375.685 189.975 374.49 194.594 371.865 197.981C370.006 200.33 367.498 202.055 364.496 202.509Z" fill="#FFEAAF"/>
<path fill-rule="evenodd" clip-rule="evenodd" d="M351.749 197.111C351.749 197.111 348.565 196.657 345.563 194.4C345.42 194.296 345.251 194.153 345.108 194.01C343.731 192.881 342.418 191.298 341.548 189.183C341.301 188.625 341.119 188.055 340.989 187.497C341.093 188.379 341.301 189.326 341.691 190.286C342.613 192.401 343.874 193.958 345.29 195.113C348.396 197.721 351.892 198.214 351.892 198.214C354.361 196.839 356.414 194.932 358.038 193.141C358.714 192.362 359.351 191.584 359.871 190.883C359.559 190.844 359.234 190.844 358.922 190.818C358.61 191.208 358.246 191.623 357.856 192.051C357.57 192.401 357.22 192.726 356.908 193.076C355.465 194.542 353.724 195.983 351.749 197.111Z" fill="#FFEAAF"/>
<path fill-rule="evenodd" clip-rule="evenodd" d="M342.08 172.496C342.08 167.28 345.329 164.036 347.343 162.518C347.2 162.311 347.031 162.09 346.888 161.921C344.913 163.258 341.197 166.606 341.236 172.185C341.236 175.468 342.509 177.544 344.056 179.309C346.109 181.605 348.617 183.435 349.565 186.783C349.565 186.783 349.669 186.393 349.916 185.719C348.643 182.903 346.213 181.242 344.367 178.945C343.068 177.336 342.106 175.39 342.08 172.496Z" fill="#FFEAAF"/>
<path fill-rule="evenodd" clip-rule="evenodd" d="M347.551 161.468C344.237 157.056 341.261 150.153 347.122 143.029C347.226 142.887 347.33 142.783 347.434 142.64C347.369 142.497 347.33 142.355 347.252 142.212C340.079 149.829 343.301 157.302 346.862 161.883C348.032 163.44 349.266 164.634 350.15 165.438C350.111 165.127 350.15 164.763 350.15 164.413C349.383 163.648 348.434 162.661 347.551 161.468Z" fill="#FFEAAF"/>
<path fill-rule="evenodd" clip-rule="evenodd" d="M355.387 148.882C355.634 147.857 356.063 146.87 356.7 145.988C356.7 145.949 356.7 145.949 356.7 145.949C359.208 142.277 364.328 139.915 367.966 140.136C368.642 140.201 369.279 140.318 369.838 140.564C369.305 140.136 368.642 139.864 367.901 139.721C364.549 139.085 359.429 141.096 356.492 144.483C356.349 144.665 356.206 144.833 356.102 145.015C355.283 146.079 354.724 147.273 354.438 148.505C354.75 148.635 355.075 148.739 355.387 148.882Z" fill="#FFEAAF"/>
<path fill-rule="evenodd" clip-rule="evenodd" d="M356.479 144.47C356.543 144.431 356.582 144.366 356.66 144.327C356.595 144.366 356.556 144.431 356.479 144.47ZM356.972 137.67C358.74 136.191 361.988 135.984 364.665 136.684C361.625 135.452 357.245 135.555 355.348 137.709C354.074 139.124 353.905 141.524 356.089 145.015C355.907 145.222 356.518 144.521 356.647 144.34C355.569 142.173 354.854 139.435 356.972 137.67Z" fill="#FFEAAF"/>
<path fill-rule="evenodd" clip-rule="evenodd" d="M374.919 167.423C378.869 175.468 378.024 181.242 374.88 185.057C372.722 187.704 369.448 189.391 365.913 190.234C366.472 190.195 367.005 190.131 367.537 190.027C370.292 189.248 372.839 187.951 374.776 186.108C374.919 185.965 375.023 185.823 375.166 185.719C378.908 181.8 380.104 175.559 375.412 166.567C375.127 166.567 374.854 166.632 374.568 166.671C374.672 166.93 374.815 167.177 374.919 167.423Z" fill="#FFEAAF"/>
<path fill-rule="evenodd" clip-rule="evenodd" d="M371.774 145.806C374.672 149.011 379.753 156.706 374.568 166.684C374.854 166.645 375.127 166.58 375.413 166.58C381.208 155.901 375.166 147.817 372.411 144.898C372.229 145.209 372.021 145.495 371.774 145.806Z" fill="#FFEAAF"/>
<path fill-rule="evenodd" clip-rule="evenodd" d="M354.542 148.064C352.138 147.078 349.812 145.845 348.227 142.497L348.045 142.069C348.825 139.215 350.592 138.021 352.281 137.554C350.371 137.839 348.149 138.929 347.265 142.212C347.33 142.355 347.369 142.497 347.447 142.64C349.175 146.312 351.787 147.467 354.438 148.492C354.477 148.349 354.503 148.207 354.542 148.064Z" fill="#FFEAAF"/>
<path fill-rule="evenodd" clip-rule="evenodd" d="M359.623 156.602C357.219 158.652 355.842 160.975 356.582 161.818C357.284 162.662 359.831 161.714 362.235 159.703C364.639 157.692 366.017 155.369 365.276 154.526C364.574 153.669 362.027 154.591 359.623 156.602Z" fill="#F5AE44"/>
<path fill-rule="evenodd" clip-rule="evenodd" d="M360.156 143.912C358.389 145.391 357.401 147.117 357.934 147.713C358.428 148.349 360.299 147.675 362.066 146.195C363.873 144.716 364.86 142.99 364.327 142.355C363.795 141.719 361.923 142.432 360.156 143.912Z" fill="#F5AE44"/>
<path fill-rule="evenodd" clip-rule="evenodd" d="M356.024 149.725C354.257 148.778 352.528 148.531 352.217 149.128C351.866 149.764 353.022 151.036 354.79 151.983C356.557 152.93 358.246 153.215 358.597 152.58C358.922 151.944 357.791 150.672 356.024 149.725Z" fill="#F5AE44"/>
<path fill-rule="evenodd" clip-rule="evenodd" d="M358.532 137.45C359.623 136.892 360.65 136.853 360.793 137.346C360.936 137.839 360.156 138.657 359.026 139.176C357.934 139.733 356.907 139.772 356.764 139.279C356.621 138.799 357.401 137.982 358.532 137.45Z" fill="#F5AE44"/>
<path fill-rule="evenodd" clip-rule="evenodd" d="M350.163 139.539C350.968 138.618 351.891 138.202 352.216 138.592C352.528 138.981 352.151 140.071 351.332 140.992C350.488 141.913 349.565 142.329 349.253 141.939C348.928 141.511 349.357 140.447 350.163 139.539Z" fill="#F5AE44"/>
<path fill-rule="evenodd" clip-rule="evenodd" d="M361.326 174.729C358.077 177.44 356.245 180.619 357.193 181.748C358.181 182.916 361.612 181.645 364.86 178.933C368.148 176.182 369.98 173.042 368.993 171.874C368.031 170.706 364.6 171.978 361.326 174.729Z" fill="#F5AE44"/>
<path fill-rule="evenodd" clip-rule="evenodd" d="M351.787 173.704C350.839 171.939 349.526 170.771 348.889 171.135C348.292 171.485 348.538 173.185 349.487 174.937C350.436 176.701 351.709 177.869 352.346 177.506C352.983 177.155 352.736 175.468 351.787 173.704Z" fill="#F5AE44"/>
<path fill-rule="evenodd" clip-rule="evenodd" d="M348.11 185.861C347.291 184.382 346.238 183.422 345.705 183.707C345.173 183.993 345.394 185.394 346.199 186.886C346.979 188.327 348.071 189.287 348.564 189.001C349.097 188.729 348.889 187.315 348.11 185.861Z" fill="#F5AE44"/>
<path fill-rule="evenodd" clip-rule="evenodd" d="M362.418 193.517C364.471 192.985 366.264 193.128 366.485 193.868C366.667 194.568 365.146 195.593 363.093 196.125C361.04 196.657 359.247 196.515 359.065 195.775C358.844 195.074 360.364 194.049 362.418 193.517Z" fill="#F5AE44"/>
<path fill-rule="evenodd" clip-rule="evenodd" d="M388.109 177.622C385.432 175.209 378.557 172.938 371.527 179.101C366.68 183.357 369.929 196.709 373.112 200.926C376.829 205.883 387.433 206.973 391.513 202.263C395.126 198.162 393.696 182.683 388.109 177.622Z" fill="#F09417"/>
<path fill-rule="evenodd" clip-rule="evenodd" d="M376.309 176.078C374.763 176.714 373.164 177.687 371.527 179.101C366.68 183.357 369.929 196.709 373.112 200.926C376.829 205.883 387.433 206.973 391.513 202.263C393.423 200.083 393.93 194.633 393.112 189.274C392.709 189.573 392.332 190.131 392.111 191.065C389.187 202.769 373.346 200.316 372.489 186.004C371.995 178.219 375.893 176.273 376.309 176.078Z" fill="#E8800D"/>
<path fill-rule="evenodd" clip-rule="evenodd" d="M390.837 200.784C386.341 206.648 376.27 205.104 372.125 199.369C372.449 199.979 372.774 200.498 373.112 200.939C376.829 205.896 387.394 206.986 391.487 202.315C391.487 202.315 391.5 202.302 391.513 202.276C393.345 200.213 393.878 195.217 393.241 190.144C392.735 186.043 391.448 181.878 389.447 179.14C389.317 178.985 389.2 178.79 389.07 178.634C389.161 178.829 389.265 179.024 389.356 179.218C391.773 184.032 394.58 195.256 390.837 200.784Z" fill="#FFEAAF"/>
<path fill-rule="evenodd" clip-rule="evenodd" d="M388.836 183.344C390.266 187.626 389.291 191.804 386.653 192.661C384.015 193.556 380.714 190.805 379.272 186.536C377.855 182.267 378.817 178.076 381.455 177.22C384.093 176.311 387.394 179.075 388.836 183.344Z" fill="#F5AE44"/>
<path fill-rule="evenodd" clip-rule="evenodd" d="M410.252 166.801C407.952 164.024 401.48 160.793 393.631 165.88C388.226 169.396 389.499 183.072 392.033 187.704C394.983 193.154 405.327 195.749 410.057 191.688C414.215 188.133 415.047 172.601 410.252 166.801Z" fill="#F09417"/>
<path fill-rule="evenodd" clip-rule="evenodd" d="M398.803 163.57C397.179 163.972 395.464 164.699 393.631 165.879C388.226 169.396 389.499 183.072 392.033 187.704C394.983 193.154 405.327 195.749 410.057 191.688C412.266 189.806 413.553 184.486 413.514 179.063C413.072 179.296 412.617 179.802 412.266 180.685C407.679 191.844 392.358 187.133 393.579 172.847C394.216 165.062 398.362 163.7 398.803 163.57Z" fill="#E8800D"/>
<path fill-rule="evenodd" clip-rule="evenodd" d="M409.602 190.105C404.313 195.256 394.567 192.285 391.292 186.004C391.526 186.653 391.773 187.224 392.033 187.704C394.983 193.154 405.288 195.749 410.018 191.714C410.018 191.714 410.031 191.701 410.057 191.675C412.162 189.897 413.423 185.031 413.514 179.919C413.605 175.793 412.942 171.485 411.357 168.487C411.253 168.319 411.162 168.111 411.058 167.942C411.123 168.15 411.188 168.358 411.253 168.565C412.955 173.665 414.099 185.174 409.602 190.105Z" fill="#FFEAAF"/>
<path fill-rule="evenodd" clip-rule="evenodd" d="M410.148 172.562C410.941 176.999 409.368 180.996 406.639 181.476C403.897 181.982 401.038 178.777 400.22 174.352C399.44 169.928 400.999 165.918 403.728 165.438C406.47 164.919 409.329 168.137 410.148 172.562Z" fill="#F5AE44"/>
<path fill-rule="evenodd" clip-rule="evenodd" d="M334.946 193.232C334.946 193.232 332.867 193.478 333.218 196.787C333.568 200.135 334.699 275.095 334.699 275.095C334.699 275.095 334.803 278.663 338.792 280.778C342.743 282.932 374.633 296.362 374.633 296.362C374.633 296.362 378.024 298.049 382.859 295.908C387.693 293.754 410.434 279.013 410.434 279.013C410.434 279.013 413.891 276.937 413.618 273.122C413.293 269.321 413.085 192.272 413.085 192.272C413.085 192.272 413.371 189.482 411.149 189.521C408.888 189.56 394.723 190.754 394.723 190.754L380.701 201.757C380.714 201.77 336.739 192.778 334.946 193.232Z" fill="url(#paint5_linear)"/>
<path fill-rule="evenodd" clip-rule="evenodd" d="M372.346 295.427L374.646 296.374C374.646 296.374 378.038 298.061 382.872 295.92C387.706 293.766 410.447 279.026 410.447 279.026C410.447 279.026 411.37 278.468 412.214 277.443L394.242 278.572L391.526 277.261C391.513 277.261 374.217 293.584 372.346 295.427Z" fill="url(#paint6_linear)"/>
<path fill-rule="evenodd" clip-rule="evenodd" d="M372.346 295.427L374.646 296.375C374.646 296.375 376.231 297.179 378.817 296.972C385.77 294.428 394.255 278.559 394.255 278.559L394.749 190.767L380.727 201.77C380.727 201.77 378.219 201.238 374.412 200.459L372.346 295.427Z" fill="url(#paint7_linear)"/>
<path fill-rule="evenodd" clip-rule="evenodd" d="M334.946 193.231C334.946 193.231 332.867 193.478 333.218 196.787C333.568 200.134 334.699 275.094 334.699 275.094C334.699 275.094 334.803 278.663 338.792 280.778C342.743 282.932 374.633 296.361 374.633 296.361C374.633 296.361 375.763 296.919 377.635 296.997C380.948 296.18 380.182 291.002 380.182 291.002C380.428 264.104 381.494 206.194 381.741 204.196C382.027 202.185 380.714 201.769 380.714 201.769C380.714 201.769 336.739 192.777 334.946 193.231Z" fill="url(#paint8_linear)"/>
<defs>
<linearGradient id="paint0_linear" x1="215.039" y1="335.285" x2="215.039" y2="80.7842" gradientUnits="userSpaceOnUse">
<stop stop-color="#986D98"/>
<stop offset="1" stop-color="#5FA1B6"/>
</linearGradient>
<linearGradient id="paint1_linear" x1="162.523" y1="224.34" x2="277.425" y2="224.34" gradientUnits="userSpaceOnUse">
<stop stop-color="#B4CA1E"/>
<stop offset="1" stop-color="#2B9B71"/>
</linearGradient>
<linearGradient id="paint2_linear" x1="166.846" y1="21.6995" x2="239.948" y2="21.6995" gradientUnits="userSpaceOnUse">
<stop stop-color="#B4CA1E"/>
<stop offset="1" stop-color="#2B9B71"/>
</linearGradient>
<linearGradient id="paint3_linear" x1="178.804" y1="43.2099" x2="241.213" y2="47.5259" gradientUnits="userSpaceOnUse">
<stop stop-color="#B4CA1E"/>
<stop offset="1" stop-color="#2B9B71"/>
</linearGradient>
<linearGradient id="paint4_linear" x1="187.653" y1="153.043" x2="237.176" y2="179.417" gradientUnits="userSpaceOnUse">
<stop stop-color="#B4CA1E"/>
<stop offset="1" stop-color="#2B9B71"/>
</linearGradient>
<linearGradient id="paint5_linear" x1="333.172" y1="243.27" x2="413.638" y2="243.27" gradientUnits="userSpaceOnUse">
<stop stop-color="#E62879"/>
<stop offset="0.3575" stop-color="#CC1B70"/>
<stop offset="1" stop-color="#561D53"/>
</linearGradient>
<linearGradient id="paint6_linear" x1="372.34" y1="287.134" x2="412.208" y2="287.134" gradientUnits="userSpaceOnUse">
<stop stop-color="#E62879"/>
<stop offset="0.3575" stop-color="#CC1B70"/>
<stop offset="1" stop-color="#561D53"/>
</linearGradient>
<linearGradient id="paint7_linear" x1="372.34" y1="243.888" x2="394.728" y2="243.888" gradientUnits="userSpaceOnUse">
<stop stop-color="#E62879"/>
<stop offset="0.3575" stop-color="#CC1B70"/>
<stop offset="1" stop-color="#561D53"/>
</linearGradient>
<linearGradient id="paint8_linear" x1="333.172" y1="245.113" x2="381.773" y2="245.113" gradientUnits="userSpaceOnUse">
<stop stop-color="#821759"/>
<stop offset="1" stop-color="#660E35"/>
</linearGradient>
</defs>
</svg>
