<svg width="407" height="218" viewBox="0 0 407 218" fill="none" xmlns="http://www.w3.org/2000/svg">
<path d="M383.087 187.656L359.453 185.893H48.7192V139.937H383.087V187.656Z" fill="#F4F4F4"/>
<path fill-rule="evenodd" clip-rule="evenodd" d="M45.4995 22.3823H25.0903V10.2503C25.0903 5.56981 28.8479 1.77588 33.4836 1.77588H37.1061C41.7419 1.77588 45.4995 5.56981 45.4995 10.2503V22.3823Z" fill="url(#paint0_linear)"/>
<path d="M395.633 117.842V187.957L372.843 187.658C372.843 187.161 372.878 186.661 372.878 186.193C372.878 161.139 352.761 140.83 327.949 140.83C303.135 140.83 283.021 161.141 283.021 186.193C283.021 186.292 283.021 186.393 283.021 186.486L260.275 186.188H142.379C142.376 184.524 142.286 182.859 142.101 181.202C142.016 180.404 141.913 179.621 141.781 178.846C141.463 176.845 141.01 174.87 140.427 172.932C140.19 172.134 139.935 171.351 139.647 170.576C138.911 168.552 138.033 166.582 137.02 164.683C136.595 163.879 136.142 163.096 135.667 162.326C134.393 160.247 132.955 158.277 131.366 156.433C130.666 155.62 129.94 154.832 129.19 154.076C111.65 136.395 83.2406 136.395 65.701 154.076C64.948 154.837 64.2225 155.622 63.5245 156.433C61.9359 158.277 60.4974 160.247 59.224 162.326C58.7312 163.099 58.2959 163.882 57.8706 164.683C56.8574 166.582 55.9818 168.55 55.2438 170.576C54.9636 171.354 54.7009 172.137 54.4632 172.932C53.8803 174.862 53.4275 176.832 53.1098 178.825C52.9772 179.603 52.8721 180.386 52.7896 181.182C52.607 182.837 52.5144 184.501 52.5119 186.168H7.58594V31.2305H324.457L355.893 100.438L394.963 117.546L395.633 117.842Z" fill="url(#paint1_linear)"/>
<path fill-rule="evenodd" clip-rule="evenodd" d="M14.5834 16.4995H312.104C318.921 16.4995 324.447 22.0792 324.447 28.9622V31.2305H7.58105V23.5644C7.58105 19.6644 10.7132 16.4995 14.5784 16.4995C14.5809 16.4995 14.5809 16.4995 14.5834 16.4995Z" fill="url(#paint2_linear)"/>
<path fill-rule="evenodd" clip-rule="evenodd" d="M253.253 16.4995H180.89V13.7488C180.89 6.15574 186.987 0 194.507 0H236.326L253.253 16.4995Z" fill="url(#paint3_linear)"/>
<path opacity="0.1" d="M6.5953 163.205H36.5785C39.578 163.205 42.0097 165.66 42.0097 168.689V186.002C42.0097 189.03 39.578 191.485 36.5785 191.485H6.5953C3.59574 191.485 1.16406 189.03 1.16406 186.002V168.689C1.16406 165.66 3.59574 163.205 6.5953 163.205Z" fill="black"/>
<path opacity="0.1" d="M259.963 185.893H226.117V30.9375H292.638V138.166L259.963 185.893Z" fill="black"/>
<path fill-rule="evenodd" clip-rule="evenodd" d="M6.0123 164.387H35.9955C38.9951 164.387 41.4268 166.842 41.4268 169.871V187.184C41.4268 190.212 38.9951 192.667 35.9955 192.667H6.0123C3.01273 192.667 0.581055 190.212 0.581055 187.184V169.871C0.581055 166.842 3.01273 164.387 6.0123 164.387Z" fill="url(#paint4_linear)"/>
<path opacity="0.1" d="M390.207 162.028H398.723C402.493 162.028 405.55 165.115 405.55 168.921V188.128C405.55 191.935 402.493 195.021 398.723 195.021H390.207C386.437 195.021 383.38 191.935 383.38 188.128V168.921C383.38 165.115 386.437 162.028 390.207 162.028Z" fill="black"/>
<path fill-rule="evenodd" clip-rule="evenodd" d="M391.373 162.617H399.889C403.659 162.617 406.716 165.703 406.716 169.51V188.717C406.716 192.524 403.659 195.61 399.889 195.61H391.373C387.603 195.61 384.546 192.524 384.546 188.717V169.51C384.543 165.703 387.6 162.617 391.373 162.617Z" fill="url(#paint5_linear)"/>
<path d="M183.219 47.1387H49.5923V120.194H183.219V47.1387Z" fill="#1D2345"/>
<path d="M183.517 53.3247H112.909V116.367H183.517V53.3247Z" fill="#F4F4F4"/>
<path d="M112.909 103.699L163.674 65.6968L170.681 67.4675L112.909 109.592V103.699Z" fill="white"/>
<path d="M112.909 88.3797L140.335 58.6294L153.174 61.5746L112.909 99.8701V88.3797Z" fill="white"/>
<path d="M243.644 42.4277H276.861C281.224 42.4277 284.762 45.9994 284.762 50.4046V102.798C284.762 107.203 281.224 110.774 276.861 110.774H243.644C239.281 110.774 235.743 107.203 235.743 102.798V50.4046C235.743 45.9994 239.281 42.4277 243.644 42.4277Z" fill="#F4F4F4"/>
<path d="M281.845 116.66H275.425V130.802H281.845V116.66Z" fill="#1D2345"/>
<path d="M304.601 52.1427V100.946C304.601 102.467 305.821 103.697 307.325 103.697H337.073C338.579 103.697 339.797 102.464 339.797 100.944C339.797 100.436 339.657 99.9382 339.394 99.5037L309.644 50.703C308.854 49.4097 307.175 49.0055 305.894 49.8037C305.091 50.3039 304.601 51.1905 304.601 52.1427Z" fill="#F4F4F4"/>
<path d="M251.499 42.4277L235.743 56.5654V63.9336L258.208 42.4277H251.499Z" fill="white"/>
<path d="M235.743 72.4688V81.0166L273.089 42.4277H265.791L235.743 72.4688Z" fill="white"/>
<path d="M314.475 58.6294L304.601 72.4689V77.7759L317.707 63.9338L314.475 58.6294Z" fill="white"/>
<path d="M322.2 72.4688L304.601 87.6471V91.9185L326.145 77.7757L322.2 72.4688Z" fill="white"/>
<path d="M97.4453 218C114.847 218 128.954 203.756 128.954 186.186C128.954 168.616 114.847 154.372 97.4453 154.372C80.0432 154.372 65.936 168.616 65.936 186.186C65.936 203.756 80.0432 218 97.4453 218Z" fill="#1D2345"/>
<path d="M97.4456 203.862C107.114 203.862 114.953 195.948 114.953 186.186C114.953 176.423 107.114 168.509 97.4456 168.509C87.7767 168.509 79.9385 176.423 79.9385 186.186C79.9385 195.948 87.7767 203.862 97.4456 203.862Z" fill="white"/>
<path d="M97.1551 190.609C99.7346 190.609 101.826 188.498 101.826 185.893C101.826 183.289 99.7346 181.177 97.1551 181.177C94.5755 181.177 92.4844 183.289 92.4844 185.893C92.4844 188.498 94.5755 190.609 97.1551 190.609Z" fill="#1D2345"/>
<path d="M327.942 218C345.344 218 359.451 203.756 359.451 186.186C359.451 168.616 345.344 154.372 327.942 154.372C310.54 154.372 296.433 168.616 296.433 186.186C296.433 203.756 310.54 218 327.942 218Z" fill="#1D2345"/>
<path d="M327.942 203.862C337.61 203.862 345.449 195.948 345.449 186.186C345.449 176.423 337.61 168.509 327.942 168.509C318.273 168.509 310.435 176.423 310.435 186.186C310.435 195.948 318.273 203.862 327.942 203.862Z" fill="white"/>
<path d="M328.234 190.609C330.814 190.609 332.905 188.498 332.905 185.893C332.905 183.289 330.814 181.177 328.234 181.177C325.655 181.177 323.563 183.289 323.563 185.893C323.563 188.498 325.655 190.609 328.234 190.609Z" fill="#1D2345"/>
<path opacity="0.1" d="M226.117 137.577H7.29102V139.934H226.117V137.577Z" fill="black"/>
<path opacity="0.1" d="M391.546 139.936H291.472L292.637 138.166V137.577H391.546" fill="black"/>
<path opacity="0.1" d="M391.546 129.921H292.638V127.562H391.546" fill="black"/>
<path opacity="0.1" d="M391.546 119.901H292.638V117.546H390.873" fill="black"/>
<path opacity="0.1" d="M76.9015 145.827C75.528 146.542 74.1896 147.33 72.8962 148.184H7.29102V145.827H76.9015Z" fill="black"/>
<path opacity="0.1" d="M226.117 145.827V148.184H122C120.706 147.327 119.371 146.542 117.995 145.827H226.117Z" fill="black"/>
<path opacity="0.1" d="M65.7037 154.079C64.9507 154.839 64.2252 155.625 63.5272 156.436H7.29102V154.079H65.7037Z" fill="black"/>
<path opacity="0.1" d="M226.117 154.079V156.436H131.369C130.668 155.622 129.943 154.834 129.192 154.079H226.117Z" fill="black"/>
<path opacity="0.1" d="M59.2268 162.324C58.734 163.097 58.2987 163.88 57.8734 164.68H7.29102V162.324H59.2268Z" fill="black"/>
<path opacity="0.1" d="M226.116 162.324V164.68H137.022C136.597 163.877 136.144 163.094 135.669 162.324H226.116Z" fill="black"/>
<path opacity="0.1" d="M55.2462 170.573C54.966 171.351 54.7033 172.134 54.4656 172.93H42.2998V170.573H55.2462Z" fill="black"/>
<path opacity="0.1" d="M226.116 170.573V172.93H140.43C140.192 172.132 139.937 171.349 139.649 170.573H226.116Z" fill="black"/>
<path opacity="0.1" d="M53.1097 178.823C52.9771 179.601 52.8721 180.384 52.7895 181.18H42.3022V178.823H53.1097Z" fill="black"/>
<path opacity="0.1" d="M226.117 178.823V181.18H142.104C142.019 180.381 141.916 179.598 141.784 178.823H226.117Z" fill="black"/>
<path d="M177.681 110.12H174.181V101.646L175.662 98.7006C175.742 98.539 175.939 98.4733 176.1 98.5541C176.162 98.587 176.212 98.6375 176.245 98.7006L177.726 101.646L177.681 110.12Z" fill="#EA595B"/>
<path opacity="0.1" d="M177.681 101.656H174.181V102.009H177.681V101.656Z" fill="black"/>
<path d="M182.934 110.12H179.435V101.646L180.916 98.7006C180.996 98.539 181.193 98.4733 181.353 98.5541C181.416 98.587 181.466 98.6375 181.498 98.7006L182.979 101.646L182.934 110.12Z" fill="#F0C313"/>
<path opacity="0.1" d="M182.935 101.656H179.435V102.009H182.935V101.656Z" fill="black"/>
<path d="M94.5083 98.9482C94.4883 98.8724 94.4658 98.7967 94.4332 98.7234C94.6359 96.6092 95.2288 89.6098 94.3732 87.9351C93.7077 86.6292 91.904 86.6393 89.7775 87.0864C89.7775 86.8616 89.8076 86.6368 89.8076 86.4095V79.256C89.7375 74.7371 86.0525 71.1276 81.5769 71.1958H80.2435C75.7679 71.1301 72.0829 74.7371 72.0128 79.256V86.4095C72.0128 86.6191 72.0128 86.8288 72.0379 87.0384C69.7313 87.1976 67.5448 88.6525 68.0526 93.8837V99.8298H68.5179C68.678 99.9384 68.8407 100.039 69.0108 100.128L70.0965 110.232H73.6415L73.5964 110.729H87.471C88.6067 110.815 89.7375 110.873 90.6206 110.868C91.191 110.896 91.7639 110.85 92.3243 110.729C93.8453 110.232 93.8453 107.241 93.8453 107.241L94.3382 99.7969C94.5233 99.557 94.5833 99.2437 94.5083 98.9482ZM74.492 100.772H74.5421V100.865L74.492 100.825V100.772ZM87.7887 102.02L88.0413 105.778H87.7887V102.02ZM73.644 105.278L74.492 100.901H74.5471L74.1368 105.331L73.644 105.278Z" fill="url(#paint6_linear)"/>
<path d="M79.5981 71.3223H82.2249C86.2177 71.3223 89.4524 74.5908 89.4524 78.6196V87.0586C89.4524 91.09 86.2152 94.356 82.2249 94.356H79.5981C75.6053 94.356 72.3706 91.0874 72.3706 87.0586V78.6196C72.3681 74.5883 75.6053 71.3223 79.5981 71.3223Z" fill="#955D7B"/>
<path d="M76.8862 87.9554C76.8862 87.9554 67.5998 83.4694 68.5729 93.7775V99.6502H74.8873L73.8991 110.443H87.501V99.6502C87.501 99.6502 92.8422 100.148 93.8153 99.1526C93.8153 99.1526 94.8035 89.8296 93.8153 87.872C92.8271 85.9144 89.4173 86.9551 86.015 87.9326C82.6151 88.9076 76.8862 87.9554 76.8862 87.9554Z" fill="#EB6580"/>
<path d="M69.4409 99.6504L70.5117 109.958H81.2015C81.2015 109.958 85.577 107.018 83.1478 106.036C80.7187 105.053 79.2627 105.538 79.2627 105.538L73.9215 105.041L74.9347 99.6529H69.4409V99.6504Z" fill="#F6C3A5"/>
<path opacity="0.1" d="M93.6001 99.1528L93.1073 107.008C93.1073 107.008 93.1073 109.949 91.6262 110.444C90.1452 110.939 82.3924 109.946 82.3924 109.946C82.3924 109.946 79.4804 109.946 79.9632 107.493C80.446 105.041 82.8752 104.553 83.8484 104.553C84.8216 104.553 86.2776 105.551 86.2776 105.551H87.7586L87.3783 99.653L93.6001 99.1528Z" fill="black"/>
<path d="M93.8453 99.1528L93.3524 107.008C93.3524 107.008 93.3524 109.949 91.8714 110.444C90.3904 110.939 82.6375 109.946 82.6375 109.946C82.6375 109.946 79.7255 109.946 80.2083 107.493C80.6912 105.041 83.1203 104.553 84.0935 104.553C85.0667 104.553 86.5227 105.551 86.5227 105.551H88.0037L87.6185 99.653L93.8453 99.1528Z" fill="#F6C3A5"/>
<path opacity="0.1" d="M68.7056 99.4128C68.7056 99.4128 70.6794 101.406 74.7773 100.719C75.2176 100.648 69.4411 98.5489 68.7056 99.4128Z" fill="black"/>
<path opacity="0.1" d="M87.0132 101.38C87.0132 101.38 94.5759 101.257 93.9704 98.7939C93.3625 96.3312 87.5035 97.6876 87.5035 97.6876L87.0132 101.38Z" fill="black"/>
<path d="M68.7056 99.2864C68.7056 99.2864 71.1448 101.749 76.1457 100.284C81.1467 98.8191 69.4411 98.4251 68.7056 99.2864Z" fill="#EB6580"/>
<path d="M86.8906 101.262C86.8906 101.262 94.4534 101.138 93.8479 98.6753C93.24 96.2126 87.381 97.5689 87.381 97.5689L86.8906 101.262Z" fill="#EB6580"/>
<path d="M76.3433 81.1376C76.3433 81.1376 77.8243 86.5305 76.8361 88.0082C75.8479 89.4859 79.8982 92.5297 81.6494 92.4943C82.6901 92.4943 86.3802 89.8724 86.0674 88.0082C85.8148 86.4775 83.6383 82.1202 84.1211 80.1626L76.3433 81.1376Z" fill="#F6C3A5"/>
<path opacity="0.1" d="M80.9593 87.8924C82.593 87.8899 84.1716 87.2912 85.4024 86.2075C84.7069 84.2827 83.7638 81.7668 84.099 80.4053L76.3286 81.403C76.3286 81.403 77.1917 84.5985 77.1492 86.7431C78.2775 87.5009 79.6034 87.9025 80.9593 87.8924Z" fill="black"/>
<path d="M80.959 87.647C84.7171 87.647 87.7636 84.571 87.7636 80.7766C87.7636 76.9822 84.7171 73.9062 80.959 73.9062C77.2008 73.9062 74.1543 76.9822 74.1543 80.7766C74.1543 84.571 77.2008 87.647 80.959 87.647Z" fill="#F6C3A5"/>
<path opacity="0.1" d="M76.8185 83.8026C76.6509 83.1535 76.3882 82.5372 76.2556 81.883C75.8078 79.4076 77.1487 76.955 79.4653 76.0204C79.7981 75.879 80.1583 75.826 80.5161 75.8664C81.957 76.1013 82.1697 78.3594 83.5381 78.8923C83.8108 78.9959 84.106 79.0161 84.3812 79.1121C85.1142 79.443 85.6571 80.0896 85.8622 80.8726C86.1474 81.7036 86.255 82.5852 86.1775 83.4591C86.1024 84.2926 85.8672 85.1034 85.8022 85.9521C85.6846 86.7882 85.9173 87.6369 86.4451 88.2961C86.7378 88.579 87.0706 88.8139 87.4333 88.9933C87.686 89.1322 88.0012 89.2736 88.2389 89.112C88.3464 89.0286 88.424 88.9124 88.4665 88.7836C88.8218 87.9021 88.6492 86.9094 88.5641 85.9622C88.469 84.5073 88.484 83.0474 88.6091 81.595C88.6842 80.418 88.7567 79.198 88.3314 78.1068C88.0162 77.3794 87.5884 76.7075 87.0681 76.1139C86.6253 75.5203 86.1074 74.9848 85.532 74.5176C84.4338 73.7573 83.1304 73.3632 81.7994 73.391C80.4785 73.4163 79.1651 73.583 77.8792 73.8886C76.9361 74.0831 75.9054 74.3281 75.3375 75.101C75.0623 75.5254 74.8672 76.0002 74.7646 76.4978L74.3743 77.9325C73.894 79.4531 73.6038 81.0267 73.5112 82.618C73.5112 83.7799 73.6889 86.2931 74.9923 86.7958C76.6834 87.4575 77.0987 84.9191 76.8185 83.8026Z" fill="black"/>
<path d="M76.8185 83.5603C76.6509 82.9111 76.3882 82.2948 76.2556 81.6406C75.8078 79.1651 77.1487 76.7125 79.4653 75.7779C79.7981 75.6364 80.1583 75.5834 80.5161 75.6238C81.957 75.8587 82.1697 78.1169 83.5381 78.6498C83.8108 78.7534 84.106 78.7736 84.3812 78.8696C85.1142 79.2005 85.6571 79.8471 85.8622 80.6302C86.1474 81.4612 86.255 82.3428 86.1775 83.2168C86.1024 84.0503 85.8672 84.8611 85.8022 85.7099C85.6846 86.5459 85.9173 87.3947 86.4451 88.0539C86.7378 88.3368 87.0706 88.5717 87.4333 88.7511C87.686 88.89 88.0012 89.0315 88.2389 88.8698C88.3464 88.7864 88.424 88.6703 88.4665 88.5414C88.8218 87.6599 88.6492 86.6672 88.5641 85.72C88.469 84.265 88.484 82.805 88.6091 81.3526C88.6842 80.1755 88.7567 78.9555 88.3314 77.8643C88.0162 77.1368 87.5884 76.4649 87.0681 75.8713C86.6253 75.2777 86.1074 74.7422 85.532 74.2749C84.4338 73.5146 83.1304 73.1206 81.7994 73.1483C80.4785 73.1736 79.1651 73.3403 77.8792 73.646C76.9361 73.8405 75.9054 74.0855 75.3375 74.8584C75.0623 75.2828 74.8672 75.7576 74.7646 76.2553L74.3743 77.69C73.894 79.2106 73.6038 80.7843 73.5112 82.3756C73.5112 83.5375 73.6889 86.0509 74.9923 86.5535C76.6834 87.1875 77.0987 84.6969 76.8185 83.5603Z" fill="#955D7B"/>
<path d="M49.3071 70.4126C49.3071 70.4126 55.1437 82.7854 70.6068 70.4126H49.3071Z" fill="#575DA6"/>
<path d="M70.314 70.4126C70.314 70.4126 76.1505 82.7854 91.6136 70.4126H70.314Z" fill="#575DA6"/>
<path d="M91.3184 70.4126C91.3184 70.4126 97.1549 82.7854 112.618 70.4126H91.3184Z" fill="#575DA6"/>
<path d="M112.326 70.4126C112.326 70.4126 118.162 82.7854 133.625 70.4126H112.326Z" fill="#575DA6"/>
<path d="M133.335 70.4126C133.335 70.4126 139.171 82.7854 154.635 70.4126H133.335Z" fill="#575DA6"/>
<path d="M154.342 70.4126C154.342 70.4126 160.178 82.7854 175.641 70.4126H154.342Z" fill="#575DA6"/>
<path d="M175.352 70.4126C175.352 70.4126 181.188 82.7854 196.651 70.4126H175.352Z" fill="#575DA6"/>
<path d="M196.354 70.4126C196.354 70.4126 202.19 79.2507 206.273 71.0011L196.354 70.4126Z" fill="#575DA6"/>
<path fill-rule="evenodd" clip-rule="evenodd" d="M49.3071 70.4126C49.3071 70.4126 55.1437 82.7854 70.6068 70.4126H49.3071Z" fill="url(#paint7_linear)"/>
<path fill-rule="evenodd" clip-rule="evenodd" d="M70.314 70.4126C70.314 70.4126 76.1505 82.7854 91.6136 70.4126H70.314Z" fill="url(#paint8_linear)"/>
<path fill-rule="evenodd" clip-rule="evenodd" d="M91.3184 70.4126C91.3184 70.4126 97.1549 82.7854 112.618 70.4126H91.3184Z" fill="url(#paint9_linear)"/>
<path fill-rule="evenodd" clip-rule="evenodd" d="M112.326 70.4126C112.326 70.4126 118.162 82.7854 133.625 70.4126H112.326Z" fill="url(#paint10_linear)"/>
<path fill-rule="evenodd" clip-rule="evenodd" d="M133.335 70.4126C133.335 70.4126 139.171 82.7854 154.635 70.4126H133.335Z" fill="url(#paint11_linear)"/>
<path fill-rule="evenodd" clip-rule="evenodd" d="M154.342 70.4126C154.342 70.4126 160.178 82.7854 175.641 70.4126H154.342Z" fill="url(#paint12_linear)"/>
<path fill-rule="evenodd" clip-rule="evenodd" d="M175.352 70.4126C175.352 70.4126 181.188 82.7854 196.651 70.4126H175.352Z" fill="url(#paint13_linear)"/>
<path fill-rule="evenodd" clip-rule="evenodd" d="M196.354 70.4126C196.354 70.4126 202.19 79.2507 206.273 71.0011L196.354 70.4126Z" fill="url(#paint14_linear)"/>
<path d="M205.983 70.708H28.5903L41.4267 42.4277H192.563L205.983 70.708Z" fill="#575DA6"/>
<path fill-rule="evenodd" clip-rule="evenodd" d="M205.983 70.708H28.5903L41.4267 42.4277H192.563L205.983 70.708Z" fill="url(#paint15_linear)"/>
<path d="M28.3003 70.4126C28.3003 70.4126 34.1368 82.7854 49.6 70.4126H28.3003Z" fill="#575DA6"/>
<path fill-rule="evenodd" clip-rule="evenodd" d="M28.3003 70.4126C28.3003 70.4126 34.1368 82.7854 49.6 70.4126H28.3003Z" fill="url(#paint16_linear)"/>
<path d="M189.061 120.199H45.5098V130.803H189.061V120.199Z" fill="url(#paint17_linear)"/>
<path d="M182.081 18.02H18.1079V32.1626H182.081V18.02Z" fill="url(#paint18_linear)"/>
<path opacity="0.1" d="M189.061 123.735H45.5098V125.506H189.061V123.735Z" fill="black"/>
<path d="M147.232 105.632L147.225 105.68L147.207 105.811L145.346 119.638L133.953 123.967L133.775 123.879L127.396 120.742L124.099 107.635L123.871 106.735L123.941 106.708L138.051 101.219L147.225 105.627L147.232 105.632Z" fill="#4E143F"/>
<path d="M133.775 123.879L127.396 120.742L123.871 106.735L123.941 106.708L133.135 110.724L133.775 123.879Z" fill="#4E143F"/>
<path d="M133.936 123.717L129.082 114.089L129.705 111.361L126.771 107.781L126.521 108.001L129.35 111.449L127.236 120.701L127.556 120.78L128.967 114.594L133.643 123.874L133.936 123.717Z" fill="#CCCBCB"/>
<path d="M147.232 105.804L147.207 105.811L133.135 110.896L124.099 107.635L123.871 106.736L123.941 106.708L138.051 101.219L147.225 105.627V105.68L147.232 105.804Z" fill="#CCCBCB"/>
<path d="M133.25 111.015L130.381 108.724L131.036 106.177L139.232 103.121L144.806 103.46L147.02 105.412L147.182 105.922L133.25 111.015Z" fill="#4E143F"/>
<path d="M124.036 106.735L130.511 106.48L134.018 105.248L139.487 103.255L140.51 101.729L137.958 101.254L124.036 106.735Z" fill="#4E143F"/>
<path d="M133.561 105.23L136.938 104.005L137.045 104.326L133.668 105.551L133.561 105.23Z" fill="#CCCBCB"/>
<path d="M102.577 108.58L93.8506 110.522L92.0669 101.631L95.3517 97.064L98.3062 96.4805L101.591 99.9309L102.577 108.58Z" fill="#CCCBCB"/>
<path d="M98.5413 108.966H93.2877L92.5697 105.304L91.7866 101.29L92.9574 99.542L95.2115 100.269L97.6507 103.77L98.2636 107.335L98.3062 107.59L98.5413 108.966Z" fill="#E6E5E5"/>
<path d="M107.362 106.829L101.311 107.559L102.389 99.5896L104.828 97.3062L106.939 97.8417L108.348 101.194L107.362 106.829Z" fill="#CCCBCB"/>
<path d="M108.16 102.116L107.598 105.323L105.766 116.256L98.7289 118.587L98.4862 118.451L94.6936 116.304L92.5596 105.301L92.5696 105.303L98.2135 107.655L98.2635 107.334L98.2961 107.104L98.7289 104.255L100.653 102.116L107.08 100.514L108.16 102.116Z" fill="#E6E5E5"/>
<path d="M103.702 101.777C104.531 101.777 105.203 101.081 105.203 100.221C105.203 99.3618 104.531 98.665 103.702 98.665C102.873 98.665 102.201 99.3618 102.201 100.221C102.201 101.081 102.873 101.777 103.702 101.777Z" fill="#E6E5E5"/>
<path d="M96.5874 101.656L100.012 101.024L100.027 101.12L96.6024 101.752L96.5874 101.656Z" fill="white"/>
<path d="M98.4863 118.451L94.6936 116.304L92.5597 105.301L92.5697 105.304L91.7866 101.29L92.9574 99.542L95.2115 100.269L97.6507 103.77L98.2636 107.335L98.2961 107.105L98.3061 107.59L98.3287 108.966L98.4863 118.451Z" fill="#F1F1F1"/>
<path d="M94.7387 116.316L94.6486 116.291L96.5199 109.027L94.3784 106.102L94.4535 106.043L96.6224 109.006L94.7387 116.316Z" fill="#CCCBCB"/>
<path d="M95.7119 112.212L95.797 112.169L98.7715 118.567L98.6864 118.61L95.7119 112.212Z" fill="#CCCBCB"/>
<path opacity="0.2" d="M107.79 104.66L107.437 106.675L107.42 106.678L105.841 116.102L98.8041 118.433L98.7615 118.454L98.734 118.393L94.7688 116.15L94.7238 116.137L94.7488 116.041L92.6348 105.144L92.6448 105.15L92.4097 103.952L92.5848 103.692L93.1252 102.886L95.3767 103.616L97.8159 107.115L97.8509 107.322L98.1061 108.815L98.2086 109.413L98.4263 110.679L98.6339 109.317L98.709 108.827L98.8966 107.597L100.82 105.46L101.676 105.248L102.271 105.099L103.089 104.894C102.382 104.447 102.156 103.493 102.587 102.757C103.017 102.022 103.94 101.79 104.651 102.237C105.359 102.684 105.584 103.639 105.153 104.374C105.151 104.377 105.151 104.379 105.148 104.382L107.247 103.859L107.765 104.627L107.79 104.66Z" fill="black"/>
<path d="M98.7117 112.795H93.4556L91.9546 105.119L93.1279 103.371L95.3794 104.099L97.8186 107.597L98.7117 112.795Z" fill="#E6E5E5"/>
<path d="M105.936 120.085L98.8988 122.417L94.8635 120.133L92.7295 109.127L98.3809 111.484L98.8988 108.082L100.823 105.945L107.25 104.341L108.328 105.945L107.765 109.153L105.936 120.085Z" fill="#E6E5E5"/>
<path d="M103.873 105.606C104.702 105.606 105.374 104.91 105.374 104.051C105.374 103.191 104.702 102.495 103.873 102.495C103.044 102.495 102.372 103.191 102.372 104.051C102.372 104.91 103.044 105.606 103.873 105.606Z" fill="#E6E5E5"/>
<path d="M98.6591 122.204L94.8665 120.057L92.7325 109.052L92.7425 109.057L91.9595 105.043L93.1303 103.295L95.3843 104.023L97.8235 107.524L98.4365 111.088L98.469 110.858L98.479 111.343L98.5015 112.719L98.6591 122.204Z" fill="#F1F1F1"/>
<path d="M94.9086 120.146L94.8186 120.12L96.6899 112.856L94.5459 109.931L94.6209 109.873L96.7924 112.833L94.9086 120.146Z" fill="#CCCBCB"/>
<path d="M95.8794 116.038L95.9645 115.998L98.9415 122.396L98.8564 122.437L95.8794 116.038Z" fill="#CCCBCB"/>
<path d="M139.797 115.957C139.809 116.031 139.804 116.106 139.789 116.18C139.774 116.253 139.742 116.321 139.697 116.382C139.654 116.442 139.599 116.495 139.534 116.533C139.469 116.571 139.401 116.599 139.329 116.612C139.181 116.637 139.031 116.602 138.909 116.513C138.788 116.425 138.706 116.291 138.683 116.142C138.661 115.993 138.696 115.839 138.783 115.715C138.871 115.591 139.004 115.508 139.151 115.483C139.224 115.47 139.299 115.472 139.371 115.49C139.444 115.508 139.511 115.538 139.572 115.581C139.632 115.624 139.682 115.68 139.722 115.745C139.759 115.813 139.784 115.884 139.797 115.957Z" fill="#F7AB28"/>
<path d="M138.824 113.146C137.263 113.406 136.195 114.904 136.442 116.488C136.69 118.072 138.156 119.146 139.717 118.883C140.6 118.736 141.368 118.178 141.791 117.375C141.841 117.233 141.854 117.079 141.831 116.928C141.754 116.43 141.293 116.092 140.8 116.175C140.525 116.22 140.285 116.395 140.152 116.642C139.985 116.912 139.715 117.094 139.407 117.147C138.817 117.246 138.261 116.839 138.169 116.241C138.076 115.642 138.479 115.076 139.069 114.978C139.364 114.93 139.665 115.005 139.9 115.19C140.105 115.399 140.398 115.495 140.685 115.447C141.181 115.364 141.518 114.892 141.441 114.389C141.406 114.172 141.298 113.975 141.133 113.833C141.123 113.821 141.111 113.811 141.098 113.798C140.5 113.288 139.7 113.027 138.867 113.141C138.852 113.144 138.839 113.146 138.824 113.146Z" fill="url(#paint19_linear)"/>
<path d="M136.595 116.731C136.533 116.746 136.528 116.892 136.585 117.261C137.103 118.443 138.359 119.168 139.68 118.946C139.845 118.918 140.005 118.878 140.16 118.822C141.008 118.481 141.626 117.726 141.814 116.837C141.699 116.389 141.263 116.096 140.803 116.175C140.685 116.195 140.575 116.238 140.475 116.299C140.38 116.397 140.283 116.496 140.18 116.594C140.17 116.609 140.163 116.624 140.153 116.642C140.035 116.834 139.862 116.981 139.665 117.069C139.315 117.36 138.952 117.589 138.591 117.647C137.488 117.834 136.78 116.688 136.595 116.731Z" fill="url(#paint20_linear)"/>
<path d="M137.908 113.704C137.673 113.745 137.453 113.818 137.25 113.924C136.577 114.57 136.217 115.533 136.372 116.528C136.467 117.139 136.742 117.675 137.133 118.086C137.57 118.339 138.096 118.445 138.634 118.354C139.694 118.177 140.473 117.288 140.568 116.25C140.395 116.333 140.25 116.47 140.157 116.644C139.99 116.914 139.719 117.096 139.412 117.149C138.821 117.248 138.266 116.841 138.173 116.243C138.081 115.644 138.484 115.078 139.074 114.98C139.369 114.932 139.669 115.007 139.905 115.192C140.067 115.356 140.282 115.452 140.508 115.46C140.215 114.298 139.092 113.505 137.908 113.704Z" fill="url(#paint21_linear)"/>
<path d="M140.803 116.178C140.528 116.223 140.288 116.397 140.155 116.645C139.987 116.915 139.717 117.097 139.409 117.15C139.357 117.16 139.302 117.163 139.249 117.165C139.214 117.335 139.212 117.509 139.237 117.681C139.319 118.209 139.685 118.648 140.182 118.817C140.798 118.595 141.306 118.176 141.648 117.643C141.806 117.441 141.871 117.183 141.834 116.93C141.756 116.433 141.293 116.094 140.803 116.178Z" fill="url(#paint22_linear)"/>
<path d="M138.777 113.154C137.707 113.333 136.866 114.089 136.513 115.053C136.656 115.935 137.409 116.556 138.264 116.551C138.219 116.455 138.187 116.352 138.169 116.243C138.077 115.645 138.48 115.079 139.07 114.98C139.365 114.932 139.665 115.008 139.9 115.192C139.905 115.197 139.908 115.2 139.913 115.205C140.091 115.177 140.113 115.048 140.033 114.533C139.936 113.914 139.535 113.389 139.007 113.129C138.932 113.131 138.855 113.142 138.777 113.154Z" fill="url(#paint23_linear)"/>
<path d="M141.436 114.392C141.453 114.51 141.451 114.632 141.421 114.748C141.393 114.864 141.343 114.975 141.273 115.074C141.203 115.172 141.115 115.255 141.015 115.319C140.915 115.382 140.803 115.425 140.685 115.445C140.447 115.485 140.207 115.427 140.012 115.286C139.819 115.144 139.689 114.93 139.652 114.69C139.614 114.45 139.672 114.205 139.814 114.008C139.955 113.811 140.167 113.677 140.405 113.636C140.522 113.616 140.642 113.621 140.758 113.649C140.873 113.677 140.983 113.727 141.078 113.795C141.173 113.864 141.255 113.955 141.318 114.056C141.375 114.159 141.418 114.273 141.436 114.392Z" fill="#4E143F"/>
<path d="M121.055 120.072H112.379L111.093 102.77H122.341L121.055 120.072Z" fill="url(#paint24_linear)"/>
<path d="M122.5 109.756H110.933V112.419H122.5V109.756Z" fill="#E6E6E6"/>
<path d="M122.981 101.772H121.054L120.839 101.105H112.271L112.058 101.772H110.129L109.486 103.768H123.624L122.981 101.772Z" fill="#E6E6E6"/>
<defs>
<linearGradient id="paint0_linear" x1="35.295" y1="22.383" x2="35.295" y2="1.77484" gradientUnits="userSpaceOnUse">
<stop stop-color="#E74440"/>
<stop offset="1" stop-color="#F3961C"/>
</linearGradient>
<linearGradient id="paint1_linear" x1="155.79" y1="266.771" x2="224.699" y2="34.8996" gradientUnits="userSpaceOnUse">
<stop stop-color="#E62879"/>
<stop offset="0.3575" stop-color="#CC1B70"/>
<stop offset="1" stop-color="#561D53"/>
</linearGradient>
<linearGradient id="paint2_linear" x1="166.015" y1="31.2313" x2="166.015" y2="16.5007" gradientUnits="userSpaceOnUse">
<stop stop-color="#E74440"/>
<stop offset="1" stop-color="#F3961C"/>
</linearGradient>
<linearGradient id="paint3_linear" x1="217.071" y1="16.5007" x2="217.071" y2="0" gradientUnits="userSpaceOnUse">
<stop stop-color="#E74440"/>
<stop offset="1" stop-color="#F3961C"/>
</linearGradient>
<linearGradient id="paint4_linear" x1="21.0042" y1="192.667" x2="21.0042" y2="164.387" gradientUnits="userSpaceOnUse">
<stop stop-color="#E74440"/>
<stop offset="1" stop-color="#F3961C"/>
</linearGradient>
<linearGradient id="paint5_linear" x1="395.631" y1="195.613" x2="395.631" y2="162.617" gradientUnits="userSpaceOnUse">
<stop stop-color="#E74440"/>
<stop offset="1" stop-color="#F3961C"/>
</linearGradient>
<linearGradient id="paint6_linear" x1="81.4013" y1="110.881" x2="81.4013" y2="71.1956" gradientUnits="userSpaceOnUse">
<stop stop-color="#808080" stop-opacity="0.25"/>
<stop offset="0.54" stop-color="#808080" stop-opacity="0.12"/>
<stop offset="1" stop-color="#808080" stop-opacity="0.1"/>
</linearGradient>
<linearGradient id="paint7_linear" x1="59.9568" y1="75.9131" x2="59.9568" y2="70.4137" gradientUnits="userSpaceOnUse">
<stop stop-color="#E74440"/>
<stop offset="1" stop-color="#F3961C"/>
</linearGradient>
<linearGradient id="paint8_linear" x1="80.9649" y1="75.9131" x2="80.9649" y2="70.4137" gradientUnits="userSpaceOnUse">
<stop stop-color="#E74440"/>
<stop offset="1" stop-color="#F3961C"/>
</linearGradient>
<linearGradient id="paint9_linear" x1="101.968" y1="75.9131" x2="101.968" y2="70.4137" gradientUnits="userSpaceOnUse">
<stop stop-color="#E74440"/>
<stop offset="1" stop-color="#F3961C"/>
</linearGradient>
<linearGradient id="paint10_linear" x1="122.976" y1="75.9131" x2="122.976" y2="70.4137" gradientUnits="userSpaceOnUse">
<stop stop-color="#E74440"/>
<stop offset="1" stop-color="#F3961C"/>
</linearGradient>
<linearGradient id="paint11_linear" x1="143.984" y1="75.9131" x2="143.984" y2="70.4137" gradientUnits="userSpaceOnUse">
<stop stop-color="#E74440"/>
<stop offset="1" stop-color="#F3961C"/>
</linearGradient>
<linearGradient id="paint12_linear" x1="164.992" y1="75.9131" x2="164.992" y2="70.4137" gradientUnits="userSpaceOnUse">
<stop stop-color="#E74440"/>
<stop offset="1" stop-color="#F3961C"/>
</linearGradient>
<linearGradient id="paint13_linear" x1="186.001" y1="75.9131" x2="186.001" y2="70.4137" gradientUnits="userSpaceOnUse">
<stop stop-color="#E74440"/>
<stop offset="1" stop-color="#F3961C"/>
</linearGradient>
<linearGradient id="paint14_linear" x1="201.314" y1="74.5221" x2="201.314" y2="70.4137" gradientUnits="userSpaceOnUse">
<stop stop-color="#E74440"/>
<stop offset="1" stop-color="#F3961C"/>
</linearGradient>
<linearGradient id="paint15_linear" x1="117.286" y1="70.7077" x2="117.286" y2="42.4275" gradientUnits="userSpaceOnUse">
<stop stop-color="#E74440"/>
<stop offset="1" stop-color="#F3961C"/>
</linearGradient>
<linearGradient id="paint16_linear" x1="38.9488" y1="75.9131" x2="38.9488" y2="70.4137" gradientUnits="userSpaceOnUse">
<stop stop-color="#E74440"/>
<stop offset="1" stop-color="#F3961C"/>
</linearGradient>
<linearGradient id="paint17_linear" x1="117.286" y1="130.803" x2="117.286" y2="120.2" gradientUnits="userSpaceOnUse">
<stop stop-color="#E74440"/>
<stop offset="1" stop-color="#F3961C"/>
</linearGradient>
<linearGradient id="paint18_linear" x1="100.093" y1="32.1635" x2="100.093" y2="18.021" gradientUnits="userSpaceOnUse">
<stop stop-color="#E74440"/>
<stop offset="1" stop-color="#F3961C"/>
</linearGradient>
<linearGradient id="paint19_linear" x1="139.631" y1="113.362" x2="139.054" y2="116.495" gradientUnits="userSpaceOnUse">
<stop stop-color="#4F254E"/>
<stop offset="1" stop-color="#B577AF"/>
</linearGradient>
<linearGradient id="paint20_linear" x1="138.18" y1="118.677" x2="140.505" y2="113.871" gradientUnits="userSpaceOnUse">
<stop stop-color="#6EBE9F"/>
<stop offset="0.5148" stop-color="#53706E"/>
<stop offset="1" stop-color="#4E143F"/>
</linearGradient>
<linearGradient id="paint21_linear" x1="137.47" y1="113.557" x2="139.13" y2="118.095" gradientUnits="userSpaceOnUse">
<stop stop-color="#E62879"/>
<stop offset="0.5961" stop-color="#6FAEC4"/>
<stop offset="1" stop-color="#6CC3CB"/>
</linearGradient>
<linearGradient id="paint22_linear" x1="139.207" y1="118.278" x2="141.67" y2="116.491" gradientUnits="userSpaceOnUse">
<stop stop-color="#E84B49"/>
<stop offset="1" stop-color="#F29231" stop-opacity="0.9922"/>
</linearGradient>
<linearGradient id="paint23_linear" x1="136.168" y1="115.789" x2="139.413" y2="114.228" gradientUnits="userSpaceOnUse">
<stop stop-color="#E62879"/>
<stop offset="0.3575" stop-color="#CC1B70"/>
<stop offset="1" stop-color="#561D53"/>
</linearGradient>
<linearGradient id="paint24_linear" x1="111.094" y1="111.42" x2="122.34" y2="111.42" gradientUnits="userSpaceOnUse">
<stop stop-color="#E62879"/>
<stop offset="0.3575" stop-color="#CC1B70"/>
<stop offset="1" stop-color="#561D53"/>
</linearGradient>
</defs>
</svg>
