<?xml version="1.0" encoding="UTF-8"?>
<svg xmlns="http://www.w3.org/2000/svg" xmlns:xlink="http://www.w3.org/1999/xlink" width="470pt" height="564pt" viewBox="0 0 470 564" version="1.1">
<defs>
<linearGradient id="linear0" gradientUnits="userSpaceOnUse" x1="80.949997" y1="151.240005" x2="80.949997" y2="126.57" gradientTransform="matrix(0.999107,0,0,0.999107,0.411644,0)">
<stop offset="0" style="stop-color:rgb(90.980393%,27.450982%,25.098041%);stop-opacity:1;"/>
<stop offset="1" style="stop-color:rgb(95.686275%,59.215689%,12.156863%);stop-opacity:1;"/>
</linearGradient>
<linearGradient id="linear1" gradientUnits="userSpaceOnUse" x1="226.580002" y1="443.790009" x2="308.410004" y2="165.789993" gradientTransform="matrix(0.999107,0,0,0.999107,0.411644,0)">
<stop offset="0" style="stop-color:rgb(90.588236%,16.862746%,47.843137%);stop-opacity:1;"/>
<stop offset="0.36" style="stop-color:rgb(80.000001%,11.372549%,44.313726%);stop-opacity:1;"/>
<stop offset="1" style="stop-color:rgb(33.333334%,11.372549%,32.156864%);stop-opacity:1;"/>
</linearGradient>
<linearGradient id="linear2" gradientUnits="userSpaceOnUse" x1="238.940002" y1="161.830002" x2="238.940002" y2="144.199997" gradientTransform="matrix(0.999107,0,0,0.999107,0.411644,0)">
<stop offset="0" style="stop-color:rgb(90.980393%,27.450982%,25.098041%);stop-opacity:1;"/>
<stop offset="1" style="stop-color:rgb(95.686275%,59.215689%,12.156863%);stop-opacity:1;"/>
</linearGradient>
<linearGradient id="linear3" gradientUnits="userSpaceOnUse" x1="300.649994" y1="144.199997" x2="300.649994" y2="124.440002" gradientTransform="matrix(0.999107,0,0,0.999107,0.411644,0)">
<stop offset="0" style="stop-color:rgb(90.980393%,27.450982%,25.098041%);stop-opacity:1;"/>
<stop offset="1" style="stop-color:rgb(95.686275%,59.215689%,12.156863%);stop-opacity:1;"/>
</linearGradient>
<filter id="alpha" filterUnits="objectBoundingBox" x="0%" y="0%" width="100%" height="100%">
  <feColorMatrix type="matrix" in="SourceGraphic" values="0 0 0 0 1 0 0 0 0 1 0 0 0 0 1 0 0 0 1 0"/>
</filter>
<mask id="mask0">
  <g filter="url(#alpha)">
<rect x="0" y="0" width="470" height="564" style="fill:rgb(0%,0%,0%);fill-opacity:0.1;stroke:none;"/>
  </g>
</mask>
<clipPath id="clip1">
  <rect x="0" y="0" width="564" height="470"/>
</clipPath>
<g id="surface5" clip-path="url(#clip1)">
<path style=" stroke:none;fill-rule:nonzero;fill:rgb(0.392157%,0.392157%,0.392157%);fill-opacity:1;" d="M 46.621094 319.523438 L 82.839844 319.523438 C 86.457031 319.523438 89.390625 322.457031 89.390625 326.078125 L 89.390625 346.789062 C 89.390625 350.410156 86.457031 353.34375 82.839844 353.34375 L 46.621094 353.34375 C 43 353.34375 40.066406 350.410156 40.066406 346.789062 L 40.066406 326.078125 C 40.066406 322.457031 43 319.523438 46.621094 319.523438 Z M 46.621094 319.523438 "/>
</g>
<mask id="mask1">
  <g filter="url(#alpha)">
<rect x="0" y="0" width="470" height="564" style="fill:rgb(0%,0%,0%);fill-opacity:0.1;stroke:none;"/>
  </g>
</mask>
<clipPath id="clip2">
  <rect x="0" y="0" width="564" height="470"/>
</clipPath>
<g id="surface8" clip-path="url(#clip2)">
<path style=" stroke:none;fill-rule:nonzero;fill:rgb(0.392157%,0.392157%,0.392157%);fill-opacity:1;" d="M 352.585938 346.660156 L 311.714844 346.660156 L 311.714844 161.335938 L 392.050781 161.335938 L 392.050781 289.582031 Z M 352.585938 346.660156 "/>
</g>
<linearGradient id="linear4" gradientUnits="userSpaceOnUse" x1="63.669998" y1="355.079987" x2="63.669998" y2="321.230011" gradientTransform="matrix(0.999107,0,0,0.999107,0.411644,0)">
<stop offset="0" style="stop-color:rgb(90.980393%,27.450982%,25.098041%);stop-opacity:1;"/>
<stop offset="1" style="stop-color:rgb(95.686275%,59.215689%,12.156863%);stop-opacity:1;"/>
</linearGradient>
<mask id="mask2">
  <g filter="url(#alpha)">
<rect x="0" y="0" width="470" height="564" style="fill:rgb(0%,0%,0%);fill-opacity:0.1;stroke:none;"/>
  </g>
</mask>
<clipPath id="clip3">
  <rect x="0" y="0" width="564" height="470"/>
</clipPath>
<g id="surface11" clip-path="url(#clip3)">
<path style=" stroke:none;fill-rule:nonzero;fill:rgb(0.392157%,0.392157%,0.392157%);fill-opacity:1;" d="M 509.867188 318.125 L 520.15625 318.125 C 524.710938 318.125 528.398438 321.816406 528.398438 326.367188 L 528.398438 349.347656 C 528.398438 353.898438 524.710938 357.589844 520.15625 357.589844 L 509.867188 357.589844 C 505.3125 357.589844 501.625 353.898438 501.625 349.347656 L 501.625 326.367188 C 501.625 321.816406 505.3125 318.125 509.867188 318.125 Z M 509.867188 318.125 "/>
</g>
<mask id="mask3">
  <g filter="url(#alpha)">
<rect x="0" y="0" width="470" height="564" style="fill:rgb(0%,0%,0%);fill-opacity:0.1;stroke:none;"/>
  </g>
</mask>
<clipPath id="clip4">
  <rect x="0" y="0" width="564" height="470"/>
</clipPath>
<g id="surface14" clip-path="url(#clip4)">
<path style=" stroke:none;fill-rule:nonzero;fill:rgb(0.392157%,0.392157%,0.392157%);fill-opacity:1;" d="M 47.46875 288.871094 L 311.722656 288.871094 L 311.722656 291.6875 L 47.46875 291.6875 Z M 47.46875 288.871094 "/>
</g>
<mask id="mask4">
  <g filter="url(#alpha)">
<rect x="0" y="0" width="470" height="564" style="fill:rgb(0%,0%,0%);fill-opacity:0.1;stroke:none;"/>
  </g>
</mask>
<clipPath id="clip5">
  <rect x="0" y="0" width="564" height="470"/>
</clipPath>
<g id="surface17" clip-path="url(#clip5)">
<path style=" stroke:none;fill-rule:nonzero;fill:rgb(0.392157%,0.392157%,0.392157%);fill-opacity:1;" d="M 511.484375 291.699219 L 390.644531 291.699219 L 392.050781 289.582031 L 392.050781 288.871094 L 511.484375 288.871094 "/>
</g>
<mask id="mask5">
  <g filter="url(#alpha)">
<rect x="0" y="0" width="470" height="564" style="fill:rgb(0%,0%,0%);fill-opacity:0.1;stroke:none;"/>
  </g>
</mask>
<clipPath id="clip6">
  <rect x="0" y="0" width="564" height="470"/>
</clipPath>
<g id="surface20" clip-path="url(#clip6)">
<path style=" stroke:none;fill-rule:nonzero;fill:rgb(0.392157%,0.392157%,0.392157%);fill-opacity:1;" d="M 511.484375 279.71875 L 392.050781 279.71875 L 392.050781 276.902344 L 511.484375 276.902344 "/>
</g>
<mask id="mask6">
  <g filter="url(#alpha)">
<rect x="0" y="0" width="470" height="564" style="fill:rgb(0%,0%,0%);fill-opacity:0.1;stroke:none;"/>
  </g>
</mask>
<clipPath id="clip7">
  <rect x="0" y="0" width="564" height="470"/>
</clipPath>
<g id="surface23" clip-path="url(#clip7)">
<path style=" stroke:none;fill-rule:nonzero;fill:rgb(0.392157%,0.392157%,0.392157%);fill-opacity:1;" d="M 511.484375 267.730469 L 392.050781 267.730469 L 392.050781 264.921875 L 510.675781 264.921875 "/>
</g>
<mask id="mask7">
  <g filter="url(#alpha)">
<rect x="0" y="0" width="470" height="564" style="fill:rgb(0%,0%,0%);fill-opacity:0.1;stroke:none;"/>
  </g>
</mask>
<clipPath id="clip8">
  <rect x="0" y="0" width="564" height="470"/>
</clipPath>
<g id="surface26" clip-path="url(#clip8)">
<path style=" stroke:none;fill-rule:nonzero;fill:rgb(0.392157%,0.392157%,0.392157%);fill-opacity:1;" d="M 131.535156 298.734375 C 129.875 299.589844 128.261719 300.527344 126.699219 301.550781 L 47.46875 301.550781 L 47.46875 298.734375 Z M 131.535156 298.734375 "/>
</g>
<mask id="mask8">
  <g filter="url(#alpha)">
<rect x="0" y="0" width="470" height="564" style="fill:rgb(0%,0%,0%);fill-opacity:0.1;stroke:none;"/>
  </g>
</mask>
<clipPath id="clip9">
  <rect x="0" y="0" width="564" height="470"/>
</clipPath>
<g id="surface29" clip-path="url(#clip9)">
<path style=" stroke:none;fill-rule:nonzero;fill:rgb(0.392157%,0.392157%,0.392157%);fill-opacity:1;" d="M 311.722656 298.734375 L 311.722656 301.550781 L 185.984375 301.550781 C 184.421875 300.53125 182.808594 299.589844 181.148438 298.734375 Z M 311.722656 298.734375 "/>
</g>
<mask id="mask9">
  <g filter="url(#alpha)">
<rect x="0" y="0" width="470" height="564" style="fill:rgb(0%,0%,0%);fill-opacity:0.1;stroke:none;"/>
  </g>
</mask>
<clipPath id="clip10">
  <rect x="0" y="0" width="564" height="470"/>
</clipPath>
<g id="surface32" clip-path="url(#clip10)">
<path style=" stroke:none;fill-rule:nonzero;fill:rgb(0.392157%,0.392157%,0.392157%);fill-opacity:1;" d="M 118.007812 308.613281 C 117.097656 309.523438 116.21875 310.460938 115.378906 311.433594 L 47.441406 311.433594 L 47.441406 308.613281 Z M 118.007812 308.613281 "/>
</g>
<mask id="mask10">
  <g filter="url(#alpha)">
<rect x="0" y="0" width="470" height="564" style="fill:rgb(0%,0%,0%);fill-opacity:0.1;stroke:none;"/>
  </g>
</mask>
<clipPath id="clip11">
  <rect x="0" y="0" width="564" height="470"/>
</clipPath>
<g id="surface35" clip-path="url(#clip11)">
<path style=" stroke:none;fill-rule:nonzero;fill:rgb(0.392157%,0.392157%,0.392157%);fill-opacity:1;" d="M 311.722656 308.613281 L 311.722656 311.433594 L 197.304688 311.433594 C 196.457031 310.433594 195.578125 309.511719 194.679688 308.613281 Z M 311.722656 308.613281 "/>
</g>
<mask id="mask11">
  <g filter="url(#alpha)">
<rect x="0" y="0" width="470" height="564" style="fill:rgb(0%,0%,0%);fill-opacity:0.1;stroke:none;"/>
  </g>
</mask>
<clipPath id="clip12">
  <rect x="0" y="0" width="564" height="470"/>
</clipPath>
<g id="surface38" clip-path="url(#clip12)">
<path style=" stroke:none;fill-rule:nonzero;fill:rgb(0.392157%,0.392157%,0.392157%);fill-opacity:1;" d="M 110.183594 318.476562 C 109.59375 319.394531 109.066406 320.332031 108.554688 321.292969 L 47.46875 321.292969 L 47.46875 318.476562 Z M 110.183594 318.476562 "/>
</g>
<mask id="mask12">
  <g filter="url(#alpha)">
<rect x="0" y="0" width="470" height="564" style="fill:rgb(0%,0%,0%);fill-opacity:0.1;stroke:none;"/>
  </g>
</mask>
<clipPath id="clip13">
  <rect x="0" y="0" width="564" height="470"/>
</clipPath>
<g id="surface41" clip-path="url(#clip13)">
<path style=" stroke:none;fill-rule:nonzero;fill:rgb(0.392157%,0.392157%,0.392157%);fill-opacity:1;" d="M 311.722656 318.476562 L 311.722656 321.292969 L 204.128906 321.292969 C 203.621094 320.292969 203.070312 319.394531 202.5 318.476562 Z M 311.722656 318.476562 "/>
</g>
<mask id="mask13">
  <g filter="url(#alpha)">
<rect x="0" y="0" width="470" height="564" style="fill:rgb(0%,0%,0%);fill-opacity:0.1;stroke:none;"/>
  </g>
</mask>
<clipPath id="clip14">
  <rect x="0" y="0" width="564" height="470"/>
</clipPath>
<g id="surface44" clip-path="url(#clip14)">
<path style=" stroke:none;fill-rule:nonzero;fill:rgb(0.392157%,0.392157%,0.392157%);fill-opacity:1;" d="M 105.378906 328.335938 C 105.039062 329.265625 104.726562 330.203125 104.4375 331.164062 L 89.75 331.164062 L 89.75 328.335938 Z M 105.378906 328.335938 "/>
</g>
<mask id="mask14">
  <g filter="url(#alpha)">
<rect x="0" y="0" width="470" height="564" style="fill:rgb(0%,0%,0%);fill-opacity:0.1;stroke:none;"/>
  </g>
</mask>
<clipPath id="clip15">
  <rect x="0" y="0" width="564" height="470"/>
</clipPath>
<g id="surface47" clip-path="url(#clip15)">
<path style=" stroke:none;fill-rule:nonzero;fill:rgb(0.392157%,0.392157%,0.392157%);fill-opacity:1;" d="M 311.722656 328.335938 L 311.722656 331.164062 L 208.226562 331.164062 C 207.9375 330.164062 207.625 329.265625 207.285156 328.335938 Z M 311.722656 328.335938 "/>
</g>
<mask id="mask15">
  <g filter="url(#alpha)">
<rect x="0" y="0" width="470" height="564" style="fill:rgb(0%,0%,0%);fill-opacity:0.1;stroke:none;"/>
  </g>
</mask>
<clipPath id="clip16">
  <rect x="0" y="0" width="564" height="470"/>
</clipPath>
<g id="surface50" clip-path="url(#clip16)">
<path style=" stroke:none;fill-rule:nonzero;fill:rgb(0.392157%,0.392157%,0.392157%);fill-opacity:1;" d="M 102.800781 338.207031 C 102.640625 339.132812 102.511719 340.074219 102.410156 341.023438 L 89.75 341.023438 L 89.75 338.207031 Z M 102.800781 338.207031 "/>
</g>
<mask id="mask16">
  <g filter="url(#alpha)">
<rect x="0" y="0" width="470" height="564" style="fill:rgb(0%,0%,0%);fill-opacity:0.1;stroke:none;"/>
  </g>
</mask>
<clipPath id="clip17">
  <rect x="0" y="0" width="564" height="470"/>
</clipPath>
<g id="surface53" clip-path="url(#clip17)">
<path style=" stroke:none;fill-rule:nonzero;fill:rgb(0.392157%,0.392157%,0.392157%);fill-opacity:1;" d="M 311.722656 338.207031 L 311.722656 341.023438 L 210.222656 341.023438 C 210.125 340.074219 210.003906 339.136719 209.835938 338.207031 Z M 311.722656 338.207031 "/>
</g>
<mask id="mask17">
  <g filter="url(#alpha)">
<rect x="0" y="0" width="470" height="564" style="fill:rgb(0%,0%,0%);fill-opacity:0.1;stroke:none;"/>
  </g>
</mask>
<clipPath id="clip18">
  <rect x="0" y="0" width="564" height="470"/>
</clipPath>
<g id="surface56" clip-path="url(#clip18)">
<path style=" stroke:none;fill-rule:nonzero;fill:rgb(0.392157%,0.392157%,0.392157%);fill-opacity:1;" d="M 249 245.910156 L 253.226562 245.910156 L 253.226562 246.328125 L 249 246.328125 Z M 249 245.910156 "/>
</g>
<mask id="mask18">
  <g filter="url(#alpha)">
<rect x="0" y="0" width="470" height="564" style="fill:rgb(0%,0%,0%);fill-opacity:0.1;stroke:none;"/>
  </g>
</mask>
<clipPath id="clip19">
  <rect x="0" y="0" width="564" height="470"/>
</clipPath>
<g id="surface59" clip-path="url(#clip19)">
<path style=" stroke:none;fill-rule:nonzero;fill:rgb(0.392157%,0.392157%,0.392157%);fill-opacity:1;" d="M 255.34375 245.910156 L 259.570312 245.910156 L 259.570312 246.328125 L 255.34375 246.328125 Z M 255.34375 245.910156 "/>
</g>
<linearGradient id="linear5" gradientUnits="userSpaceOnUse" x1="233.050003" y1="-1710" x2="233.050003" y2="-1662.48999" gradientTransform="matrix(0.999107,0,0,-0.999107,-95.882301,-1451.522799)">
<stop offset="0" style="stop-color:rgb(50.196081%,50.588238%,50.588238%);stop-opacity:0.25;"/>
<stop offset="0.54" style="stop-color:rgb(50.196081%,50.588238%,50.588238%);stop-opacity:0.12;"/>
<stop offset="1" style="stop-color:rgb(50.196081%,50.588238%,50.588238%);stop-opacity:0.1;"/>
</linearGradient>
<mask id="mask19">
  <g filter="url(#alpha)">
<rect x="0" y="0" width="470" height="564" style="fill:rgb(0%,0%,0%);fill-opacity:0.1;stroke:none;"/>
  </g>
</mask>
<clipPath id="clip20">
  <rect x="0" y="0" width="564" height="470"/>
</clipPath>
<g id="surface62" clip-path="url(#clip20)">
<path style=" stroke:none;fill-rule:nonzero;fill:rgb(0.392157%,0.392157%,0.392157%);fill-opacity:1;" d="M 151.695312 242.921875 L 151.097656 252.316406 C 151.097656 252.316406 151.097656 255.832031 149.308594 256.421875 C 147.519531 257.011719 138.160156 255.832031 138.160156 255.832031 C 138.160156 255.832031 134.640625 255.832031 135.230469 252.894531 C 135.820312 249.957031 138.746094 249.378906 139.917969 249.378906 C 140.972656 249.550781 141.976562 249.957031 142.855469 250.566406 L 144.644531 250.566406 L 144.183594 243.511719 Z M 151.695312 242.921875 "/>
</g>
<mask id="mask20">
  <g filter="url(#alpha)">
<rect x="0" y="0" width="470" height="564" style="fill:rgb(0%,0%,0%);fill-opacity:0.1;stroke:none;"/>
  </g>
</mask>
<clipPath id="clip21">
  <rect x="0" y="0" width="564" height="470"/>
</clipPath>
<g id="surface65" clip-path="url(#clip21)">
<path style=" stroke:none;fill-rule:nonzero;fill:rgb(0.392157%,0.392157%,0.392157%);fill-opacity:1;" d="M 121.632812 243.234375 C 121.632812 243.234375 124.019531 245.609375 128.964844 244.792969 C 129.496094 244.710938 122.523438 242.203125 121.632812 243.234375 Z M 121.632812 243.234375 "/>
</g>
<mask id="mask21">
  <g filter="url(#alpha)">
<rect x="0" y="0" width="470" height="564" style="fill:rgb(0%,0%,0%);fill-opacity:0.1;stroke:none;"/>
  </g>
</mask>
<clipPath id="clip22">
  <rect x="0" y="0" width="564" height="470"/>
</clipPath>
<g id="surface68" clip-path="url(#clip22)">
<path style=" stroke:none;fill-rule:nonzero;fill:rgb(0.392157%,0.392157%,0.392157%);fill-opacity:1;" d="M 143.742188 245.582031 C 143.742188 245.582031 152.875 245.441406 152.144531 242.492188 C 151.417969 239.546875 144.332031 241.164062 144.332031 241.164062 Z M 143.742188 245.582031 "/>
</g>
<mask id="mask22">
  <g filter="url(#alpha)">
<rect x="0" y="0" width="470" height="564" style="fill:rgb(0%,0%,0%);fill-opacity:0.1;stroke:none;"/>
  </g>
</mask>
<clipPath id="clip23">
  <rect x="0" y="0" width="564" height="470"/>
</clipPath>
<g id="surface71" clip-path="url(#clip23)">
<path style=" stroke:none;fill-rule:nonzero;fill:rgb(0.392157%,0.392157%,0.392157%);fill-opacity:1;" d="M 136.429688 229.453125 C 138.402344 229.453125 140.304688 228.746094 141.796875 227.457031 C 140.957031 225.160156 139.796875 222.140625 140.226562 220.511719 L 130.835938 221.710938 C 131.410156 223.792969 131.746094 225.9375 131.835938 228.097656 C 133.195312 228.996094 134.796875 229.46875 136.429688 229.453125 Z M 136.429688 229.453125 "/>
</g>
<mask id="mask23">
  <g filter="url(#alpha)">
<rect x="0" y="0" width="470" height="564" style="fill:rgb(0%,0%,0%);fill-opacity:0.1;stroke:none;"/>
  </g>
</mask>
<clipPath id="clip24">
  <rect x="0" y="0" width="564" height="470"/>
</clipPath>
<g id="surface74" clip-path="url(#clip24)">
<path style=" stroke:none;fill-rule:nonzero;fill:rgb(0.392157%,0.392157%,0.392157%);fill-opacity:1;" d="M 131.425781 224.558594 C 131.226562 223.789062 130.90625 223.050781 130.746094 222.269531 C 130.210938 219.316406 131.832031 216.390625 134.621094 215.277344 C 135.019531 215.105469 135.457031 215.039062 135.890625 215.085938 C 137.640625 215.367188 137.890625 218.085938 139.546875 218.714844 C 139.867188 218.835938 140.226562 218.855469 140.546875 218.972656 C 141.429688 219.367188 142.085938 220.140625 142.335938 221.074219 C 142.675781 222.066406 142.804688 223.121094 142.714844 224.167969 C 142.625 225.167969 142.335938 226.167969 142.253906 227.167969 C 142.113281 228.167969 142.398438 229.179688 143.035156 229.964844 C 143.40625 230.304688 143.828125 230.582031 144.28125 230.792969 C 144.59375 230.953125 144.972656 231.125 145.28125 230.933594 C 145.410156 230.832031 145.503906 230.691406 145.550781 230.535156 C 145.855469 229.4375 145.898438 228.28125 145.671875 227.167969 C 145.542969 225.425781 145.542969 223.679688 145.671875 221.941406 C 145.863281 220.542969 145.753906 219.117188 145.34375 217.765625 C 144.960938 216.898438 144.445312 216.09375 143.8125 215.386719 C 143.285156 214.671875 142.664062 214.03125 141.964844 213.480469 C 140.640625 212.570312 139.066406 212.097656 137.460938 212.128906 C 135.863281 212.160156 134.277344 212.359375 132.722656 212.71875 C 131.558594 212.824219 130.46875 213.335938 129.644531 214.167969 C 129.320312 214.679688 129.085938 215.246094 128.957031 215.835938 L 128.488281 217.554688 C 127.921875 219.375 127.585938 221.257812 127.488281 223.160156 C 127.488281 224.550781 127.699219 227.558594 129.277344 228.15625 C 131.292969 228.933594 131.765625 225.898438 131.425781 224.558594 Z M 131.425781 224.558594 "/>
</g>
<linearGradient id="linear6" gradientUnits="userSpaceOnUse" x1="110.760002" y1="215.320007" x2="110.760002" y2="208.729996" gradientTransform="matrix(0.999107,0,0,0.999107,0.411644,0)">
<stop offset="0" style="stop-color:rgb(90.980393%,27.450982%,25.098041%);stop-opacity:1;"/>
<stop offset="1" style="stop-color:rgb(95.686275%,59.215689%,12.156863%);stop-opacity:1;"/>
</linearGradient>
<linearGradient id="linear7" gradientUnits="userSpaceOnUse" x1="136.149994" y1="215.320007" x2="136.149994" y2="208.729996" gradientTransform="matrix(0.999107,0,0,0.999107,0.411644,0)">
<stop offset="0" style="stop-color:rgb(90.980393%,27.450982%,25.098041%);stop-opacity:1;"/>
<stop offset="1" style="stop-color:rgb(95.686275%,59.215689%,12.156863%);stop-opacity:1;"/>
</linearGradient>
<linearGradient id="linear8" gradientUnits="userSpaceOnUse" x1="161.529999" y1="215.320007" x2="161.529999" y2="208.729996" gradientTransform="matrix(0.999107,0,0,0.999107,0.411644,0)">
<stop offset="0" style="stop-color:rgb(90.980393%,27.450982%,25.098041%);stop-opacity:1;"/>
<stop offset="1" style="stop-color:rgb(95.686275%,59.215689%,12.156863%);stop-opacity:1;"/>
</linearGradient>
<linearGradient id="linear9" gradientUnits="userSpaceOnUse" x1="186.919998" y1="215.320007" x2="186.919998" y2="208.729996" gradientTransform="matrix(0.999107,0,0,0.999107,0.411644,0)">
<stop offset="0" style="stop-color:rgb(90.980393%,27.450982%,25.098041%);stop-opacity:1;"/>
<stop offset="1" style="stop-color:rgb(95.686275%,59.215689%,12.156863%);stop-opacity:1;"/>
</linearGradient>
<linearGradient id="linear10" gradientUnits="userSpaceOnUse" x1="212.320007" y1="215.320007" x2="212.320007" y2="208.729996" gradientTransform="matrix(0.999107,0,0,0.999107,0.411644,0)">
<stop offset="0" style="stop-color:rgb(90.980393%,27.450982%,25.098041%);stop-opacity:1;"/>
<stop offset="1" style="stop-color:rgb(95.686275%,59.215689%,12.156863%);stop-opacity:1;"/>
</linearGradient>
<linearGradient id="linear11" gradientUnits="userSpaceOnUse" x1="237.710007" y1="215.320007" x2="237.710007" y2="208.729996" gradientTransform="matrix(0.999107,0,0,0.999107,0.411644,0)">
<stop offset="0" style="stop-color:rgb(90.980393%,27.450982%,25.098041%);stop-opacity:1;"/>
<stop offset="1" style="stop-color:rgb(95.686275%,59.215689%,12.156863%);stop-opacity:1;"/>
</linearGradient>
<linearGradient id="linear12" gradientUnits="userSpaceOnUse" x1="263.100006" y1="215.320007" x2="263.100006" y2="208.729996" gradientTransform="matrix(0.999107,0,0,0.999107,0.411644,0)">
<stop offset="0" style="stop-color:rgb(90.980393%,27.450982%,25.098041%);stop-opacity:1;"/>
<stop offset="1" style="stop-color:rgb(95.686275%,59.215689%,12.156863%);stop-opacity:1;"/>
</linearGradient>
<linearGradient id="linear13" gradientUnits="userSpaceOnUse" x1="281.609985" y1="213.649994" x2="281.609985" y2="208.729996" gradientTransform="matrix(0.999107,0,0,0.999107,0.411644,0)">
<stop offset="0" style="stop-color:rgb(90.980393%,27.450982%,25.098041%);stop-opacity:1;"/>
<stop offset="1" style="stop-color:rgb(95.686275%,59.215689%,12.156863%);stop-opacity:1;"/>
</linearGradient>
<linearGradient id="linear14" gradientUnits="userSpaceOnUse" x1="180.050003" y1="209.089996" x2="180.050003" y2="175.229996" gradientTransform="matrix(0.999107,0,0,0.999107,0.411644,0)">
<stop offset="0" style="stop-color:rgb(90.980393%,27.450982%,25.098041%);stop-opacity:1;"/>
<stop offset="1" style="stop-color:rgb(95.686275%,59.215689%,12.156863%);stop-opacity:1;"/>
</linearGradient>
<linearGradient id="linear15" gradientUnits="userSpaceOnUse" x1="85.360001" y1="215.320007" x2="85.360001" y2="208.729996" gradientTransform="matrix(0.999107,0,0,0.999107,0.411644,0)">
<stop offset="0" style="stop-color:rgb(90.980393%,27.450982%,25.098041%);stop-opacity:1;"/>
<stop offset="1" style="stop-color:rgb(95.686275%,59.215689%,12.156863%);stop-opacity:1;"/>
</linearGradient>
<linearGradient id="linear16" gradientUnits="userSpaceOnUse" x1="180.050003" y1="281.019989" x2="180.050003" y2="268.329987" gradientTransform="matrix(0.999107,0,0,0.999107,0.411644,0)">
<stop offset="0" style="stop-color:rgb(90.980393%,27.450982%,25.098041%);stop-opacity:1;"/>
<stop offset="1" style="stop-color:rgb(95.686275%,59.215689%,12.156863%);stop-opacity:1;"/>
</linearGradient>
<linearGradient id="linear17" gradientUnits="userSpaceOnUse" x1="159.270004" y1="162.949997" x2="159.270004" y2="146.020004" gradientTransform="matrix(0.999107,0,0,0.999107,0.411644,0)">
<stop offset="0" style="stop-color:rgb(90.980393%,27.450982%,25.098041%);stop-opacity:1;"/>
<stop offset="1" style="stop-color:rgb(95.686275%,59.215689%,12.156863%);stop-opacity:1;"/>
</linearGradient>
<mask id="mask24">
  <g filter="url(#alpha)">
<rect x="0" y="0" width="470" height="564" style="fill:rgb(0%,0%,0%);fill-opacity:0.1;stroke:none;"/>
  </g>
</mask>
<clipPath id="clip25">
  <rect x="0" y="0" width="564" height="470"/>
</clipPath>
<g id="surface77" clip-path="url(#clip25)">
<path style=" stroke:none;fill-rule:nonzero;fill:rgb(0.392157%,0.392157%,0.392157%);fill-opacity:1;" d="M 93.617188 272.316406 L 266.964844 272.316406 L 266.964844 274.433594 L 93.617188 274.433594 Z M 93.617188 272.316406 "/>
</g>
<mask id="mask25">
  <g filter="url(#alpha)">
<rect x="0" y="0" width="470" height="564" style="fill:rgb(0%,0%,0%);fill-opacity:0.2;stroke:none;"/>
  </g>
</mask>
<clipPath id="clip26">
  <rect x="0" y="0" width="564" height="470"/>
</clipPath>
<g id="surface80" clip-path="url(#clip26)">
<path style=" stroke:none;fill-rule:nonzero;fill:rgb(0.392157%,0.392157%,0.392157%);fill-opacity:1;" d="M 168.832031 249.507812 L 168.402344 251.914062 L 166.492188 263.183594 L 158 265.980469 L 157.949219 265.980469 L 157.949219 265.914062 L 153.164062 263.226562 L 153.113281 263.226562 L 153.113281 263.105469 L 150.558594 250.117188 L 150.277344 248.6875 L 150.488281 248.378906 L 151.148438 247.378906 L 153.863281 248.257812 L 156.863281 252.433594 L 156.863281 252.683594 L 157.171875 254.472656 L 157.292969 255.191406 L 157.5625 256.699219 L 157.8125 255.070312 L 157.902344 254.492188 L 158.121094 253.023438 L 160.449219 250.464844 L 161.449219 250.207031 L 162.167969 250.027344 L 163.167969 249.785156 C 162.304688 249.238281 162.035156 248.105469 162.558594 247.230469 C 162.800781 246.808594 163.203125 246.507812 163.675781 246.390625 C 164.144531 246.273438 164.644531 246.351562 165.054688 246.609375 C 165.90625 247.164062 166.171875 248.292969 165.652344 249.167969 L 168.191406 248.546875 L 168.8125 249.46875 Z M 168.832031 249.507812 "/>
</g>
<linearGradient id="linear18" gradientUnits="userSpaceOnUse" x1="-5069.689941" y1="1198.109985" x2="-5075.009766" y2="1200.030029" gradientTransform="matrix(-0.109902,-0.659411,-0.679393,0.109902,476.226424,-3234.019845)">
<stop offset="0" style="stop-color:rgb(30.980393%,14.509805%,30.588236%);stop-opacity:1;"/>
<stop offset="1" style="stop-color:rgb(70.980394%,46.666667%,68.627453%);stop-opacity:1;"/>
</linearGradient>
<linearGradient id="linear19" gradientUnits="userSpaceOnUse" x1="-5078.609863" y1="1202.099976" x2="-5070.899902" y2="1196.640015" gradientTransform="matrix(-0.109902,-0.659411,-0.679393,0.109902,476.226424,-3234.019845)">
<stop offset="0" style="stop-color:rgb(43.529412%,74.901962%,62.7451%);stop-opacity:1;"/>
<stop offset="0.51" style="stop-color:rgb(32.941177%,43.921569%,43.137255%);stop-opacity:1;"/>
<stop offset="1" style="stop-color:rgb(30.588236%,8.235294%,24.705882%);stop-opacity:1;"/>
</linearGradient>
<linearGradient id="linear20" gradientUnits="userSpaceOnUse" x1="-5069.410156" y1="1201.910034" x2="-5077.859863" y2="1200.280029" gradientTransform="matrix(-0.109902,-0.659411,-0.679393,0.109902,476.226424,-3234.019845)">
<stop offset="0" style="stop-color:rgb(90.588236%,16.862746%,47.843137%);stop-opacity:1;"/>
<stop offset="0.6" style="stop-color:rgb(43.921569%,68.235296%,76.862746%);stop-opacity:1;"/>
<stop offset="1" style="stop-color:rgb(42.745098%,76.862746%,79.607844%);stop-opacity:1;"/>
</linearGradient>
<linearGradient id="linear21" gradientUnits="userSpaceOnUse" x1="-5078.209961" y1="1200.209961" x2="-5075.810059" y2="1195.410034" gradientTransform="matrix(-0.109902,-0.659411,-0.679393,0.109902,476.226424,-3234.019845)">
<stop offset="0" style="stop-color:rgb(91.37255%,29.803923%,29.019609%);stop-opacity:1;"/>
<stop offset="1" style="stop-color:rgb(94.901961%,57.647061%,19.607843%);stop-opacity:0.99;"/>
</linearGradient>
<linearGradient id="linear22" gradientUnits="userSpaceOnUse" x1="-5072.959961" y1="1204.800049" x2="-5071.169922" y2="1198.719971" gradientTransform="matrix(-0.109902,-0.659411,-0.679393,0.109902,476.226424,-3234.019845)">
<stop offset="0" style="stop-color:rgb(90.588236%,16.862746%,47.843137%);stop-opacity:1;"/>
<stop offset="0.36" style="stop-color:rgb(80.000001%,11.372549%,44.313726%);stop-opacity:1;"/>
<stop offset="1" style="stop-color:rgb(33.333334%,11.372549%,32.156864%);stop-opacity:1;"/>
</linearGradient>
<linearGradient id="linear23" gradientUnits="userSpaceOnUse" x1="172.559998" y1="257.820007" x2="186.149994" y2="257.820007" gradientTransform="matrix(0.999107,0,0,0.999107,0.411644,0)">
<stop offset="0" style="stop-color:rgb(90.588236%,16.862746%,47.843137%);stop-opacity:1;"/>
<stop offset="0.36" style="stop-color:rgb(80.000001%,11.372549%,44.313726%);stop-opacity:1;"/>
<stop offset="1" style="stop-color:rgb(33.333334%,11.372549%,32.156864%);stop-opacity:1;"/>
</linearGradient>
</defs>
<g id="surface1">
<path style=" stroke:none;fill-rule:nonzero;fill:rgb(95.686275%,95.294118%,95.686275%);fill-opacity:1;" d="M 501.273438 348.769531 L 472.730469 346.660156 L 97.496094 346.660156 L 97.496094 291.699219 L 501.273438 291.699219 Z M 501.273438 348.769531 "/>
<path style=" stroke:none;fill-rule:evenodd;fill:url(#linear0);" d="M 93.609375 151.105469 L 68.960938 151.105469 L 68.960938 136.589844 C 68.960938 130.988281 73.503906 126.453125 79.101562 126.457031 L 83.476562 126.457031 C 89.074219 126.457031 93.609375 130.992188 93.609375 136.589844 Z M 93.609375 151.105469 "/>
<path style=" stroke:none;fill-rule:nonzero;fill:url(#linear1);" d="M 516.421875 265.273438 L 516.421875 349.128906 L 488.90625 348.769531 C 488.90625 348.179688 488.90625 347.578125 488.90625 347.019531 C 488.503906 317.34375 464.328125 293.496094 434.648438 293.496094 C 404.96875 293.496094 380.792969 317.34375 380.390625 347.019531 L 380.390625 347.371094 L 352.925781 347.011719 L 210.605469 347.011719 C 210.597656 345.007812 210.484375 343.007812 210.265625 341.015625 C 210.164062 340.015625 210.042969 339.117188 209.875 338.1875 C 209.492188 335.800781 208.949219 333.4375 208.246094 331.125 C 207.957031 330.125 207.644531 329.226562 207.308594 328.296875 C 206.417969 325.875 205.355469 323.519531 204.128906 321.253906 C 203.621094 320.253906 203.070312 319.355469 202.5 318.433594 C 200.960938 315.949219 199.222656 313.589844 197.304688 311.382812 C 196.457031 310.382812 195.578125 309.472656 194.679688 308.5625 C 173.492188 287.421875 139.191406 287.421875 118.007812 308.5625 C 117.097656 309.472656 116.21875 310.414062 115.378906 311.382812 C 113.460938 313.589844 111.722656 315.949219 110.183594 318.433594 C 109.59375 319.355469 109.066406 320.292969 108.554688 321.253906 C 107.328125 323.519531 106.265625 325.875 105.378906 328.296875 C 105.039062 329.226562 104.726562 330.164062 104.4375 331.125 C 103.738281 333.433594 103.191406 335.785156 102.800781 338.167969 C 102.640625 339.097656 102.519531 340.035156 102.421875 340.984375 C 102.195312 342.976562 102.082031 344.976562 102.082031 346.980469 L 47.828125 346.980469 L 47.828125 161.683594 L 430.488281 161.683594 L 468.453125 244.460938 L 515.632812 264.921875 Z M 516.421875 265.273438 "/>
<path style=" stroke:none;fill-rule:evenodd;fill:url(#linear2);" d="M 56.273438 144.070312 L 415.5625 144.070312 C 423.785156 144.078125 430.453125 150.742188 430.457031 158.96875 L 430.457031 161.683594 L 47.800781 161.683594 L 47.800781 152.515625 C 47.800781 150.273438 48.691406 148.125 50.277344 146.539062 C 51.859375 144.957031 54.011719 144.070312 56.25 144.070312 Z M 56.273438 144.070312 "/>
<path style=" stroke:none;fill-rule:evenodd;fill:url(#linear3);" d="M 344.484375 144.070312 L 257.101562 144.070312 L 257.101562 140.773438 C 257.101562 131.691406 264.464844 124.328125 273.546875 124.328125 L 324.050781 124.328125 Z M 344.484375 144.070312 "/>
<use xlink:href="#surface5" mask="url(#mask0)"/>
<use xlink:href="#surface8" mask="url(#mask1)"/>
<path style=" stroke:none;fill-rule:nonzero;fill:url(#linear4);" d="M 45.921875 320.941406 L 82.136719 320.941406 C 85.757812 320.941406 88.691406 323.878906 88.691406 327.496094 L 88.691406 348.207031 C 88.691406 351.828125 85.757812 354.761719 82.136719 354.761719 L 45.921875 354.761719 C 42.300781 354.761719 39.367188 351.828125 39.367188 348.207031 L 39.367188 327.496094 C 39.367188 323.878906 42.300781 320.941406 45.921875 320.941406 Z M 45.921875 320.941406 "/>
<use xlink:href="#surface11" mask="url(#mask2)"/>
<path style=" stroke:none;fill-rule:nonzero;fill:rgb(10.980392%,14.117648%,27.058825%);fill-opacity:1;" d="M 98.554688 180.707031 L 259.917969 180.707031 L 259.917969 268.082031 L 98.554688 268.082031 Z M 98.554688 180.707031 "/>
<path style=" stroke:none;fill-rule:nonzero;fill:rgb(95.686275%,95.294118%,95.686275%);fill-opacity:1;" d="M 175.015625 188.113281 L 260.28125 188.113281 L 260.28125 263.503906 L 175.015625 263.503906 Z M 175.015625 188.113281 "/>
<path style=" stroke:none;fill-rule:nonzero;fill:rgb(100%,100%,100%);fill-opacity:1;" d="M 175.015625 248.359375 L 236.3125 202.910156 L 244.773438 205.027344 L 175.015625 255.402344 Z M 175.015625 248.359375 "/>
<path style=" stroke:none;fill-rule:nonzero;fill:rgb(100%,100%,100%);fill-opacity:1;" d="M 175.015625 230.035156 L 208.136719 194.457031 L 223.632812 197.972656 L 175.015625 243.78125 Z M 175.015625 230.035156 "/>
<path style=" stroke:none;fill-rule:nonzero;fill:rgb(95.686275%,95.294118%,95.686275%);fill-opacity:1;" d="M 332.882812 175.074219 L 373 175.074219 C 378.269531 175.074219 382.539062 179.34375 382.539062 184.613281 L 382.539062 247.269531 C 382.539062 252.539062 378.269531 256.808594 373 256.808594 L 332.882812 256.808594 C 327.613281 256.808594 323.34375 252.539062 323.34375 247.269531 L 323.34375 184.613281 C 323.34375 179.34375 327.613281 175.074219 332.882812 175.074219 Z M 332.882812 175.074219 "/>
<path style=" stroke:none;fill-rule:nonzero;fill:rgb(10.980392%,14.117648%,27.058825%);fill-opacity:1;" d="M 371.261719 263.855469 L 379.011719 263.855469 L 379.011719 280.769531 L 371.261719 280.769531 Z M 371.261719 263.855469 "/>
<path style=" stroke:none;fill-rule:nonzero;fill:rgb(95.686275%,95.294118%,95.686275%);fill-opacity:1;" d="M 406.488281 186.691406 L 406.488281 245.070312 C 406.496094 246.886719 407.96875 248.359375 409.785156 248.359375 L 445.703125 248.359375 C 447.523438 248.359375 449 246.882812 449 245.0625 C 448.996094 244.453125 448.824219 243.859375 448.511719 243.34375 L 412.542969 184.976562 C 411.777344 183.714844 410.261719 183.121094 408.84375 183.519531 C 407.425781 183.921875 406.445312 185.21875 406.449219 186.691406 Z M 406.488281 186.691406 "/>
<path style=" stroke:none;fill-rule:nonzero;fill:rgb(100%,100%,100%);fill-opacity:1;" d="M 342.367188 175.074219 L 323.34375 191.988281 L 323.34375 200.800781 L 350.46875 175.074219 Z M 342.367188 175.074219 "/>
<path style=" stroke:none;fill-rule:nonzero;fill:rgb(100%,100%,100%);fill-opacity:1;" d="M 323.34375 211 L 323.34375 221.230469 L 368.441406 175.074219 L 359.628906 175.074219 Z M 323.34375 211 "/>
<path style=" stroke:none;fill-rule:nonzero;fill:rgb(100%,100%,100%);fill-opacity:1;" d="M 418.417969 194.457031 L 406.488281 211 L 406.488281 217.355469 L 422.324219 200.800781 Z M 418.417969 194.457031 "/>
<path style=" stroke:none;fill-rule:nonzero;fill:rgb(100%,100%,100%);fill-opacity:1;" d="M 427.75 211 L 406.488281 229.15625 L 406.488281 234.269531 L 432.515625 217.355469 Z M 427.75 211 "/>
<path style=" stroke:none;fill-rule:nonzero;fill:rgb(10.980392%,14.117648%,27.058825%);fill-opacity:1;" d="M 194.386719 347.011719 C 194.386719 368.023438 177.355469 385.054688 156.34375 385.054688 C 135.328125 385.054688 118.296875 368.023438 118.296875 347.011719 C 118.296875 325.996094 135.328125 308.964844 156.34375 308.964844 C 177.355469 308.964844 194.386719 325.996094 194.386719 347.011719 Z M 194.386719 347.011719 "/>
<path style=" stroke:none;fill-rule:nonzero;fill:rgb(100%,100%,100%);fill-opacity:1;" d="M 177.484375 347.011719 C 177.484375 358.6875 168.019531 368.152344 156.34375 368.152344 C 144.667969 368.152344 135.203125 358.6875 135.203125 347.011719 C 135.203125 335.335938 144.667969 325.867188 156.34375 325.867188 C 168.019531 325.867188 177.484375 335.335938 177.484375 347.011719 Z M 177.484375 347.011719 "/>
<path style=" stroke:none;fill-rule:nonzero;fill:rgb(10.980392%,14.117648%,27.058825%);fill-opacity:1;" d="M 161.628906 346.660156 C 161.628906 349.777344 159.101562 352.304688 155.984375 352.304688 C 152.863281 352.304688 150.335938 349.777344 150.335938 346.660156 C 150.335938 343.542969 152.863281 341.015625 155.984375 341.015625 C 159.101562 341.015625 161.628906 343.542969 161.628906 346.660156 Z M 161.628906 346.660156 "/>
<path style=" stroke:none;fill-rule:nonzero;fill:rgb(10.980392%,14.117648%,27.058825%);fill-opacity:1;" d="M 472.730469 347.011719 C 472.730469 368.023438 455.695312 385.054688 434.683594 385.054688 C 413.671875 385.054688 396.636719 368.023438 396.636719 347.011719 C 396.636719 325.996094 413.671875 308.964844 434.683594 308.964844 C 455.695312 308.964844 472.730469 325.996094 472.730469 347.011719 Z M 472.730469 347.011719 "/>
<path style=" stroke:none;fill-rule:nonzero;fill:rgb(100%,100%,100%);fill-opacity:1;" d="M 455.824219 347.011719 C 455.824219 358.6875 446.359375 368.152344 434.683594 368.152344 C 423.007812 368.152344 413.542969 358.6875 413.542969 347.011719 C 413.542969 335.335938 423.007812 325.867188 434.683594 325.867188 C 446.359375 325.867188 455.824219 335.335938 455.824219 347.011719 Z M 455.824219 347.011719 "/>
<path style=" stroke:none;fill-rule:nonzero;fill:rgb(10.980392%,14.117648%,27.058825%);fill-opacity:1;" d="M 440.679688 346.660156 C 440.679688 349.777344 438.152344 352.304688 435.035156 352.304688 C 431.914062 352.304688 429.386719 349.777344 429.386719 346.660156 C 429.386719 343.542969 431.914062 341.015625 435.035156 341.015625 C 438.152344 341.015625 440.679688 343.542969 440.679688 346.660156 Z M 440.679688 346.660156 "/>
<use xlink:href="#surface14" mask="url(#mask3)"/>
<use xlink:href="#surface17" mask="url(#mask4)"/>
<use xlink:href="#surface20" mask="url(#mask5)"/>
<use xlink:href="#surface23" mask="url(#mask6)"/>
<use xlink:href="#surface26" mask="url(#mask7)"/>
<use xlink:href="#surface29" mask="url(#mask8)"/>
<use xlink:href="#surface32" mask="url(#mask9)"/>
<use xlink:href="#surface35" mask="url(#mask10)"/>
<use xlink:href="#surface38" mask="url(#mask11)"/>
<use xlink:href="#surface41" mask="url(#mask12)"/>
<use xlink:href="#surface44" mask="url(#mask13)"/>
<use xlink:href="#surface47" mask="url(#mask14)"/>
<use xlink:href="#surface50" mask="url(#mask15)"/>
<use xlink:href="#surface53" mask="url(#mask16)"/>
<path style=" stroke:none;fill-rule:nonzero;fill:rgb(92.156863%,35.686275%,36.078432%);fill-opacity:1;" d="M 253.1875 256.042969 L 248.960938 256.042969 L 248.960938 245.898438 L 250.746094 242.375 C 250.851562 242.183594 251.085938 242.109375 251.277344 242.203125 C 251.351562 242.242188 251.414062 242.300781 251.457031 242.375 L 253.246094 245.898438 Z M 253.1875 256.042969 "/>
<use xlink:href="#surface56" mask="url(#mask17)"/>
<path style=" stroke:none;fill-rule:nonzero;fill:rgb(94.117647%,76.47059%,8.627451%);fill-opacity:1;" d="M 259.570312 256.042969 L 255.34375 256.042969 L 255.34375 245.898438 L 257.132812 242.375 C 257.234375 242.183594 257.46875 242.109375 257.660156 242.203125 C 257.738281 242.242188 257.800781 242.300781 257.839844 242.375 L 259.628906 245.898438 Z M 259.570312 256.042969 "/>
<use xlink:href="#surface59" mask="url(#mask18)"/>
<path style=" stroke:none;fill-rule:nonzero;fill:url(#linear5);" d="M 152.796875 242.671875 L 152.707031 242.402344 C 152.945312 239.875 153.703125 231.511719 152.625 229.503906 C 151.828125 227.945312 149.628906 227.957031 147.082031 228.503906 C 147.082031 228.234375 147.082031 227.964844 147.082031 227.6875 L 147.082031 219.132812 C 147 213.730469 142.554688 209.414062 137.148438 209.492188 L 135.539062 209.492188 C 132.933594 209.4375 130.417969 210.425781 128.539062 212.234375 C 126.664062 214.046875 125.589844 216.527344 125.550781 219.132812 L 125.550781 227.6875 C 125.535156 227.9375 125.535156 228.191406 125.550781 228.445312 C 122.761719 228.636719 120.125 230.375 120.734375 236.628906 L 120.734375 243.78125 L 121.292969 243.78125 C 121.492188 243.910156 121.683594 244.03125 121.894531 244.140625 L 123.300781 256.171875 L 127.589844 256.171875 L 127.527344 256.769531 L 144.28125 256.769531 C 145.652344 256.871094 147.019531 256.941406 148.089844 256.941406 C 148.78125 256.972656 149.472656 256.917969 150.148438 256.769531 C 151.984375 256.171875 151.984375 252.59375 151.984375 252.59375 L 152.574219 243.691406 C 152.800781 243.402344 152.882812 243.027344 152.796875 242.671875 Z M 128.617188 244.859375 L 128.675781 244.859375 L 128.675781 244.972656 L 128.617188 244.921875 Z M 144.671875 246.351562 L 144.984375 250.847656 L 144.671875 250.847656 Z M 127.597656 250.246094 L 128.597656 245.011719 L 128.667969 245.011719 L 128.167969 250.316406 Z M 127.597656 250.246094 "/>
<path style=" stroke:none;fill-rule:nonzero;fill:rgb(58.823532%,36.862746%,48.627451%);fill-opacity:1;" d="M 134.792969 209.632812 L 137.957031 209.632812 C 142.78125 209.632812 146.691406 213.542969 146.691406 218.363281 L 146.691406 228.457031 C 146.691406 233.277344 142.78125 237.1875 137.957031 237.1875 L 134.792969 237.1875 C 129.96875 237.1875 126.058594 233.277344 126.058594 228.457031 L 126.058594 218.363281 C 126.058594 213.542969 129.96875 209.632812 134.792969 209.632812 Z M 134.792969 209.632812 "/>
<path style=" stroke:none;fill-rule:nonzero;fill:rgb(92.156863%,40.000001%,50.588238%);fill-opacity:1;" d="M 131.515625 229.523438 C 131.515625 229.523438 120.292969 224.160156 121.523438 236.519531 L 121.523438 243.511719 L 129.148438 243.511719 L 127.957031 256.421875 L 144.382812 256.421875 L 144.382812 243.511719 C 144.382812 243.511719 150.828125 244.113281 152.007812 242.921875 C 152.007812 242.921875 153.195312 231.773438 152.007812 229.425781 C 150.816406 227.078125 146.691406 228.324219 142.585938 229.496094 C 138.476562 230.664062 131.515625 229.523438 131.515625 229.523438 Z M 131.515625 229.523438 "/>
<path style=" stroke:none;fill-rule:nonzero;fill:rgb(96.470588%,76.47059%,64.705884%);fill-opacity:1;" d="M 122.523438 243.511719 L 123.8125 255.839844 L 136.71875 255.839844 C 136.71875 255.839844 142.003906 252.324219 139.066406 251.15625 C 137.613281 250.445312 135.96875 250.238281 134.382812 250.554688 L 127.925781 249.957031 L 129.148438 243.511719 Z M 122.523438 243.511719 "/>
<use xlink:href="#surface62" mask="url(#mask19)"/>
<path style=" stroke:none;fill-rule:nonzero;fill:rgb(96.470588%,76.47059%,64.705884%);fill-opacity:1;" d="M 151.996094 242.921875 L 151.398438 252.316406 C 151.398438 252.316406 151.398438 255.832031 149.609375 256.421875 C 147.820312 257.011719 138.457031 255.832031 138.457031 255.832031 C 138.457031 255.832031 134.941406 255.832031 135.519531 252.894531 C 136.101562 249.957031 139.039062 249.378906 140.214844 249.378906 C 141.273438 249.550781 142.277344 249.957031 143.152344 250.566406 L 144.941406 250.566406 L 144.472656 243.511719 Z M 151.996094 242.921875 "/>
<use xlink:href="#surface65" mask="url(#mask20)"/>
<use xlink:href="#surface68" mask="url(#mask21)"/>
<path style=" stroke:none;fill-rule:nonzero;fill:rgb(92.156863%,40.000001%,50.588238%);fill-opacity:1;" d="M 121.632812 243.082031 C 121.632812 243.082031 124.628906 246.03125 130.625 244.273438 C 136.621094 242.511719 122.523438 242.054688 121.632812 243.082031 Z M 121.632812 243.082031 "/>
<path style=" stroke:none;fill-rule:nonzero;fill:rgb(92.156863%,40.000001%,50.588238%);fill-opacity:1;" d="M 143.59375 245.441406 C 143.59375 245.441406 152.726562 245.289062 151.996094 242.34375 C 151.265625 239.394531 144.183594 241.023438 144.183594 241.023438 Z M 143.59375 245.441406 "/>
<path style=" stroke:none;fill-rule:nonzero;fill:rgb(96.470588%,76.47059%,64.705884%);fill-opacity:1;" d="M 130.855469 221.371094 C 130.855469 221.371094 132.644531 227.828125 131.453125 229.585938 C 130.265625 231.34375 135.152344 235 137.269531 234.949219 C 138.527344 234.949219 142.972656 231.824219 142.605469 229.585938 C 142.292969 227.757812 139.667969 222.589844 140.257812 220.203125 Z M 130.855469 221.371094 "/>
<use xlink:href="#surface71" mask="url(#mask22)"/>
<path style=" stroke:none;fill-rule:nonzero;fill:rgb(96.470588%,76.47059%,64.705884%);fill-opacity:1;" d="M 144.644531 220.941406 C 144.644531 225.476562 140.964844 229.15625 136.429688 229.15625 C 131.894531 229.15625 128.21875 225.476562 128.21875 220.941406 C 128.21875 216.40625 131.894531 212.730469 136.429688 212.730469 C 140.964844 212.730469 144.644531 216.40625 144.644531 220.941406 Z M 144.644531 220.941406 "/>
<use xlink:href="#surface74" mask="url(#mask23)"/>
<path style=" stroke:none;fill-rule:nonzero;fill:rgb(58.823532%,36.862746%,48.627451%);fill-opacity:1;" d="M 131.425781 224.269531 C 131.226562 223.5 130.90625 222.761719 130.746094 221.972656 C 130.207031 219.015625 131.828125 216.089844 134.621094 214.976562 C 135.019531 214.804688 135.457031 214.742188 135.890625 214.789062 C 137.640625 215.066406 137.890625 217.785156 139.546875 218.40625 C 139.867188 218.535156 140.226562 218.554688 140.546875 218.675781 C 141.429688 219.066406 142.085938 219.839844 142.335938 220.773438 C 142.675781 221.769531 142.804688 222.824219 142.714844 223.871094 C 142.625 224.867188 142.335938 225.867188 142.253906 226.867188 C 142.113281 227.871094 142.398438 228.886719 143.035156 229.675781 C 143.382812 230.011719 143.785156 230.292969 144.222656 230.503906 C 144.53125 230.675781 144.914062 230.84375 145.222656 230.652344 C 145.351562 230.550781 145.445312 230.410156 145.492188 230.253906 C 145.796875 229.152344 145.839844 227.996094 145.613281 226.878906 C 145.480469 225.140625 145.480469 223.398438 145.613281 221.660156 C 145.804688 220.261719 145.691406 218.835938 145.28125 217.484375 C 144.902344 216.613281 144.386719 215.808594 143.753906 215.097656 C 143.21875 214.386719 142.597656 213.746094 141.90625 213.191406 C 140.578125 212.28125 139.003906 211.8125 137.398438 211.839844 C 135.804688 211.878906 134.21875 212.082031 132.664062 212.441406 C 131.496094 212.539062 130.40625 213.050781 129.585938 213.890625 C 129.257812 214.398438 129.023438 214.964844 128.898438 215.558594 L 128.425781 217.277344 C 127.859375 219.09375 127.523438 220.976562 127.429688 222.878906 C 127.429688 224.269531 127.636719 227.277344 129.214844 227.875 C 131.292969 228.617188 131.765625 225.628906 131.425781 224.269531 Z M 131.425781 224.269531 "/>
<path style=" stroke:none;fill-rule:nonzero;fill:rgb(34.117648%,36.862746%,65.490198%);fill-opacity:1;" d="M 98.203125 208.542969 C 98.203125 208.542969 105.257812 223.351562 123.929688 208.542969 "/>
<path style=" stroke:none;fill-rule:nonzero;fill:rgb(34.117648%,36.862746%,65.490198%);fill-opacity:1;" d="M 123.570312 208.542969 C 123.570312 208.542969 130.625 223.351562 149.296875 208.542969 "/>
<path style=" stroke:none;fill-rule:nonzero;fill:rgb(34.117648%,36.862746%,65.490198%);fill-opacity:1;" d="M 148.9375 208.542969 C 148.9375 208.542969 155.984375 223.351562 174.65625 208.542969 "/>
<path style=" stroke:none;fill-rule:nonzero;fill:rgb(34.117648%,36.862746%,65.490198%);fill-opacity:1;" d="M 174.304688 208.542969 C 174.304688 208.542969 181.359375 223.351562 200.035156 208.542969 "/>
<path style=" stroke:none;fill-rule:nonzero;fill:rgb(34.117648%,36.862746%,65.490198%);fill-opacity:1;" d="M 199.671875 208.542969 C 199.671875 208.542969 206.726562 223.351562 225.402344 208.542969 "/>
<path style=" stroke:none;fill-rule:nonzero;fill:rgb(34.117648%,36.862746%,65.490198%);fill-opacity:1;" d="M 225.050781 208.542969 C 225.050781 208.542969 232.042969 223.351562 250.769531 208.542969 "/>
<path style=" stroke:none;fill-rule:nonzero;fill:rgb(34.117648%,36.862746%,65.490198%);fill-opacity:1;" d="M 250.417969 208.542969 C 250.417969 208.542969 257.410156 223.351562 276.136719 208.542969 "/>
<path style=" stroke:none;fill-rule:nonzero;fill:rgb(34.117648%,36.862746%,65.490198%);fill-opacity:1;" d="M 275.777344 208.542969 C 275.777344 208.542969 282.828125 219.113281 287.765625 209.253906 "/>
<path style=" stroke:none;fill-rule:evenodd;fill:url(#linear6);" d="M 98.203125 208.542969 C 98.203125 208.542969 105.257812 223.351562 123.929688 208.542969 "/>
<path style=" stroke:none;fill-rule:evenodd;fill:url(#linear7);" d="M 123.570312 208.542969 C 123.570312 208.542969 130.625 223.351562 149.296875 208.542969 "/>
<path style=" stroke:none;fill-rule:evenodd;fill:url(#linear8);" d="M 148.9375 208.542969 C 148.9375 208.542969 155.984375 223.351562 174.65625 208.542969 "/>
<path style=" stroke:none;fill-rule:evenodd;fill:url(#linear9);" d="M 174.304688 208.542969 C 174.304688 208.542969 181.359375 223.351562 200.035156 208.542969 "/>
<path style=" stroke:none;fill-rule:evenodd;fill:url(#linear10);" d="M 199.671875 208.542969 C 199.671875 208.542969 206.726562 223.351562 225.402344 208.542969 "/>
<path style=" stroke:none;fill-rule:evenodd;fill:url(#linear11);" d="M 225.050781 208.542969 C 225.050781 208.542969 232.042969 223.351562 250.769531 208.542969 "/>
<path style=" stroke:none;fill-rule:evenodd;fill:url(#linear12);" d="M 250.417969 208.542969 C 250.417969 208.542969 257.410156 223.351562 276.136719 208.542969 "/>
<path style=" stroke:none;fill-rule:evenodd;fill:url(#linear13);" d="M 275.777344 208.542969 C 275.777344 208.542969 282.828125 219.113281 287.765625 209.253906 "/>
<path style=" stroke:none;fill-rule:nonzero;fill:rgb(34.117648%,36.862746%,65.490198%);fill-opacity:1;" d="M 287.40625 208.902344 L 73.1875 208.902344 L 88.691406 175.074219 L 271.199219 175.074219 Z M 287.40625 208.902344 "/>
<path style=" stroke:none;fill-rule:evenodd;fill:url(#linear14);" d="M 287.40625 208.902344 L 73.1875 208.902344 L 88.691406 175.074219 L 271.199219 175.074219 Z M 287.40625 208.902344 "/>
<path style=" stroke:none;fill-rule:nonzero;fill:rgb(34.117648%,36.862746%,65.490198%);fill-opacity:1;" d="M 72.835938 208.542969 C 72.835938 208.542969 79.890625 223.351562 98.5625 208.542969 "/>
<path style=" stroke:none;fill-rule:evenodd;fill:url(#linear15);" d="M 72.835938 208.542969 C 72.835938 208.542969 79.890625 223.351562 98.5625 208.542969 "/>
<path style=" stroke:none;fill-rule:nonzero;fill:url(#linear16);" d="M 93.617188 268.089844 L 266.964844 268.089844 L 266.964844 280.769531 L 93.617188 280.769531 Z M 93.617188 268.089844 "/>
<path style=" stroke:none;fill-rule:nonzero;fill:url(#linear17);" d="M 60.527344 145.890625 L 258.539062 145.890625 L 258.539062 162.804688 L 60.527344 162.804688 Z M 60.527344 145.890625 "/>
<use xlink:href="#surface77" mask="url(#mask24)"/>
<path style=" stroke:none;fill-rule:nonzero;fill:rgb(30.588236%,8.235294%,24.705882%);fill-opacity:1;" d="M 216.457031 250.664062 L 216.449219 250.726562 L 216.429688 250.886719 L 214.179688 267.421875 L 200.421875 272.597656 L 200.214844 272.496094 L 192.511719 268.738281 L 188.523438 253.0625 L 188.253906 251.996094 L 188.332031 251.953125 L 205.378906 245.390625 L 216.449219 250.664062 Z M 216.457031 250.664062 "/>
<path style=" stroke:none;fill-rule:nonzero;fill:rgb(30.588236%,8.235294%,24.705882%);fill-opacity:1;" d="M 200.214844 272.496094 L 192.511719 268.738281 L 188.253906 251.996094 L 188.332031 251.953125 L 199.433594 256.761719 Z M 200.214844 272.496094 "/>
<path style=" stroke:none;fill-rule:nonzero;fill:rgb(80.392158%,79.607844%,79.607844%);fill-opacity:1;" d="M 200.402344 272.296875 L 194.546875 260.785156 L 195.296875 257.519531 L 191.75 253.242188 L 191.449219 253.503906 L 194.867188 257.628906 L 192.308594 268.691406 L 192.699219 268.789062 L 194.410156 261.386719 L 200.054688 272.488281 Z M 200.402344 272.296875 "/>
<path style=" stroke:none;fill-rule:nonzero;fill:rgb(80.392158%,79.607844%,79.607844%);fill-opacity:1;" d="M 216.457031 250.875 L 216.429688 250.886719 L 199.433594 256.960938 L 188.523438 253.0625 L 188.253906 251.996094 L 188.332031 251.953125 L 205.378906 245.390625 L 216.449219 250.664062 L 216.449219 250.726562 Z M 216.457031 250.875 "/>
<path style=" stroke:none;fill-rule:nonzero;fill:rgb(30.588236%,8.235294%,24.705882%);fill-opacity:1;" d="M 199.574219 257.109375 L 196.105469 254.363281 L 196.90625 251.316406 L 206.796875 247.667969 L 213.53125 248.066406 L 216.199219 250.40625 L 216.398438 251.015625 Z M 199.574219 257.109375 "/>
<path style=" stroke:none;fill-rule:nonzero;fill:rgb(30.588236%,8.235294%,24.705882%);fill-opacity:1;" d="M 188.453125 251.996094 L 196.265625 251.683594 L 200.503906 250.207031 L 207.105469 247.828125 L 208.347656 246 L 205.257812 245.429688 Z M 188.453125 251.996094 "/>
<path style=" stroke:none;fill-rule:nonzero;fill:rgb(80.392158%,79.607844%,79.607844%);fill-opacity:1;" d="M 199.953125 250.1875 L 204.03125 248.71875 L 204.160156 249.105469 L 200.082031 250.574219 Z M 199.953125 250.1875 "/>
<path style=" stroke:none;fill-rule:nonzero;fill:rgb(80.392158%,79.607844%,79.607844%);fill-opacity:1;" d="M 162.535156 254.191406 L 151.996094 256.519531 L 149.839844 245.878906 L 153.804688 240.425781 L 157.382812 239.726562 L 161.347656 243.851562 Z M 162.535156 254.191406 "/>
<path style=" stroke:none;fill-rule:nonzero;fill:rgb(90.196079%,89.803922%,89.803922%);fill-opacity:1;" d="M 157.660156 254.652344 L 151.316406 254.652344 L 150.449219 250.277344 L 149.5 245.480469 L 150.917969 243.382812 L 153.644531 244.25 L 156.582031 248.4375 L 157.320312 252.703125 L 157.371094 253.015625 Z M 157.660156 254.652344 "/>
<path style=" stroke:none;fill-rule:nonzero;fill:rgb(80.392158%,79.607844%,79.607844%);fill-opacity:1;" d="M 168.3125 252.105469 L 161.007812 252.972656 L 162.308594 243.441406 L 165.253906 240.714844 L 167.800781 241.355469 L 169.5 245.359375 Z M 168.3125 252.105469 "/>
<path style=" stroke:none;fill-rule:nonzero;fill:rgb(90.196079%,89.803922%,89.803922%);fill-opacity:1;" d="M 169.269531 246.46875 L 168.601562 250.304688 L 166.382812 263.375 L 157.890625 266.164062 L 157.589844 266.003906 L 153.015625 263.433594 L 150.4375 250.277344 L 150.449219 250.277344 L 157.261719 253.09375 L 157.320312 252.703125 L 157.363281 252.433594 L 157.890625 249.027344 L 160.207031 246.46875 L 167.972656 244.550781 Z M 169.269531 246.46875 "/>
<path style=" stroke:none;fill-rule:nonzero;fill:rgb(90.196079%,89.803922%,89.803922%);fill-opacity:1;" d="M 165.703125 244.203125 C 165.703125 245.226562 164.894531 246.058594 163.894531 246.058594 C 162.898438 246.058594 162.085938 245.226562 162.085938 244.203125 C 162.085938 243.175781 162.898438 242.34375 163.894531 242.34375 C 164.894531 242.34375 165.703125 243.175781 165.703125 244.203125 Z M 165.703125 244.203125 "/>
<path style=" stroke:none;fill-rule:nonzero;fill:rgb(100%,100%,100%);fill-opacity:1;" d="M 155.304688 245.910156 L 159.441406 245.160156 L 159.460938 245.269531 L 155.324219 246.03125 Z M 155.304688 245.910156 "/>
<path style=" stroke:none;fill-rule:nonzero;fill:rgb(94.509804%,94.509804%,94.509804%);fill-opacity:1;" d="M 157.589844 266.003906 L 153.015625 263.433594 L 150.4375 250.277344 L 150.449219 250.277344 L 149.5 245.480469 L 150.917969 243.382812 L 153.644531 244.25 L 156.582031 248.4375 L 157.320312 252.703125 L 157.363281 252.433594 L 157.371094 253.015625 L 157.402344 254.652344 Z M 157.589844 266.003906 "/>
<path style=" stroke:none;fill-rule:nonzero;fill:rgb(80.392158%,79.607844%,79.607844%);fill-opacity:1;" d="M 153.074219 263.445312 L 152.964844 263.414062 L 155.222656 254.730469 L 152.636719 251.234375 L 152.726562 251.164062 L 155.34375 254.703125 Z M 153.074219 263.445312 "/>
<path style=" stroke:none;fill-rule:nonzero;fill:rgb(80.392158%,79.607844%,79.607844%);fill-opacity:1;" d="M 154.246094 258.539062 L 154.34375 258.488281 L 157.941406 266.140625 L 157.839844 266.191406 Z M 154.246094 258.539062 "/>
<use xlink:href="#surface80" mask="url(#mask25)"/>
<path style=" stroke:none;fill-rule:nonzero;fill:rgb(90.196079%,89.803922%,89.803922%);fill-opacity:1;" d="M 157.859375 259.238281 L 151.515625 259.238281 L 149.707031 250.054688 L 151.128906 247.96875 L 153.84375 248.835938 L 156.792969 253.023438 Z M 157.859375 259.238281 "/>
<path style=" stroke:none;fill-rule:nonzero;fill:rgb(90.196079%,89.803922%,89.803922%);fill-opacity:1;" d="M 166.59375 267.949219 L 158.089844 270.746094 L 153.214844 268.011719 L 150.648438 254.851562 L 157.472656 257.667969 L 158.089844 253.601562 L 160.417969 251.046875 L 168.183594 249.128906 L 169.480469 251.046875 L 168.800781 254.882812 Z M 166.59375 267.949219 "/>
<path style=" stroke:none;fill-rule:nonzero;fill:rgb(90.196079%,89.803922%,89.803922%);fill-opacity:1;" d="M 165.902344 248.777344 C 165.902344 249.804688 165.09375 250.636719 164.09375 250.636719 C 163.097656 250.636719 162.285156 249.804688 162.285156 248.777344 C 162.285156 247.75 163.097656 246.917969 164.09375 246.917969 C 165.09375 246.917969 165.902344 247.75 165.902344 248.777344 Z M 165.902344 248.777344 "/>
<path style=" stroke:none;fill-rule:nonzero;fill:rgb(94.509804%,94.509804%,94.509804%);fill-opacity:1;" d="M 157.800781 270.488281 L 153.226562 267.921875 L 150.648438 254.761719 L 150.65625 254.761719 L 149.707031 249.964844 L 151.128906 247.878906 L 153.84375 248.746094 L 156.792969 252.933594 L 157.53125 257.199219 L 157.570312 256.921875 L 157.582031 257.5 L 157.609375 259.148438 Z M 157.800781 270.488281 "/>
<path style=" stroke:none;fill-rule:nonzero;fill:rgb(80.392158%,79.607844%,79.607844%);fill-opacity:1;" d="M 153.273438 268.03125 L 153.164062 268 L 155.421875 259.308594 L 152.835938 255.8125 L 152.925781 255.742188 L 155.554688 259.277344 Z M 153.273438 268.03125 "/>
<path style=" stroke:none;fill-rule:nonzero;fill:rgb(80.392158%,79.607844%,79.607844%);fill-opacity:1;" d="M 154.445312 263.113281 L 154.554688 263.066406 L 158.140625 270.71875 L 158.039062 270.769531 Z M 154.445312 263.113281 "/>
<path style=" stroke:none;fill-rule:nonzero;fill:rgb(97.254902%,67.450982%,16.078432%);fill-opacity:1;" d="M 207.476562 263.023438 C 207.496094 263.109375 207.496094 263.199219 207.476562 263.285156 C 207.453125 263.375 207.417969 263.457031 207.367188 263.535156 C 207.3125 263.605469 207.25 263.664062 207.175781 263.714844 C 207.101562 263.761719 207.015625 263.792969 206.925781 263.804688 C 206.746094 263.835938 206.5625 263.792969 206.417969 263.683594 C 206.269531 263.582031 206.171875 263.421875 206.148438 263.246094 C 206.113281 263.082031 206.140625 262.910156 206.226562 262.765625 C 206.332031 262.617188 206.488281 262.519531 206.667969 262.484375 C 206.757812 262.46875 206.847656 262.46875 206.9375 262.484375 C 207.023438 262.503906 207.105469 262.542969 207.175781 262.59375 C 207.25 262.648438 207.3125 262.714844 207.355469 262.796875 C 207.40625 262.871094 207.4375 262.957031 207.445312 263.046875 "/>
<path style=" stroke:none;fill-rule:nonzero;fill:url(#linear18);" d="M 206.308594 259.65625 C 204.414062 259.972656 203.128906 261.757812 203.429688 263.65625 C 203.570312 264.570312 204.070312 265.390625 204.824219 265.929688 C 205.578125 266.46875 206.515625 266.683594 207.425781 266.523438 C 208.496094 266.339844 209.421875 265.671875 209.933594 264.714844 C 209.992188 264.542969 210.007812 264.363281 209.984375 264.183594 C 209.886719 263.589844 209.328125 263.1875 208.734375 263.285156 C 208.402344 263.335938 208.113281 263.546875 207.957031 263.84375 C 207.753906 264.167969 207.421875 264.386719 207.046875 264.445312 C 206.707031 264.5 206.355469 264.417969 206.078125 264.214844 C 205.796875 264.011719 205.609375 263.707031 205.558594 263.363281 C 205.5 263.019531 205.582031 262.664062 205.789062 262.378906 C 205.992188 262.09375 206.300781 261.902344 206.648438 261.847656 C 207.003906 261.789062 207.363281 261.882812 207.644531 262.105469 C 207.90625 262.371094 208.28125 262.484375 208.644531 262.40625 C 209.066406 262.332031 209.410156 262.023438 209.523438 261.613281 C 209.640625 261.199219 209.507812 260.757812 209.183594 260.476562 C 208.4375 259.847656 207.457031 259.5625 206.488281 259.6875 Z M 206.308594 259.65625 "/>
<path style=" stroke:none;fill-rule:nonzero;fill:url(#linear19);" d="M 203.609375 263.945312 C 203.539062 263.945312 203.53125 264.132812 203.609375 264.582031 C 204.257812 266.023438 205.792969 266.84375 207.347656 266.582031 C 207.542969 266.550781 207.738281 266.503906 207.925781 266.441406 C 208.949219 266.03125 209.695312 265.140625 209.925781 264.0625 C 209.789062 263.519531 209.257812 263.175781 208.707031 263.273438 C 208.566406 263.292969 208.433594 263.34375 208.316406 263.425781 L 207.957031 263.773438 L 207.957031 263.835938 C 207.808594 264.054688 207.605469 264.230469 207.367188 264.34375 C 206.996094 264.675781 206.550781 264.914062 206.066406 265.03125 C 204.6875 265.261719 203.839844 263.894531 203.609375 263.945312 Z M 203.609375 263.945312 "/>
<path style=" stroke:none;fill-rule:nonzero;fill:url(#linear20);" d="M 205.230469 260.328125 C 204.953125 260.367188 204.683594 260.453125 204.4375 260.585938 C 203.589844 261.386719 203.191406 262.550781 203.371094 263.703125 C 203.480469 264.402344 203.800781 265.050781 204.289062 265.5625 C 204.839844 265.878906 205.480469 265.996094 206.109375 265.890625 C 207.363281 265.675781 208.320312 264.644531 208.4375 263.375 C 208.226562 263.476562 208.054688 263.640625 207.945312 263.84375 C 207.746094 264.167969 207.414062 264.386719 207.035156 264.445312 C 206.695312 264.5 206.347656 264.417969 206.066406 264.214844 C 205.785156 264.011719 205.601562 263.707031 205.546875 263.363281 C 205.492188 263.019531 205.574219 262.664062 205.777344 262.378906 C 205.980469 262.09375 206.292969 261.902344 206.636719 261.847656 C 206.992188 261.789062 207.355469 261.882812 207.636719 262.105469 C 207.832031 262.296875 208.09375 262.410156 208.367188 262.425781 C 208.019531 261.019531 206.660156 260.109375 205.230469 260.328125 Z M 205.230469 260.328125 "/>
<path style=" stroke:none;fill-rule:nonzero;fill:url(#linear21);" d="M 208.695312 263.285156 C 208.363281 263.335938 208.074219 263.546875 207.917969 263.84375 C 207.714844 264.167969 207.382812 264.386719 207.007812 264.445312 L 206.816406 264.445312 C 206.78125 264.644531 206.78125 264.851562 206.816406 265.054688 C 206.914062 265.683594 207.351562 266.210938 207.957031 266.421875 C 208.683594 266.160156 209.304688 265.664062 209.722656 265.011719 C 209.914062 264.773438 209.996094 264.464844 209.953125 264.164062 C 209.855469 263.570312 209.296875 263.167969 208.707031 263.265625 Z M 208.695312 263.285156 "/>
<path style=" stroke:none;fill-rule:nonzero;fill:url(#linear22);" d="M 206.226562 259.667969 C 204.976562 259.875 203.933594 260.742188 203.5 261.9375 C 203.664062 262.972656 204.558594 263.738281 205.609375 263.734375 C 205.558594 263.617188 205.519531 263.492188 205.5 263.363281 C 205.441406 263.019531 205.523438 262.664062 205.726562 262.378906 C 205.933594 262.09375 206.242188 261.902344 206.585938 261.847656 C 206.941406 261.789062 207.304688 261.882812 207.585938 262.105469 C 207.796875 262.105469 207.828125 261.914062 207.726562 261.296875 C 207.605469 260.570312 207.144531 259.945312 206.488281 259.617188 L 206.207031 259.617188 Z M 206.226562 259.667969 "/>
<path style=" stroke:none;fill-rule:nonzero;fill:rgb(30.588236%,8.235294%,24.705882%);fill-opacity:1;" d="M 209.464844 261.148438 C 209.488281 261.289062 209.488281 261.433594 209.464844 261.578125 C 209.433594 261.71875 209.371094 261.851562 209.285156 261.964844 C 209.199219 262.078125 209.09375 262.179688 208.976562 262.253906 C 208.855469 262.332031 208.71875 262.386719 208.574219 262.40625 C 208.292969 262.457031 208 262.386719 207.765625 262.214844 C 207.53125 262.046875 207.375 261.792969 207.328125 261.507812 C 207.285156 261.21875 207.359375 260.925781 207.527344 260.6875 C 207.6875 260.445312 207.945312 260.285156 208.234375 260.246094 C 208.519531 260.191406 208.816406 260.257812 209.046875 260.4375 C 209.160156 260.519531 209.261719 260.625 209.335938 260.746094 C 209.40625 260.871094 209.457031 261.007812 209.484375 261.148438 "/>
<path style=" stroke:none;fill-rule:nonzero;fill:url(#linear23);" d="M 184.847656 267.941406 L 174.375 267.941406 L 172.816406 247.25 L 186.394531 247.25 Z M 184.847656 267.941406 "/>
<path style=" stroke:none;fill-rule:nonzero;fill:rgb(90.588236%,90.196079%,90.196079%);fill-opacity:1;" d="M 172.628906 255.601562 L 186.59375 255.601562 L 186.59375 258.789062 L 172.628906 258.789062 Z M 172.628906 255.601562 "/>
<path style=" stroke:none;fill-rule:nonzero;fill:rgb(90.588236%,90.196079%,90.196079%);fill-opacity:1;" d="M 187.175781 246.050781 L 184.847656 246.050781 L 184.585938 245.25 L 174.246094 245.25 L 173.988281 246.050781 L 171.660156 246.050781 L 170.878906 248.4375 L 187.953125 248.4375 Z M 187.175781 246.050781 "/>
</g>
</svg>
