<?xml version="1.0" encoding="UTF-8"?>
<svg width="490px" height="262px" viewBox="0 0 490 262" version="1.1" xmlns="http://www.w3.org/2000/svg" xmlns:xlink="http://www.w3.org/1999/xlink">
    <!-- Generator: Sketch 43.2 (39069) - http://www.bohemiancoding.com/sketch -->
    <title>Untitled-1-03.cleaned</title>
    <desc>Created with Sketch.</desc>
    <defs>
        <linearGradient x1="50.017024%" y1="99.997885%" x2="50.017024%" y2="-0.000225120936%" id="linearGradient-1">
            <stop stop-color="#E84640" offset="0%"></stop>
            <stop stop-color="#F4971F" offset="100%"></stop>
        </linearGradient>
        <linearGradient x1="38.1911165%" y1="150.289227%" x2="55.6384102%" y2="2.11173515%" id="linearGradient-2">
            <stop stop-color="#E72B7A" offset="0%"></stop>
            <stop stop-color="#CC1D71" offset="36%"></stop>
            <stop stop-color="#551D52" offset="100%"></stop>
        </linearGradient>
        <linearGradient x1="50.0024478%" y1="100.010752%" x2="50.0024478%" y2="0.00519155192%" id="linearGradient-3">
            <stop stop-color="#E84640" offset="0%"></stop>
            <stop stop-color="#F4971F" offset="100%"></stop>
        </linearGradient>
        <linearGradient x1="50.0002164%" y1="100.004632%" x2="50.0002164%" y2="0.00380949798%" id="linearGradient-4">
            <stop stop-color="#E84640" offset="0%"></stop>
            <stop stop-color="#F4971F" offset="100%"></stop>
        </linearGradient>
        <rect id="path-5" x="0" y="0" width="564" height="470"></rect>
        <rect id="path-7" x="0" y="0" width="564" height="470"></rect>
        <linearGradient x1="49.9908517%" y1="100.003494%" x2="49.9908517%" y2="0.00516435249%" id="linearGradient-9">
            <stop stop-color="#E84640" offset="0%"></stop>
            <stop stop-color="#F4971F" offset="100%"></stop>
        </linearGradient>
        <rect id="path-10" x="0" y="0" width="564" height="470"></rect>
        <rect id="path-12" x="0" y="0" width="564" height="470"></rect>
        <rect id="path-14" x="0" y="0" width="564" height="470"></rect>
        <rect id="path-16" x="0" y="0" width="564" height="470"></rect>
        <rect id="path-18" x="0" y="0" width="564" height="470"></rect>
        <rect id="path-20" x="0" y="0" width="564" height="470"></rect>
        <rect id="path-22" x="0" y="0" width="564" height="470"></rect>
        <rect id="path-24" x="0" y="0" width="564" height="470"></rect>
        <rect id="path-26" x="0" y="0" width="564" height="470"></rect>
        <rect id="path-28" x="0" y="0" width="564" height="470"></rect>
        <rect id="path-30" x="0" y="0" width="564" height="470"></rect>
        <rect id="path-32" x="0" y="0" width="564" height="470"></rect>
        <rect id="path-34" x="0" y="0" width="564" height="470"></rect>
        <rect id="path-36" x="0" y="0" width="564" height="470"></rect>
        <rect id="path-38" x="0" y="0" width="564" height="470"></rect>
        <rect id="path-40" x="0" y="0" width="564" height="470"></rect>
        <rect id="path-42" x="0" y="0" width="564" height="470"></rect>
        <linearGradient x1="50.1305028%" y1="100.000608%" x2="50.1305028%" y2="-0.015688758%" id="linearGradient-44">
            <stop stop-color="#808181" stop-opacity="0.25" offset="0%"></stop>
            <stop stop-color="#808181" stop-opacity="0.12" offset="54%"></stop>
            <stop stop-color="#808181" stop-opacity="0.1" offset="100%"></stop>
        </linearGradient>
        <rect id="path-45" x="0" y="0" width="564" height="470"></rect>
        <rect id="path-47" x="0" y="0" width="564" height="470"></rect>
        <rect id="path-49" x="0" y="0" width="564" height="470"></rect>
        <rect id="path-51" x="0" y="0" width="564" height="470"></rect>
        <rect id="path-53" x="0" y="0" width="564" height="470"></rect>
        <linearGradient x1="50.0246081%" y1="100.048018%" x2="50.0246081%" y2="0.00958906452%" id="linearGradient-55">
            <stop stop-color="#E84640" offset="0%"></stop>
            <stop stop-color="#F4971F" offset="100%"></stop>
        </linearGradient>
        <linearGradient x1="50.0251202%" y1="100.048018%" x2="50.0251202%" y2="0.00958906452%" id="linearGradient-56">
            <stop stop-color="#E84640" offset="0%"></stop>
            <stop stop-color="#F4971F" offset="100%"></stop>
        </linearGradient>
        <linearGradient x1="50.0020285%" y1="100.048018%" x2="50.0020285%" y2="0.00958906452%" id="linearGradient-57">
            <stop stop-color="#E84640" offset="0%"></stop>
            <stop stop-color="#F4971F" offset="100%"></stop>
        </linearGradient>
        <linearGradient x1="49.9797922%" y1="100.048018%" x2="49.9797922%" y2="0.00958906452%" id="linearGradient-58">
            <stop stop-color="#E84640" offset="0%"></stop>
            <stop stop-color="#F4971F" offset="100%"></stop>
        </linearGradient>
        <linearGradient x1="50.019198%" y1="100.048018%" x2="50.019198%" y2="0.00958906452%" id="linearGradient-59">
            <stop stop-color="#E84640" offset="0%"></stop>
            <stop stop-color="#F4971F" offset="100%"></stop>
        </linearGradient>
        <linearGradient x1="49.9969671%" y1="100.048018%" x2="49.9969671%" y2="0.00958906452%" id="linearGradient-60">
            <stop stop-color="#E84640" offset="0%"></stop>
            <stop stop-color="#F4971F" offset="100%"></stop>
        </linearGradient>
        <linearGradient x1="49.9975026%" y1="100.048018%" x2="49.9975026%" y2="0.00958906452%" id="linearGradient-61">
            <stop stop-color="#E84640" offset="0%"></stop>
            <stop stop-color="#F4971F" offset="100%"></stop>
        </linearGradient>
        <linearGradient x1="49.988879%" y1="100.007514%" x2="49.988879%" y2="0.0128382985%" id="linearGradient-62">
            <stop stop-color="#E84640" offset="0%"></stop>
            <stop stop-color="#F4971F" offset="100%"></stop>
        </linearGradient>
        <linearGradient x1="50.0018613%" y1="100.002763%" x2="50.0018613%" y2="-0.00207929475%" id="linearGradient-63">
            <stop stop-color="#E84640" offset="0%"></stop>
            <stop stop-color="#F4971F" offset="100%"></stop>
        </linearGradient>
        <linearGradient x1="49.9852274%" y1="100.048018%" x2="49.9852274%" y2="0.00958906452%" id="linearGradient-64">
            <stop stop-color="#E84640" offset="0%"></stop>
            <stop stop-color="#F4971F" offset="100%"></stop>
        </linearGradient>
        <linearGradient x1="50.0056801%" y1="99.9961131%" x2="50.0056801%" y2="0.00413513054%" id="linearGradient-65">
            <stop stop-color="#E84640" offset="0%"></stop>
            <stop stop-color="#F4971F" offset="100%"></stop>
        </linearGradient>
        <linearGradient x1="50.0031397%" y1="99.9987859%" x2="50.0031397%" y2="-0.0060119415%" id="linearGradient-66">
            <stop stop-color="#E84640" offset="0%"></stop>
            <stop stop-color="#F4971F" offset="100%"></stop>
        </linearGradient>
        <rect id="path-67" x="0" y="0" width="564" height="470"></rect>
        <rect id="path-69" x="0" y="0" width="564" height="470"></rect>
        <linearGradient x1="242.433611%" y1="-274.492207%" x2="231.541972%" y2="-220.742079%" id="linearGradient-71">
            <stop stop-color="#4F254E" offset="0%"></stop>
            <stop stop-color="#B577AF" offset="100%"></stop>
        </linearGradient>
        <linearGradient x1="221.650704%" y1="-482.362289%" x2="266.567062%" y2="-650.856389%" id="linearGradient-72">
            <stop stop-color="#6FBFA0" offset="0%"></stop>
            <stop stop-color="#54706E" offset="51%"></stop>
            <stop stop-color="#4E153F" offset="100%"></stop>
        </linearGradient>
        <linearGradient x1="263.59991%" y1="-344.391133%" x2="303.453845%" y2="-248.651782%" id="linearGradient-73">
            <stop stop-color="#E72B7A" offset="0%"></stop>
            <stop stop-color="#70AEC4" offset="60%"></stop>
            <stop stop-color="#6DC4CB" offset="100%"></stop>
        </linearGradient>
        <linearGradient x1="382.061616%" y1="-527.866241%" x2="476.48669%" y2="-594.411147%" id="linearGradient-74">
            <stop stop-color="#E94C4A" offset="0%"></stop>
            <stop stop-color="#F29332" stop-opacity="0.99" offset="100%"></stop>
        </linearGradient>
        <linearGradient x1="273.726886%" y1="-390.107108%" x2="365.591499%" y2="-435.006148%" id="linearGradient-75">
            <stop stop-color="#E72B7A" offset="0%"></stop>
            <stop stop-color="#CC1D71" offset="36%"></stop>
            <stop stop-color="#551D52" offset="100%"></stop>
        </linearGradient>
        <linearGradient x1="0.00839528128%" y1="49.9713443%" x2="100.006445%" y2="49.9713443%" id="linearGradient-76">
            <stop stop-color="#E72B7A" offset="0%"></stop>
            <stop stop-color="#CC1D71" offset="36%"></stop>
            <stop stop-color="#551D52" offset="100%"></stop>
        </linearGradient>
    </defs>
    <g id="Page-1" stroke="none" stroke-width="1" fill="none" fill-rule="evenodd">
        <g id="Untitled-1-03.cleaned" transform="translate(-39.000000, -124.000000)">
            <polygon id="Shape" fill="#F4F3F4" fill-rule="nonzero" points="501.273438 348.769531 472.730469 346.660156 97.496094 346.660156 97.496094 291.699219 501.273438 291.699219"></polygon>
            <path d="M93.609375,151.105469 L68.960938,151.105469 L68.960938,136.589844 C68.960938,130.988281 73.503906,126.453125 79.101562,126.457031 L83.476562,126.457031 C89.074219,126.457031 93.609375,130.992188 93.609375,136.589844 L93.609375,151.105469 Z" id="Shape" fill="url(#linearGradient-1)"></path>
            <path d="M516.421875,265.273438 L516.421875,349.128906 L488.90625,348.769531 L488.90625,347.019531 C488.503906,317.34375 464.328125,293.496094 434.648438,293.496094 C404.96875,293.496094 380.792969,317.34375 380.390625,347.019531 L380.390625,347.371094 L352.925781,347.011719 L210.605469,347.011719 C210.597656,345.007812 210.484375,343.007812 210.265625,341.015625 C210.164062,340.015625 210.042969,339.117188 209.875,338.1875 C209.492188,335.800781 208.949219,333.4375 208.246094,331.125 C207.957031,330.125 207.644531,329.226562 207.308594,328.296875 C206.417969,325.875 205.355469,323.519531 204.128906,321.253906 C203.621094,320.253906 203.070312,319.355469 202.5,318.433594 C200.960938,315.949219 199.222656,313.589844 197.304688,311.382812 C196.457031,310.382812 195.578125,309.472656 194.679688,308.5625 C173.492188,287.421875 139.191406,287.421875 118.007812,308.5625 C117.097656,309.472656 116.21875,310.414062 115.378906,311.382812 C113.460938,313.589844 111.722656,315.949219 110.183594,318.433594 C109.59375,319.355469 109.066406,320.292969 108.554688,321.253906 C107.328125,323.519531 106.265625,325.875 105.378906,328.296875 C105.039062,329.226562 104.726562,330.164062 104.4375,331.125 C103.738281,333.433594 103.191406,335.785156 102.800781,338.167969 C102.640625,339.097656 102.519531,340.035156 102.421875,340.984375 C102.195312,342.976562 102.082031,344.976562 102.082031,346.980469 L47.828125,346.980469 L47.828125,161.683594 L430.488281,161.683594 L468.453125,244.460938 L515.632812,264.921875 L516.421875,265.273438 Z" id="Shape" fill="url(#linearGradient-2)" fill-rule="nonzero"></path>
            <path d="M56.273438,144.070312 L415.5625,144.070312 C423.785156,144.078125 430.453125,150.742188 430.457031,158.96875 L430.457031,161.683594 L47.800781,161.683594 L47.800781,152.515625 C47.800781,150.273438 48.691406,148.125 50.277344,146.539062 C51.859375,144.957031 54.011719,144.070312 56.25,144.070312 L56.273438,144.070312 Z" id="Shape" fill="url(#linearGradient-3)"></path>
            <path d="M344.484375,144.070312 L257.101562,144.070312 L257.101562,140.773438 C257.101562,131.691406 264.464844,124.328125 273.546875,124.328125 L324.050781,124.328125 L344.484375,144.070312 Z" id="Shape" fill="url(#linearGradient-4)"></path>
            <g id="surface5-Clipped">
                <mask id="mask-6" fill="white">
                    <use xlink:href="#path-5"></use>
                </mask>
                <g id="Rectangle-path"></g>
                <g id="surface5" mask="url(#mask-6)" fill-rule="nonzero" fill="#010101">
                    <g transform="translate(40.000000, 319.000000)" id="Shape">
                        <path d="M6.621094,0.523438 L42.839844,0.523438 C46.457031,0.523438 49.390625,3.457031 49.390625,7.078125 L49.390625,27.789062 C49.390625,31.410156 46.457031,34.34375 42.839844,34.34375 L6.621094,34.34375 C3,34.34375 0.066406,31.410156 0.066406,27.789062 L0.066406,7.078125 C0.066406,3.457031 3,0.523438 6.621094,0.523438 Z"></path>
                    </g>
                </g>
            </g>
            <g id="surface8-Clipped">
                <mask id="mask-8" fill="white">
                    <use xlink:href="#path-7"></use>
                </mask>
                <g id="Rectangle-path"></g>
                <g id="surface8" mask="url(#mask-8)" fill-rule="nonzero" fill="#010101">
                    <g transform="translate(311.000000, 161.000000)" id="Shape">
                        <polygon points="41.585938 185.660156 0.714844 185.660156 0.714844 0.335938 81.050781 0.335938 81.050781 128.582031"></polygon>
                    </g>
                </g>
            </g>
            <path d="M45.921875,320.941406 L82.136719,320.941406 C85.757812,320.941406 88.691406,323.878906 88.691406,327.496094 L88.691406,348.207031 C88.691406,351.828125 85.757812,354.761719 82.136719,354.761719 L45.921875,354.761719 C42.300781,354.761719 39.367188,351.828125 39.367188,348.207031 L39.367188,327.496094 C39.367188,323.878906 42.300781,320.941406 45.921875,320.941406 Z" id="Shape" fill="url(#linearGradient-9)" fill-rule="nonzero"></path>
            <g id="surface11-Clipped">
                <mask id="mask-11" fill="white">
                    <use xlink:href="#path-10"></use>
                </mask>
                <g id="Rectangle-path"></g>
                <g id="surface11" mask="url(#mask-11)" fill-rule="nonzero" fill="#010101">
                    <g transform="translate(501.000000, 318.000000)" id="Shape">
                        <path d="M8.867188,0.125 L19.15625,0.125 C23.710938,0.125 27.398438,3.816406 27.398438,8.367188 L27.398438,31.347656 C27.398438,35.898438 23.710938,39.589844 19.15625,39.589844 L8.867188,39.589844 C4.3125,39.589844 0.625,35.898438 0.625,31.347656 L0.625,8.367188 C0.625,3.816406 4.3125,0.125 8.867188,0.125 Z"></path>
                    </g>
                </g>
            </g>
            <polygon id="Shape" fill="#1C2445" fill-rule="nonzero" points="98.554688 180.707031 259.917969 180.707031 259.917969 268.082031 98.554688 268.082031"></polygon>
            <polygon id="Shape" fill="#F4F3F4" fill-rule="nonzero" points="175.015625 188.113281 260.28125 188.113281 260.28125 263.503906 175.015625 263.503906"></polygon>
            <polygon id="Shape" fill="#FFFFFF" fill-rule="nonzero" points="175.015625 248.359375 236.3125 202.910156 244.773438 205.027344 175.015625 255.402344"></polygon>
            <polygon id="Shape" fill="#FFFFFF" fill-rule="nonzero" points="175.015625 230.035156 208.136719 194.457031 223.632812 197.972656 175.015625 243.78125"></polygon>
            <path d="M332.882812,175.074219 L373,175.074219 C378.269531,175.074219 382.539062,179.34375 382.539062,184.613281 L382.539062,247.269531 C382.539062,252.539062 378.269531,256.808594 373,256.808594 L332.882812,256.808594 C327.613281,256.808594 323.34375,252.539062 323.34375,247.269531 L323.34375,184.613281 C323.34375,179.34375 327.613281,175.074219 332.882812,175.074219 Z" id="Shape" fill="#F4F3F4" fill-rule="nonzero"></path>
            <polygon id="Shape" fill="#1C2445" fill-rule="nonzero" points="371.261719 263.855469 379.011719 263.855469 379.011719 280.769531 371.261719 280.769531"></polygon>
            <path d="M406.488281,186.691406 L406.488281,245.070312 C406.496094,246.886719 407.96875,248.359375 409.785156,248.359375 L445.703125,248.359375 C447.523438,248.359375 449,246.882812 449,245.0625 C448.996094,244.453125 448.824219,243.859375 448.511719,243.34375 L412.542969,184.976562 C411.777344,183.714844 410.261719,183.121094 408.84375,183.519531 C407.425781,183.921875 406.445312,185.21875 406.449219,186.691406 L406.488281,186.691406 Z" id="Shape" fill="#F4F3F4" fill-rule="nonzero"></path>
            <polygon id="Shape" fill="#FFFFFF" fill-rule="nonzero" points="342.367188 175.074219 323.34375 191.988281 323.34375 200.800781 350.46875 175.074219"></polygon>
            <polygon id="Shape" fill="#FFFFFF" fill-rule="nonzero" points="323.34375 211 323.34375 221.230469 368.441406 175.074219 359.628906 175.074219"></polygon>
            <polygon id="Shape" fill="#FFFFFF" fill-rule="nonzero" points="418.417969 194.457031 406.488281 211 406.488281 217.355469 422.324219 200.800781"></polygon>
            <polygon id="Shape" fill="#FFFFFF" fill-rule="nonzero" points="427.75 211 406.488281 229.15625 406.488281 234.269531 432.515625 217.355469"></polygon>
            <path d="M194.386719,347.011719 C194.386719,368.023438 177.355469,385.054688 156.34375,385.054688 C135.328125,385.054688 118.296875,368.023438 118.296875,347.011719 C118.296875,325.996094 135.328125,308.964844 156.34375,308.964844 C177.355469,308.964844 194.386719,325.996094 194.386719,347.011719 Z" id="Shape" fill="#1C2445" fill-rule="nonzero"></path>
            <path d="M177.484375,347.011719 C177.484375,358.6875 168.019531,368.152344 156.34375,368.152344 C144.667969,368.152344 135.203125,358.6875 135.203125,347.011719 C135.203125,335.335938 144.667969,325.867188 156.34375,325.867188 C168.019531,325.867188 177.484375,335.335938 177.484375,347.011719 Z" id="Shape" fill="#FFFFFF" fill-rule="nonzero"></path>
            <path d="M161.628906,346.660156 C161.628906,349.777344 159.101562,352.304688 155.984375,352.304688 C152.863281,352.304688 150.335938,349.777344 150.335938,346.660156 C150.335938,343.542969 152.863281,341.015625 155.984375,341.015625 C159.101562,341.015625 161.628906,343.542969 161.628906,346.660156 Z" id="Shape" fill="#1C2445" fill-rule="nonzero"></path>
            <path d="M472.730469,347.011719 C472.730469,368.023438 455.695312,385.054688 434.683594,385.054688 C413.671875,385.054688 396.636719,368.023438 396.636719,347.011719 C396.636719,325.996094 413.671875,308.964844 434.683594,308.964844 C455.695312,308.964844 472.730469,325.996094 472.730469,347.011719 Z" id="Shape" fill="#1C2445" fill-rule="nonzero"></path>
            <path d="M455.824219,347.011719 C455.824219,358.6875 446.359375,368.152344 434.683594,368.152344 C423.007812,368.152344 413.542969,358.6875 413.542969,347.011719 C413.542969,335.335938 423.007812,325.867188 434.683594,325.867188 C446.359375,325.867188 455.824219,335.335938 455.824219,347.011719 Z" id="Shape" fill="#FFFFFF" fill-rule="nonzero"></path>
            <path d="M440.679688,346.660156 C440.679688,349.777344 438.152344,352.304688 435.035156,352.304688 C431.914062,352.304688 429.386719,349.777344 429.386719,346.660156 C429.386719,343.542969 431.914062,341.015625 435.035156,341.015625 C438.152344,341.015625 440.679688,343.542969 440.679688,346.660156 Z" id="Shape" fill="#1C2445" fill-rule="nonzero"></path>
            <g id="surface14-Clipped">
                <mask id="mask-13" fill="white">
                    <use xlink:href="#path-12"></use>
                </mask>
                <g id="Rectangle-path"></g>
                <g id="surface14" mask="url(#mask-13)" fill-rule="nonzero" fill="#010101">
                    <g transform="translate(47.000000, 288.000000)" id="Shape">
                        <polygon points="0.46875 0.871094 264.722656 0.871094 264.722656 3.6875 0.46875 3.6875"></polygon>
                    </g>
                </g>
            </g>
            <g id="surface17-Clipped">
                <mask id="mask-15" fill="white">
                    <use xlink:href="#path-14"></use>
                </mask>
                <g id="Rectangle-path"></g>
                <g id="surface17" mask="url(#mask-15)" fill-rule="nonzero" fill="#010101">
                    <g transform="translate(390.000000, 288.000000)" id="Shape">
                        <polyline points="121.484375 3.699219 0.644531 3.699219 2.050781 1.582031 2.050781 0.871094 121.484375 0.871094"></polyline>
                    </g>
                </g>
            </g>
            <g id="surface20-Clipped">
                <mask id="mask-17" fill="white">
                    <use xlink:href="#path-16"></use>
                </mask>
                <g id="Rectangle-path"></g>
                <g id="surface20" mask="url(#mask-17)" fill-rule="nonzero" fill="#010101">
                    <g transform="translate(392.000000, 276.000000)" id="Shape">
                        <polyline points="119.484375 3.71875 0.050781 3.71875 0.050781 0.902344 119.484375 0.902344"></polyline>
                    </g>
                </g>
            </g>
            <g id="surface23-Clipped">
                <mask id="mask-19" fill="white">
                    <use xlink:href="#path-18"></use>
                </mask>
                <g id="Rectangle-path"></g>
                <g id="surface23" mask="url(#mask-19)" fill-rule="nonzero" fill="#010101">
                    <g transform="translate(392.000000, 264.000000)" id="Shape">
                        <polyline points="119.484375 3.730469 0.050781 3.730469 0.050781 0.921875 118.675781 0.921875"></polyline>
                    </g>
                </g>
            </g>
            <g id="surface26-Clipped">
                <mask id="mask-21" fill="white">
                    <use xlink:href="#path-20"></use>
                </mask>
                <g id="Rectangle-path"></g>
                <g id="surface26" mask="url(#mask-21)" fill-rule="nonzero" fill="#010101">
                    <g transform="translate(47.000000, 298.000000)" id="Shape">
                        <path d="M84.535156,0.734375 C82.875,1.589844 81.261719,2.527344 79.699219,3.550781 L0.46875,3.550781 L0.46875,0.734375 L84.535156,0.734375 Z"></path>
                    </g>
                </g>
            </g>
            <g id="surface29-Clipped">
                <mask id="mask-23" fill="white">
                    <use xlink:href="#path-22"></use>
                </mask>
                <g id="Rectangle-path"></g>
                <g id="surface29" mask="url(#mask-23)" fill-rule="nonzero" fill="#010101">
                    <g transform="translate(181.000000, 298.000000)" id="Shape">
                        <path d="M130.722656,0.734375 L130.722656,3.550781 L4.984375,3.550781 C3.421875,2.53125 1.808594,1.589844 0.148438,0.734375 L130.722656,0.734375 Z"></path>
                    </g>
                </g>
            </g>
            <g id="surface32-Clipped">
                <mask id="mask-25" fill="white">
                    <use xlink:href="#path-24"></use>
                </mask>
                <g id="Rectangle-path"></g>
                <g id="surface32" mask="url(#mask-25)" fill-rule="nonzero" fill="#010101">
                    <g transform="translate(47.000000, 308.000000)" id="Shape">
                        <path d="M71.007812,0.613281 C70.097656,1.523438 69.21875,2.460938 68.378906,3.433594 L0.441406,3.433594 L0.441406,0.613281 L71.007812,0.613281 Z"></path>
                    </g>
                </g>
            </g>
            <g id="surface35-Clipped">
                <mask id="mask-27" fill="white">
                    <use xlink:href="#path-26"></use>
                </mask>
                <g id="Rectangle-path"></g>
                <g id="surface35" mask="url(#mask-27)" fill-rule="nonzero" fill="#010101">
                    <g transform="translate(194.000000, 308.000000)" id="Shape">
                        <path d="M117.722656,0.613281 L117.722656,3.433594 L3.304688,3.433594 C2.457031,2.433594 1.578125,1.511719 0.679688,0.613281 L117.722656,0.613281 Z"></path>
                    </g>
                </g>
            </g>
            <g id="surface38-Clipped">
                <mask id="mask-29" fill="white">
                    <use xlink:href="#path-28"></use>
                </mask>
                <g id="Rectangle-path"></g>
                <g id="surface38" mask="url(#mask-29)" fill-rule="nonzero" fill="#010101">
                    <g transform="translate(47.000000, 318.000000)" id="Shape">
                        <path d="M63.183594,0.476562 C62.59375,1.394531 62.066406,2.332031 61.554688,3.292969 L0.46875,3.292969 L0.46875,0.476562 L63.183594,0.476562 Z"></path>
                    </g>
                </g>
            </g>
            <g id="surface41-Clipped">
                <mask id="mask-31" fill="white">
                    <use xlink:href="#path-30"></use>
                </mask>
                <g id="Rectangle-path"></g>
                <g id="surface41" mask="url(#mask-31)" fill-rule="nonzero" fill="#010101">
                    <g transform="translate(202.000000, 318.000000)" id="Shape">
                        <path d="M109.722656,0.476562 L109.722656,3.292969 L2.128906,3.292969 C1.621094,2.292969 1.070312,1.394531 0.5,0.476562 L109.722656,0.476562 Z"></path>
                    </g>
                </g>
            </g>
            <g id="surface44-Clipped">
                <mask id="mask-33" fill="white">
                    <use xlink:href="#path-32"></use>
                </mask>
                <g id="Rectangle-path"></g>
                <g id="surface44" mask="url(#mask-33)" fill-rule="nonzero" fill="#010101">
                    <g transform="translate(89.000000, 328.000000)" id="Shape">
                        <path d="M16.378906,0.335938 C16.039062,1.265625 15.726562,2.203125 15.4375,3.164062 L0.75,3.164062 L0.75,0.335938 L16.378906,0.335938 Z"></path>
                    </g>
                </g>
            </g>
            <g id="surface47-Clipped">
                <mask id="mask-35" fill="white">
                    <use xlink:href="#path-34"></use>
                </mask>
                <g id="Rectangle-path"></g>
                <g id="surface47" mask="url(#mask-35)" fill-rule="nonzero" fill="#010101">
                    <g transform="translate(207.000000, 328.000000)" id="Shape">
                        <path d="M104.722656,0.335938 L104.722656,3.164062 L1.226562,3.164062 C0.9375,2.164062 0.625,1.265625 0.285156,0.335938 L104.722656,0.335938 Z"></path>
                    </g>
                </g>
            </g>
            <g id="surface50-Clipped">
                <mask id="mask-37" fill="white">
                    <use xlink:href="#path-36"></use>
                </mask>
                <g id="Rectangle-path"></g>
                <g id="surface50" mask="url(#mask-37)" fill-rule="nonzero" fill="#010101">
                    <g transform="translate(89.000000, 338.000000)" id="Shape">
                        <path d="M13.800781,0.207031 C13.640625,1.132812 13.511719,2.074219 13.410156,3.023438 L0.75,3.023438 L0.75,0.207031 L13.800781,0.207031 Z"></path>
                    </g>
                </g>
            </g>
            <g id="surface53-Clipped">
                <mask id="mask-39" fill="white">
                    <use xlink:href="#path-38"></use>
                </mask>
                <g id="Rectangle-path"></g>
                <g id="surface53" mask="url(#mask-39)" fill-rule="nonzero" fill="#010101">
                    <g transform="translate(209.000000, 338.000000)" id="Shape">
                        <path d="M102.722656,0.207031 L102.722656,3.023438 L1.222656,3.023438 C1.125,2.074219 1.003906,1.136719 0.835938,0.207031 L102.722656,0.207031 Z"></path>
                    </g>
                </g>
            </g>
            <path d="M253.1875,256.042969 L248.960938,256.042969 L248.960938,245.898438 L250.746094,242.375 C250.851562,242.183594 251.085938,242.109375 251.277344,242.203125 C251.351562,242.242188 251.414062,242.300781 251.457031,242.375 L253.246094,245.898438 L253.1875,256.042969 Z" id="Shape" fill="#EB5B5C" fill-rule="nonzero"></path>
            <g id="surface56-Clipped">
                <mask id="mask-41" fill="white">
                    <use xlink:href="#path-40"></use>
                </mask>
                <g id="Rectangle-path"></g>
                <g id="surface56" mask="url(#mask-41)" fill-rule="nonzero" fill="#010101">
                    <g transform="translate(249.000000, 245.000000)" id="Shape">
                        <polygon points="0 0.910156 4.226562 0.910156 4.226562 1.328125 0 1.328125"></polygon>
                    </g>
                </g>
            </g>
            <path d="M259.570312,256.042969 L255.34375,256.042969 L255.34375,245.898438 L257.132812,242.375 C257.234375,242.183594 257.46875,242.109375 257.660156,242.203125 C257.738281,242.242188 257.800781,242.300781 257.839844,242.375 L259.628906,245.898438 L259.570312,256.042969 Z" id="Shape" fill="#F0C316" fill-rule="nonzero"></path>
            <g id="surface59-Clipped">
                <mask id="mask-43" fill="white">
                    <use xlink:href="#path-42"></use>
                </mask>
                <g id="Rectangle-path"></g>
                <g id="surface59" mask="url(#mask-43)" fill-rule="nonzero" fill="#010101">
                    <g transform="translate(255.000000, 245.000000)" id="Shape">
                        <polygon points="0.34375 0.910156 4.570312 0.910156 4.570312 1.328125 0.34375 1.328125"></polygon>
                    </g>
                </g>
            </g>
            <path d="M152.796875,242.671875 L152.707031,242.402344 C152.945312,239.875 153.703125,231.511719 152.625,229.503906 C151.828125,227.945312 149.628906,227.957031 147.082031,228.503906 L147.082031,227.6875 L147.082031,219.132812 C147,213.730469 142.554688,209.414062 137.148438,209.492188 L135.539062,209.492188 C132.933594,209.4375 130.417969,210.425781 128.539062,212.234375 C126.664062,214.046875 125.589844,216.527344 125.550781,219.132812 L125.550781,227.6875 C125.535156,227.9375 125.535156,228.191406 125.550781,228.445312 C122.761719,228.636719 120.125,230.375 120.734375,236.628906 L120.734375,243.78125 L121.292969,243.78125 C121.492188,243.910156 121.683594,244.03125 121.894531,244.140625 L123.300781,256.171875 L127.589844,256.171875 L127.527344,256.769531 L144.28125,256.769531 C145.652344,256.871094 147.019531,256.941406 148.089844,256.941406 C148.78125,256.972656 149.472656,256.917969 150.148438,256.769531 C151.984375,256.171875 151.984375,252.59375 151.984375,252.59375 L152.574219,243.691406 C152.800781,243.402344 152.882812,243.027344 152.796875,242.671875 Z M128.617188,244.859375 L128.675781,244.859375 L128.675781,244.972656 L128.617188,244.921875 L128.617188,244.859375 Z M144.671875,246.351562 L144.984375,250.847656 L144.671875,250.847656 L144.671875,246.351562 Z M127.597656,250.246094 L128.597656,245.011719 L128.667969,245.011719 L128.167969,250.316406 L127.597656,250.246094 Z" id="Shape" fill="url(#linearGradient-44)" fill-rule="nonzero"></path>
            <path d="M134.792969,209.632812 L137.957031,209.632812 C142.78125,209.632812 146.691406,213.542969 146.691406,218.363281 L146.691406,228.457031 C146.691406,233.277344 142.78125,237.1875 137.957031,237.1875 L134.792969,237.1875 C129.96875,237.1875 126.058594,233.277344 126.058594,228.457031 L126.058594,218.363281 C126.058594,213.542969 129.96875,209.632812 134.792969,209.632812 Z" id="Shape" fill="#965E7C" fill-rule="nonzero"></path>
            <path d="M131.515625,229.523438 C131.515625,229.523438 120.292969,224.160156 121.523438,236.519531 L121.523438,243.511719 L129.148438,243.511719 L127.957031,256.421875 L144.382812,256.421875 L144.382812,243.511719 C144.382812,243.511719 150.828125,244.113281 152.007812,242.921875 C152.007812,242.921875 153.195312,231.773438 152.007812,229.425781 C150.816406,227.078125 146.691406,228.324219 142.585938,229.496094 C138.476562,230.664062 131.515625,229.523438 131.515625,229.523438 Z" id="Shape" fill="#EB6681" fill-rule="nonzero"></path>
            <path d="M122.523438,243.511719 L123.8125,255.839844 L136.71875,255.839844 C136.71875,255.839844 142.003906,252.324219 139.066406,251.15625 C137.613281,250.445312 135.96875,250.238281 134.382812,250.554688 L127.925781,249.957031 L129.148438,243.511719 L122.523438,243.511719 Z" id="Shape" fill="#F6C3A5" fill-rule="nonzero"></path>
            <g id="surface62-Clipped">
                <mask id="mask-46" fill="white">
                    <use xlink:href="#path-45"></use>
                </mask>
                <g id="Rectangle-path"></g>
                <g id="surface62" mask="url(#mask-46)" fill-rule="nonzero" fill="#010101">
                    <g transform="translate(135.000000, 242.000000)" id="Shape">
                        <path d="M16.695312,0.921875 L16.097656,10.316406 C16.097656,10.316406 16.097656,13.832031 14.308594,14.421875 C12.519531,15.011719 3.160156,13.832031 3.160156,13.832031 C3.160156,13.832031 -0.359375,13.832031 0.230469,10.894531 C0.820312,7.957031 3.746094,7.378906 4.917969,7.378906 C5.972656,7.550781 6.976562,7.957031 7.855469,8.566406 L9.644531,8.566406 L9.183594,1.511719 L16.695312,0.921875 Z"></path>
                    </g>
                </g>
            </g>
            <path d="M151.996094,242.921875 L151.398438,252.316406 C151.398438,252.316406 151.398438,255.832031 149.609375,256.421875 C147.820312,257.011719 138.457031,255.832031 138.457031,255.832031 C138.457031,255.832031 134.941406,255.832031 135.519531,252.894531 C136.101562,249.957031 139.039062,249.378906 140.214844,249.378906 C141.273438,249.550781 142.277344,249.957031 143.152344,250.566406 L144.941406,250.566406 L144.472656,243.511719 L151.996094,242.921875 Z" id="Shape" fill="#F6C3A5" fill-rule="nonzero"></path>
            <g id="surface65-Clipped">
                <mask id="mask-48" fill="white">
                    <use xlink:href="#path-47"></use>
                </mask>
                <g id="Rectangle-path"></g>
                <g id="surface65" mask="url(#mask-48)" fill-rule="nonzero" fill="#010101">
                    <g transform="translate(121.000000, 242.000000)" id="Shape">
                        <path d="M0.632812,1.234375 C0.632812,1.234375 3.019531,3.609375 7.964844,2.792969 C8.496094,2.710938 1.523438,0.203125 0.632812,1.234375 Z"></path>
                    </g>
                </g>
            </g>
            <g id="surface68-Clipped">
                <mask id="mask-50" fill="white">
                    <use xlink:href="#path-49"></use>
                </mask>
                <g id="Rectangle-path"></g>
                <g id="surface68" mask="url(#mask-50)" fill-rule="nonzero" fill="#010101">
                    <g transform="translate(143.000000, 240.000000)" id="Shape">
                        <path d="M0.742188,5.582031 C0.742188,5.582031 9.875,5.441406 9.144531,2.492188 C8.417969,-0.453125 1.332031,1.164062 1.332031,1.164062 L0.742188,5.582031 Z"></path>
                    </g>
                </g>
            </g>
            <path d="M121.632812,243.082031 C121.632812,243.082031 124.628906,246.03125 130.625,244.273438 C136.621094,242.511719 122.523438,242.054688 121.632812,243.082031 Z" id="Shape" fill="#EB6681" fill-rule="nonzero"></path>
            <path d="M143.59375,245.441406 C143.59375,245.441406 152.726562,245.289062 151.996094,242.34375 C151.265625,239.394531 144.183594,241.023438 144.183594,241.023438 L143.59375,245.441406 Z" id="Shape" fill="#EB6681" fill-rule="nonzero"></path>
            <path d="M130.855469,221.371094 C130.855469,221.371094 132.644531,227.828125 131.453125,229.585938 C130.265625,231.34375 135.152344,235 137.269531,234.949219 C138.527344,234.949219 142.972656,231.824219 142.605469,229.585938 C142.292969,227.757812 139.667969,222.589844 140.257812,220.203125 L130.855469,221.371094 Z" id="Shape" fill="#F6C3A5" fill-rule="nonzero"></path>
            <g id="surface71-Clipped">
                <mask id="mask-52" fill="white">
                    <use xlink:href="#path-51"></use>
                </mask>
                <g id="Rectangle-path"></g>
                <g id="surface71" mask="url(#mask-52)" fill-rule="nonzero" fill="#010101">
                    <g transform="translate(130.000000, 220.000000)" id="Shape">
                        <path d="M6.429688,9.453125 C8.402344,9.453125 10.304688,8.746094 11.796875,7.457031 C10.957031,5.160156 9.796875,2.140625 10.226562,0.511719 L0.835938,1.710938 C1.410156,3.792969 1.746094,5.9375 1.835938,8.097656 C3.195312,8.996094 4.796875,9.46875 6.429688,9.453125 Z"></path>
                    </g>
                </g>
            </g>
            <path d="M144.644531,220.941406 C144.644531,225.476562 140.964844,229.15625 136.429688,229.15625 C131.894531,229.15625 128.21875,225.476562 128.21875,220.941406 C128.21875,216.40625 131.894531,212.730469 136.429688,212.730469 C140.964844,212.730469 144.644531,216.40625 144.644531,220.941406 Z" id="Shape" fill="#F6C3A5" fill-rule="nonzero"></path>
            <g id="surface74-Clipped">
                <mask id="mask-54" fill="white">
                    <use xlink:href="#path-53"></use>
                </mask>
                <g id="Rectangle-path"></g>
                <g id="surface74" mask="url(#mask-54)" fill-rule="nonzero" fill="#010101">
                    <g transform="translate(127.000000, 212.000000)" id="Shape">
                        <path d="M4.425781,12.558594 C4.226562,11.789062 3.90625,11.050781 3.746094,10.269531 C3.210938,7.316406 4.832031,4.390625 7.621094,3.277344 C8.019531,3.105469 8.457031,3.039062 8.890625,3.085938 C10.640625,3.367188 10.890625,6.085938 12.546875,6.714844 C12.867188,6.835938 13.226562,6.855469 13.546875,6.972656 C14.429688,7.367188 15.085938,8.140625 15.335938,9.074219 C15.675781,10.066406 15.804688,11.121094 15.714844,12.167969 C15.625,13.167969 15.335938,14.167969 15.253906,15.167969 C15.113281,16.167969 15.398438,17.179688 16.035156,17.964844 C16.40625,18.304688 16.828125,18.582031 17.28125,18.792969 C17.59375,18.953125 17.972656,19.125 18.28125,18.933594 C18.410156,18.832031 18.503906,18.691406 18.550781,18.535156 C18.855469,17.4375 18.898438,16.28125 18.671875,15.167969 C18.542969,13.425781 18.542969,11.679688 18.671875,9.941406 C18.863281,8.542969 18.753906,7.117188 18.34375,5.765625 C17.960938,4.898438 17.445312,4.09375 16.8125,3.386719 C16.285156,2.671875 15.664062,2.03125 14.964844,1.480469 C13.640625,0.570312 12.066406,0.097656 10.460938,0.128906 C8.863281,0.160156 7.277344,0.359375 5.722656,0.71875 C4.558594,0.824219 3.46875,1.335938 2.644531,2.167969 C2.320312,2.679688 2.085938,3.246094 1.957031,3.835938 L1.488281,5.554688 C0.921875,7.375 0.585938,9.257812 0.488281,11.160156 C0.488281,12.550781 0.699219,15.558594 2.277344,16.15625 C4.292969,16.933594 4.765625,13.898438 4.425781,12.558594 Z"></path>
                    </g>
                </g>
            </g>
            <path d="M131.425781,224.269531 C131.226562,223.5 130.90625,222.761719 130.746094,221.972656 C130.207031,219.015625 131.828125,216.089844 134.621094,214.976562 C135.019531,214.804688 135.457031,214.742188 135.890625,214.789062 C137.640625,215.066406 137.890625,217.785156 139.546875,218.40625 C139.867188,218.535156 140.226562,218.554688 140.546875,218.675781 C141.429688,219.066406 142.085938,219.839844 142.335938,220.773438 C142.675781,221.769531 142.804688,222.824219 142.714844,223.871094 C142.625,224.867188 142.335938,225.867188 142.253906,226.867188 C142.113281,227.871094 142.398438,228.886719 143.035156,229.675781 C143.382812,230.011719 143.785156,230.292969 144.222656,230.503906 C144.53125,230.675781 144.914062,230.84375 145.222656,230.652344 C145.351562,230.550781 145.445312,230.410156 145.492188,230.253906 C145.796875,229.152344 145.839844,227.996094 145.613281,226.878906 C145.480469,225.140625 145.480469,223.398438 145.613281,221.660156 C145.804688,220.261719 145.691406,218.835938 145.28125,217.484375 C144.902344,216.613281 144.386719,215.808594 143.753906,215.097656 C143.21875,214.386719 142.597656,213.746094 141.90625,213.191406 C140.578125,212.28125 139.003906,211.8125 137.398438,211.839844 C135.804688,211.878906 134.21875,212.082031 132.664062,212.441406 C131.496094,212.539062 130.40625,213.050781 129.585938,213.890625 C129.257812,214.398438 129.023438,214.964844 128.898438,215.558594 L128.425781,217.277344 C127.859375,219.09375 127.523438,220.976562 127.429688,222.878906 C127.429688,224.269531 127.636719,227.277344 129.214844,227.875 C131.292969,228.617188 131.765625,225.628906 131.425781,224.269531 Z" id="Shape" fill="#965E7C" fill-rule="nonzero"></path>
            <path d="M98.203125,208.542969 C98.203125,208.542969 105.257812,223.351562 123.929688,208.542969" id="Shape" fill="#575EA7" fill-rule="nonzero"></path>
            <path d="M123.570312,208.542969 C123.570312,208.542969 130.625,223.351562 149.296875,208.542969" id="Shape" fill="#575EA7" fill-rule="nonzero"></path>
            <path d="M148.9375,208.542969 C148.9375,208.542969 155.984375,223.351562 174.65625,208.542969" id="Shape" fill="#575EA7" fill-rule="nonzero"></path>
            <path d="M174.304688,208.542969 C174.304688,208.542969 181.359375,223.351562 200.035156,208.542969" id="Shape" fill="#575EA7" fill-rule="nonzero"></path>
            <path d="M199.671875,208.542969 C199.671875,208.542969 206.726562,223.351562 225.402344,208.542969" id="Shape" fill="#575EA7" fill-rule="nonzero"></path>
            <path d="M225.050781,208.542969 C225.050781,208.542969 232.042969,223.351562 250.769531,208.542969" id="Shape" fill="#575EA7" fill-rule="nonzero"></path>
            <path d="M250.417969,208.542969 C250.417969,208.542969 257.410156,223.351562 276.136719,208.542969" id="Shape" fill="#575EA7" fill-rule="nonzero"></path>
            <path d="M275.777344,208.542969 C275.777344,208.542969 282.828125,219.113281 287.765625,209.253906" id="Shape" fill="#575EA7" fill-rule="nonzero"></path>
            <path d="M98.203125,208.542969 C98.203125,208.542969 105.257812,223.351562 123.929688,208.542969" id="Shape" fill="url(#linearGradient-55)"></path>
            <path d="M123.570312,208.542969 C123.570312,208.542969 130.625,223.351562 149.296875,208.542969" id="Shape" fill="url(#linearGradient-56)"></path>
            <path d="M148.9375,208.542969 C148.9375,208.542969 155.984375,223.351562 174.65625,208.542969" id="Shape" fill="url(#linearGradient-57)"></path>
            <path d="M174.304688,208.542969 C174.304688,208.542969 181.359375,223.351562 200.035156,208.542969" id="Shape" fill="url(#linearGradient-58)"></path>
            <path d="M199.671875,208.542969 C199.671875,208.542969 206.726562,223.351562 225.402344,208.542969" id="Shape" fill="url(#linearGradient-59)"></path>
            <path d="M225.050781,208.542969 C225.050781,208.542969 232.042969,223.351562 250.769531,208.542969" id="Shape" fill="url(#linearGradient-60)"></path>
            <path d="M250.417969,208.542969 C250.417969,208.542969 257.410156,223.351562 276.136719,208.542969" id="Shape" fill="url(#linearGradient-61)"></path>
            <path d="M275.777344,208.542969 C275.777344,208.542969 282.828125,219.113281 287.765625,209.253906" id="Shape" fill="url(#linearGradient-62)"></path>
            <polygon id="Shape" fill="#575EA7" fill-rule="nonzero" points="287.40625 208.902344 73.1875 208.902344 88.691406 175.074219 271.199219 175.074219"></polygon>
            <polygon id="Shape" fill="url(#linearGradient-63)" points="287.40625 208.902344 73.1875 208.902344 88.691406 175.074219 271.199219 175.074219"></polygon>
            <path d="M72.835938,208.542969 C72.835938,208.542969 79.890625,223.351562 98.5625,208.542969" id="Shape" fill="#575EA7" fill-rule="nonzero"></path>
            <path d="M72.835938,208.542969 C72.835938,208.542969 79.890625,223.351562 98.5625,208.542969" id="Shape" fill="url(#linearGradient-64)"></path>
            <polygon id="Shape" fill="url(#linearGradient-65)" fill-rule="nonzero" points="93.617188 268.089844 266.964844 268.089844 266.964844 280.769531 93.617188 280.769531"></polygon>
            <polygon id="Shape" fill="url(#linearGradient-66)" fill-rule="nonzero" points="60.527344 145.890625 258.539062 145.890625 258.539062 162.804688 60.527344 162.804688"></polygon>
            <g id="surface77-Clipped">
                <mask id="mask-68" fill="white">
                    <use xlink:href="#path-67"></use>
                </mask>
                <g id="Rectangle-path"></g>
                <g id="surface77" mask="url(#mask-68)" fill-rule="nonzero" fill="#010101">
                    <g transform="translate(93.000000, 272.000000)" id="Shape">
                        <polygon points="0.617188 0.316406 173.964844 0.316406 173.964844 2.433594 0.617188 2.433594"></polygon>
                    </g>
                </g>
            </g>
            <polygon id="Shape" fill="#4E153F" fill-rule="nonzero" points="216.457031 250.664062 216.449219 250.726562 216.429688 250.886719 214.179688 267.421875 200.421875 272.597656 200.214844 272.496094 192.511719 268.738281 188.523438 253.0625 188.253906 251.996094 188.332031 251.953125 205.378906 245.390625 216.449219 250.664062"></polygon>
            <polygon id="Shape" fill="#4E153F" fill-rule="nonzero" points="200.214844 272.496094 192.511719 268.738281 188.253906 251.996094 188.332031 251.953125 199.433594 256.761719"></polygon>
            <polygon id="Shape" fill="#CDCBCB" fill-rule="nonzero" points="200.402344 272.296875 194.546875 260.785156 195.296875 257.519531 191.75 253.242188 191.449219 253.503906 194.867188 257.628906 192.308594 268.691406 192.699219 268.789062 194.410156 261.386719 200.054688 272.488281"></polygon>
            <polygon id="Shape" fill="#CDCBCB" fill-rule="nonzero" points="216.457031 250.875 216.429688 250.886719 199.433594 256.960938 188.523438 253.0625 188.253906 251.996094 188.332031 251.953125 205.378906 245.390625 216.449219 250.664062 216.449219 250.726562"></polygon>
            <polygon id="Shape" fill="#4E153F" fill-rule="nonzero" points="199.574219 257.109375 196.105469 254.363281 196.90625 251.316406 206.796875 247.667969 213.53125 248.066406 216.199219 250.40625 216.398438 251.015625"></polygon>
            <polygon id="Shape" fill="#4E153F" fill-rule="nonzero" points="188.453125 251.996094 196.265625 251.683594 200.503906 250.207031 207.105469 247.828125 208.347656 246 205.257812 245.429688"></polygon>
            <polygon id="Shape" fill="#CDCBCB" fill-rule="nonzero" points="199.953125 250.1875 204.03125 248.71875 204.160156 249.105469 200.082031 250.574219"></polygon>
            <polygon id="Shape" fill="#CDCBCB" fill-rule="nonzero" points="162.535156 254.191406 151.996094 256.519531 149.839844 245.878906 153.804688 240.425781 157.382812 239.726562 161.347656 243.851562"></polygon>
            <polygon id="Shape" fill="#E6E5E5" fill-rule="nonzero" points="157.660156 254.652344 151.316406 254.652344 150.449219 250.277344 149.5 245.480469 150.917969 243.382812 153.644531 244.25 156.582031 248.4375 157.320312 252.703125 157.371094 253.015625"></polygon>
            <polygon id="Shape" fill="#CDCBCB" fill-rule="nonzero" points="168.3125 252.105469 161.007812 252.972656 162.308594 243.441406 165.253906 240.714844 167.800781 241.355469 169.5 245.359375"></polygon>
            <polygon id="Shape" fill="#E6E5E5" fill-rule="nonzero" points="169.269531 246.46875 168.601562 250.304688 166.382812 263.375 157.890625 266.164062 157.589844 266.003906 153.015625 263.433594 150.4375 250.277344 150.449219 250.277344 157.261719 253.09375 157.320312 252.703125 157.363281 252.433594 157.890625 249.027344 160.207031 246.46875 167.972656 244.550781"></polygon>
            <path d="M165.703125,244.203125 C165.703125,245.226562 164.894531,246.058594 163.894531,246.058594 C162.898438,246.058594 162.085938,245.226562 162.085938,244.203125 C162.085938,243.175781 162.898438,242.34375 163.894531,242.34375 C164.894531,242.34375 165.703125,243.175781 165.703125,244.203125 Z" id="Shape" fill="#E6E5E5" fill-rule="nonzero"></path>
            <polygon id="Shape" fill="#FFFFFF" fill-rule="nonzero" points="155.304688 245.910156 159.441406 245.160156 159.460938 245.269531 155.324219 246.03125"></polygon>
            <polygon id="Shape" fill="#F1F1F1" fill-rule="nonzero" points="157.589844 266.003906 153.015625 263.433594 150.4375 250.277344 150.449219 250.277344 149.5 245.480469 150.917969 243.382812 153.644531 244.25 156.582031 248.4375 157.320312 252.703125 157.363281 252.433594 157.371094 253.015625 157.402344 254.652344"></polygon>
            <polygon id="Shape" fill="#CDCBCB" fill-rule="nonzero" points="153.074219 263.445312 152.964844 263.414062 155.222656 254.730469 152.636719 251.234375 152.726562 251.164062 155.34375 254.703125"></polygon>
            <polygon id="Shape" fill="#CDCBCB" fill-rule="nonzero" points="154.246094 258.539062 154.34375 258.488281 157.941406 266.140625 157.839844 266.191406"></polygon>
            <g id="surface80-Clipped">
                <mask id="mask-70" fill="white">
                    <use xlink:href="#path-69"></use>
                </mask>
                <g id="Rectangle-path"></g>
                <g id="surface80" mask="url(#mask-70)" fill-rule="nonzero" fill="#010101">
                    <g transform="translate(150.000000, 246.000000)" id="Shape">
                        <path d="M18.832031,3.507812 L18.402344,5.914062 L16.492188,17.183594 L8,19.980469 L7.949219,19.980469 L7.949219,19.914062 L3.164062,17.226562 L3.113281,17.226562 L3.113281,17.105469 L0.558594,4.117188 L0.277344,2.6875 L0.488281,2.378906 L1.148438,1.378906 L3.863281,2.257812 L6.863281,6.433594 L6.863281,6.683594 L7.171875,8.472656 L7.292969,9.191406 L7.5625,10.699219 L7.8125,9.070312 L7.902344,8.492188 L8.121094,7.023438 L10.449219,4.464844 L11.449219,4.207031 L12.167969,4.027344 L13.167969,3.785156 C12.304688,3.238281 12.035156,2.105469 12.558594,1.230469 C12.800781,0.808594 13.203125,0.507812 13.675781,0.390625 C14.144531,0.273438 14.644531,0.351562 15.054688,0.609375 C15.90625,1.164062 16.171875,2.292969 15.652344,3.167969 L18.191406,2.546875 L18.8125,3.46875 L18.832031,3.507812 Z"></path>
                    </g>
                </g>
            </g>
            <polygon id="Shape" fill="#E6E5E5" fill-rule="nonzero" points="157.859375 259.238281 151.515625 259.238281 149.707031 250.054688 151.128906 247.96875 153.84375 248.835938 156.792969 253.023438"></polygon>
            <polygon id="Shape" fill="#E6E5E5" fill-rule="nonzero" points="166.59375 267.949219 158.089844 270.746094 153.214844 268.011719 150.648438 254.851562 157.472656 257.667969 158.089844 253.601562 160.417969 251.046875 168.183594 249.128906 169.480469 251.046875 168.800781 254.882812"></polygon>
            <path d="M165.902344,248.777344 C165.902344,249.804688 165.09375,250.636719 164.09375,250.636719 C163.097656,250.636719 162.285156,249.804688 162.285156,248.777344 C162.285156,247.75 163.097656,246.917969 164.09375,246.917969 C165.09375,246.917969 165.902344,247.75 165.902344,248.777344 Z" id="Shape" fill="#E6E5E5" fill-rule="nonzero"></path>
            <polygon id="Shape" fill="#F1F1F1" fill-rule="nonzero" points="157.800781 270.488281 153.226562 267.921875 150.648438 254.761719 150.65625 254.761719 149.707031 249.964844 151.128906 247.878906 153.84375 248.746094 156.792969 252.933594 157.53125 257.199219 157.570312 256.921875 157.582031 257.5 157.609375 259.148438"></polygon>
            <polygon id="Shape" fill="#CDCBCB" fill-rule="nonzero" points="153.273438 268.03125 153.164062 268 155.421875 259.308594 152.835938 255.8125 152.925781 255.742188 155.554688 259.277344"></polygon>
            <polygon id="Shape" fill="#CDCBCB" fill-rule="nonzero" points="154.445312 263.113281 154.554688 263.066406 158.140625 270.71875 158.039062 270.769531"></polygon>
            <path d="M207.476562,263.023438 C207.496094,263.109375 207.496094,263.199219 207.476562,263.285156 C207.453125,263.375 207.417969,263.457031 207.367188,263.535156 C207.3125,263.605469 207.25,263.664062 207.175781,263.714844 C207.101562,263.761719 207.015625,263.792969 206.925781,263.804688 C206.746094,263.835938 206.5625,263.792969 206.417969,263.683594 C206.269531,263.582031 206.171875,263.421875 206.148438,263.246094 C206.113281,263.082031 206.140625,262.910156 206.226562,262.765625 C206.332031,262.617188 206.488281,262.519531 206.667969,262.484375 C206.757812,262.46875 206.847656,262.46875 206.9375,262.484375 C207.023438,262.503906 207.105469,262.542969 207.175781,262.59375 C207.25,262.648438 207.3125,262.714844 207.355469,262.796875 C207.40625,262.871094 207.4375,262.957031 207.445312,263.046875" id="Shape" fill="#F8AC29" fill-rule="nonzero"></path>
            <path d="M206.308594,259.65625 C204.414062,259.972656 203.128906,261.757812 203.429688,263.65625 C203.570312,264.570312 204.070312,265.390625 204.824219,265.929688 C205.578125,266.46875 206.515625,266.683594 207.425781,266.523438 C208.496094,266.339844 209.421875,265.671875 209.933594,264.714844 C209.992188,264.542969 210.007812,264.363281 209.984375,264.183594 C209.886719,263.589844 209.328125,263.1875 208.734375,263.285156 C208.402344,263.335938 208.113281,263.546875 207.957031,263.84375 C207.753906,264.167969 207.421875,264.386719 207.046875,264.445312 C206.707031,264.5 206.355469,264.417969 206.078125,264.214844 C205.796875,264.011719 205.609375,263.707031 205.558594,263.363281 C205.5,263.019531 205.582031,262.664062 205.789062,262.378906 C205.992188,262.09375 206.300781,261.902344 206.648438,261.847656 C207.003906,261.789062 207.363281,261.882812 207.644531,262.105469 C207.90625,262.371094 208.28125,262.484375 208.644531,262.40625 C209.066406,262.332031 209.410156,262.023438 209.523438,261.613281 C209.640625,261.199219 209.507812,260.757812 209.183594,260.476562 C208.4375,259.847656 207.457031,259.5625 206.488281,259.6875 L206.308594,259.65625 Z" id="Shape" fill="url(#linearGradient-71)" fill-rule="nonzero"></path>
            <path d="M203.609375,263.945312 C203.539062,263.945312 203.53125,264.132812 203.609375,264.582031 C204.257812,266.023438 205.792969,266.84375 207.347656,266.582031 C207.542969,266.550781 207.738281,266.503906 207.925781,266.441406 C208.949219,266.03125 209.695312,265.140625 209.925781,264.0625 C209.789062,263.519531 209.257812,263.175781 208.707031,263.273438 C208.566406,263.292969 208.433594,263.34375 208.316406,263.425781 L207.957031,263.773438 L207.957031,263.835938 C207.808594,264.054688 207.605469,264.230469 207.367188,264.34375 C206.996094,264.675781 206.550781,264.914062 206.066406,265.03125 C204.6875,265.261719 203.839844,263.894531 203.609375,263.945312 Z" id="Shape" fill="url(#linearGradient-72)" fill-rule="nonzero"></path>
            <path d="M205.230469,260.328125 C204.953125,260.367188 204.683594,260.453125 204.4375,260.585938 C203.589844,261.386719 203.191406,262.550781 203.371094,263.703125 C203.480469,264.402344 203.800781,265.050781 204.289062,265.5625 C204.839844,265.878906 205.480469,265.996094 206.109375,265.890625 C207.363281,265.675781 208.320312,264.644531 208.4375,263.375 C208.226562,263.476562 208.054688,263.640625 207.945312,263.84375 C207.746094,264.167969 207.414062,264.386719 207.035156,264.445312 C206.695312,264.5 206.347656,264.417969 206.066406,264.214844 C205.785156,264.011719 205.601562,263.707031 205.546875,263.363281 C205.492188,263.019531 205.574219,262.664062 205.777344,262.378906 C205.980469,262.09375 206.292969,261.902344 206.636719,261.847656 C206.992188,261.789062 207.355469,261.882812 207.636719,262.105469 C207.832031,262.296875 208.09375,262.410156 208.367188,262.425781 C208.019531,261.019531 206.660156,260.109375 205.230469,260.328125 Z" id="Shape" fill="url(#linearGradient-73)" fill-rule="nonzero"></path>
            <path d="M208.695312,263.285156 C208.363281,263.335938 208.074219,263.546875 207.917969,263.84375 C207.714844,264.167969 207.382812,264.386719 207.007812,264.445312 L206.816406,264.445312 C206.78125,264.644531 206.78125,264.851562 206.816406,265.054688 C206.914062,265.683594 207.351562,266.210938 207.957031,266.421875 C208.683594,266.160156 209.304688,265.664062 209.722656,265.011719 C209.914062,264.773438 209.996094,264.464844 209.953125,264.164062 C209.855469,263.570312 209.296875,263.167969 208.707031,263.265625 L208.695312,263.285156 Z" id="Shape" fill="url(#linearGradient-74)" fill-rule="nonzero"></path>
            <path d="M206.226562,259.667969 C204.976562,259.875 203.933594,260.742188 203.5,261.9375 C203.664062,262.972656 204.558594,263.738281 205.609375,263.734375 C205.558594,263.617188 205.519531,263.492188 205.5,263.363281 C205.441406,263.019531 205.523438,262.664062 205.726562,262.378906 C205.933594,262.09375 206.242188,261.902344 206.585938,261.847656 C206.941406,261.789062 207.304688,261.882812 207.585938,262.105469 C207.796875,262.105469 207.828125,261.914062 207.726562,261.296875 C207.605469,260.570312 207.144531,259.945312 206.488281,259.617188 L206.207031,259.617188 L206.226562,259.667969 Z" id="Shape" fill="url(#linearGradient-75)" fill-rule="nonzero"></path>
            <path d="M209.464844,261.148438 C209.488281,261.289062 209.488281,261.433594 209.464844,261.578125 C209.433594,261.71875 209.371094,261.851562 209.285156,261.964844 C209.199219,262.078125 209.09375,262.179688 208.976562,262.253906 C208.855469,262.332031 208.71875,262.386719 208.574219,262.40625 C208.292969,262.457031 208,262.386719 207.765625,262.214844 C207.53125,262.046875 207.375,261.792969 207.328125,261.507812 C207.285156,261.21875 207.359375,260.925781 207.527344,260.6875 C207.6875,260.445312 207.945312,260.285156 208.234375,260.246094 C208.519531,260.191406 208.816406,260.257812 209.046875,260.4375 C209.160156,260.519531 209.261719,260.625 209.335938,260.746094 C209.40625,260.871094 209.457031,261.007812 209.484375,261.148438" id="Shape" fill="#4E153F" fill-rule="nonzero"></path>
            <polygon id="Shape" fill="url(#linearGradient-76)" fill-rule="nonzero" points="184.847656 267.941406 174.375 267.941406 172.816406 247.25 186.394531 247.25"></polygon>
            <polygon id="Shape" fill="#E7E6E6" fill-rule="nonzero" points="172.628906 255.601562 186.59375 255.601562 186.59375 258.789062 172.628906 258.789062"></polygon>
            <polygon id="Shape" fill="#E7E6E6" fill-rule="nonzero" points="187.175781 246.050781 184.847656 246.050781 184.585938 245.25 174.246094 245.25 173.988281 246.050781 171.660156 246.050781 170.878906 248.4375 187.953125 248.4375"></polygon>
        </g>
    </g>
</svg>