<?xml version="1.0" encoding="UTF-8"?>
<svg xmlns="http://www.w3.org/2000/svg" xmlns:xlink="http://www.w3.org/1999/xlink" width="475pt" height="499pt" viewBox="0 0 475 499" version="1.1">
<defs>
<linearGradient id="linear0" gradientUnits="userSpaceOnUse" x1="159.699997" y1="402.299988" x2="159.699997" y2="127.589996" gradientTransform="matrix(0.99982,0,0,0.99982,0,0.22779)">
<stop offset="0" style="stop-color:rgb(59.607846%,43.137255%,60.000002%);stop-opacity:1;"/>
<stop offset="1" style="stop-color:rgb(37.64706%,63.529414%,71.764708%);stop-opacity:1;"/>
</linearGradient>
<linearGradient id="linear1" gradientUnits="userSpaceOnUse" x1="103.099998" y1="282.549988" x2="226.940002" y2="282.549988" gradientTransform="matrix(0.99982,0,0,0.99982,0,0.22779)">
<stop offset="0" style="stop-color:rgb(70.588237%,79.215688%,12.156863%);stop-opacity:1;"/>
<stop offset="1" style="stop-color:rgb(16.862746%,60.784316%,44.313726%);stop-opacity:1;"/>
</linearGradient>
<linearGradient id="linear2" gradientUnits="userSpaceOnUse" x1="107.760002" y1="63.82" x2="186.550003" y2="63.82" gradientTransform="matrix(0.99982,0,0,0.99982,0,0.22779)">
<stop offset="0" style="stop-color:rgb(70.588237%,79.215688%,12.156863%);stop-opacity:1;"/>
<stop offset="1" style="stop-color:rgb(16.862746%,60.784316%,44.313726%);stop-opacity:1;"/>
</linearGradient>
<linearGradient id="linear3" gradientUnits="userSpaceOnUse" x1="93.239998" y1="3.96" x2="162.399994" y2="3.96" gradientTransform="matrix(0.979823,-0.0599892,-0.0599892,0.82985,29.374701,89.281729)">
<stop offset="0" style="stop-color:rgb(70.588237%,79.215688%,12.156863%);stop-opacity:1;"/>
<stop offset="1" style="stop-color:rgb(16.862746%,60.784316%,44.313726%);stop-opacity:1;"/>
</linearGradient>
<linearGradient id="linear4" gradientUnits="userSpaceOnUse" x1="-863.960022" y1="-1457.22998" x2="-801.679993" y2="-1457.22998" gradientTransform="matrix(1.009818,0.169969,-0.319942,0.599892,540.902446,1220.58765)">
<stop offset="0" style="stop-color:rgb(70.588237%,79.215688%,12.156863%);stop-opacity:1;"/>
<stop offset="1" style="stop-color:rgb(16.862746%,60.784316%,44.313726%);stop-opacity:1;"/>
</linearGradient>
<filter id="alpha" filterUnits="objectBoundingBox" x="0%" y="0%" width="100%" height="100%">
  <feColorMatrix type="matrix" in="SourceGraphic" values="0 0 0 0 1 0 0 0 0 1 0 0 0 0 1 0 0 0 1 0"/>
</filter>
<mask id="mask0">
  <g filter="url(#alpha)">
<rect x="0" y="0" width="475" height="499" style="fill:rgb(0%,0%,0%);fill-opacity:0.1;stroke:none;"/>
  </g>
</mask>
<clipPath id="clip1">
  <rect x="0" y="0" width="499" height="475"/>
</clipPath>
<g id="surface5" clip-path="url(#clip1)">
<path style=" stroke:none;fill-rule:nonzero;fill:rgb(100%,100%,100%);fill-opacity:1;" d="M 382.390625 363.941406 C 382.390625 365.515625 381.578125 366.792969 380.570312 366.792969 C 379.566406 366.792969 378.75 365.515625 378.75 363.941406 C 378.75 362.367188 379.566406 361.09375 380.570312 361.09375 C 381.578125 361.09375 382.390625 362.367188 382.390625 363.941406 Z M 382.390625 363.941406 "/>
</g>
<mask id="mask1">
  <g filter="url(#alpha)">
<rect x="0" y="0" width="475" height="499" style="fill:rgb(0%,0%,0%);fill-opacity:0.1;stroke:none;"/>
  </g>
</mask>
<clipPath id="clip2">
  <rect x="0" y="0" width="499" height="475"/>
</clipPath>
<g id="surface8" clip-path="url(#clip2)">
<path style=" stroke:none;fill-rule:nonzero;fill:rgb(0.392157%,0.392157%,0.392157%);fill-opacity:1;" d="M 388.089844 347.09375 C 388.089844 347.09375 386.609375 349.375 385.03125 352.304688 C 384.609375 353.085938 384.191406 353.902344 383.78125 354.742188 C 383.78125 354.742188 382.921875 354.0625 382.25 353.394531 C 382.246094 353.359375 382.246094 353.328125 382.25 353.292969 C 383.191406 350.484375 384.75 347.074219 386.988281 346.054688 C 387.160156 345.984375 387.339844 345.90625 387.53125 345.84375 Z M 388.089844 347.09375 "/>
</g>
<mask id="mask2">
  <g filter="url(#alpha)">
<rect x="0" y="0" width="475" height="499" style="fill:rgb(0%,0%,0%);fill-opacity:0.1;stroke:none;"/>
  </g>
</mask>
<clipPath id="clip3">
  <rect x="0" y="0" width="499" height="475"/>
</clipPath>
<g id="surface11" clip-path="url(#clip3)">
<path style=" stroke:none;fill-rule:nonzero;fill:rgb(100%,100%,100%);fill-opacity:1;" d="M 383.691406 354.742188 C 383.691406 354.742188 392.890625 357.472656 394.6875 356.292969 C 394.6875 356.292969 395.339844 348.003906 391.070312 347.484375 C 391.070312 347.484375 388.601562 346.835938 388.070312 347.234375 C 387.539062 347.636719 383.691406 354.742188 383.691406 354.742188 Z M 383.691406 354.742188 "/>
</g>
<mask id="mask3">
  <g filter="url(#alpha)">
<rect x="0" y="0" width="475" height="499" style="fill:rgb(0%,0%,0%);fill-opacity:0.1;stroke:none;"/>
  </g>
</mask>
<clipPath id="clip4">
  <rect x="0" y="0" width="499" height="475"/>
</clipPath>
<g id="surface14" clip-path="url(#clip4)">
<path style=" stroke:none;fill-rule:nonzero;fill:rgb(100%,100%,100%);fill-opacity:1;" d="M 395.609375 348.644531 C 395.609375 348.644531 397.429688 355.523438 398.726562 355.644531 C 400.027344 355.761719 413.105469 355.515625 412.59375 354.644531 C 412.085938 353.773438 406.367188 347.90625 406.367188 347.90625 Z M 395.609375 348.644531 "/>
</g>
<mask id="mask4">
  <g filter="url(#alpha)">
<rect x="0" y="0" width="475" height="499" style="fill:rgb(0%,0%,0%);fill-opacity:0.1;stroke:none;"/>
  </g>
</mask>
<clipPath id="clip5">
  <rect x="0" y="0" width="499" height="475"/>
</clipPath>
<g id="surface17" clip-path="url(#clip5)">
<path style=" stroke:none;fill-rule:nonzero;fill:rgb(100%,100%,100%);fill-opacity:1;" d="M 396.269531 365.5 C 396.269531 367.074219 395.453125 368.351562 394.449219 368.351562 C 393.445312 368.351562 392.628906 367.074219 392.628906 365.5 C 392.628906 363.929688 393.445312 362.652344 394.449219 362.652344 C 395.453125 362.652344 396.269531 363.929688 396.269531 365.5 Z M 396.269531 365.5 "/>
</g>
<mask id="mask5">
  <g filter="url(#alpha)">
<rect x="0" y="0" width="475" height="499" style="fill:rgb(0%,0%,0%);fill-opacity:0.1;stroke:none;"/>
  </g>
</mask>
<clipPath id="clip6">
  <rect x="0" y="0" width="499" height="475"/>
</clipPath>
<g id="surface20" clip-path="url(#clip6)">
<path style=" stroke:none;fill-rule:nonzero;fill:rgb(100%,100%,100%);fill-opacity:1;" d="M 399.496094 360.054688 C 399.496094 360.054688 399.246094 356.292969 403.257812 357.851562 C 407.265625 359.414062 404.6875 361.09375 404.6875 361.09375 Z M 399.496094 360.054688 "/>
</g>
<mask id="mask6">
  <g filter="url(#alpha)">
<rect x="0" y="0" width="475" height="499" style="fill:rgb(0%,0%,0%);fill-opacity:0.1;stroke:none;"/>
  </g>
</mask>
<clipPath id="clip7">
  <rect x="0" y="0" width="499" height="475"/>
</clipPath>
<g id="surface23" clip-path="url(#clip7)">
<path style=" stroke:none;fill-rule:nonzero;fill:rgb(100%,100%,100%);fill-opacity:1;" d="M 415.925781 358.242188 L 415.925781 358.761719 L 415.273438 359.011719 L 413.957031 358.761719 C 413.957031 358.761719 413.675781 356.632812 414.753906 356.035156 C 415.335938 356.652344 415.738281 357.414062 415.925781 358.242188 Z M 415.925781 358.242188 "/>
</g>
<mask id="mask7">
  <g filter="url(#alpha)">
<rect x="0" y="0" width="475" height="499" style="fill:rgb(0%,0%,0%);fill-opacity:0.1;stroke:none;"/>
  </g>
</mask>
<clipPath id="clip8">
  <rect x="0" y="0" width="499" height="475"/>
</clipPath>
<g id="surface26" clip-path="url(#clip8)">
<path style=" stroke:none;fill-rule:nonzero;fill:rgb(0.392157%,0.392157%,0.392157%);fill-opacity:1;" d="M 415.925781 358.261719 L 415.925781 359.261719 C 415.925781 359.261719 399.058594 360.421875 397.257812 360.421875 C 396.480469 359.90625 395.511719 359.765625 394.617188 360.03125 C 394.378906 360.132812 394.152344 360.261719 393.949219 360.421875 L 393.777344 360.574219 C 393.53125 360.796875 393.316406 361.058594 393.140625 361.34375 C 392.410156 362.828125 392.097656 364.484375 392.230469 366.132812 C 388.859375 367.132812 385.359375 364.441406 385.359375 364.441406 C 384.9375 363.042969 384.34375 361.699219 383.589844 360.441406 C 383.269531 359.898438 382.800781 359.453125 382.242188 359.164062 L 381.089844 358.164062 L 381.089844 357.542969 L 390.5 364.382812 C 390.5 364.382812 391.410156 358.542969 393.5 358.933594 C 395.5625 359.203125 397.636719 359.332031 399.71875 359.324219 Z M 415.925781 358.261719 "/>
</g>
<mask id="mask8">
  <g filter="url(#alpha)">
<rect x="0" y="0" width="475" height="499" style="fill:rgb(0%,0%,0%);fill-opacity:0.1;stroke:none;"/>
  </g>
</mask>
<clipPath id="clip9">
  <rect x="0" y="0" width="499" height="475"/>
</clipPath>
<g id="surface29" clip-path="url(#clip9)">
<path style=" stroke:none;fill-rule:nonzero;fill:rgb(0.392157%,0.392157%,0.392157%);fill-opacity:1;" d="M 330.28125 346.796875 C 331.246094 346.019531 332.101562 345.113281 332.820312 344.105469 C 333.398438 343.132812 333.84375 342.082031 334.140625 340.988281 C 335.113281 337.898438 335.949219 334.769531 336.648438 331.597656 C 332.828125 331.019531 329.980469 327.648438 326.25 326.660156 C 326.160156 326.660156 323.300781 343.785156 323.101562 345.355469 C 322.921875 346.644531 321.453125 352.824219 323.101562 352.863281 C 324 352.863281 325.882812 350.632812 326.550781 350.035156 Z M 330.28125 346.796875 "/>
</g>
<mask id="mask9">
  <g filter="url(#alpha)">
<rect x="0" y="0" width="475" height="499" style="fill:rgb(0%,0%,0%);fill-opacity:0.1;stroke:none;"/>
  </g>
</mask>
<clipPath id="clip10">
  <rect x="0" y="0" width="499" height="475"/>
</clipPath>
<g id="surface32" clip-path="url(#clip10)">
<path style=" stroke:none;fill-rule:nonzero;fill:rgb(0.392157%,0.392157%,0.392157%);fill-opacity:1;" d="M 329.78125 271.507812 C 329.5625 271.617188 329.3125 271.75 329.25 271.988281 C 329.21875 272.246094 329.304688 272.5 329.480469 272.6875 L 331.941406 276.179688 C 334.34375 279.703125 336.945312 283.089844 339.738281 286.316406 C 341.890625 288.707031 344.25 290.898438 346.789062 292.875 C 347.558594 293.371094 348.191406 294.0625 348.617188 294.875 C 347.058594 290.257812 347.335938 285.21875 349.386719 280.796875 C 350.207031 279.058594 351.285156 277.449219 352.136719 275.726562 C 352.378906 275.425781 352.34375 274.988281 352.054688 274.726562 C 351.964844 274.652344 351.859375 274.597656 351.746094 274.566406 C 349.578125 273.457031 347.207031 272.777344 345.046875 271.648438 C 343.386719 270.707031 341.804688 269.636719 340.308594 268.449219 C 338.949219 267.449219 337.140625 265.628906 335.46875 265.199219 C 333.800781 264.769531 333.730469 266.378906 333.148438 267.757812 C 332.488281 269.355469 331.296875 270.679688 329.78125 271.507812 Z M 329.78125 271.507812 "/>
</g>
<linearGradient id="linear5" gradientUnits="userSpaceOnUse" x1="286.410004" y1="297.880005" x2="356.609985" y2="297.880005" gradientTransform="matrix(0.99982,0,0,0.99982,0,0.22779)">
<stop offset="0" style="stop-color:rgb(90.588236%,16.862746%,47.843137%);stop-opacity:1;"/>
<stop offset="0.36" style="stop-color:rgb(80.000001%,11.372549%,44.313726%);stop-opacity:1;"/>
<stop offset="1" style="stop-color:rgb(33.333334%,11.372549%,32.156864%);stop-opacity:1;"/>
</linearGradient>
<mask id="mask10">
  <g filter="url(#alpha)">
<rect x="0" y="0" width="475" height="499" style="fill:rgb(0%,0%,0%);fill-opacity:0.1;stroke:none;"/>
  </g>
</mask>
<clipPath id="clip11">
  <rect x="0" y="0" width="499" height="475"/>
</clipPath>
<g id="surface35" clip-path="url(#clip11)">
<path style=" stroke:none;fill-rule:nonzero;fill:rgb(0.392157%,0.392157%,0.392157%);fill-opacity:1;" d="M 381.621094 266.910156 L 376.933594 258.742188 C 375.734375 260.234375 374.363281 261.578125 372.84375 262.742188 C 372.699219 262.878906 372.503906 262.953125 372.304688 262.941406 C 372.101562 262.890625 371.992188 262.679688 371.914062 262.480469 C 371.429688 261.320312 371.078125 260.117188 370.851562 258.882812 C 370.019531 260.523438 368.480469 261.691406 366.675781 262.050781 L 366.675781 257.589844 C 363.414062 259.300781 362.265625 263.28125 360.523438 266.519531 C 360.300781 267.039062 359.914062 267.472656 359.425781 267.757812 C 359.003906 267.902344 358.554688 267.9375 358.117188 267.871094 L 354.117188 267.578125 C 353.949219 268.992188 353.613281 270.378906 353.117188 271.707031 C 350.6875 267.9375 346.417969 265.757812 341.9375 266.011719 C 339.769531 266.160156 337.328125 267.230469 336.9375 269.359375 L 336.730469 269.128906 C 337.128906 269.777344 336.238281 270.597656 335.488281 270.429688 C 334.769531 270.15625 334.195312 269.601562 333.898438 268.890625 C 332.148438 265.761719 330.996094 262.332031 330.5 258.78125 C 330.382812 257.160156 330.074219 255.5625 329.589844 254.011719 C 329.242188 253.101562 328.722656 252.253906 328.441406 251.324219 C 328.441406 251.324219 328.441406 251.261719 328.441406 251.234375 C 328.441406 251.414062 328.390625 251.601562 328.371094 251.78125 C 328.121094 253.179688 328.152344 254.613281 328.460938 256 C 328.742188 256.941406 329.261719 257.78125 329.609375 258.679688 C 330.09375 260.234375 330.398438 261.835938 330.519531 263.460938 C 331.015625 267.011719 332.167969 270.441406 333.917969 273.570312 C 334.214844 274.277344 334.789062 274.835938 335.507812 275.109375 C 336.25 275.277344 337.148438 274.457031 336.75 273.808594 L 336.960938 274.039062 C 337.390625 271.910156 339.828125 270.828125 341.957031 270.6875 C 346.417969 270.445312 350.667969 272.609375 353.097656 276.359375 C 353.59375 275.027344 353.929688 273.640625 354.097656 272.230469 L 358.09375 272.519531 C 358.535156 272.589844 358.984375 272.546875 359.40625 272.398438 C 359.902344 272.121094 360.289062 271.683594 360.503906 271.160156 C 362.234375 267.917969 363.394531 263.941406 366.652344 262.230469 L 366.652344 266.699219 C 368.464844 266.347656 370.011719 265.171875 370.832031 263.519531 C 371.0625 264.777344 371.433594 266.003906 371.933594 267.179688 C 372.011719 267.371094 372.121094 267.589844 372.324219 267.628906 C 372.523438 267.648438 372.71875 267.582031 372.863281 267.441406 C 374.382812 266.277344 375.753906 264.933594 376.953125 263.441406 L 381.671875 271.609375 C 383.347656 267.269531 384.03125 262.609375 383.671875 257.972656 C 383.433594 261.035156 382.742188 264.046875 381.621094 266.910156 Z M 381.621094 266.910156 "/>
</g>
</defs>
<g id="surface1">
<path style=" stroke:none;fill-rule:nonzero;fill:rgb(18.82353%,18.82353%,25.882354%);fill-opacity:1;" d="M 165.96875 120.734375 C 165.96875 120.734375 182.265625 124.226562 184.695312 122.597656 C 186.183594 121.664062 188.070312 121.664062 189.554688 122.597656 C 203.34375 117.328125 189.4375 101.257812 189.027344 94.78125 C 188.835938 91.78125 187.027344 88.203125 185.027344 85.273438 C 183.660156 83.203125 182.148438 81.230469 180.507812 79.375 Z M 165.96875 120.734375 "/>
<path style=" stroke:none;fill-rule:nonzero;fill:rgb(63.137257%,38.431373%,41.568628%);fill-opacity:1;" d="M 151.242188 105.578125 C 151.242188 114.46875 133.464844 134.011719 133.464844 134.011719 L 167.238281 186.453125 C 167.238281 186.453125 180.578125 133.132812 172.578125 130.464844 C 164.582031 127.792969 173.457031 115.355469 173.457031 115.355469 Z M 151.242188 105.578125 "/>
<path style=" stroke:none;fill-rule:nonzero;fill:rgb(63.137257%,38.431373%,41.568628%);fill-opacity:1;" d="M 112.140625 193.5625 L 136.136719 208.679688 L 129.917969 218.449219 C 129.917969 218.449219 124.578125 214.007812 124.578125 213.121094 C 124.578125 212.230469 89.035156 195.34375 85.472656 192.683594 C 81.914062 190.023438 93.472656 178.457031 93.472656 178.457031 Z M 112.140625 193.5625 "/>
<path style=" stroke:none;fill-rule:nonzero;fill:rgb(63.137257%,38.431373%,41.568628%);fill-opacity:1;" d="M 207.8125 192.382812 C 207.8125 192.382812 184.125 207.789062 183.238281 209.570312 C 182.347656 211.351562 189.464844 231.785156 193.964844 231.007812 C 198.464844 230.226562 193.863281 215.789062 193.863281 215.789062 C 193.863281 215.789062 215.203125 198.902344 222.308594 192.683594 C 229.417969 186.464844 220.570312 172.195312 220.570312 172.195312 Z M 207.8125 192.382812 "/>
<path style=" stroke:none;fill-rule:nonzero;fill:rgb(63.137257%,38.431373%,41.568628%);fill-opacity:1;" d="M 217.191406 394.777344 L 222.550781 414.242188 L 235.308594 413.714844 L 228.738281 389.449219 Z M 217.191406 394.777344 "/>
<path style=" stroke:none;fill-rule:nonzero;fill:rgb(63.137257%,38.431373%,41.568628%);fill-opacity:1;" d="M 137.914062 390.878906 L 142.355469 410.433594 L 151.242188 410.433594 L 151.242188 390.878906 Z M 137.914062 390.878906 "/>
<path style=" stroke:none;fill-rule:nonzero;fill:rgb(63.137257%,38.431373%,41.568628%);fill-opacity:1;" d="M 186.796875 101.128906 C 186.796875 111.929688 178.039062 120.6875 167.238281 120.6875 C 156.4375 120.6875 147.683594 111.929688 147.683594 101.128906 C 147.683594 90.328125 156.4375 81.574219 167.238281 81.574219 C 178.039062 81.574219 186.796875 90.328125 186.796875 101.128906 Z M 186.796875 101.128906 "/>
<path style=" stroke:none;fill-rule:evenodd;fill:url(#linear0);" d="M 138.746094 127.792969 C 138.746094 127.792969 136.136719 131.355469 126.355469 134.011719 C 116.578125 136.671875 89.035156 162.457031 88.144531 181.125 C 87.253906 199.792969 111.25 194.453125 111.25 194.453125 C 111.25 194.453125 133.464844 198.011719 133.464844 198.902344 C 133.464844 199.792969 132.574219 205.121094 132.574219 205.121094 C 118.359375 222.898438 116.578125 253.113281 116.578125 253.113281 C 116.578125 253.113281 107.691406 385.546875 109.46875 396.207031 C 111.25 406.863281 153.914062 400.65625 153.914062 400.65625 L 155.691406 281.558594 C 155.691406 281.558594 173.457031 388.207031 177.019531 397.097656 C 180.578125 405.984375 231.238281 394.4375 231.238281 394.4375 C 231.238281 394.4375 189.464844 217.570312 189.464844 206.011719 C 189.464844 194.453125 202.792969 191.792969 202.792969 191.792969 C 202.792969 191.792969 217.011719 194.453125 217.902344 189.125 C 218.789062 183.792969 224.121094 175.796875 224.121094 175.796875 C 224.121094 175.796875 213.460938 152.679688 203.683594 140.203125 C 193.90625 127.726562 172.578125 130.425781 172.578125 130.425781 L 161.019531 170.417969 Z M 138.746094 127.792969 "/>
<path style=" stroke:none;fill-rule:nonzero;fill:rgb(18.82353%,18.82353%,25.882354%);fill-opacity:1;" d="M 220.558594 408.273438 C 220.558594 408.273438 218.730469 428.050781 218.78125 430.859375 C 218.832031 433.371094 236.566406 434.058594 238.347656 431.390625 C 240.125 428.71875 246.34375 431.390625 246.34375 433.167969 C 246.34375 434.949219 264.121094 433.691406 264.121094 433.691406 C 287.226562 423.03125 260.8125 420.082031 260.8125 420.082031 C 260.8125 420.082031 245.074219 412.652344 237.957031 409.992188 C 230.839844 407.335938 233.699219 408.925781 233.699219 408.925781 C 231.957031 415.152344 220.558594 408.273438 220.558594 408.273438 Z M 220.558594 408.273438 "/>
<path style=" stroke:none;fill-rule:nonzero;fill:rgb(18.82353%,18.82353%,25.882354%);fill-opacity:1;" d="M 135.246094 427.320312 C 134.355469 428.210938 137.023438 439.757812 149.464844 437.980469 C 161.902344 436.199219 158.351562 422.871094 158.351562 421.09375 C 157.777344 414.832031 156.890625 408.605469 155.691406 402.433594 C 154.800781 398.875 139.695312 405.09375 139.695312 405.09375 C 139.695312 405.09375 136.136719 426.429688 135.246094 427.320312 Z M 135.246094 427.320312 "/>
<path style=" stroke:none;fill-rule:nonzero;fill:rgb(18.82353%,18.82353%,25.882354%);fill-opacity:1;" d="M 182.96875 83.023438 C 182.117188 85.8125 181.449219 88.65625 180.96875 91.53125 C 180.566406 94.78125 172.859375 95.589844 172.859375 95.589844 C 173.679688 95.589844 173.679688 90.722656 173.679688 90.722656 C 173.679688 93.5625 169.21875 96.402344 169.21875 96.402344 C 165.148438 98.8125 161.457031 101.820312 158.269531 105.320312 C 152.59375 111.398438 159.890625 112.207031 159.890625 112.207031 C 159.351562 121.976562 139.34375 125.933594 139.34375 125.933594 C 116.238281 117.828125 133.835938 90.089844 133.835938 90.089844 C 151.273438 57.667969 165.371094 71.875 165.371094 71.875 C 180.539062 69.644531 182.96875 83.023438 182.96875 83.023438 Z M 182.96875 83.023438 "/>
<path style=" stroke:none;fill-rule:nonzero;fill:url(#linear1);" d="M 133.554688 204.820312 L 190.4375 205.710938 L 226.898438 354.683594 C 226.898438 354.683594 150.554688 368.441406 103.082031 353.992188 C 103.082031 354.023438 104.832031 238.804688 133.554688 204.820312 Z M 133.554688 204.820312 "/>
<path style=" stroke:none;fill-rule:nonzero;fill:url(#linear2);" d="M 169.4375 45.480469 C 168.011719 45.9375 166.664062 46.613281 165.441406 47.480469 C 156.121094 38.332031 139.933594 38.332031 129.285156 47.480469 C 124.871094 51.175781 121.886719 56.300781 120.847656 61.964844 C 113.5 62.496094 107.621094 68.367188 107.710938 75.0625 C 107.800781 81.761719 113.878906 86.753906 121.226562 86.210938 C 124.304688 85.988281 127.234375 84.8125 129.617188 82.851562 C 140.414062 90.542969 156.613281 88.34375 165.730469 77.945312 C 168.042969 75.339844 169.773438 72.269531 170.808594 68.945312 C 178.046875 69.714844 184.976562 64.945312 186.296875 58.246094 C 187.617188 51.546875 182.828125 45.539062 175.597656 44.769531 C 173.519531 44.570312 171.417969 44.8125 169.4375 45.480469 Z M 169.4375 45.480469 "/>
<path style=" stroke:none;fill-rule:nonzero;fill:url(#linear3);" d="M 186.386719 86.121094 C 166.789062 89.882812 147.757812 96.160156 129.765625 104.800781 C 128.855469 105.347656 127.683594 105.175781 126.96875 104.390625 C 126.917969 104.308594 126.875 104.21875 126.847656 104.128906 L 120.726562 85.59375 L 182.226562 65.316406 L 188.335938 83.851562 C 188.605469 84.671875 187.90625 85.652344 186.765625 86.023438 Z M 186.386719 86.121094 "/>
<path style=" stroke:none;fill-rule:nonzero;fill:rgb(25.882354%,23.921569%,33.725491%);fill-opacity:1;" d="M 121.757812 72.09375 L 121.476562 72.183594 C 120.394531 68.886719 120.136719 65.375 120.726562 61.957031 L 121.019531 61.957031 C 120.417969 65.34375 120.675781 68.828125 121.757812 72.09375 Z M 121.757812 72.09375 "/>
<path style=" stroke:none;fill-rule:nonzero;fill:rgb(25.882354%,23.921569%,33.725491%);fill-opacity:1;" d="M 170.898438 55.886719 L 170.621094 55.976562 C 169.570312 52.792969 167.769531 49.910156 165.371094 47.570312 L 165.582031 47.378906 C 168.011719 49.746094 169.835938 52.664062 170.898438 55.886719 Z M 170.898438 55.886719 "/>
<path style=" stroke:none;fill-rule:nonzero;fill:rgb(25.882354%,23.921569%,33.725491%);fill-opacity:1;" d="M 122.71875 91.5 L 122.566406 91.292969 C 128.523438 87.898438 134.691406 84.890625 141.035156 82.292969 C 151.324219 78.035156 167.160156 72.59375 184.125 70.945312 L 184.125 71.203125 C 167.191406 72.855469 151.394531 78.273438 141.132812 82.53125 C 134.808594 85.121094 128.65625 88.117188 122.71875 91.5 Z M 122.71875 91.5 "/>
<path style=" stroke:none;fill-rule:nonzero;fill:rgb(25.882354%,23.921569%,33.725491%);fill-opacity:1;" d="M 123.808594 94.820312 L 123.667969 94.601562 C 129.621094 91.207031 135.785156 88.203125 142.125 85.601562 C 152.421875 81.332031 168.25 75.902344 185.226562 74.246094 L 185.226562 74.503906 C 168.300781 76.164062 152.503906 81.582031 142.234375 85.832031 C 135.90625 88.425781 129.75 91.429688 123.808594 94.820312 Z M 123.808594 94.820312 "/>
<path style=" stroke:none;fill-rule:nonzero;fill:rgb(25.882354%,23.921569%,33.725491%);fill-opacity:1;" d="M 124.90625 98.128906 L 124.757812 97.910156 C 130.710938 94.515625 136.882812 91.511719 143.222656 88.910156 C 153.511719 84.652344 169.347656 79.214844 186.316406 77.5625 L 186.316406 77.824219 C 169.390625 79.472656 153.59375 84.890625 143.324219 89.152344 C 137 91.746094 130.847656 94.742188 124.90625 98.128906 Z M 124.90625 98.128906 "/>
<path style=" stroke:none;fill-rule:nonzero;fill:url(#linear4);" d="M 191.144531 215.96875 C 170.105469 214.511719 148.972656 215.035156 128.027344 217.527344 C 126.777344 217.679688 125.566406 217.269531 125.328125 216.617188 C 125.316406 216.550781 125.316406 216.476562 125.328125 216.410156 C 125.328125 216.410156 129.535156 204.191406 133.847656 202.53125 C 143.632812 198.761719 190.726562 203.421875 190.726562 203.421875 L 193.886719 214.710938 C 193.886719 215.378906 192.886719 215.9375 191.605469 215.96875 Z M 191.144531 215.96875 "/>
<path style=" stroke:none;fill-rule:nonzero;fill:rgb(25.882354%,23.921569%,33.725491%);fill-opacity:1;" d="M 129.476562 207.441406 L 129.398438 207.25 C 135.402344 206.199219 141.460938 205.476562 147.542969 205.089844 C 159.140625 204.171875 173.859375 203.222656 191.324219 205.660156 L 191.253906 205.851562 C 173.828125 203.421875 159.160156 204.371094 147.574219 205.289062 C 141.507812 205.671875 135.464844 206.390625 129.476562 207.441406 Z M 129.476562 207.441406 "/>
<path style=" stroke:none;fill-rule:nonzero;fill:rgb(25.882354%,23.921569%,33.725491%);fill-opacity:1;" d="M 127.976562 210.328125 L 127.90625 210.140625 C 127.988281 210.140625 135.054688 208.769531 147.632812 207.769531 C 159.242188 206.851562 174.71875 206.109375 192.183594 208.550781 L 192.117188 208.738281 C 174.6875 206.3125 159.25 207.050781 147.671875 207.960938 C 135.085938 208.960938 128.035156 210.320312 127.976562 210.328125 Z M 127.976562 210.328125 "/>
<path style=" stroke:none;fill-rule:nonzero;fill:rgb(25.882354%,23.921569%,33.725491%);fill-opacity:1;" d="M 126.675781 213.1875 L 126.597656 213 C 126.6875 213 135.09375 211.441406 147.671875 210.441406 C 162.753906 209.140625 177.929688 209.476562 192.933594 211.441406 L 192.863281 211.640625 C 177.890625 209.675781 162.75 209.34375 147.703125 210.640625 C 135.15625 211.628906 126.757812 213.1875 126.675781 213.1875 Z M 126.675781 213.1875 "/>
<path style=" stroke:none;fill-rule:nonzero;fill:rgb(9.411765%,14.117648%,20.392157%);fill-opacity:1;" d="M 378.53125 362.164062 C 378.898438 360.648438 379.992188 359.410156 381.453125 358.863281 C 382.914062 358.316406 384.550781 358.53125 385.820312 359.433594 L 386.019531 359.574219 C 390.167969 362.683594 387.699219 368.382812 386.019531 368.511719 C 384.339844 368.640625 381.089844 368.78125 381.089844 368.78125 C 381.089844 368.78125 377.261719 367.160156 378.53125 362.164062 Z M 378.53125 362.164062 "/>
<path style=" stroke:none;fill-rule:nonzero;fill:rgb(34.117648%,36.862746%,65.490198%);fill-opacity:1;" d="M 415.925781 358.242188 L 415.925781 359.242188 C 415.925781 359.242188 399.058594 360.402344 397.257812 360.402344 L 393.929688 360.402344 L 393.800781 360.554688 C 393.660156 360.703125 393.417969 360.984375 393.160156 361.324219 C 392.558594 362.039062 392.109375 362.875 391.847656 363.773438 C 391.769531 364.574219 391.347656 365.304688 390.691406 365.773438 L 387.320312 364.863281 L 384.0625 360.972656 L 383.589844 360.523438 L 382.242188 359.234375 L 381.089844 358.132812 L 381.089844 357.414062 C 381.371094 356.082031 381.722656 354.765625 382.152344 353.472656 C 382.144531 353.441406 382.144531 353.40625 382.152344 353.375 C 383.082031 350.566406 384.640625 347.15625 386.890625 346.136719 C 387.058594 346.054688 387.238281 345.984375 387.429688 345.914062 L 387.660156 345.835938 C 391.96875 344.394531 400.109375 344.964844 400.109375 344.964844 C 400.109375 344.964844 406.335938 346.785156 406.855469 347.566406 C 407.375 348.34375 413.265625 354.753906 413.265625 354.753906 C 413.785156 355.144531 414.265625 355.585938 414.695312 356.074219 C 415.304688 356.664062 415.730469 357.417969 415.925781 358.242188 Z M 415.925781 358.242188 "/>
<use xlink:href="#surface5" mask="url(#mask0)"/>
<use xlink:href="#surface8" mask="url(#mask1)"/>
<use xlink:href="#surface11" mask="url(#mask2)"/>
<use xlink:href="#surface14" mask="url(#mask3)"/>
<path style=" stroke:none;fill-rule:nonzero;fill:rgb(9.411765%,14.117648%,20.392157%);fill-opacity:1;" d="M 393.390625 361.082031 C 393.390625 361.082031 395.738281 357.984375 399.886719 361.082031 C 404.039062 364.183594 401.578125 369.902344 399.886719 370.03125 C 398.199219 370.160156 394.980469 370.292969 394.980469 370.292969 C 394.980469 370.292969 389.859375 368.160156 393.390625 361.082031 Z M 393.390625 361.082031 "/>
<path style=" stroke:none;fill-rule:nonzero;fill:rgb(9.411765%,14.117648%,20.392157%);fill-opacity:1;" d="M 417.855469 361.871094 C 417.527344 360.929688 416.835938 360.160156 415.9375 359.726562 C 415.039062 359.296875 414.003906 359.242188 413.066406 359.574219 L 412.777344 359.691406 C 412.3125 359.910156 411.875 360.175781 411.464844 360.484375 C 407.777344 363.253906 409.976562 368.332031 411.464844 368.480469 L 413.464844 368.601562 C 416.011719 368.730469 418.179688 366.777344 418.316406 364.230469 C 418.34375 363.800781 418.304688 363.371094 418.203125 362.953125 C 418.109375 362.585938 417.992188 362.226562 417.855469 361.871094 Z M 417.855469 361.871094 "/>
<use xlink:href="#surface17" mask="url(#mask4)"/>
<use xlink:href="#surface20" mask="url(#mask5)"/>
<use xlink:href="#surface23" mask="url(#mask6)"/>
<use xlink:href="#surface26" mask="url(#mask7)"/>
<path style=" stroke:none;fill-rule:nonzero;fill:rgb(34.117648%,36.862746%,65.490198%);fill-opacity:1;" d="M 380.570312 357.464844 C 380.570312 357.464844 379.792969 359.414062 380.570312 359.542969 C 381.351562 359.671875 383.101562 358.054688 385.371094 364.851562 C 385.371094 364.851562 388.871094 367.582031 392.238281 366.542969 C 392.238281 366.542969 391.839844 361.613281 394.640625 360.441406 C 397.4375 359.273438 402.085938 365.113281 402.085938 365.113281 L 402.085938 366.410156 L 413.085938 365.242188 C 413.085938 365.242188 416.453125 362.652344 416.324219 358.632812 L 399.726562 359.632812 C 397.648438 359.640625 395.570312 359.511719 393.507812 359.242188 C 391.4375 358.851562 390.507812 364.691406 390.507812 364.691406 Z M 380.570312 357.464844 "/>
<path style=" stroke:none;fill-rule:nonzero;fill:rgb(9.411765%,14.117648%,20.392157%);fill-opacity:1;" d="M 333.90625 322.007812 C 337.734375 322.007812 340.839844 325.113281 340.839844 328.945312 C 340.839844 332.773438 337.734375 335.878906 333.90625 335.878906 C 330.074219 335.878906 326.972656 332.773438 326.972656 328.945312 C 326.972656 325.113281 330.074219 322.007812 333.90625 322.007812 Z M 333.90625 322.007812 "/>
<path style=" stroke:none;fill-rule:nonzero;fill:rgb(25.882354%,23.921569%,33.725491%);fill-opacity:1;" d="M 330.28125 346.796875 C 331.246094 346.019531 332.101562 345.113281 332.820312 344.105469 C 333.398438 343.132812 333.84375 342.082031 334.140625 340.988281 C 335.113281 337.898438 335.949219 334.769531 336.648438 331.597656 C 332.828125 331.019531 329.980469 327.648438 326.25 326.660156 C 326.160156 326.660156 323.300781 343.785156 323.101562 345.355469 C 322.921875 346.644531 321.453125 352.824219 323.101562 352.863281 C 324 352.863281 325.882812 350.632812 326.550781 350.035156 Z M 330.28125 346.796875 "/>
<use xlink:href="#surface29" mask="url(#mask8)"/>
<path style=" stroke:none;fill-rule:nonzero;fill:rgb(98.823529%,77.64706%,21.568628%);fill-opacity:1;" d="M 283.109375 303.511719 C 282.683594 303.535156 282.269531 303.65625 281.898438 303.863281 C 281.398438 304.203125 281.269531 304.863281 281.039062 305.414062 C 280.726562 306.132812 280.203125 306.738281 279.539062 307.152344 C 278.921875 307.398438 278.371094 307.792969 277.941406 308.300781 C 277.746094 308.6875 277.652344 309.113281 277.667969 309.542969 C 277.625 310.8125 277.683594 312.082031 277.839844 313.339844 C 277.964844 313.96875 277.984375 314.609375 277.898438 315.242188 C 277.6875 315.949219 277.328125 316.605469 276.851562 317.171875 C 275.6875 318.53125 274.945312 320.195312 274.710938 321.96875 C 274.777344 322.859375 274.753906 323.753906 274.640625 324.640625 C 274.242188 326.179688 272.640625 327.179688 272.289062 328.730469 C 272.253906 329.195312 272.171875 329.65625 272.050781 330.109375 C 271.730469 330.847656 270.871094 331.257812 270.652344 332.027344 C 270.59375 332.621094 270.628906 333.222656 270.75 333.808594 C 270.6875 334.683594 270.382812 335.523438 269.871094 336.238281 L 267.292969 340.625 C 266.351562 341.984375 265.722656 343.535156 265.453125 345.164062 C 265.414062 346.636719 265.695312 348.101562 266.28125 349.453125 C 267.390625 352.515625 269.03125 355.761719 272.070312 356.945312 C 273.914062 357.496094 275.859375 357.625 277.761719 357.324219 C 280.386719 357.195312 282.996094 356.8125 285.546875 356.171875 C 286.796875 355.824219 288.027344 355.34375 289.289062 355.09375 C 290.140625 354.972656 290.984375 354.796875 291.816406 354.574219 C 293.605469 353.929688 294.902344 352.363281 295.195312 350.484375 C 296.277344 350.90625 297.277344 349.484375 297.125 348.335938 C 296.976562 347.183594 296.195312 346.214844 295.886719 345.09375 C 295.535156 343.515625 295.800781 341.859375 296.625 340.464844 C 297.375 339.046875 298.394531 337.796875 299.214844 336.46875 C 300.117188 334.921875 300.742188 333.230469 301.066406 331.46875 C 301.402344 329.074219 301.460938 326.648438 301.234375 324.238281 L 300.726562 315.011719 C 300.746094 313.296875 300.421875 311.597656 299.777344 310.011719 C 298.847656 308.398438 297.550781 307.027344 295.988281 306.011719 C 293.796875 304.34375 291.496094 302.820312 289.109375 301.453125 C 287.566406 300.59375 287.679688 300.921875 286.449219 301.953125 C 285.5 302.769531 284.34375 303.308594 283.109375 303.511719 Z M 283.109375 303.511719 "/>
<path style=" stroke:none;fill-rule:nonzero;fill:rgb(98.823529%,77.64706%,21.568628%);fill-opacity:1;" d="M 303.945312 329.167969 C 302.132812 330.480469 300.492188 332.015625 299.066406 333.738281 C 297.4375 335.902344 296.511719 338.519531 296.417969 341.226562 C 296.40625 342.496094 296.496094 343.761719 296.6875 345.015625 C 296.957031 347.015625 297.425781 349.335938 299.15625 350.464844 C 300.234375 351.175781 301.734375 351.355469 302.476562 352.464844 C 302.667969 352.808594 302.882812 353.144531 303.117188 353.464844 C 303.667969 353.941406 304.382812 354.1875 305.113281 354.152344 C 306.183594 354.214844 307.253906 354.183594 308.3125 354.054688 C 309.511719 353.808594 310.738281 353.75 311.953125 353.875 C 314.292969 354.3125 316.03125 356.511719 318.402344 356.8125 C 320.402344 357.0625 322.210938 355.914062 323.863281 354.8125 C 325.511719 353.714844 327.332031 352.496094 328.25 350.675781 C 328.996094 348.828125 329.265625 346.824219 329.03125 344.84375 C 329.039062 342.640625 328.785156 340.441406 328.28125 338.296875 C 328.097656 337.742188 327.960938 337.175781 327.871094 336.597656 C 327.691406 335.105469 328.359375 333.648438 328.871094 332.21875 C 329.640625 330.058594 329.980469 327.390625 328.441406 325.679688 C 327.753906 324.964844 326.890625 324.445312 325.941406 324.167969 C 321.941406 322.71875 317.460938 323.269531 313.332031 323.917969 C 309.414062 324.558594 307.054688 326.738281 303.945312 329.167969 Z M 303.945312 329.167969 "/>
<path style=" stroke:none;fill-rule:nonzero;fill:rgb(63.137257%,38.431373%,41.568628%);fill-opacity:1;" d="M 338.128906 320.609375 C 336.46875 322.960938 335.011719 325.449219 333.78125 328.046875 C 332.984375 329.953125 332.316406 331.90625 331.78125 333.898438 C 330.179688 339.40625 328.601562 345.027344 325.421875 349.792969 C 324.902344 350.433594 324.558594 351.195312 324.421875 352.003906 C 324.457031 352.777344 324.6875 353.527344 325.101562 354.183594 C 326.398438 357.179688 328.554688 359.71875 331.300781 361.484375 C 333.949219 363.480469 336.910156 365.570312 340.230469 365.421875 C 340.921875 365.445312 341.597656 365.195312 342.109375 364.722656 C 342.519531 364.1875 342.679688 363.503906 342.546875 362.84375 C 342.296875 360.792969 340.757812 359.191406 339.367188 357.683594 C 337.980469 356.171875 336.570312 354.394531 336.6875 352.335938 C 336.769531 350.632812 337.890625 349.175781 338.957031 347.84375 C 340.179688 346.324219 341.410156 344.84375 342.558594 343.226562 C 347.429688 336.320312 351.285156 328.746094 353.996094 320.738281 C 355.207031 317.390625 356.296875 313.859375 355.925781 310.320312 C 353.195312 309.652344 347.738281 307.414062 345.4375 309.722656 C 344.039062 311.121094 343.046875 313.203125 341.957031 314.851562 Z M 338.128906 320.609375 "/>
<path style=" stroke:none;fill-rule:nonzero;fill:rgb(98.823529%,77.64706%,21.568628%);fill-opacity:1;" d="M 361.164062 297.324219 C 359.441406 300.335938 358.097656 303.550781 357.164062 306.890625 C 356.875 307.683594 356.78125 308.535156 356.894531 309.371094 C 357.1875 310.222656 357.605469 311.023438 358.136719 311.75 C 358.675781 312.488281 358.8125 313.445312 358.496094 314.300781 C 356.550781 314.335938 354.617188 314.03125 352.777344 313.402344 L 346.9375 311.761719 C 346.199219 311.683594 345.542969 311.253906 345.179688 310.605469 C 344.816406 309.957031 344.789062 309.171875 345.109375 308.503906 C 346.257812 300.953125 349.945312 293.984375 351.328125 286.507812 C 351.382812 285.386719 351.835938 284.324219 352.605469 283.507812 C 355.085938 281.507812 360.703125 283.207031 361.984375 286.046875 C 363.382812 289.175781 362.792969 294.496094 361.164062 297.324219 Z M 361.164062 297.324219 "/>
<path style=" stroke:none;fill-rule:nonzero;fill:rgb(96.470588%,74.117649%,74.509805%);fill-opacity:1;" d="M 329.78125 271.507812 C 329.5625 271.617188 329.3125 271.75 329.25 271.988281 C 329.21875 272.246094 329.304688 272.5 329.480469 272.6875 L 331.941406 276.179688 C 334.34375 279.703125 336.945312 283.089844 339.738281 286.316406 C 341.890625 288.707031 344.25 290.898438 346.789062 292.875 C 347.558594 293.371094 348.191406 294.0625 348.617188 294.875 C 347.058594 290.257812 347.335938 285.21875 349.386719 280.796875 C 350.207031 279.058594 351.285156 277.449219 352.136719 275.726562 C 352.378906 275.425781 352.34375 274.988281 352.054688 274.726562 C 351.964844 274.652344 351.859375 274.597656 351.746094 274.566406 C 349.578125 273.457031 347.207031 272.777344 345.046875 271.648438 C 343.386719 270.707031 341.804688 269.636719 340.308594 268.449219 C 338.949219 267.449219 337.140625 265.628906 335.46875 265.199219 C 333.800781 264.769531 333.730469 266.378906 333.148438 267.757812 C 332.488281 269.355469 331.296875 270.679688 329.78125 271.507812 Z M 329.78125 271.507812 "/>
<use xlink:href="#surface32" mask="url(#mask9)"/>
<path style=" stroke:none;fill-rule:nonzero;fill:rgb(98.823529%,77.64706%,21.568628%);fill-opacity:1;" d="M 345.128906 285.535156 C 343.894531 284.359375 342.554688 283.292969 341.128906 282.355469 C 339.257812 280.75 337.601562 278.914062 336.199219 276.886719 C 333.5 273.257812 330.769531 268.808594 332.121094 264.480469 C 330.691406 264.339844 329.460938 265.480469 328.78125 266.789062 C 328.253906 268.121094 327.628906 269.414062 326.921875 270.660156 C 325.640625 272.429688 323.472656 273.25 321.441406 274.058594 C 316.996094 275.839844 312.699219 277.976562 308.59375 280.445312 C 306.902344 281.371094 305.367188 282.554688 304.046875 283.957031 C 302.824219 285.609375 301.710938 287.335938 300.707031 289.125 C 298.402344 292.457031 295.121094 294.996094 291.316406 296.394531 C 290.035156 296.777344 288.796875 297.3125 287.636719 297.984375 C 285.289062 299.753906 284.191406 302.730469 284.828125 305.601562 C 285.527344 308.414062 287.230469 310.871094 289.617188 312.511719 C 291.960938 314.09375 294.515625 315.335938 297.207031 316.199219 C 299.4375 317.019531 301.683594 317.804688 303.933594 318.550781 C 305.597656 319.121094 307.292969 319.582031 309.015625 319.929688 C 312.183594 320.511719 315.441406 320.359375 318.652344 320.71875 C 321.582031 321.039062 324.460938 321.78125 327.410156 321.988281 C 330.359375 322.199219 333.46875 321.800781 335.871094 320.089844 C 337.6875 318.597656 339.171875 316.738281 340.21875 314.632812 C 343.261719 309.375 345.980469 303.933594 348.355469 298.34375 C 349.066406 296.695312 355.574219 287.347656 353.957031 286.117188 C 345.789062 280.015625 348.496094 289.707031 347.71875 288.957031 C 346.667969 287.964844 346.066406 286.605469 345.128906 285.535156 Z M 345.128906 285.535156 "/>
<path style=" stroke:none;fill-rule:nonzero;fill:url(#linear5);" d="M 335.007812 279.9375 C 333.371094 276.363281 332.007812 272.664062 330.941406 268.878906 C 330.511719 267.871094 330.40625 266.75 330.640625 265.679688 C 331.058594 264.441406 332.410156 263.378906 332.019531 262.140625 C 328.859375 263.140625 325.203125 264.679688 324.570312 267.941406 C 324.527344 268.65625 324.378906 269.363281 324.132812 270.039062 C 323.492188 271.300781 321.851562 271.570312 320.460938 271.777344 C 316.359375 272.289062 312.542969 274.152344 309.625 277.078125 C 309.1875 277.613281 308.6875 278.089844 308.132812 278.507812 C 307.714844 278.757812 307.265625 278.957031 306.792969 279.097656 C 304.085938 280.097656 301.296875 281.285156 299.546875 283.585938 C 298.644531 284.765625 298.066406 286.1875 297.066406 287.277344 C 295.707031 288.765625 293.707031 289.503906 292.238281 290.894531 C 291.28125 291.859375 290.488281 292.964844 289.878906 294.175781 C 287.359375 298.722656 285.519531 304.0625 286.878906 309.101562 C 287.578125 311.730469 289.117188 314.101562 289.9375 316.671875 C 291.078125 320.199219 290.9375 324.230469 293.097656 327.269531 C 294.554688 329.117188 296.476562 330.542969 298.667969 331.398438 C 303.410156 333.507812 308.625 334.347656 313.792969 333.828125 C 315.710938 333.59375 317.613281 333.261719 319.492188 332.828125 C 323.992188 331.898438 328.492188 330.886719 332.621094 328.828125 C 339.617188 325.25 344.617188 318.832031 349.386719 312.652344 C 350.339844 311.5 351.171875 310.253906 351.867188 308.933594 C 352.457031 307.621094 352.941406 306.269531 353.316406 304.882812 C 354.765625 300.273438 356.804688 295.675781 356.617188 290.886719 C 356.625 290.304688 356.515625 289.730469 356.285156 289.195312 C 356.085938 288.804688 355.785156 288.457031 355.617188 288.054688 C 355.441406 287.300781 355.316406 286.535156 355.234375 285.765625 C 354.644531 283.6875 351.90625 283.285156 349.738281 283.308594 L 348.9375 295.496094 C 348.828125 297.324219 348.628906 299.363281 347.265625 300.59375 C 346.066406 301.625 344.332031 301.757812 342.988281 300.921875 C 341.527344 299.984375 341.328125 298.335938 341.339844 296.753906 C 341.398438 294.820312 341.136719 292.890625 340.558594 291.046875 C 339.277344 287.105469 336.847656 283.648438 335.007812 279.9375 Z M 335.007812 279.9375 "/>
<path style=" stroke:none;fill-rule:nonzero;fill:rgb(63.137257%,38.431373%,41.568628%);fill-opacity:1;" d="M 335.871094 314.769531 C 344.507812 319.148438 353.195312 323.558594 360.925781 329.386719 C 362.703125 330.726562 364.445312 332.148438 366.332031 333.386719 C 371.742188 336.828125 378.453125 338.507812 382.621094 343.386719 C 383.433594 344.445312 384.3125 345.445312 385.261719 346.386719 C 386.140625 347.101562 387.121094 347.6875 388.171875 348.113281 C 391.523438 349.59375 395.152344 350.339844 398.816406 350.304688 C 399.78125 350.34375 400.738281 350.171875 401.628906 349.804688 C 403.957031 348.683594 404.488281 345.664062 404.71875 343.097656 C 404.933594 342.234375 404.714844 341.324219 404.128906 340.65625 C 403.730469 340.402344 403.277344 340.25 402.808594 340.214844 C 395.269531 339.027344 388.308594 335.398438 382 331.089844 C 375.691406 326.777344 369.921875 321.738281 363.714844 317.300781 C 361.523438 315.742188 359.296875 314.25 357.054688 312.769531 L 349.816406 307.960938 C 345.988281 305.421875 341.949219 302.804688 337.378906 302.324219 C 337.117188 302.28125 336.851562 302.296875 336.597656 302.375 C 336.214844 302.597656 335.925781 302.953125 335.78125 303.375 C 334.390625 305.933594 332.847656 308.410156 331.160156 310.78125 C 330.28125 312.070312 330.160156 312.410156 331.699219 313.101562 C 333.058594 313.671875 334.507812 314.082031 335.871094 314.769531 Z M 335.871094 314.769531 "/>
<path style=" stroke:none;fill-rule:nonzero;fill:rgb(63.137257%,38.431373%,41.568628%);fill-opacity:1;" d="M 379.28125 264.519531 C 379.28125 277.625 368.660156 288.246094 355.554688 288.246094 C 342.453125 288.246094 331.832031 277.625 331.832031 264.519531 C 331.832031 251.417969 342.453125 240.792969 355.554688 240.792969 C 368.660156 240.792969 379.28125 251.417969 379.28125 264.519531 Z M 379.28125 264.519531 "/>
<path style="fill-rule:nonzero;fill:rgb(9.411765%,14.117648%,20.392157%);fill-opacity:1;stroke-width:0.8;stroke-linecap:butt;stroke-linejoin:miter;stroke:rgb(0.392157%,0.392157%,0.392157%);stroke-opacity:1;stroke-miterlimit:10;" d="M 336.998268 273.598889 C 337.420219 271.461785 339.869879 270.391279 341.99917 270.238908 C 346.464819 270.000584 350.715585 272.16113 353.149618 275.911806 C 353.653615 274.579535 353.985706 273.192566 354.149798 271.778248 L 358.15052 272.079084 C 358.592005 272.149409 359.045212 272.110339 359.47107 271.961875 C 359.959439 271.676667 360.342321 271.242995 360.56111 270.719463 C 362.299705 267.480598 363.460071 263.499412 366.718471 261.788165 L 366.718471 266.249908 C 368.531298 265.898282 370.074545 264.726195 370.898912 263.081367 C 371.121608 264.315965 371.477141 265.523214 371.961604 266.679673 C 372.039743 266.878927 372.149138 267.089903 372.348392 267.140693 C 372.547647 267.156321 372.739088 267.085996 372.879738 266.949252 C 374.399543 265.78498 375.778698 264.440988 376.978133 262.948531 L 381.68992 271.12188 C 387.331563 256.896658 381.63913 240.690611 368.339857 233.118933 C 367.249817 232.493821 366.112893 231.950754 364.940806 231.501454 C 361.826964 230.458297 358.580285 229.868347 355.298443 229.751139 C 350.641353 229.438582 345.738125 229.450303 341.651451 231.681174 C 339.506533 232.974376 337.556962 234.568413 335.869158 236.42031 C 333.489823 238.81918 331.110487 241.350886 329.868076 244.480357 C 329.090592 246.683879 328.60613 248.981169 328.430317 251.309713 C 328.180271 252.700589 328.211527 254.130535 328.520177 255.50969 C 328.801477 256.439545 329.321102 257.27954 329.668821 258.18986 C 330.153284 259.744828 330.458026 261.34668 330.579142 262.968066 C 331.079232 266.519487 332.239597 269.945886 334.001634 273.07145 C 334.294655 273.782516 334.868978 274.337303 335.591764 274.61079 C 336.330179 274.778789 337.220964 273.958329 336.830269 273.309774 " transform="matrix(0.99982,0,0,0.99982,0,0.22779)"/>
<path style=" stroke:none;fill-rule:nonzero;fill:rgb(98.823529%,77.64706%,21.568628%);fill-opacity:1;" d="M 309.683594 296.542969 C 310.683594 299.175781 313.042969 300.953125 315.332031 302.542969 L 321.28125 306.792969 C 322.9375 307.820312 324.375 309.15625 325.519531 310.730469 C 324.03125 311.449219 323.304688 313.160156 323.820312 314.730469 C 324.410156 316.261719 325.691406 317.421875 327.269531 317.859375 C 328.828125 318.285156 330.453125 318.417969 332.058594 318.25 C 333.921875 318.28125 335.757812 317.804688 337.371094 316.871094 L 334.019531 314.8125 C 333.128906 314.261719 332.121094 313.390625 332.441406 312.402344 L 335.980469 312.402344 C 336.355469 312.4375 336.730469 312.347656 337.050781 312.152344 C 337.300781 311.898438 337.480469 311.578125 337.570312 311.230469 C 338.632812 308.441406 341.191406 306.5 344.167969 306.234375 C 345.046875 306.164062 346.046875 306.234375 346.648438 305.550781 C 346.992188 305.078125 347.183594 304.507812 347.199219 303.921875 C 347.371094 302.828125 347.371094 301.710938 347.199219 300.613281 C 347.019531 299.5 346.332031 298.535156 345.335938 298.003906 C 344.554688 297.753906 343.738281 297.617188 342.917969 297.59375 C 339.179688 297.09375 336.578125 293.703125 334.570312 290.503906 C 332.558594 287.304688 330.410156 283.777344 326.832031 282.585938 C 325.710938 282.25 324.550781 282.074219 323.382812 282.058594 C 320.792969 281.847656 318.195312 282.25 315.792969 283.238281 C 311.453125 285.296875 307.945312 291.855469 309.683594 296.542969 Z M 309.683594 296.542969 "/>
<use xlink:href="#surface35" mask="url(#mask10)"/>
</g>
</svg>
