<?xml version="1.0" encoding="UTF-8"?>
<svg width="1360px" height="13015px" viewBox="0 0 1360 13015" version="1.1" xmlns="http://www.w3.org/2000/svg" xmlns:xlink="http://www.w3.org/1999/xlink">
    <!-- Generator: Sketch 43.2 (39069) - http://www.bohemiancoding.com/sketch -->
    <title>page-background</title>
    <desc>Created with Sketch.</desc>
    <defs>
        <rect id="path-1" x="0.993652" y="0" width="1357.02" height="13015"></rect>
        <linearGradient x1="50%" y1="0%" x2="50%" y2="100%" id="linearGradient-3">
            <stop stop-color="#D12D5F" offset="0%"></stop>
            <stop stop-color="#FF8E00" offset="100%"></stop>
        </linearGradient>
        <linearGradient x1="100.000141%" y1="100%" x2="-16.7494249%" y2="66.9970045%" id="linearGradient-4">
            <stop stop-color="#660F33" offset="0%"></stop>
            <stop stop-color="#CC1E66" offset="100%"></stop>
        </linearGradient>
        <linearGradient x1="100.000142%" y1="100%" x2="-17.3365398%" y2="69.346628%" id="linearGradient-5">
            <stop stop-color="#660F33" offset="0%"></stop>
            <stop stop-color="#CC1E66" offset="100%"></stop>
        </linearGradient>
        <linearGradient x1="0%" y1="0%" x2="117.336645%" y2="30.6537346%" id="linearGradient-6">
            <stop stop-color="#660F33" offset="0%"></stop>
            <stop stop-color="#CC1E66" offset="100%"></stop>
        </linearGradient>
        <linearGradient x1="19.5583388%" y1="13.9358228%" x2="104.404526%" y2="74.564557%" id="linearGradient-7">
            <stop stop-color="#FF8E00" offset="0%"></stop>
            <stop stop-color="#D12D5F" offset="100%"></stop>
        </linearGradient>
        <linearGradient x1="7.67754096%" y1="21.8395062%" x2="86.1082694%" y2="85.5584604%" id="linearGradient-8">
            <stop stop-color="#22A7AD" offset="0%"></stop>
            <stop stop-color="#05E48E" offset="100%"></stop>
        </linearGradient>
        <linearGradient x1="19.5583606%" y1="13.9357648%" x2="104.412877%" y2="74.5519869%" id="linearGradient-9">
            <stop stop-color="#FF8E00" offset="0%"></stop>
            <stop stop-color="#D12D5F" offset="100%"></stop>
        </linearGradient>
        <linearGradient x1="7.67753925%" y1="21.8395792%" x2="86.0780206%" y2="85.600263%" id="linearGradient-10">
            <stop stop-color="#48B2B7" offset="0%"></stop>
            <stop stop-color="#06FC9D" offset="100%"></stop>
        </linearGradient>
        <linearGradient x1="42.5344118%" y1="4.21103448%" x2="42.5344118%" y2="105.786322%" id="linearGradient-11">
            <stop stop-color="#FFFFFF" stop-opacity="0.08" offset="0%"></stop>
            <stop stop-color="#FFFFFF" stop-opacity="0.2" offset="100%"></stop>
        </linearGradient>
        <linearGradient x1="50.4944408%" y1="-3.54662963%" x2="50.4944408%" y2="101.079259%" id="linearGradient-12">
            <stop stop-color="#FFFFFF" stop-opacity="0.08" offset="0%"></stop>
            <stop stop-color="#FFFFFF" stop-opacity="0.2" offset="100%"></stop>
        </linearGradient>
    </defs>
    <g id="Page-1" stroke="none" stroke-width="1" fill="none" fill-rule="evenodd">
        <g id="page-background">
            <rect id="Rectangle-path" fill="#FFFCFE" fill-rule="nonzero" x="0.993652" y="15" width="1357.02" height="13000"></rect>
            <g id="Clipped">
                <mask id="mask-2" fill="white">
                    <use xlink:href="#path-1"></use>
                </mask>
                <g id="Rectangle-path"></g>
                <g id="Group" mask="url(#mask-2)" fill-rule="nonzero">
                    <g transform="translate(-4261.000000, -381.000000)">
                        <ellipse id="Oval" fill="url(#linearGradient-3)" transform="translate(4936.530000, 13076.000000) rotate(-180.000000) translate(-4936.530000, -13076.000000) " cx="4936.53" cy="13076" rx="2231.23" ry="2126"></ellipse>
                        <ellipse id="Oval" fill="url(#linearGradient-4)" transform="translate(4903.747000, 1883.500000) rotate(-180.000000) translate(-4903.747000, -1883.500000) " cx="4903.747" cy="1883.5" rx="1064.95" ry="1001.5"></ellipse>
                        <ellipse id="Oval" fill="url(#linearGradient-5)" transform="translate(4903.670000, 5472.000000) rotate(-180.000000) translate(-4903.670000, -5472.000000) " cx="4903.67" cy="5472" rx="1409.67" ry="1379"></ellipse>
                        <path d="M3494,10242 C3494,9480.4 4125.132,8863 4903.672,8863 C5682.216,8863 6313.346,9480.4 6313.346,10242 C6313.346,11003.6 5682.216,11621 4903.672,11621 C4125.132,11621 3494,11003.6 3494,10242 Z" id="Shape" fill="url(#linearGradient-6)"></path>
                        <ellipse id="Oval" fill="url(#linearGradient-7)" transform="translate(4929.576000, 790.000000) rotate(-180.000000) translate(-4929.576000, -790.000000) " cx="4929.576" cy="790" rx="831.497" ry="790"></ellipse>
                        <ellipse id="Oval" fill="url(#linearGradient-8)" transform="translate(4934.543000, 1886.500000) rotate(-180.000000) translate(-4934.543000, -1886.500000) " cx="4934.543" cy="1886.5" rx="732.155" ry="688.5"></ellipse>
                        <ellipse id="Oval" fill="url(#linearGradient-9)" transform="translate(4909.707000, 3106.500000) rotate(-180.000000) translate(-4909.707000, -3106.500000) " cx="4909.707" cy="3106.5" rx="966.603" ry="918.5"></ellipse>
                        <ellipse id="Oval" fill="url(#linearGradient-10)" transform="translate(4942.145000, 4069.500000) rotate(-180.000000) translate(-4942.145000, -4069.500000) " cx="4942.145" cy="4069.5" rx="809.145" ry="760.5"></ellipse>
                        <ellipse id="Oval-Copy" fill="url(#linearGradient-10)" transform="translate(4909.908136, 7840.500000) rotate(-180.000000) translate(-4909.908136, -7840.500000) " cx="4909.90814" cy="7840.5" rx="954.908136" ry="897.5"></ellipse>
                    </g>
                </g>
            </g>
            <path d="M0,870 L0.993426,846.5 L0.993426,0 L1360,0 L1306.72,68.2955 C1263.13,124.178 1193.22,152.816 1122.95,143.573 L1107.04,141.481 C1033.83,131.851 961.268,163.346 918.302,223.401 L897.891,251.93 C873.381,286.189 830.029,301.415 789.479,290.007 L662.899,254.394 C629.084,244.881 593.079,246.748 560.429,259.708 C507.642,280.661 469.899,328.002 461.231,384.131 L450.15,455.886 C442.621,504.643 400.657,540.624 351.322,540.624 L221.005,540.624 C182.544,540.624 147.491,562.681 130.85,597.356 L0,870 Z" id="Shape" fill="url(#linearGradient-11)" fill-rule="nonzero"></path>
            <path d="M154.222,253.773 L6.993652,270 L6.993652,0 L1358.57715,0 L1121.82,29.0102 C1102.92,30.7803 1084.92,37.8921 1069.91,49.5145 L1032.66,78.3696 C1011.38,94.8489 984.359,102.0567 957.702,98.3638 L916.156,92.6084 C885.646,88.3818 854.572,91.2592 825.356,101.0164 L741.641,128.975 L684.501,140.916 L555.648,151.531 L331.824,151.531 C306.341,151.531 281.818,161.26 263.266,178.731 L211.825,227.175 C196.02,242.059 175.801,251.395 154.222,253.773 Z" id="Shape" fill="url(#linearGradient-12)" fill-rule="nonzero"></path>
        </g>
    </g>
</svg>