<svg width="1360" height="13010" viewBox="0 0 1360 13010" fill="none" xmlns="http://www.w3.org/2000/svg">
<rect x="0.993652" y="10" width="1357.02" height="13000" fill="#FFFCFE"/>
<mask id="mask0" mask-type="alpha" maskUnits="userSpaceOnUse" x="0" y="-5" width="1359" height="13015">
<rect x="0.993652" y="-5" width="1357.02" height="13015" fill="#FFFCFE"/>
</mask>
<g mask="url(#mask0)">
<g filter="url(#filter0_d)">
<ellipse cx="675.53" cy="12690" rx="2231.23" ry="2126" transform="rotate(-180 675.53 12690)" fill="url(#paint0_linear)"/>
</g>
<g filter="url(#filter1_d)">
<ellipse cx="642.747" cy="1497.5" rx="1064.95" ry="1001.5" transform="rotate(-180 642.747 1497.5)" fill="url(#paint1_linear)"/>
</g>
<g filter="url(#filter2_d)">
<ellipse cx="668.576" cy="4840" rx="1409.67" ry="1379" transform="rotate(-180 668.576 4840)" fill="url(#paint2_linear)"/>
</g>
<g filter="url(#filter3_d)">
<path d="M-741.096 8091C-741.096 7329.4 -109.964 6712 668.576 6712C1447.12 6712 2078.25 7329.4 2078.25 8091C2078.25 8852.6 1447.12 9470 668.576 9470C-109.964 9470 -741.096 8852.6 -741.096 8091Z" fill="url(#paint3_linear)"/>
</g>
<g filter="url(#filter4_d)">
<ellipse cx="668.576" cy="404" rx="831.497" ry="790" transform="rotate(-180 668.576 404)" fill="url(#paint4_linear)"/>
</g>
<g filter="url(#filter5_d)">
<ellipse cx="673.543" cy="1500.5" rx="732.155" ry="688.5" transform="rotate(-180 673.543 1500.5)" fill="url(#paint5_linear)"/>
</g>
<g filter="url(#filter6_d)">
<ellipse cx="648.707" cy="2720.5" rx="966.603" ry="918.5" transform="rotate(-180 648.707 2720.5)" fill="url(#paint6_linear)"/>
</g>
<g filter="url(#filter7_d)">
<ellipse cx="680.993" cy="3683.5" rx="809.145" ry="760.5" transform="rotate(-180 680.993 3683.5)" fill="url(#paint7_linear)"/>
</g>
<g filter="url(#filter8_d)">
<g filter="url(#filter9_d)">
<ellipse cx="688.941" cy="6800.5" rx="1074.39" ry="1010.5" transform="rotate(-180 688.941 6800.5)" fill="#FFFDFD"/>
</g>
</g>
</g>
<path d="M0 857L0.993426 833.5V-13H1360L1306.72 55.2955C1263.13 111.178 1193.22 139.816 1122.95 130.573L1107.04 128.481C1033.83 118.851 961.268 150.346 918.302 210.401L897.891 238.93C873.381 273.189 830.029 288.415 789.479 277.007L662.899 241.394C629.084 231.881 593.079 233.748 560.429 246.708C507.642 267.661 469.899 315.002 461.231 371.131L450.15 442.886C442.621 491.643 400.657 527.624 351.322 527.624H221.005C182.544 527.624 147.491 549.681 130.85 584.356L0 857Z" fill="url(#paint8_linear)"/>
<path d="M148.222 248.773L0.993652 265V-5L1352.05 1.88271L1115.82 24.0102C1096.92 25.7803 1078.92 32.8921 1063.91 44.5145L1026.66 73.3696C1005.38 89.8489 978.359 97.0567 951.702 93.3638L910.156 87.6084C879.646 83.3818 848.572 86.2592 819.356 96.0164L735.641 123.975L678.501 135.916L549.648 146.531H325.824C300.341 146.531 275.818 156.26 257.266 173.731L205.825 222.175C190.02 237.059 169.801 246.395 148.222 248.773Z" fill="url(#paint9_linear)"/>
<defs>
<filter id="filter0_d" x="-1559.71" y="10564" width="4470.47" height="4260" filterUnits="userSpaceOnUse" color-interpolation-filters="sRGB">
<feFlood flood-opacity="0" result="BackgroundImageFix"/>
<feColorMatrix in="SourceAlpha" type="matrix" values="0 0 0 0 0 0 0 0 0 0 0 0 0 0 0 0 0 0 127 0" result="hardAlpha"/>
<feOffset dy="4"/>
<feGaussianBlur stdDeviation="2"/>
<feColorMatrix type="matrix" values="0 0 0 0 0 0 0 0 0 0 0 0 0 0 0 0 0 0 0.25 0"/>
<feBlend mode="normal" in2="BackgroundImageFix" result="effect1_dropShadow"/>
<feBlend mode="normal" in="SourceGraphic" in2="effect1_dropShadow" result="shape"/>
</filter>
<filter id="filter1_d" x="-426.206" y="496" width="2137.91" height="2011" filterUnits="userSpaceOnUse" color-interpolation-filters="sRGB">
<feFlood flood-opacity="0" result="BackgroundImageFix"/>
<feColorMatrix in="SourceAlpha" type="matrix" values="0 0 0 0 0 0 0 0 0 0 0 0 0 0 0 0 0 0 127 0" result="hardAlpha"/>
<feOffset dy="4"/>
<feGaussianBlur stdDeviation="2"/>
<feColorMatrix type="matrix" values="0 0 0 0 0 0 0 0 0 0 0 0 0 0 0 0 0 0 0.25 0"/>
<feBlend mode="normal" in2="BackgroundImageFix" result="effect1_dropShadow"/>
<feBlend mode="normal" in="SourceGraphic" in2="effect1_dropShadow" result="shape"/>
</filter>
<filter id="filter2_d" x="-745.096" y="3461" width="2827.34" height="2766" filterUnits="userSpaceOnUse" color-interpolation-filters="sRGB">
<feFlood flood-opacity="0" result="BackgroundImageFix"/>
<feColorMatrix in="SourceAlpha" type="matrix" values="0 0 0 0 0 0 0 0 0 0 0 0 0 0 0 0 0 0 127 0" result="hardAlpha"/>
<feOffset dy="4"/>
<feGaussianBlur stdDeviation="2"/>
<feColorMatrix type="matrix" values="0 0 0 0 0 0 0 0 0 0 0 0 0 0 0 0 0 0 0.25 0"/>
<feBlend mode="normal" in2="BackgroundImageFix" result="effect1_dropShadow"/>
<feBlend mode="normal" in="SourceGraphic" in2="effect1_dropShadow" result="shape"/>
</filter>
<filter id="filter3_d" x="-745.096" y="6712" width="2827.34" height="2766" filterUnits="userSpaceOnUse" color-interpolation-filters="sRGB">
<feFlood flood-opacity="0" result="BackgroundImageFix"/>
<feColorMatrix in="SourceAlpha" type="matrix" values="0 0 0 0 0 0 0 0 0 0 0 0 0 0 0 0 0 0 127 0" result="hardAlpha"/>
<feOffset dy="4"/>
<feGaussianBlur stdDeviation="2"/>
<feColorMatrix type="matrix" values="0 0 0 0 0 0 0 0 0 0 0 0 0 0 0 0 0 0 0.25 0"/>
<feBlend mode="normal" in2="BackgroundImageFix" result="effect1_dropShadow"/>
<feBlend mode="normal" in="SourceGraphic" in2="effect1_dropShadow" result="shape"/>
</filter>
<filter id="filter4_d" x="-166.922" y="-386" width="1670.99" height="1588" filterUnits="userSpaceOnUse" color-interpolation-filters="sRGB">
<feFlood flood-opacity="0" result="BackgroundImageFix"/>
<feColorMatrix in="SourceAlpha" type="matrix" values="0 0 0 0 0 0 0 0 0 0 0 0 0 0 0 0 0 0 127 0" result="hardAlpha"/>
<feOffset dy="4"/>
<feGaussianBlur stdDeviation="2"/>
<feColorMatrix type="matrix" values="0 0 0 0 0 0 0 0 0 0 0 0 0 0 0 0 0 0 0.25 0"/>
<feBlend mode="normal" in2="BackgroundImageFix" result="effect1_dropShadow"/>
<feBlend mode="normal" in="SourceGraphic" in2="effect1_dropShadow" result="shape"/>
</filter>
<filter id="filter5_d" x="-62.6118" y="812" width="1472.31" height="1385" filterUnits="userSpaceOnUse" color-interpolation-filters="sRGB">
<feFlood flood-opacity="0" result="BackgroundImageFix"/>
<feColorMatrix in="SourceAlpha" type="matrix" values="0 0 0 0 0 0 0 0 0 0 0 0 0 0 0 0 0 0 127 0" result="hardAlpha"/>
<feOffset dy="4"/>
<feGaussianBlur stdDeviation="2"/>
<feColorMatrix type="matrix" values="0 0 0 0 0 0 0 0 0 0 0 0 0 0 0 0 0 0 0.25 0"/>
<feBlend mode="normal" in2="BackgroundImageFix" result="effect1_dropShadow"/>
<feBlend mode="normal" in="SourceGraphic" in2="effect1_dropShadow" result="shape"/>
</filter>
<filter id="filter6_d" x="-321.896" y="1802" width="1941.21" height="1845" filterUnits="userSpaceOnUse" color-interpolation-filters="sRGB">
<feFlood flood-opacity="0" result="BackgroundImageFix"/>
<feColorMatrix in="SourceAlpha" type="matrix" values="0 0 0 0 0 0 0 0 0 0 0 0 0 0 0 0 0 0 127 0" result="hardAlpha"/>
<feOffset dy="4"/>
<feGaussianBlur stdDeviation="2"/>
<feColorMatrix type="matrix" values="0 0 0 0 0 0 0 0 0 0 0 0 0 0 0 0 0 0 0.25 0"/>
<feBlend mode="normal" in2="BackgroundImageFix" result="effect1_dropShadow"/>
<feBlend mode="normal" in="SourceGraphic" in2="effect1_dropShadow" result="shape"/>
</filter>
<filter id="filter7_d" x="-132.152" y="2923" width="1626.29" height="1529" filterUnits="userSpaceOnUse" color-interpolation-filters="sRGB">
<feFlood flood-opacity="0" result="BackgroundImageFix"/>
<feColorMatrix in="SourceAlpha" type="matrix" values="0 0 0 0 0 0 0 0 0 0 0 0 0 0 0 0 0 0 127 0" result="hardAlpha"/>
<feOffset dy="4"/>
<feGaussianBlur stdDeviation="2"/>
<feColorMatrix type="matrix" values="0 0 0 0 0 0 0 0 0 0 0 0 0 0 0 0 0 0 0.25 0"/>
<feBlend mode="normal" in2="BackgroundImageFix" result="effect1_dropShadow"/>
<feBlend mode="normal" in="SourceGraphic" in2="effect1_dropShadow" result="shape"/>
</filter>
<filter id="filter8_d" x="-389.449" y="5586" width="3037.95" height="2233" filterUnits="userSpaceOnUse" color-interpolation-filters="sRGB">
<feFlood flood-opacity="0" result="BackgroundImageFix"/>
<feColorMatrix in="SourceAlpha" type="matrix" values="0 0 0 0 0 0 0 0 0 0 0 0 0 0 0 0 0 0 127 0" result="hardAlpha"/>
<feOffset dy="4"/>
<feGaussianBlur stdDeviation="2"/>
<feColorMatrix type="matrix" values="0 0 0 0 0 0 0 0 0 0 0 0 0 0 0 0 0 0 0.25 0"/>
<feBlend mode="normal" in2="BackgroundImageFix" result="effect1_dropShadow"/>
<feBlend mode="normal" in="SourceGraphic" in2="effect1_dropShadow" result="shape"/>
</filter>
<filter id="filter9_d" x="-389.449" y="5790" width="2156.78" height="2029" filterUnits="userSpaceOnUse" color-interpolation-filters="sRGB">
<feFlood flood-opacity="0" result="BackgroundImageFix"/>
<feColorMatrix in="SourceAlpha" type="matrix" values="0 0 0 0 0 0 0 0 0 0 0 0 0 0 0 0 0 0 127 0" result="hardAlpha"/>
<feOffset dy="4"/>
<feGaussianBlur stdDeviation="2"/>
<feColorMatrix type="matrix" values="0 0 0 0 0 0 0 0 0 0 0 0 0 0 0 0 0 0 0.25 0"/>
<feBlend mode="normal" in2="BackgroundImageFix" result="effect1_dropShadow"/>
<feBlend mode="normal" in="SourceGraphic" in2="effect1_dropShadow" result="shape"/>
</filter>
<linearGradient id="paint0_linear" x1="675.53" y1="10564" x2="675.53" y2="14816" gradientUnits="userSpaceOnUse">
<stop stop-color="#D12D5F"/>
<stop offset="1" stop-color="#FF8E00"/>
</linearGradient>
<linearGradient id="paint1_linear" x1="1707.7" y1="2499" x2="-778.949" y2="1837.95" gradientUnits="userSpaceOnUse">
<stop stop-color="#660F33"/>
<stop offset="1" stop-color="#CC1E66"/>
</linearGradient>
<linearGradient id="paint2_linear" x1="2078.25" y1="6219" x2="-1229.87" y2="5373.58" gradientUnits="userSpaceOnUse">
<stop stop-color="#660F33"/>
<stop offset="1" stop-color="#CC1E66"/>
</linearGradient>
<linearGradient id="paint3_linear" x1="-741.096" y1="6712" x2="2567.03" y2="7557.43" gradientUnits="userSpaceOnUse">
<stop stop-color="#660F33"/>
<stop offset="1" stop-color="#CC1E66"/>
</linearGradient>
<linearGradient id="paint4_linear" x1="162.333" y1="-165.814" x2="1573.32" y2="792.12" gradientUnits="userSpaceOnUse">
<stop stop-color="#FF8E00"/>
<stop offset="1" stop-color="#D12D5F"/>
</linearGradient>
<linearGradient id="paint5_linear" x1="53.811" y1="1112.73" x2="1202.28" y2="1990.14" gradientUnits="userSpaceOnUse">
<stop stop-color="#22A7AD"/>
<stop offset="1" stop-color="#05E48E"/>
</linearGradient>
<linearGradient id="paint6_linear" x1="60.2074" y1="2058" x2="1700.62" y2="3171.52" gradientUnits="userSpaceOnUse">
<stop stop-color="#FF8E00"/>
<stop offset="1" stop-color="#D12D5F"/>
</linearGradient>
<linearGradient id="paint7_linear" x1="-3.90715" y1="3255.18" x2="1264.84" y2="4224.98" gradientUnits="userSpaceOnUse">
<stop stop-color="#48B2B7"/>
<stop offset="1" stop-color="#06FC9D"/>
</linearGradient>
<linearGradient id="paint8_linear" x1="578.468" y1="23.636" x2="578.468" y2="907.341" gradientUnits="userSpaceOnUse">
<stop stop-color="white" stop-opacity="0.08"/>
<stop offset="1" stop-color="white" stop-opacity="0.2"/>
</linearGradient>
<linearGradient id="paint9_linear" x1="683.202" y1="-14.5759" x2="683.202" y2="267.914" gradientUnits="userSpaceOnUse">
<stop stop-color="white" stop-opacity="0.08"/>
<stop offset="1" stop-color="white" stop-opacity="0.2"/>
</linearGradient>
</defs>
</svg>
