<svg width="262" height="369" viewBox="0 0 262 369" fill="none" xmlns="http://www.w3.org/2000/svg">
<g clip-path="url(#clip0)">
<path d="M155.5 292.089C155.5 292.089 168.429 289.451 176.808 295.578C176.808 295.578 171.331 299.39 158.605 295.825L155.5 292.089Z" fill="url(#paint0_linear)"/>
<path d="M154.09 292.057C154.09 292.057 146.37 300.318 151.135 308.379C151.135 308.379 157.755 305.81 157.683 295.56L154.09 292.057Z" fill="url(#paint1_linear)"/>
<path d="M145.612 280.292C145.612 280.292 150.267 272.806 171.946 280.899C171.946 280.899 169.541 285.874 160.288 286.269C151.034 286.667 148.346 283.799 145.612 280.292Z" fill="url(#paint2_linear)"/>
<path d="M144.222 279.897C144.222 279.897 133.299 279.906 133.737 298.231C133.737 298.231 140.69 298.704 145.102 292.519C149.513 286.339 147.238 283.27 144.222 279.897Z" fill="url(#paint3_linear)"/>
<path d="M136.749 265.901C136.749 265.901 141.854 252.963 164.656 259.933C164.656 259.933 160.521 271.758 139.346 269.935L136.749 265.901Z" fill="url(#paint4_linear)"/>
<path d="M128.461 247.886C128.461 247.886 138.946 234.368 160.26 244.296C160.26 244.296 154.067 256.682 130.58 252.223L128.461 247.886Z" fill="url(#paint5_linear)"/>
<path d="M124.604 230.42C124.604 230.42 137.083 217.764 158.196 227.581C158.196 227.581 146.303 238.772 124.839 233.364L124.604 230.42Z" fill="url(#paint6_linear)"/>
<path d="M121.136 213.441C121.136 213.441 133.731 200.257 153.979 210.019C153.979 210.019 139.524 221.943 121.362 216.254L121.136 213.441Z" fill="url(#paint7_linear)"/>
<path d="M121.133 198.098C121.133 198.098 134.126 181.399 153.103 190.374C153.103 190.374 138.856 204.983 121.368 201.047L121.133 198.098Z" fill="url(#paint8_linear)"/>
<path fill-rule="evenodd" clip-rule="evenodd" d="M123.002 180.02C123.002 180.02 136.915 163.375 155.439 173.674C155.439 173.674 138.581 188.504 123.228 182.838L123.002 180.02Z" fill="url(#paint9_linear)"/>
<path fill-rule="evenodd" clip-rule="evenodd" d="M126.775 163.683C126.775 163.683 143.543 147.729 159.67 152.17C159.67 152.17 142.223 169.085 126.331 167.59L126.775 163.683Z" fill="url(#paint10_linear)"/>
<path fill-rule="evenodd" clip-rule="evenodd" d="M131.856 148.075C131.856 148.075 151.118 128.659 163.6 133.544C163.6 133.544 149.464 148.537 130.605 151.544L131.856 148.075Z" fill="url(#paint11_linear)"/>
<path fill-rule="evenodd" clip-rule="evenodd" d="M139.469 129.817C139.469 129.817 156.414 113.849 169.93 116.313C169.93 116.313 155.639 132.589 137.396 134.531L139.469 129.817Z" fill="url(#paint12_linear)"/>
<path fill-rule="evenodd" clip-rule="evenodd" d="M146.338 112.763C146.338 112.763 165.242 97.2417 174.14 98.9428C174.14 98.9428 160.933 115.529 145.72 115.909L146.338 112.763Z" fill="url(#paint13_linear)"/>
<path d="M153.132 96.9811C153.132 96.9811 169.033 79.0073 178.534 79.4921C178.534 79.4921 169.276 95.1001 153.265 98.6444L153.132 96.9811Z" fill="url(#paint14_linear)"/>
<path d="M160.187 75.878C160.187 75.878 174.399 61.9245 182.627 61.2598C182.627 61.2598 171.964 79.1871 159.897 80.0609L160.187 75.878Z" fill="url(#paint15_linear)"/>
<path d="M164.235 61.8774L176.822 34.2549C176.822 34.2549 179.478 58.0371 162.758 66.9311L164.235 61.8774Z" fill="url(#paint16_linear)"/>
<path d="M136.154 265.633C136.154 265.633 120.338 259.967 111.834 277.825C111.834 277.825 125.93 283.308 138.293 269.828L136.154 265.633Z" fill="url(#paint17_linear)"/>
<path d="M127.921 247.219C127.921 247.219 108.7 242.525 101.041 261.042C101.041 261.042 116.077 267.12 129.97 251.567L127.921 247.219Z" fill="url(#paint18_linear)"/>
<path d="M123.82 231.552C123.82 231.552 109.487 221.16 90.228 234.391C90.228 234.391 103.749 243.43 124.058 234.495L123.82 231.552Z" fill="url(#paint19_linear)"/>
<path d="M120.683 213.479C120.683 213.479 106.152 202.588 87.7378 215.616C87.7378 215.616 103.903 224.954 120.909 216.295L120.683 213.479Z" fill="url(#paint20_linear)"/>
<path d="M121.168 198.536C121.168 198.536 110.244 181.984 90.1494 191.198C90.1494 191.198 102.556 205.645 120.558 201.485L121.168 198.536Z" fill="url(#paint21_linear)"/>
<path fill-rule="evenodd" clip-rule="evenodd" d="M124.168 179.834C124.168 179.834 113.288 162.977 92.9326 172.931C92.9326 172.931 107.118 188.025 123.437 182.635L124.168 179.834Z" fill="url(#paint22_linear)"/>
<path fill-rule="evenodd" clip-rule="evenodd" d="M128.803 163.608C128.803 163.608 123.489 144.569 105.998 144.305C105.998 144.305 111.329 164.403 126.763 167.292L128.803 163.608Z" fill="url(#paint23_linear)"/>
<path fill-rule="evenodd" clip-rule="evenodd" d="M132.271 148.069C132.271 148.069 128.945 124.885 114.484 125.276C114.484 125.276 116.396 142.934 130.93 151.511L132.271 148.069Z" fill="url(#paint24_linear)"/>
<path fill-rule="evenodd" clip-rule="evenodd" d="M140.905 129.027C140.905 129.027 135.054 109.994 121.139 108.783C121.139 108.783 124.351 127.422 139.939 133.886L140.905 129.027Z" fill="url(#paint25_linear)"/>
<path fill-rule="evenodd" clip-rule="evenodd" d="M147.975 112.766C147.975 112.766 146.207 92.5747 137.574 90.3135C137.574 90.3135 133.844 109.042 145.746 115.55L147.975 112.766Z" fill="url(#paint26_linear)"/>
<path d="M153.75 96.7083C153.75 96.7083 150.903 76.0001 141.976 73.8057C141.976 73.8057 140.33 90.5197 152.557 98.18L153.75 96.7083Z" fill="url(#paint27_linear)"/>
<path d="M161.298 74.9951C161.298 74.9951 160.439 59.509 153.921 56.0576C153.921 56.0576 149.24 75.1113 158.884 80.0924L161.298 74.9951Z" fill="url(#paint28_linear)"/>
<path d="M163.437 61.1085L155.143 33.4512C155.143 33.4512 148.793 57.2218 164.137 66.1622L163.437 61.1085Z" fill="url(#paint29_linear)"/>
<path d="M162.366 33.0158C162.366 33.0158 145.357 15.3961 145.505 13.251C145.505 13.251 148.741 32.9519 169.038 41.1986L162.366 33.0158Z" fill="url(#paint30_linear)"/>
<path d="M159.853 80.2199L158.837 80.0806C168.792 49.4392 170.35 30.284 163.225 26.1476L163.899 25.5293C171.421 29.9212 170.019 48.8267 159.853 80.2199Z" fill="#F6A727"/>
<path d="M131.418 152.382L129.909 152.124C131 149.3 132.181 146.409 133.455 143.587C144.44 118.888 153.634 95.9966 159.302 78.5366L160.552 77.9531C154.864 95.4451 145.917 119.163 134.935 143.895C133.684 146.713 132.503 149.573 131.418 152.382Z" fill="#F6A727"/>
<path d="M175.65 312.693C175.432 312.545 154.104 297.671 137.887 270.565C128.385 254.696 122.436 237.674 120.259 220.13C117.534 198.212 121.838 173.097 130.797 149.878L132.045 150.778C111.933 202.92 124.972 245.042 139.773 269.814C155.825 296.676 176.909 311.378 177.121 311.535L175.65 312.693Z" fill="#F6A727"/>
<path d="M163.733 27.2742C163.733 27.2742 146.95 1.61393 140.159 0C140.159 0 161.673 6.04642 164.894 26.4034L163.733 27.2742Z" fill="url(#paint31_linear)"/>
<path d="M171.686 294.104C171.686 294.104 180.18 296.135 183.465 302.176C183.465 302.176 179.101 302.934 172.487 297.239L171.686 294.104Z" fill="#F6A727"/>
<path d="M170.85 293.694C170.85 293.694 163.882 296.493 164.427 302.632C164.427 302.632 169.135 302.937 171.976 296.774L170.85 293.694Z" fill="#F6A727"/>
<path d="M169.088 284.258C169.088 284.258 173.99 281.068 184.704 291.994C184.704 291.994 181.857 294.304 176.195 291.956C170.533 289.608 169.738 287.134 169.088 284.258Z" fill="#F6A727"/>
<path fill-rule="evenodd" clip-rule="evenodd" d="M168.365 283.633C168.365 283.633 161.824 280.585 156.893 291.706C156.893 291.706 160.927 293.938 165.33 291.456C169.729 288.974 169.221 286.504 168.365 283.633Z" fill="url(#paint32_linear)"/>
<path fill-rule="evenodd" clip-rule="evenodd" d="M167.84 273.135C167.84 273.135 174.55 266.795 186.257 277.358C186.257 277.358 180.441 283.297 168.301 276.299L167.84 273.135Z" fill="url(#paint33_linear)"/>
<path fill-rule="evenodd" clip-rule="evenodd" d="M167.962 260.023C167.962 260.023 178.07 254.841 188.024 266.754C188.024 266.754 180.786 272.441 167.953 263.19L167.962 260.023Z" fill="url(#paint34_linear)"/>
<path fill-rule="evenodd" clip-rule="evenodd" d="M170.586 248.438C170.586 248.438 181.643 244.334 191.531 256.13C191.531 256.13 181.24 259.521 169.895 250.276L170.586 248.438Z" fill="url(#paint35_linear)"/>
<path d="M173.299 237.3C173.299 237.3 184.585 232.913 193.956 244.429C193.956 244.429 181.915 247.543 172.64 239.05L173.299 237.3Z" fill="url(#paint36_linear)"/>
<path d="M177.632 228.095C177.632 228.095 190.161 221.715 198.98 232.392C198.98 232.392 186.318 237.181 176.944 229.924L177.632 228.095Z" fill="url(#paint37_linear)"/>
<path d="M183.863 217.77C183.863 217.77 196.897 211.671 205.101 223.03C205.101 223.03 190.799 227.216 183.216 219.485L183.863 217.77Z" fill="url(#paint38_linear)"/>
<path d="M190.709 209.01C190.709 209.01 205.263 204.122 213.688 211.3C213.688 211.3 198.449 216.572 189.336 211.225L190.709 209.01Z" fill="url(#paint39_linear)"/>
<path d="M198.173 201.068C198.173 201.068 215.223 194.804 221.335 201.222C221.335 201.222 208.609 206.287 196.461 202.801L198.173 201.068Z" fill="url(#paint40_linear)"/>
<path d="M207.907 192.243C207.907 192.243 222.578 187.399 229.99 192.661C229.99 192.661 216.823 198.441 205.336 194.499L207.907 192.243Z" fill="url(#paint41_linear)"/>
<path fill-rule="evenodd" clip-rule="evenodd" d="M167.567 272.8C167.567 272.8 159.682 264.974 149.539 273.311C149.539 273.311 156.443 280.545 167.66 275.912L167.567 272.8Z" fill="url(#paint42_linear)"/>
<path fill-rule="evenodd" clip-rule="evenodd" d="M167.823 259.471C167.823 259.471 157.648 251.285 147.807 260.255C147.807 260.255 155.111 268.107 167.829 262.65L167.823 259.471Z" fill="url(#paint43_linear)"/>
<path fill-rule="evenodd" clip-rule="evenodd" d="M169.802 248.899C169.802 248.899 164.143 238.656 148.857 241.207C148.857 241.207 154.406 250.415 169.111 250.737L169.802 248.899Z" fill="url(#paint44_linear)"/>
<path d="M173.015 237.195C173.015 237.195 167.37 226.589 152.659 229.262C152.659 229.262 159.717 239.39 172.356 238.946L173.015 237.195Z" fill="url(#paint45_linear)"/>
<path d="M177.53 228.365C177.53 228.365 175.659 215.375 161.035 215.294C161.035 215.294 164.39 227.433 176.364 229.973L177.53 228.365Z" fill="url(#paint46_linear)"/>
<path d="M184.281 217.678C184.281 217.678 182.522 204.523 167.509 204.775C167.509 204.775 171.781 217.811 183.062 219.132L184.281 217.678Z" fill="url(#paint47_linear)"/>
<path d="M191.49 209.027C191.49 209.027 194.163 196.63 183.756 191.579C183.756 191.579 181.269 205.123 189.705 211.181L191.49 209.027Z" fill="url(#paint48_linear)"/>
<path d="M198.443 201.189C198.443 201.189 202.997 186.379 194.244 182.545C194.244 182.545 190.399 193.68 196.685 202.882L198.443 201.189Z" fill="url(#paint49_linear)"/>
<path d="M208.996 192.171C208.996 192.171 210.85 179.114 202.86 174.493C202.86 174.493 198.786 186.325 206.302 194.56L208.996 192.171Z" fill="url(#paint50_linear)"/>
<path d="M217.827 184.395C217.827 184.395 222.47 171.785 217.934 168.015C217.934 168.015 210.406 178.209 215.708 185.446L217.827 184.395Z" fill="url(#paint51_linear)"/>
<path d="M177.943 312.104C177.856 311.953 169.265 297.064 167.205 276.26C165.992 264.078 167.237 252.194 170.887 241.056C175.444 227.131 185.117 213.268 197.056 201.84L197.535 202.766C170.745 228.429 166.671 257.355 168.545 276.359C170.58 296.966 179.06 311.686 179.144 311.842L177.943 312.104Z" fill="#F6A727"/>
<path d="M196.714 203.535L195.907 202.969C197.358 201.576 198.881 200.188 200.44 198.836C214.036 187.094 225.982 175.916 234.322 167.027L235.231 167.024C226.878 175.942 214.829 187.669 201.241 199.436C199.671 200.772 198.153 202.153 196.714 203.535Z" fill="#F6A727"/>
<path d="M177.789 301.839C177.789 301.839 181.669 304.428 182.156 308.103C182.156 308.103 179.814 307.691 177.585 303.581L177.789 301.839Z" fill="#F6A727"/>
<path d="M177.446 301.479C177.446 301.479 173.401 301.628 172.486 304.853C172.486 304.853 174.796 305.868 177.417 303.253L177.446 301.479Z" fill="#F6A727"/>
<path d="M178.384 296.353C178.384 296.353 181.466 295.627 184.749 303.148C184.749 303.148 182.868 303.804 180.474 301.572C178.079 299.34 178.158 297.938 178.384 296.353Z" fill="#F6A727"/>
<path fill-rule="evenodd" clip-rule="evenodd" d="M178.143 295.903C178.143 295.903 175.441 293.154 170.809 297.914C170.809 297.914 172.408 299.787 175.101 299.331C177.797 298.872 178.018 297.52 178.143 295.903Z" fill="url(#paint52_linear)"/>
<path fill-rule="evenodd" clip-rule="evenodd" d="M179.908 290.464C179.908 290.464 184.51 288.464 188.359 295.982C188.359 295.982 184.284 297.941 179.527 292.159L179.908 290.464Z" fill="url(#paint53_linear)"/>
<path fill-rule="evenodd" clip-rule="evenodd" d="M182.502 283.813C182.502 283.813 188.591 283.026 191.295 290.91C191.295 290.91 186.553 292.48 181.884 285.424L182.502 283.813Z" fill="url(#paint54_linear)"/>
<path fill-rule="evenodd" clip-rule="evenodd" d="M186.063 278.397C186.063 278.397 192.421 278.33 195.114 286.144C195.114 286.144 189.281 285.987 185.357 279.206L186.063 278.397Z" fill="url(#paint55_linear)"/>
<path d="M189.583 273.224C189.583 273.224 196.11 273.056 198.6 280.632C198.6 280.632 191.94 280.013 188.913 273.993L189.583 273.224Z" fill="url(#paint56_linear)"/>
<path d="M193.542 269.332C193.542 269.332 201.079 268.377 203.452 275.424C203.452 275.424 196.154 275.546 192.839 270.138L193.542 269.332Z" fill="url(#paint57_linear)"/>
<path d="M198.675 265.215C198.675 265.215 206.413 264.495 208.345 271.778C208.345 271.778 200.338 271.293 198.017 265.973L198.675 265.215Z" fill="url(#paint58_linear)"/>
<path d="M203.813 262.008C203.813 262.008 212.081 262.182 214.934 267.378C214.934 267.378 206.245 267.273 202.692 262.884L203.813 262.008Z" fill="url(#paint59_linear)"/>
<path d="M209.103 259.331C209.103 259.331 218.895 259.261 220.729 263.648C220.729 263.648 213.346 263.897 207.907 259.9L209.103 259.331Z" fill="url(#paint60_linear)"/>
<path d="M215.708 256.623C215.708 256.623 224.029 256.841 226.739 260.876C226.739 260.876 218.996 261.41 213.979 257.299L215.708 256.623Z" fill="url(#paint61_linear)"/>
<path fill-rule="evenodd" clip-rule="evenodd" d="M179.835 290.243C179.835 290.243 177.38 284.817 170.664 287.206C170.664 287.206 172.739 292.15 179.281 291.845L179.835 290.243Z" fill="url(#paint62_linear)"/>
<path fill-rule="evenodd" clip-rule="evenodd" d="M182.54 283.505C182.54 283.505 179.002 277.476 172.315 280.243C172.315 280.243 174.472 285.575 181.927 285.125L182.54 283.505Z" fill="url(#paint63_linear)"/>
<path fill-rule="evenodd" clip-rule="evenodd" d="M185.581 278.487C185.581 278.487 184.713 272.237 176.529 270.739C176.529 270.739 177.542 276.44 184.879 279.294L185.581 278.487Z" fill="url(#paint64_linear)"/>
<path d="M189.458 273.116C189.458 273.116 188.669 266.687 180.749 265.354C180.749 265.354 182.342 271.801 188.788 273.886L189.458 273.116Z" fill="url(#paint65_linear)"/>
<path d="M193.437 269.45C193.437 269.45 195.007 262.498 187.662 259.781C187.662 259.781 187.003 266.574 192.538 270.057L193.437 269.45Z" fill="url(#paint66_linear)"/>
<path d="M198.902 265.245C198.902 265.245 200.559 258.226 192.956 255.61C192.956 255.61 192.584 263.027 198.005 265.761L198.902 265.245Z" fill="url(#paint67_linear)"/>
<path d="M204.201 262.161C204.201 262.161 207.942 256.338 203.682 251.865C203.682 251.865 199.81 258.304 202.886 262.93L204.201 262.161Z" fill="url(#paint68_linear)"/>
<path d="M209.216 259.445C209.216 259.445 214.37 252.739 210.708 249.187C210.708 249.187 206.622 254.15 208.006 259.985L209.216 259.445Z" fill="url(#paint69_linear)"/>
<path d="M216.271 256.783C216.271 256.783 219.728 250.475 216.602 246.664C216.602 246.664 212.263 251.941 214.455 257.509L216.271 256.783Z" fill="url(#paint70_linear)"/>
<path d="M222.218 254.44C222.218 254.44 226.992 248.873 225.439 246.121C225.439 246.121 219.679 249.932 220.95 254.585L222.218 254.44Z" fill="url(#paint71_linear)"/>
<path d="M177.458 312.147C177.443 312.054 175.998 302.905 178.981 291.938C180.726 285.515 183.651 279.695 187.641 274.693C192.627 268.441 200.176 263.152 208.392 259.521L208.453 260.078C190.01 268.24 182.368 282.217 179.637 292.232C176.677 303.091 178.099 312.136 178.111 312.232L177.458 312.147Z" fill="#F6A727"/>
<path d="M207.893 260.321L207.597 259.886C208.595 259.442 209.631 259.015 210.676 258.611C219.789 255.122 227.961 251.619 233.876 248.62L234.334 248.786C228.408 251.796 220.076 255.561 210.963 259.064C209.915 259.456 208.882 259.88 207.893 260.321Z" fill="#F6A727"/>
<path d="M148.712 304.528C148.712 304.528 158.954 296.205 169.216 297.761C169.216 297.761 166.125 303.674 153.193 306.403L148.712 304.528Z" fill="url(#paint72_linear)"/>
<path d="M147.449 305.151C147.449 305.151 144.428 316.048 152.38 320.989C152.38 320.989 157.061 315.648 152.255 306.594L147.449 305.151Z" fill="url(#paint73_linear)"/>
<path d="M134.491 298.643C134.491 298.643 135.156 289.853 158.118 286.997C158.118 286.997 158.286 292.521 150.264 297.154C142.246 301.784 138.537 300.486 134.491 298.643Z" fill="url(#paint74_linear)"/>
<path d="M133.078 298.937C133.078 298.937 123.399 303.999 132.262 320.042C132.262 320.042 138.644 317.244 139.695 309.72C140.745 302.196 137.309 300.53 133.078 298.937Z" fill="url(#paint75_linear)"/>
<path d="M119.974 289.984C119.974 289.984 118.515 276.153 141.952 271.778C141.952 271.778 143.758 284.176 124.142 292.359L119.974 289.984Z" fill="url(#paint76_linear)"/>
<path d="M104.294 277.851C104.294 277.851 107.336 261.016 130.823 259.953C130.823 259.953 131.064 273.799 108.178 280.716L104.294 277.851Z" fill="url(#paint77_linear)"/>
<path d="M92.7959 264.153C92.7959 264.153 98.0052 247.157 121.263 246.092C121.263 246.092 115.894 261.517 94.366 266.652L92.7959 264.153Z" fill="url(#paint78_linear)"/>
<path d="M81.8696 250.705C81.8696 250.705 86.9368 233.19 109.402 232.473C109.402 232.473 102.103 249.735 83.3729 253.094L81.8696 250.705Z" fill="url(#paint79_linear)"/>
<path d="M74.7681 237.102C74.7681 237.102 78.5641 216.286 99.5379 215.459C99.5379 215.459 93.6639 235.003 76.341 239.607L74.7681 237.102Z" fill="url(#paint80_linear)"/>
<path fill-rule="evenodd" clip-rule="evenodd" d="M68.064 220.211C68.064 220.211 72.6987 199.015 93.8844 199.572C93.8844 199.572 85.799 220.521 69.5673 222.603L68.064 220.211Z" fill="url(#paint81_linear)"/>
<path fill-rule="evenodd" clip-rule="evenodd" d="M63.8501 203.982C63.8501 203.982 71.3376 182.081 87.6883 178.551C87.6883 178.551 80.0441 201.619 65.2634 207.648L63.8501 203.982Z" fill="url(#paint82_linear)"/>
<path fill-rule="evenodd" clip-rule="evenodd" d="M61.1367 187.793C61.1367 187.793 69.2308 161.665 82.5575 160.22C82.5575 160.22 76.9621 180.051 61.633 191.447L61.1367 187.793Z" fill="url(#paint83_linear)"/>
<path fill-rule="evenodd" clip-rule="evenodd" d="M59.439 168.086C59.439 168.086 67.0745 146.089 80.198 142.02C80.198 142.02 75.0583 163.062 59.7843 173.227L59.439 168.086Z" fill="url(#paint84_linear)"/>
<path fill-rule="evenodd" clip-rule="evenodd" d="M57.6396 149.787C57.6396 149.787 67.2196 127.279 75.8941 124.67C75.8941 124.67 71.8573 145.486 58.5451 152.864L57.6396 149.787Z" fill="url(#paint85_linear)"/>
<path d="M56.3599 132.653C56.3599 132.653 62.1438 109.362 70.7893 105.391C70.7893 105.391 69.8026 123.512 57.245 134.064L56.3599 132.653Z" fill="url(#paint86_linear)"/>
<path d="M52.854 110.679C52.854 110.679 58.9979 91.7326 65.9862 87.335C65.9862 87.335 64.8254 108.162 54.5314 114.522L52.854 110.679Z" fill="url(#paint87_linear)"/>
<path d="M49.969 96.3944L48.3496 66.0811C48.3496 66.0811 61.7053 85.9358 50.9964 101.558L49.969 96.3944Z" fill="url(#paint88_linear)"/>
<path d="M119.325 290.025C119.325 290.025 102.684 292.321 103.404 312.086C103.404 312.086 118.437 310.426 123.161 292.751L119.325 290.025Z" fill="url(#paint89_linear)"/>
<path d="M103.508 277.509C103.508 277.509 84.2985 282.24 86.0717 302.202C86.0717 302.202 102.213 300.632 107.336 280.414L103.508 277.509Z" fill="url(#paint90_linear)"/>
<path d="M92.6278 265.517C92.6278 265.517 75.1162 262.937 64.1606 283.578C64.1606 283.578 80.3285 285.334 94.2008 268.017L92.6278 265.517Z" fill="url(#paint91_linear)"/>
<path d="M81.4836 250.948C81.4836 250.948 63.5629 248.016 53.2632 268.088C53.2632 268.088 71.9153 268.884 82.9841 253.34L81.4836 250.948Z" fill="url(#paint92_linear)"/>
<path d="M75.0003 237.476C75.0003 237.476 57.66 227.86 44.1069 245.325C44.1069 245.325 61.7868 252.391 75.8245 240.373L75.0003 237.476Z" fill="url(#paint93_linear)"/>
<path fill-rule="evenodd" clip-rule="evenodd" d="M69.0131 219.509C69.0131 219.509 51.5712 209.599 38.1284 227.843C38.1284 227.843 57.686 234.662 69.6602 222.328L69.0131 219.509Z" fill="url(#paint94_linear)"/>
<path fill-rule="evenodd" clip-rule="evenodd" d="M65.6145 202.977C65.6145 202.977 52.0963 188.557 36.4683 196.417C36.4683 196.417 50.4885 211.767 65.51 207.186L65.6145 202.977Z" fill="url(#paint95_linear)"/>
<path fill-rule="evenodd" clip-rule="evenodd" d="M61.5023 187.599C61.5023 187.599 47.8303 168.583 35.1914 175.625C35.1914 175.625 45.0558 190.394 61.9057 191.274L61.5023 187.599Z" fill="url(#paint96_linear)"/>
<path fill-rule="evenodd" clip-rule="evenodd" d="M60.3474 166.719C60.3474 166.719 46.3561 152.554 33.459 157.921C33.459 157.921 44.9283 172.957 61.7375 171.474L60.3474 166.719Z" fill="url(#paint97_linear)"/>
<path fill-rule="evenodd" clip-rule="evenodd" d="M59.0937 149.033C59.0937 149.033 48.1875 131.95 39.4868 133.942C39.4868 133.942 44.8413 152.27 58.4059 152.531L59.0937 149.033Z" fill="url(#paint98_linear)"/>
<path d="M56.7833 132.125C56.7833 132.125 44.6814 115.083 35.7515 117.269C35.7515 117.269 42.023 132.848 56.409 133.98L56.7833 132.125Z" fill="url(#paint99_linear)"/>
<path d="M53.4315 109.382C53.4315 109.382 45.5057 96.0523 38.1313 96.0059C38.1313 96.0059 42.7951 115.065 53.6491 115.016L53.4315 109.382Z" fill="url(#paint100_linear)"/>
<path d="M48.904 96.0805L28.7573 75.3984C28.7573 75.3984 34.1234 99.41 51.8613 100.237L48.904 96.0805Z" fill="url(#paint101_linear)"/>
<path d="M34.9594 71.6715C34.9594 71.6715 11.7306 63.9241 10.8687 61.9502C10.8687 61.9502 22.8516 77.9182 44.6583 75.834L34.9594 71.6715Z" fill="url(#paint102_linear)"/>
<path d="M54.5659 114.682L53.6024 115.027C48.2537 83.2569 40.7749 65.553 32.5444 65.1844L32.855 64.3223C41.5556 64.7374 49.0605 82.148 54.5659 114.682Z" fill="#F6A727"/>
<path d="M62.7386 191.816L61.2817 192.283C60.9421 189.276 60.6519 186.165 60.4778 183.073C58.7916 156.092 56.3509 131.544 53.3008 113.442L54.1395 112.348C57.1897 130.487 60.2282 155.657 61.9318 182.661C62.1291 185.741 62.4019 188.823 62.7386 191.816Z" fill="#F6A727"/>
<path d="M176.108 313.468C175.847 313.439 150.058 310.121 123.144 293.593C107.379 283.921 94.2328 271.584 84.1855 257.039C71.6309 238.868 63.827 214.612 61.0322 189.881L62.5529 190.101C68.8419 245.634 99.8891 276.943 124.467 292.055C151.124 308.438 176.616 311.718 176.874 311.758L176.108 313.468Z" fill="#F6A727"/>
<path d="M33.5169 65.9505C33.5169 65.9505 6.77071 50.9694 0 52.6792C0 52.6792 21.8706 48.0841 34.1409 64.6414L33.5169 65.9505Z" fill="url(#paint103_linear)"/>
<path fill-rule="evenodd" clip-rule="evenodd" d="M65.7682 332.318C77.3971 317.168 85.2445 305.946 89.3104 298.649C96.2669 286.199 101.964 275.104 103.737 270.878C107.971 260.721 93.2167 256.46 89.9924 261.122C85.0791 268.3 74.7794 290.701 59.0933 328.318L65.7682 332.318Z" fill="#FDECE3"/>
<path fill-rule="evenodd" clip-rule="evenodd" d="M86.6114 327.769L110.926 271.622C116.071 261.41 93.4372 253.598 89.7689 258.295C81.4369 268.954 61.0174 311.436 58.5244 314.692L86.6114 327.769Z" fill="url(#paint104_linear)"/>
<path fill-rule="evenodd" clip-rule="evenodd" d="M99.674 342.631C101.714 335.011 107.829 308.416 109.045 295.719C109.396 292.068 109.733 288.529 109.994 285.211C110.812 275.331 93.9364 271.421 93.5649 280.895C92.6217 304.529 92.5144 337.949 92.4215 340.814C92.2909 344.819 98.4202 347.467 99.674 342.631Z" fill="#FDECE3"/>
<path fill-rule="evenodd" clip-rule="evenodd" d="M102.803 339.339C103.241 340.724 103.47 342.172 103.482 343.63C103.296 345.267 102.988 346.884 102.562 348.469L69.0594 344.544C68.4035 341.429 69.0391 339.859 70.9371 339.839C72.8351 339.815 74.408 339.795 75.6647 339.731L91.8035 334.3C91.9573 334.251 92.1227 334.265 92.2649 334.341C92.4101 334.416 92.5174 334.55 92.5726 334.712L93.3736 337.368C94.6331 338.251 96.0464 338.855 97.5265 339.154C98.8064 339.186 100.08 338.948 101.276 338.454C101.578 338.352 101.909 338.381 102.193 338.532C102.478 338.683 102.698 338.945 102.803 339.264V339.339Z" fill="#660F33"/>
<path fill-rule="evenodd" clip-rule="evenodd" d="M70.2231 329.65C70.6613 331.009 70.8819 332.437 70.8731 333.874C70.6845 335.505 70.3682 337.116 69.93 338.692L35.9574 335.444C35.3218 332.373 35.969 330.82 37.8961 330.759L42.6875 330.573L59.0788 324.866C59.2297 324.811 59.3923 324.823 59.5374 324.898C59.6825 324.974 59.7898 325.104 59.845 325.261L60.6518 327.865C61.9258 328.713 63.345 329.284 64.8309 329.537C66.1543 329.563 67.466 329.31 68.6994 328.797C68.9984 328.683 69.3234 328.701 69.6107 328.84C69.898 328.982 70.1215 329.235 70.2347 329.549C70.2347 329.549 70.2086 329.627 70.2231 329.65Z" fill="#660F33"/>
<path fill-rule="evenodd" clip-rule="evenodd" d="M202.459 330.794C203.313 332.585 209.735 338.036 214.17 341.177C215.969 342.446 215.232 344.033 214.55 344.457C209.073 347.917 205.454 343.813 200.715 341.56C195.503 339.084 195.938 346.068 191.829 344.196C193.097 341.279 196.054 335.885 194.653 332.327C194.035 330.771 189.821 317.105 182.014 291.322H194.653C198.658 315.221 201.261 328.379 202.459 330.794ZM124.914 301.703L105.83 309.749C100.429 316.167 97.4163 318.864 96.772 317.796C95.8056 316.167 97.9271 314.719 97.4163 313.531C96.9055 312.344 93.3417 312.405 89.8359 312.727C86.3301 313.05 87.4097 311.479 88.2252 310.716C92.3492 308.304 96.7604 306.489 101.34 305.322L120.631 290.817L124.914 301.703Z" fill="#FBE7DD"/>
<path fill-rule="evenodd" clip-rule="evenodd" d="M158.762 237.078L153.532 236.132C134.146 253.273 126.168 286.21 102.367 303.653L108.052 310.915C149.362 305.725 159.574 265.545 158.762 237.078Z" fill="#FD5D38"/>
<path fill-rule="evenodd" clip-rule="evenodd" d="M162.038 223.578C163.492 221.981 164.63 220.089 165.379 218.013C166.127 215.938 166.476 213.726 166.397 211.505C165.489 198.266 147.446 201.183 143.978 207.862C140.51 214.542 140.89 231.502 145.418 232.69C147.217 233.171 151.103 232.005 154.893 229.592L152.429 247.378H166.946L162.038 223.578Z" fill="#FCEAE0"/>
<path fill-rule="evenodd" clip-rule="evenodd" d="M163.159 226.556C165.054 218.266 170.17 212.614 169.375 208.91C169.186 207.781 168.684 206.736 167.93 205.915C167.175 205.093 166.206 204.53 165.15 204.301C163.974 199.392 160.146 197.32 153.779 198.042C144.115 199.148 138.2 203.253 140.76 212.286C143.09 212.286 145.934 211.421 149.838 212.91C151.089 213.392 151.959 214.922 152.511 217.296H154.272C155.979 214.379 157.682 213.273 159.351 214.098C161.02 214.922 161.397 216.733 160.489 219.711L161.359 226.553H163.159V226.556Z" fill="url(#paint105_linear)"/>
<path fill-rule="evenodd" clip-rule="evenodd" d="M113.038 291.905C126.832 305.226 136.105 314.129 140.856 318.613C154.394 331.38 164.856 329.534 178.688 313.568L158.086 286.312C154.374 283.542 137.152 273.467 106.424 256.085C100.722 253.203 95.0103 259.438 93.5766 262.077C93.4896 262.152 87.0555 280.849 74.2803 318.166L104.013 329.47L111.471 293.113C111.999 291.914 112.577 291.551 113.038 291.905Z" fill="url(#paint106_linear)"/>
<path fill-rule="evenodd" clip-rule="evenodd" d="M181.538 304.298H135.301C133.179 304.298 133.577 301.18 133.879 299.61C137.405 281.502 151.181 261.804 151.181 235.932L164.447 233.778C175.513 251.947 179.303 274.359 181.538 304.298Z" fill="#AB4031"/>
<path fill-rule="evenodd" clip-rule="evenodd" d="M181.198 251.645C182.182 251.34 183.096 250.826 183.888 250.132C184.681 249.442 185.331 248.585 185.804 247.619C190.673 238.646 188.892 233.677 183.682 232.106C178.47 230.536 173.829 233.836 165.526 233.836C165.111 233.804 164.691 233.804 164.276 233.836L160.105 234.077C148.102 275.656 144.799 303.383 150.194 317.25H186.579C188.407 321.705 190.476 326.045 192.775 330.248H202.685C203.634 299.375 196.472 273.171 181.198 251.645Z" fill="#FD5D38"/>
<path opacity="0.1" fill-rule="evenodd" clip-rule="evenodd" d="M178.659 271.804C177.521 281.595 175.664 288.712 173.087 293.151H186.579C184.077 287.153 181.439 280.039 178.659 271.804Z" fill="black"/>
<path d="M168.162 354.577L128.299 355.092L128.408 363.55L168.271 363.035L168.162 354.577Z" fill="#E6E5E5"/>
<path d="M182.452 364.921L176.758 364.904L173.238 358.625L177.042 352.367L182.333 352.382C178.827 347.923 172.373 347.151 167.915 350.655C163.457 354.161 162.685 360.617 166.188 365.075C169.694 369.534 176.148 370.306 180.606 366.802C181.3 366.257 181.921 365.624 182.452 364.921Z" fill="#E6E5E5"/>
<path d="M114.15 364.921L119.844 364.904L123.364 358.625L119.56 352.367L114.269 352.382C117.775 347.923 124.229 347.151 128.687 350.655C133.144 354.161 133.916 360.617 130.414 365.075C126.908 369.534 120.453 370.306 115.996 366.802C115.302 366.257 114.684 365.624 114.15 364.921Z" fill="#E6E5E5"/>
<path d="M224.482 315.573L218.58 321.631L247.132 349.46L253.034 343.402L224.482 315.573Z" fill="#E6E5E5"/>
<path d="M247.486 343.9C244.227 347.247 244.297 352.599 247.64 355.859C250.986 359.119 256.338 359.049 259.597 355.705C262.856 352.358 262.786 347.006 259.443 343.746C256.1 340.486 250.745 340.556 247.486 343.9ZM256.137 352.332C254.741 353.766 252.446 353.795 251.012 352.399C249.579 351.003 249.55 348.707 250.945 347.273C252.341 345.839 254.637 345.81 256.071 347.206C257.504 348.605 257.533 350.898 256.137 352.332Z" fill="#E6E5E5"/>
<path d="M215.798 304.222L219.811 308.26L217.861 315.189L210.748 316.924L207.019 313.174C206.345 318.805 210.362 323.917 215.992 324.591C221.622 325.264 226.733 321.247 227.406 315.615C228.079 309.984 224.063 304.872 218.433 304.199C217.556 304.091 216.671 304.1 215.798 304.222Z" fill="#E6E5E5"/>
</g>
<defs>
<linearGradient id="paint0_linear" x1="162.045" y1="299.942" x2="167.892" y2="291.226" gradientUnits="userSpaceOnUse">
<stop stop-color="#E62879"/>
<stop offset="0.3575" stop-color="#CC1B70"/>
<stop offset="1" stop-color="#561D53"/>
</linearGradient>
<linearGradient id="paint1_linear" x1="147.65" y1="308.705" x2="156.229" y2="295.918" gradientUnits="userSpaceOnUse">
<stop stop-color="#E62879"/>
<stop offset="0.3575" stop-color="#CC1B70"/>
<stop offset="1" stop-color="#561D53"/>
</linearGradient>
<linearGradient id="paint2_linear" x1="153.018" y1="289.191" x2="161.606" y2="276.39" gradientUnits="userSpaceOnUse">
<stop stop-color="#E62879"/>
<stop offset="0.3575" stop-color="#CC1B70"/>
<stop offset="1" stop-color="#561D53"/>
</linearGradient>
<linearGradient id="paint3_linear" x1="132.492" y1="301.099" x2="144.383" y2="283.376" gradientUnits="userSpaceOnUse">
<stop stop-color="#E62879"/>
<stop offset="0.3575" stop-color="#CC1B70"/>
<stop offset="1" stop-color="#561D53"/>
</linearGradient>
<linearGradient id="paint4_linear" x1="142.133" y1="275.741" x2="154.78" y2="256.89" gradientUnits="userSpaceOnUse">
<stop stop-color="#E62879"/>
<stop offset="0.3575" stop-color="#CC1B70"/>
<stop offset="1" stop-color="#561D53"/>
</linearGradient>
<linearGradient id="paint5_linear" x1="135.371" y1="259.502" x2="148.42" y2="240.052" gradientUnits="userSpaceOnUse">
<stop stop-color="#E62879"/>
<stop offset="0.3575" stop-color="#CC1B70"/>
<stop offset="1" stop-color="#561D53"/>
</linearGradient>
<linearGradient id="paint6_linear" x1="132.334" y1="242.501" x2="145.533" y2="222.828" gradientUnits="userSpaceOnUse">
<stop stop-color="#E62879"/>
<stop offset="0.3575" stop-color="#CC1B70"/>
<stop offset="1" stop-color="#561D53"/>
</linearGradient>
<linearGradient id="paint7_linear" x1="128.531" y1="225.167" x2="141.711" y2="205.523" gradientUnits="userSpaceOnUse">
<stop stop-color="#E62879"/>
<stop offset="0.3575" stop-color="#CC1B70"/>
<stop offset="1" stop-color="#561D53"/>
</linearGradient>
<linearGradient id="paint8_linear" x1="126.911" y1="209.431" x2="141.892" y2="187.102" gradientUnits="userSpaceOnUse">
<stop stop-color="#E62879"/>
<stop offset="0.3575" stop-color="#CC1B70"/>
<stop offset="1" stop-color="#561D53"/>
</linearGradient>
<linearGradient id="paint9_linear" x1="136.062" y1="186.873" x2="141.769" y2="168.723" gradientUnits="userSpaceOnUse">
<stop stop-color="#821759"/>
<stop offset="1" stop-color="#660E35"/>
</linearGradient>
<linearGradient id="paint10_linear" x1="138.941" y1="171.527" x2="146.352" y2="147.955" gradientUnits="userSpaceOnUse">
<stop stop-color="#821759"/>
<stop offset="1" stop-color="#660E35"/>
</linearGradient>
<linearGradient id="paint11_linear" x1="143.045" y1="155.432" x2="151.173" y2="129.584" gradientUnits="userSpaceOnUse">
<stop stop-color="#821759"/>
<stop offset="1" stop-color="#660E35"/>
</linearGradient>
<linearGradient id="paint12_linear" x1="149.595" y1="138.343" x2="157.735" y2="112.454" gradientUnits="userSpaceOnUse">
<stop stop-color="#821759"/>
<stop offset="1" stop-color="#660E35"/>
</linearGradient>
<linearGradient id="paint13_linear" x1="156.055" y1="119.134" x2="163.467" y2="95.5597" gradientUnits="userSpaceOnUse">
<stop stop-color="#821759"/>
<stop offset="1" stop-color="#660E35"/>
</linearGradient>
<linearGradient id="paint14_linear" x1="156.543" y1="86.0971" x2="174.66" y2="91.7911" gradientUnits="userSpaceOnUse">
<stop stop-color="#6EBE9F"/>
<stop offset="0.5148" stop-color="#53706E"/>
<stop offset="1" stop-color="#4E143F"/>
</linearGradient>
<linearGradient id="paint15_linear" x1="162.675" y1="67.9324" x2="178.915" y2="73.0369" gradientUnits="userSpaceOnUse">
<stop stop-color="#6EBE9F"/>
<stop offset="0.5148" stop-color="#53706E"/>
<stop offset="1" stop-color="#4E143F"/>
</linearGradient>
<linearGradient id="paint16_linear" x1="167.963" y1="49.9898" x2="174.756" y2="52.1247" gradientUnits="userSpaceOnUse">
<stop stop-color="#6EBE9F"/>
<stop offset="0.5148" stop-color="#53706E"/>
<stop offset="1" stop-color="#4E143F"/>
</linearGradient>
<linearGradient id="paint17_linear" x1="117.032" y1="285.474" x2="130.394" y2="265.558" gradientUnits="userSpaceOnUse">
<stop stop-color="#E62879"/>
<stop offset="0.3575" stop-color="#CC1B70"/>
<stop offset="1" stop-color="#561D53"/>
</linearGradient>
<linearGradient id="paint18_linear" x1="106.435" y1="269.313" x2="121.366" y2="247.058" gradientUnits="userSpaceOnUse">
<stop stop-color="#E62879"/>
<stop offset="0.3575" stop-color="#CC1B70"/>
<stop offset="1" stop-color="#561D53"/>
</linearGradient>
<linearGradient id="paint19_linear" x1="100.196" y1="244.779" x2="112.091" y2="227.05" gradientUnits="userSpaceOnUse">
<stop stop-color="#E62879"/>
<stop offset="0.3575" stop-color="#CC1B70"/>
<stop offset="1" stop-color="#561D53"/>
</linearGradient>
<linearGradient id="paint20_linear" x1="97.6859" y1="225.826" x2="109.051" y2="208.887" gradientUnits="userSpaceOnUse">
<stop stop-color="#E62879"/>
<stop offset="0.3575" stop-color="#CC1B70"/>
<stop offset="1" stop-color="#561D53"/>
</linearGradient>
<linearGradient id="paint21_linear" x1="101.373" y1="202.252" x2="109.087" y2="190.754" gradientUnits="userSpaceOnUse">
<stop stop-color="#E62879"/>
<stop offset="0.3575" stop-color="#CC1B70"/>
<stop offset="1" stop-color="#561D53"/>
</linearGradient>
<linearGradient id="paint22_linear" x1="106.84" y1="182.039" x2="110.523" y2="170.327" gradientUnits="userSpaceOnUse">
<stop stop-color="#821759"/>
<stop offset="1" stop-color="#660E35"/>
</linearGradient>
<linearGradient id="paint23_linear" x1="114.387" y1="163.52" x2="119.42" y2="147.514" gradientUnits="userSpaceOnUse">
<stop stop-color="#821759"/>
<stop offset="1" stop-color="#660E35"/>
</linearGradient>
<linearGradient id="paint24_linear" x1="119.813" y1="147.992" x2="126.046" y2="128.169" gradientUnits="userSpaceOnUse">
<stop stop-color="#821759"/>
<stop offset="1" stop-color="#660E35"/>
</linearGradient>
<linearGradient id="paint25_linear" x1="127.794" y1="130.042" x2="133.397" y2="112.223" gradientUnits="userSpaceOnUse">
<stop stop-color="#821759"/>
<stop offset="1" stop-color="#660E35"/>
</linearGradient>
<linearGradient id="paint26_linear" x1="139.035" y1="113.413" x2="145.523" y2="92.7786" gradientUnits="userSpaceOnUse">
<stop stop-color="#821759"/>
<stop offset="1" stop-color="#660E35"/>
</linearGradient>
<linearGradient id="paint27_linear" x1="138.967" y1="83.3484" x2="156.235" y2="88.7757" gradientUnits="userSpaceOnUse">
<stop stop-color="#6EBE9F"/>
<stop offset="0.5148" stop-color="#53706E"/>
<stop offset="1" stop-color="#4E143F"/>
</linearGradient>
<linearGradient id="paint28_linear" x1="150.705" y1="66.2568" x2="162.837" y2="70.0697" gradientUnits="userSpaceOnUse">
<stop stop-color="#6EBE9F"/>
<stop offset="0.5148" stop-color="#53706E"/>
<stop offset="1" stop-color="#4E143F"/>
</linearGradient>
<linearGradient id="paint29_linear" x1="150.869" y1="47.0196" x2="168.41" y2="52.5329" gradientUnits="userSpaceOnUse">
<stop stop-color="#6EBE9F"/>
<stop offset="0.5148" stop-color="#53706E"/>
<stop offset="1" stop-color="#4E143F"/>
</linearGradient>
<linearGradient id="paint30_linear" x1="142.564" y1="22.5704" x2="171.977" y2="31.8147" gradientUnits="userSpaceOnUse">
<stop stop-color="#6EBE9F"/>
<stop offset="0.5148" stop-color="#53706E"/>
<stop offset="1" stop-color="#4E143F"/>
</linearGradient>
<linearGradient id="paint31_linear" x1="137.317" y1="9.0041" x2="167.381" y2="18.4531" gradientUnits="userSpaceOnUse">
<stop stop-color="#6EBE9F"/>
<stop offset="0.5148" stop-color="#53706E"/>
<stop offset="1" stop-color="#4E143F"/>
</linearGradient>
<linearGradient id="paint32_linear" x1="158.933" y1="293.454" x2="168.205" y2="283.36" gradientUnits="userSpaceOnUse">
<stop stop-color="#E84A3D"/>
<stop offset="1" stop-color="#F49A1B"/>
</linearGradient>
<linearGradient id="paint33_linear" x1="172.575" y1="280.098" x2="180.264" y2="271.726" gradientUnits="userSpaceOnUse">
<stop stop-color="#E84A3D"/>
<stop offset="1" stop-color="#F49A1B"/>
</linearGradient>
<linearGradient id="paint34_linear" x1="173.552" y1="268.204" x2="181.136" y2="259.948" gradientUnits="userSpaceOnUse">
<stop stop-color="#E84A3D"/>
<stop offset="1" stop-color="#F49A1B"/>
</linearGradient>
<linearGradient id="paint35_linear" x1="177.008" y1="256.679" x2="184.162" y2="248.89" gradientUnits="userSpaceOnUse">
<stop stop-color="#E84A3D"/>
<stop offset="1" stop-color="#F49A1B"/>
</linearGradient>
<linearGradient id="paint36_linear" x1="188.729" y1="248.935" x2="177.712" y2="234.029" gradientUnits="userSpaceOnUse">
<stop stop-color="#E62879"/>
<stop offset="0.5961" stop-color="#6FAEC4"/>
<stop offset="1" stop-color="#6CC3CB"/>
</linearGradient>
<linearGradient id="paint37_linear" x1="192.788" y1="237.538" x2="182.913" y2="224.179" gradientUnits="userSpaceOnUse">
<stop stop-color="#E62879"/>
<stop offset="0.5961" stop-color="#6FAEC4"/>
<stop offset="1" stop-color="#6CC3CB"/>
</linearGradient>
<linearGradient id="paint38_linear" x1="199.231" y1="227.966" x2="188.922" y2="214.018" gradientUnits="userSpaceOnUse">
<stop stop-color="#E62879"/>
<stop offset="0.5961" stop-color="#6FAEC4"/>
<stop offset="1" stop-color="#6CC3CB"/>
</linearGradient>
<linearGradient id="paint39_linear" x1="206.165" y1="217.404" x2="196.685" y2="204.578" gradientUnits="userSpaceOnUse">
<stop stop-color="#E62879"/>
<stop offset="0.5961" stop-color="#6FAEC4"/>
<stop offset="1" stop-color="#6CC3CB"/>
</linearGradient>
<linearGradient id="paint40_linear" x1="213.22" y1="207.704" x2="204.725" y2="196.209" gradientUnits="userSpaceOnUse">
<stop stop-color="#E62879"/>
<stop offset="0.5961" stop-color="#6FAEC4"/>
<stop offset="1" stop-color="#6CC3CB"/>
</linearGradient>
<linearGradient id="paint41_linear" x1="221.878" y1="199.127" x2="213.645" y2="187.987" gradientUnits="userSpaceOnUse">
<stop stop-color="#E62879"/>
<stop offset="0.5961" stop-color="#6FAEC4"/>
<stop offset="1" stop-color="#6CC3CB"/>
</linearGradient>
<linearGradient id="paint42_linear" x1="155.151" y1="278.348" x2="163.661" y2="269.083" gradientUnits="userSpaceOnUse">
<stop stop-color="#E84A3D"/>
<stop offset="1" stop-color="#F49A1B"/>
</linearGradient>
<linearGradient id="paint43_linear" x1="153.879" y1="265.72" x2="163.437" y2="255.314" gradientUnits="userSpaceOnUse">
<stop stop-color="#E84A3D"/>
<stop offset="1" stop-color="#F49A1B"/>
</linearGradient>
<linearGradient id="paint44_linear" x1="156.474" y1="248.682" x2="162.888" y2="241.699" gradientUnits="userSpaceOnUse">
<stop stop-color="#E84A3D"/>
<stop offset="1" stop-color="#F49A1B"/>
</linearGradient>
<linearGradient id="paint45_linear" x1="169.366" y1="241.85" x2="157.442" y2="225.718" gradientUnits="userSpaceOnUse">
<stop stop-color="#E62879"/>
<stop offset="0.5961" stop-color="#6FAEC4"/>
<stop offset="1" stop-color="#6CC3CB"/>
</linearGradient>
<linearGradient id="paint46_linear" x1="176.265" y1="230.796" x2="163.472" y2="213.487" gradientUnits="userSpaceOnUse">
<stop stop-color="#E62879"/>
<stop offset="0.5961" stop-color="#6FAEC4"/>
<stop offset="1" stop-color="#6CC3CB"/>
</linearGradient>
<linearGradient id="paint47_linear" x1="182.858" y1="220.028" x2="170.142" y2="202.824" gradientUnits="userSpaceOnUse">
<stop stop-color="#E62879"/>
<stop offset="0.5961" stop-color="#6FAEC4"/>
<stop offset="1" stop-color="#6CC3CB"/>
</linearGradient>
<linearGradient id="paint48_linear" x1="193.28" y1="209.229" x2="181.475" y2="193.257" gradientUnits="userSpaceOnUse">
<stop stop-color="#E62879"/>
<stop offset="0.5961" stop-color="#6FAEC4"/>
<stop offset="1" stop-color="#6CC3CB"/>
</linearGradient>
<linearGradient id="paint49_linear" x1="201.568" y1="199.904" x2="190.677" y2="185.169" gradientUnits="userSpaceOnUse">
<stop stop-color="#E62879"/>
<stop offset="0.5961" stop-color="#6FAEC4"/>
<stop offset="1" stop-color="#6CC3CB"/>
</linearGradient>
<linearGradient id="paint50_linear" x1="210.681" y1="191.973" x2="199.559" y2="176.925" gradientUnits="userSpaceOnUse">
<stop stop-color="#E62879"/>
<stop offset="0.5961" stop-color="#6FAEC4"/>
<stop offset="1" stop-color="#6CC3CB"/>
</linearGradient>
<linearGradient id="paint51_linear" x1="221.182" y1="182.371" x2="213.164" y2="171.523" gradientUnits="userSpaceOnUse">
<stop stop-color="#E62879"/>
<stop offset="0.5961" stop-color="#6FAEC4"/>
<stop offset="1" stop-color="#6CC3CB"/>
</linearGradient>
<linearGradient id="paint52_linear" x1="171.631" y1="299.434" x2="178.299" y2="296.094" gradientUnits="userSpaceOnUse">
<stop stop-color="#E84A3D"/>
<stop offset="1" stop-color="#F49A1B"/>
</linearGradient>
<linearGradient id="paint53_linear" x1="181.079" y1="295.132" x2="186.608" y2="292.363" gradientUnits="userSpaceOnUse">
<stop stop-color="#E84A3D"/>
<stop offset="1" stop-color="#F49A1B"/>
</linearGradient>
<linearGradient id="paint54_linear" x1="183.87" y1="289.258" x2="189.324" y2="286.526" gradientUnits="userSpaceOnUse">
<stop stop-color="#E84A3D"/>
<stop offset="1" stop-color="#F49A1B"/>
</linearGradient>
<linearGradient id="paint55_linear" x1="187.837" y1="284.024" x2="192.982" y2="281.448" gradientUnits="userSpaceOnUse">
<stop stop-color="#E84A3D"/>
<stop offset="1" stop-color="#F49A1B"/>
</linearGradient>
<linearGradient id="paint56_linear" x1="195.233" y1="282.228" x2="192.378" y2="272.685" gradientUnits="userSpaceOnUse">
<stop stop-color="#E62879"/>
<stop offset="0.5961" stop-color="#6FAEC4"/>
<stop offset="1" stop-color="#6CC3CB"/>
</linearGradient>
<linearGradient id="paint57_linear" x1="199.479" y1="277.171" x2="196.92" y2="268.617" gradientUnits="userSpaceOnUse">
<stop stop-color="#E62879"/>
<stop offset="0.5961" stop-color="#6FAEC4"/>
<stop offset="1" stop-color="#6CC3CB"/>
</linearGradient>
<linearGradient id="paint58_linear" x1="204.572" y1="273.478" x2="201.9" y2="264.547" gradientUnits="userSpaceOnUse">
<stop stop-color="#E62879"/>
<stop offset="0.5961" stop-color="#6FAEC4"/>
<stop offset="1" stop-color="#6CC3CB"/>
</linearGradient>
<linearGradient id="paint59_linear" x1="210.104" y1="269.371" x2="207.647" y2="261.159" gradientUnits="userSpaceOnUse">
<stop stop-color="#E62879"/>
<stop offset="0.5961" stop-color="#6FAEC4"/>
<stop offset="1" stop-color="#6CC3CB"/>
</linearGradient>
<linearGradient id="paint60_linear" x1="215.529" y1="265.725" x2="213.328" y2="258.365" gradientUnits="userSpaceOnUse">
<stop stop-color="#E62879"/>
<stop offset="0.5961" stop-color="#6FAEC4"/>
<stop offset="1" stop-color="#6CC3CB"/>
</linearGradient>
<linearGradient id="paint61_linear" x1="221.544" y1="262.944" x2="219.411" y2="255.812" gradientUnits="userSpaceOnUse">
<stop stop-color="#E62879"/>
<stop offset="0.5961" stop-color="#6FAEC4"/>
<stop offset="1" stop-color="#6CC3CB"/>
</linearGradient>
<linearGradient id="paint62_linear" x1="172.649" y1="291.054" x2="178.769" y2="287.989" gradientUnits="userSpaceOnUse">
<stop stop-color="#E84A3D"/>
<stop offset="1" stop-color="#F49A1B"/>
</linearGradient>
<linearGradient id="paint63_linear" x1="174.451" y1="284.395" x2="181.324" y2="280.953" gradientUnits="userSpaceOnUse">
<stop stop-color="#E84A3D"/>
<stop offset="1" stop-color="#F49A1B"/>
</linearGradient>
<linearGradient id="paint64_linear" x1="179.051" y1="276.199" x2="183.663" y2="273.889" gradientUnits="userSpaceOnUse">
<stop stop-color="#E84A3D"/>
<stop offset="1" stop-color="#F49A1B"/>
</linearGradient>
<linearGradient id="paint65_linear" x1="186.859" y1="275.081" x2="183.769" y2="264.752" gradientUnits="userSpaceOnUse">
<stop stop-color="#E62879"/>
<stop offset="0.5961" stop-color="#6FAEC4"/>
<stop offset="1" stop-color="#6CC3CB"/>
</linearGradient>
<linearGradient id="paint66_linear" x1="192.468" y1="270.717" x2="189.153" y2="259.636" gradientUnits="userSpaceOnUse">
<stop stop-color="#E62879"/>
<stop offset="0.5961" stop-color="#6FAEC4"/>
<stop offset="1" stop-color="#6CC3CB"/>
</linearGradient>
<linearGradient id="paint67_linear" x1="197.868" y1="266.443" x2="194.573" y2="255.429" gradientUnits="userSpaceOnUse">
<stop stop-color="#E62879"/>
<stop offset="0.5961" stop-color="#6FAEC4"/>
<stop offset="1" stop-color="#6CC3CB"/>
</linearGradient>
<linearGradient id="paint68_linear" x1="205.2" y1="262.853" x2="202.141" y2="252.628" gradientUnits="userSpaceOnUse">
<stop stop-color="#E62879"/>
<stop offset="0.5961" stop-color="#6FAEC4"/>
<stop offset="1" stop-color="#6CC3CB"/>
</linearGradient>
<linearGradient id="paint69_linear" x1="211.174" y1="259.624" x2="208.352" y2="250.192" gradientUnits="userSpaceOnUse">
<stop stop-color="#E62879"/>
<stop offset="0.5961" stop-color="#6FAEC4"/>
<stop offset="1" stop-color="#6CC3CB"/>
</linearGradient>
<linearGradient id="paint70_linear" x1="217.293" y1="257.255" x2="214.411" y2="247.622" gradientUnits="userSpaceOnUse">
<stop stop-color="#E62879"/>
<stop offset="0.5961" stop-color="#6FAEC4"/>
<stop offset="1" stop-color="#6CC3CB"/>
</linearGradient>
<linearGradient id="paint71_linear" x1="224.434" y1="254.289" x2="222.356" y2="247.344" gradientUnits="userSpaceOnUse">
<stop stop-color="#E62879"/>
<stop offset="0.5961" stop-color="#6FAEC4"/>
<stop offset="1" stop-color="#6CC3CB"/>
</linearGradient>
<linearGradient id="paint72_linear" x1="158.164" y1="308.471" x2="159.315" y2="298.039" gradientUnits="userSpaceOnUse">
<stop stop-color="#E62879"/>
<stop offset="0.3575" stop-color="#CC1B70"/>
<stop offset="1" stop-color="#561D53"/>
</linearGradient>
<linearGradient id="paint73_linear" x1="149.456" y1="322.902" x2="151.145" y2="307.596" gradientUnits="userSpaceOnUse">
<stop stop-color="#E62879"/>
<stop offset="0.3575" stop-color="#CC1B70"/>
<stop offset="1" stop-color="#561D53"/>
</linearGradient>
<linearGradient id="paint74_linear" x1="145.189" y1="303.117" x2="146.879" y2="287.795" gradientUnits="userSpaceOnUse">
<stop stop-color="#E62879"/>
<stop offset="0.3575" stop-color="#CC1B70"/>
<stop offset="1" stop-color="#561D53"/>
</linearGradient>
<linearGradient id="paint75_linear" x1="132.5" y1="323.173" x2="134.84" y2="301.958" gradientUnits="userSpaceOnUse">
<stop stop-color="#E62879"/>
<stop offset="0.3575" stop-color="#CC1B70"/>
<stop offset="1" stop-color="#561D53"/>
</linearGradient>
<linearGradient id="paint76_linear" x1="129.317" y1="296.23" x2="131.806" y2="273.665" gradientUnits="userSpaceOnUse">
<stop stop-color="#E62879"/>
<stop offset="0.3575" stop-color="#CC1B70"/>
<stop offset="1" stop-color="#561D53"/>
</linearGradient>
<linearGradient id="paint77_linear" x1="115.811" y1="284.963" x2="118.379" y2="261.682" gradientUnits="userSpaceOnUse">
<stop stop-color="#E62879"/>
<stop offset="0.3575" stop-color="#CC1B70"/>
<stop offset="1" stop-color="#561D53"/>
</linearGradient>
<linearGradient id="paint78_linear" x1="105.254" y1="271.297" x2="107.852" y2="247.748" gradientUnits="userSpaceOnUse">
<stop stop-color="#E62879"/>
<stop offset="0.3575" stop-color="#CC1B70"/>
<stop offset="1" stop-color="#561D53"/>
</linearGradient>
<linearGradient id="paint79_linear" x1="93.8657" y1="257.69" x2="96.4597" y2="234.176" gradientUnits="userSpaceOnUse">
<stop stop-color="#E62879"/>
<stop offset="0.3575" stop-color="#CC1B70"/>
<stop offset="1" stop-color="#561D53"/>
</linearGradient>
<linearGradient id="paint80_linear" x1="85.1506" y1="244.489" x2="88.0991" y2="217.76" gradientUnits="userSpaceOnUse">
<stop stop-color="#E62879"/>
<stop offset="0.3575" stop-color="#CC1B70"/>
<stop offset="1" stop-color="#561D53"/>
</linearGradient>
<linearGradient id="paint81_linear" x1="82.829" y1="220.256" x2="79.4893" y2="201.525" gradientUnits="userSpaceOnUse">
<stop stop-color="#821759"/>
<stop offset="1" stop-color="#660E35"/>
</linearGradient>
<linearGradient id="paint82_linear" x1="78.2826" y1="205.319" x2="73.9452" y2="180.993" gradientUnits="userSpaceOnUse">
<stop stop-color="#821759"/>
<stop offset="1" stop-color="#660E35"/>
</linearGradient>
<linearGradient id="paint83_linear" x1="74.4765" y1="189.151" x2="69.7204" y2="162.476" gradientUnits="userSpaceOnUse">
<stop stop-color="#821759"/>
<stop offset="1" stop-color="#660E35"/>
</linearGradient>
<linearGradient id="paint84_linear" x1="72.3781" y1="170.97" x2="67.6143" y2="144.252" gradientUnits="userSpaceOnUse">
<stop stop-color="#821759"/>
<stop offset="1" stop-color="#660E35"/>
</linearGradient>
<linearGradient id="paint85_linear" x1="69.2202" y1="150.951" x2="64.8825" y2="126.623" gradientUnits="userSpaceOnUse">
<stop stop-color="#821759"/>
<stop offset="1" stop-color="#660E35"/>
</linearGradient>
<linearGradient id="paint86_linear" x1="54.3711" y1="121.438" x2="73.0667" y2="118.106" gradientUnits="userSpaceOnUse">
<stop stop-color="#6EBE9F"/>
<stop offset="0.5148" stop-color="#53706E"/>
<stop offset="1" stop-color="#4E143F"/>
</linearGradient>
<linearGradient id="paint87_linear" x1="51.4047" y1="102.497" x2="68.1643" y2="99.5095" gradientUnits="userSpaceOnUse">
<stop stop-color="#6EBE9F"/>
<stop offset="0.5148" stop-color="#53706E"/>
<stop offset="1" stop-color="#4E143F"/>
</linearGradient>
<linearGradient id="paint88_linear" x1="47.7937" y1="84.143" x2="54.8034" y2="82.8937" gradientUnits="userSpaceOnUse">
<stop stop-color="#6EBE9F"/>
<stop offset="0.5148" stop-color="#53706E"/>
<stop offset="1" stop-color="#4E143F"/>
</linearGradient>
<linearGradient id="paint89_linear" x1="111.567" y1="316.475" x2="114.196" y2="292.636" gradientUnits="userSpaceOnUse">
<stop stop-color="#E62879"/>
<stop offset="0.3575" stop-color="#CC1B70"/>
<stop offset="1" stop-color="#561D53"/>
</linearGradient>
<linearGradient id="paint90_linear" x1="94.6963" y1="307.051" x2="97.635" y2="280.411" gradientUnits="userSpaceOnUse">
<stop stop-color="#E62879"/>
<stop offset="0.3575" stop-color="#CC1B70"/>
<stop offset="1" stop-color="#561D53"/>
</linearGradient>
<linearGradient id="paint91_linear" x1="77.8176" y1="288.189" x2="80.1587" y2="266.966" gradientUnits="userSpaceOnUse">
<stop stop-color="#E62879"/>
<stop offset="0.3575" stop-color="#CC1B70"/>
<stop offset="1" stop-color="#561D53"/>
</linearGradient>
<linearGradient id="paint92_linear" x1="66.8254" y1="272.547" x2="69.0622" y2="252.271" gradientUnits="userSpaceOnUse">
<stop stop-color="#E62879"/>
<stop offset="0.3575" stop-color="#CC1B70"/>
<stop offset="1" stop-color="#561D53"/>
</linearGradient>
<linearGradient id="paint93_linear" x1="59.19" y1="249.942" x2="60.7081" y2="236.179" gradientUnits="userSpaceOnUse">
<stop stop-color="#E62879"/>
<stop offset="0.3575" stop-color="#CC1B70"/>
<stop offset="1" stop-color="#561D53"/>
</linearGradient>
<linearGradient id="paint94_linear" x1="54.6865" y1="229.493" x2="52.5315" y2="217.407" gradientUnits="userSpaceOnUse">
<stop stop-color="#821759"/>
<stop offset="1" stop-color="#660E35"/>
</linearGradient>
<linearGradient id="paint95_linear" x1="52.8109" y1="209.582" x2="49.8658" y2="193.065" gradientUnits="userSpaceOnUse">
<stop stop-color="#821759"/>
<stop offset="1" stop-color="#660E35"/>
</linearGradient>
<linearGradient id="paint96_linear" x1="50.4388" y1="193.306" x2="46.7912" y2="172.849" gradientUnits="userSpaceOnUse">
<stop stop-color="#821759"/>
<stop offset="1" stop-color="#660E35"/>
</linearGradient>
<linearGradient id="paint97_linear" x1="49.2114" y1="173.7" x2="45.9327" y2="155.311" gradientUnits="userSpaceOnUse">
<stop stop-color="#821759"/>
<stop offset="1" stop-color="#660E35"/>
</linearGradient>
<linearGradient id="paint98_linear" x1="51.4851" y1="153.756" x2="47.6883" y2="132.461" gradientUnits="userSpaceOnUse">
<stop stop-color="#821759"/>
<stop offset="1" stop-color="#660E35"/>
</linearGradient>
<linearGradient id="paint99_linear" x1="37.5178" y1="127.134" x2="55.3374" y2="123.958" gradientUnits="userSpaceOnUse">
<stop stop-color="#6EBE9F"/>
<stop offset="0.5148" stop-color="#53706E"/>
<stop offset="1" stop-color="#4E143F"/>
</linearGradient>
<linearGradient id="paint100_linear" x1="40.0191" y1="106.55" x2="52.5383" y2="104.319" gradientUnits="userSpaceOnUse">
<stop stop-color="#6EBE9F"/>
<stop offset="0.5148" stop-color="#53706E"/>
<stop offset="1" stop-color="#4E143F"/>
</linearGradient>
<linearGradient id="paint101_linear" x1="31.2651" y1="89.4195" x2="49.3673" y2="86.1932" gradientUnits="userSpaceOnUse">
<stop stop-color="#6EBE9F"/>
<stop offset="0.5148" stop-color="#53706E"/>
<stop offset="1" stop-color="#4E143F"/>
</linearGradient>
<linearGradient id="paint102_linear" x1="12.5941" y1="71.5875" x2="42.9465" y2="66.1779" gradientUnits="userSpaceOnUse">
<stop stop-color="#6EBE9F"/>
<stop offset="0.5148" stop-color="#53706E"/>
<stop offset="1" stop-color="#4E143F"/>
</linearGradient>
<linearGradient id="paint103_linear" x1="1.66726" y1="61.9888" x2="32.6916" y2="56.4595" gradientUnits="userSpaceOnUse">
<stop stop-color="#6EBE9F"/>
<stop offset="0.5148" stop-color="#53706E"/>
<stop offset="1" stop-color="#4E143F"/>
</linearGradient>
<linearGradient id="paint104_linear" x1="85.1036" y1="256.896" x2="85.1036" y2="327.769" gradientUnits="userSpaceOnUse">
<stop stop-color="#48B2B7"/>
<stop offset="1" stop-color="#06FC9D"/>
</linearGradient>
<linearGradient id="paint105_linear" x1="154.809" y1="197.905" x2="154.809" y2="226.555" gradientUnits="userSpaceOnUse">
<stop stop-color="#88898C"/>
<stop offset="1" stop-color="#D9D9D9"/>
</linearGradient>
<linearGradient id="paint106_linear" x1="126.484" y1="255.341" x2="126.484" y2="329.47" gradientUnits="userSpaceOnUse">
<stop stop-color="#48B2B7"/>
<stop offset="1" stop-color="#06FC9D"/>
</linearGradient>
<clipPath id="clip0">
<rect width="262" height="369" fill="white"/>
</clipPath>
</defs>
</svg>
