<?xml version="1.0" encoding="UTF-8"?>
<svg width="484px" height="683px" viewBox="0 0 484 683" version="1.1" xmlns="http://www.w3.org/2000/svg" xmlns:xlink="http://www.w3.org/1999/xlink">
    <!-- Generator: Sketch 43.2 (39069) - http://www.bohemiancoding.com/sketch -->
    <title>trust</title>
    <desc>Created with Sketch.</desc>
    <defs>
        <linearGradient x1="97.2956429%" y1="-3.17791773%" x2="72.9634685%" y2="46.7957748%" id="linearGradient-1">
            <stop stop-color="#4F264F" offset="0%"></stop>
            <stop stop-color="#B777B1" offset="100%"></stop>
        </linearGradient>
        <linearGradient x1="50.7816854%" y1="58.8782058%" x2="116.648004%" y2="-82.0339532%" id="linearGradient-2">
            <stop stop-color="#6FC0A1" offset="0%"></stop>
            <stop stop-color="#54706E" offset="51%"></stop>
            <stop stop-color="#4F143F" offset="100%"></stop>
        </linearGradient>
        <linearGradient x1="74.3251513%" y1="-17.7310382%" x2="86.8481232%" y2="84.8032755%" id="linearGradient-3">
            <stop stop-color="#E72A7A" offset="0%"></stop>
            <stop stop-color="#70AFC5" offset="60%"></stop>
            <stop stop-color="#6DC4CC" offset="100%"></stop>
        </linearGradient>
        <linearGradient x1="46.0333608%" y1="44.6905595%" x2="150.001517%" y2="-2.97916412%" id="linearGradient-4">
            <stop stop-color="#E94C4A" offset="0%"></stop>
            <stop stop-color="#F39432" stop-opacity="0.99" offset="100%"></stop>
        </linearGradient>
        <linearGradient x1="24.6602405%" y1="42.8527015%" x2="123.751206%" y2="19.3841763%" id="linearGradient-5">
            <stop stop-color="#E72A7A" offset="0%"></stop>
            <stop stop-color="#CD1D70" offset="36%"></stop>
            <stop stop-color="#571D53" offset="100%"></stop>
        </linearGradient>
        <linearGradient x1="96.6727021%" y1="-2.74511841%" x2="72.3304565%" y2="47.2284795%" id="linearGradient-6">
            <stop stop-color="#4F264F" offset="0%"></stop>
            <stop stop-color="#B777B1" offset="100%"></stop>
        </linearGradient>
        <linearGradient x1="50.149182%" y1="59.7195594%" x2="116.014109%" y2="-81.0434274%" id="linearGradient-7">
            <stop stop-color="#6FC0A1" offset="0%"></stop>
            <stop stop-color="#54706E" offset="51%"></stop>
            <stop stop-color="#4F143F" offset="100%"></stop>
        </linearGradient>
        <linearGradient x1="73.5298813%" y1="-17.2076781%" x2="86.0490328%" y2="85.318151%" id="linearGradient-8">
            <stop stop-color="#E72A7A" offset="0%"></stop>
            <stop stop-color="#70AFC5" offset="60%"></stop>
            <stop stop-color="#6DC4CC" offset="100%"></stop>
        </linearGradient>
        <linearGradient x1="44.8439951%" y1="45.6487992%" x2="148.806134%" y2="-1.92534221%" id="linearGradient-9">
            <stop stop-color="#E94C4A" offset="0%"></stop>
            <stop stop-color="#F39432" stop-opacity="0.99" offset="100%"></stop>
        </linearGradient>
        <linearGradient x1="23.8412218%" y1="43.5966209%" x2="122.846205%" y2="20.1255327%" id="linearGradient-10">
            <stop stop-color="#E72A7A" offset="0%"></stop>
            <stop stop-color="#CD1D70" offset="36%"></stop>
            <stop stop-color="#571D53" offset="100%"></stop>
        </linearGradient>
        <linearGradient x1="96.6653524%" y1="-3.59866387%" x2="72.334405%" y2="46.37506%" id="linearGradient-11">
            <stop stop-color="#4F264F" offset="0%"></stop>
            <stop stop-color="#B777B1" offset="100%"></stop>
        </linearGradient>
        <linearGradient x1="50.0447871%" y1="58.0815369%" x2="115.920031%" y2="-82.7950311%" id="linearGradient-12">
            <stop stop-color="#6FC0A1" offset="0%"></stop>
            <stop stop-color="#54706E" offset="51%"></stop>
            <stop stop-color="#4F143F" offset="100%"></stop>
        </linearGradient>
        <linearGradient x1="73.4597895%" y1="-18.2538575%" x2="85.9855451%" y2="84.2772947%" id="linearGradient-13">
            <stop stop-color="#E72A7A" offset="0%"></stop>
            <stop stop-color="#70AFC5" offset="60%"></stop>
            <stop stop-color="#6DC4CC" offset="100%"></stop>
        </linearGradient>
        <linearGradient x1="44.6678859%" y1="43.5730904%" x2="148.641307%" y2="-4.099503%" id="linearGradient-14">
            <stop stop-color="#E94C4A" offset="0%"></stop>
            <stop stop-color="#F39432" stop-opacity="0.99" offset="100%"></stop>
        </linearGradient>
        <linearGradient x1="23.6432635%" y1="42.0945107%" x2="122.904457%" y2="18.603858%" id="linearGradient-15">
            <stop stop-color="#E72A7A" offset="0%"></stop>
            <stop stop-color="#CD1D70" offset="36%"></stop>
            <stop stop-color="#571D53" offset="100%"></stop>
        </linearGradient>
        <linearGradient x1="97.5243871%" y1="-2.36131951%" x2="73.1848626%" y2="47.6134749%" id="linearGradient-16">
            <stop stop-color="#4F264F" offset="0%"></stop>
            <stop stop-color="#B777B1" offset="100%"></stop>
        </linearGradient>
        <linearGradient x1="51.057063%" y1="60.4747595%" x2="116.922319%" y2="-80.3343768%" id="linearGradient-17">
            <stop stop-color="#6FC0A1" offset="0%"></stop>
            <stop stop-color="#54706E" offset="51%"></stop>
            <stop stop-color="#4F143F" offset="100%"></stop>
        </linearGradient>
        <linearGradient x1="74.6901734%" y1="-16.7290718%" x2="87.2151638%" y2="85.7740028%" id="linearGradient-18">
            <stop stop-color="#E72A7A" offset="0%"></stop>
            <stop stop-color="#70AFC5" offset="60%"></stop>
            <stop stop-color="#6DC4CC" offset="100%"></stop>
        </linearGradient>
        <linearGradient x1="46.6292216%" y1="46.6257393%" x2="150.601845%" y2="-1.06006263%" id="linearGradient-19">
            <stop stop-color="#E94C4A" offset="0%"></stop>
            <stop stop-color="#F39432" stop-opacity="0.99" offset="100%"></stop>
        </linearGradient>
        <linearGradient x1="25.1951422%" y1="44.272716%" x2="124.231332%" y2="20.8255877%" id="linearGradient-20">
            <stop stop-color="#E72A7A" offset="0%"></stop>
            <stop stop-color="#CD1D70" offset="36%"></stop>
            <stop stop-color="#571D53" offset="100%"></stop>
        </linearGradient>
        <linearGradient x1="0.00296118465%" y1="50.0410623%" x2="100.005431%" y2="50.0410623%" id="linearGradient-21">
            <stop stop-color="#E94C4A" offset="0%"></stop>
            <stop stop-color="#F39432" stop-opacity="0.99" offset="18%"></stop>
            <stop stop-color="#F39432" stop-opacity="0.99" offset="33%"></stop>
        </linearGradient>
        <linearGradient x1="-0.0181357657%" y1="50.0105109%" x2="100.003623%" y2="50.0105109%" id="linearGradient-22">
            <stop stop-color="#E94C4A" offset="0%"></stop>
            <stop stop-color="#F39432" stop-opacity="0.99" offset="18%"></stop>
            <stop stop-color="#F39432" stop-opacity="0.99" offset="33%"></stop>
        </linearGradient>
        <linearGradient x1="0.0632795441%" y1="49.9919567%" x2="100.011356%" y2="49.9919567%" id="linearGradient-23">
            <stop stop-color="#E94C4A" offset="0%"></stop>
            <stop stop-color="#F39432" stop-opacity="0.99" offset="18%"></stop>
            <stop stop-color="#F39432" stop-opacity="0.99" offset="33%"></stop>
        </linearGradient>
    </defs>
    <g id="Page-1" stroke="none" stroke-width="1" fill="none" fill-rule="evenodd">
        <g id="trust" fill-rule="nonzero">
            <path d="M351.316406,151.824219 C351.222656,152.890625 350.925781,153.925781 350.433594,154.875 C349.933594,155.820312 349.253906,156.660156 348.433594,157.347656 C347.617188,158.035156 346.671875,158.558594 345.652344,158.878906 C344.636719,159.210938 343.566406,159.328125 342.5,159.226562 C338.835938,158.917969 335.839844,156.183594 335.191406,152.5625 C334.546875,148.941406 336.414062,145.339844 339.742188,143.777344 C343.074219,142.21875 347.035156,143.089844 349.40625,145.902344 C350.09375,146.714844 350.613281,147.65625 350.933594,148.675781 C351.253906,149.691406 351.375,150.761719 351.285156,151.824219" id="Shape" fill="#F8AD29"></path>
            <path d="M347.273438,109.628906 C327.96875,107.984375 310.117188,119.992188 304.359375,138.496094 C298.605469,156.996094 306.496094,177.011719 323.328125,186.609375 C340.15625,196.210938 361.402344,192.808594 374.394531,178.433594 C377.855469,172.789062 376.519531,165.445312 371.292969,161.378906 C366.066406,157.3125 358.621094,157.820312 353.996094,162.558594 C349.347656,167.042969 342.417969,168.207031 336.5625,165.484375 C330.703125,162.761719 327.125,156.714844 327.554688,150.269531 C327.988281,143.824219 332.339844,138.3125 338.507812,136.390625 C344.675781,134.472656 351.386719,136.546875 355.398438,141.609375 C357.863281,145.734375 362.390625,148.175781 367.191406,147.964844 C371.992188,147.753906 376.292969,144.929688 378.386719,140.605469 C380.480469,136.277344 380.035156,131.152344 377.226562,127.253906 C377.105469,127.042969 376.976562,126.839844 376.835938,126.644531 C370,117.164062 359.492188,110.992188 347.882812,109.640625 L347.273438,109.640625 L347.273438,109.628906 Z" id="Shape" fill="url(#linearGradient-1)"></path>
            <path d="M303.957031,151.15625 C303.035156,151.15625 302.476562,153.15625 302.027344,158.449219 C305.355469,177.019531 320.738281,191.042969 339.539062,192.640625 C341.90625,192.839844 344.285156,192.839844 346.652344,192.640625 C359.582031,190.921875 370.792969,182.84375 376.515625,171.121094 C376.449219,167.027344 374.453125,163.207031 371.132812,160.816406 C367.808594,158.421875 363.550781,157.742188 359.648438,158.976562 C357.976562,159.976562 356.277344,160.980469 354.527344,161.980469 C354.347656,162.160156 354.167969,162.347656 353.996094,162.539062 C351.722656,164.730469 348.835938,166.175781 345.722656,166.691406 C339.859375,169.453125 333.976562,171.324219 328.714844,170.882812 C312.691406,169.53125 306.707031,151.15625 303.957031,151.15625 Z" id="Shape" fill="url(#linearGradient-2)"></path>
            <path d="M332.578125,114.050781 C329.246094,113.765625 325.890625,114.003906 322.632812,114.75 C312.953125,120.195312 305.847656,129.277344 302.886719,139.980469 C299.925781,150.6875 301.359375,162.128906 306.867188,171.773438 C315.039062,179.539062 326.597656,182.625 337.554688,179.964844 C348.507812,177.308594 357.367188,169.265625 361.070312,158.617188 C358.339844,159.152344 355.859375,160.558594 353.996094,162.621094 C349.347656,167.105469 342.417969,168.265625 336.5625,165.542969 C330.703125,162.820312 327.125,156.777344 327.554688,150.332031 C327.988281,143.886719 332.339844,138.371094 338.507812,136.453125 C344.675781,134.535156 351.386719,136.609375 355.398438,141.671875 C357.082031,144.488281 359.765625,146.566406 362.910156,147.503906 C362.789062,130.417969 349.804688,115.511719 332.578125,114.050781 Z" id="Shape" fill="url(#linearGradient-3)"></path>
            <path d="M364.640625,158.398438 C360.640625,158.058594 356.707031,159.597656 353.996094,162.558594 C350.179688,166.253906 344.738281,167.738281 339.570312,166.5 C335.140625,175.835938 338.332031,187.011719 347.023438,192.601562 C356.167969,191.730469 364.765625,187.859375 371.484375,181.597656 C375.6875,178.3125 377.457031,172.792969 375.949219,167.675781 C374.441406,162.558594 369.964844,158.878906 364.648438,158.398438 L364.640625,158.398438 Z" id="Shape" fill="url(#linearGradient-4)"></path>
            <path d="M346.59375,109.546875 C331.5625,108.289062 317.023438,115.25 308.578125,127.746094 C307.613281,140.222656 315.800781,151.570312 327.945312,154.585938 C326.398438,147.488281 329.953125,140.257812 336.519531,137.152344 C343.085938,134.042969 350.929688,135.878906 355.4375,141.582031 C355.484375,141.648438 355.527344,141.71875 355.566406,141.792969 C358.167969,142.03125 358.90625,140.339844 359.566406,132.949219 C360.253906,124.1875 356.695312,115.628906 349.996094,109.9375 C348.902344,109.757812 347.792969,109.617188 346.671875,109.519531 L346.59375,109.546875 Z" id="Shape" fill="url(#linearGradient-5)"></path>
            <path d="M379.546875,136.027344 C379.253906,139.464844 377.609375,142.648438 374.972656,144.871094 C370.472656,148.660156 363.992188,148.957031 359.164062,145.59375 C354.339844,142.230469 352.371094,136.046875 354.363281,130.515625 C356.359375,124.980469 361.820312,121.472656 367.679688,121.964844 C371.125,122.253906 374.308594,123.902344 376.535156,126.546875 C378.753906,129.183594 379.832031,132.59375 379.535156,136.027344" id="Shape" fill="#4F143F"></path>
            <path d="M258.078125,116.332031 C257.988281,117.398438 257.691406,118.433594 257.199219,119.382812 C255.679688,122.292969 252.566406,124.011719 249.296875,123.746094 C246.027344,123.460938 243.25,121.234375 242.257812,118.109375 C241.265625,114.980469 242.253906,111.5625 244.757812,109.445312 C247.265625,107.328125 250.800781,106.925781 253.71875,108.429688 C255.628906,109.421875 257.070312,111.132812 257.71875,113.191406 C258.039062,114.203125 258.160156,115.273438 258.070312,116.332031" id="Shape" fill="#F8AD29"></path>
            <path d="M254.039062,74.125 C234.734375,72.5 216.898438,84.515625 211.15625,103.015625 C205.410156,121.515625 213.304688,141.519531 230.132812,151.113281 C246.960938,160.707031 268.195312,157.308594 281.1875,142.941406 C284.667969,137.292969 283.339844,129.929688 278.101562,125.855469 C272.863281,121.78125 265.398438,122.300781 260.78125,127.066406 C256.132812,131.554688 249.203125,132.722656 243.339844,130 C237.480469,127.28125 233.898438,121.230469 234.332031,114.785156 C234.761719,108.335938 239.117188,102.820312 245.289062,100.90625 C251.460938,98.988281 258.171875,101.070312 262.179688,106.136719 C264.648438,110.25 269.175781,112.679688 273.964844,112.46875 C278.757812,112.257812 283.050781,109.4375 285.148438,105.121094 C287.246094,100.808594 286.8125,95.691406 284.019531,91.792969 C283.910156,91.601562 283.777344,91.390625 283.628906,91.183594 C276.796875,81.695312 266.289062,75.523438 254.675781,74.175781 L254.066406,74.113281 L254.039062,74.125 Z" id="Shape" fill="url(#linearGradient-6)"></path>
            <path d="M210.71875,115.640625 C209.800781,115.640625 209.238281,117.640625 208.789062,122.933594 C212.105469,141.519531 227.492188,155.558594 246.304688,157.15625 C248.671875,157.363281 251.050781,157.363281 253.417969,157.15625 C266.34375,155.441406 277.554688,147.367188 283.277344,135.648438 C283.195312,131.5625 281.195312,127.75 277.878906,125.359375 C274.5625,122.972656 270.316406,122.28125 266.414062,123.496094 C264.742188,124.496094 263.039062,125.496094 261.289062,126.546875 C261.109375,126.714844 260.929688,126.90625 260.75,127.09375 C258.472656,129.285156 255.589844,130.734375 252.476562,131.257812 C246.613281,134.019531 240.730469,135.890625 235.46875,135.4375 C219.453125,134.039062 213.472656,115.703125 210.71875,115.640625 Z" id="Shape" fill="url(#linearGradient-7)"></path>
            <path d="M239.339844,78.558594 C236.011719,78.273438 232.65625,78.507812 229.398438,79.257812 C219.71875,84.703125 212.609375,93.78125 209.648438,104.488281 C206.691406,115.191406 208.125,126.636719 213.632812,136.277344 C221.800781,144.046875 233.355469,147.136719 244.3125,144.480469 C255.265625,141.824219 264.125,133.789062 267.832031,123.144531 C265.101562,123.683594 262.621094,125.085938 260.75,127.144531 C256.089844,131.605469 249.167969,132.746094 243.324219,130.011719 C237.480469,127.277344 233.917969,121.230469 234.355469,114.796875 C234.792969,108.359375 239.140625,102.851562 245.300781,100.9375 C251.460938,99.019531 258.167969,101.085938 262.179688,106.136719 C263.859375,108.960938 266.542969,111.042969 269.695312,111.96875 C269.554688,94.933594 256.570312,80.015625 239.339844,78.558594 Z" id="Shape" fill="url(#linearGradient-8)"></path>
            <path d="M271.394531,122.902344 C267.394531,122.574219 263.464844,124.109375 260.75,127.066406 C256.929688,130.757812 251.5,132.265625 246.324219,131.066406 C241.890625,140.402344 245.085938,151.574219 253.777344,157.15625 C262.921875,156.285156 271.519531,152.417969 278.238281,146.152344 C282.441406,142.867188 284.210938,137.34375 282.703125,132.226562 C281.191406,127.109375 276.707031,123.433594 271.394531,122.953125 L271.394531,122.902344 Z" id="Shape" fill="url(#linearGradient-9)"></path>
            <path d="M253.355469,74.066406 C238.308594,72.78125 223.746094,79.738281 215.292969,92.253906 C214.296875,104.746094 222.492188,116.125 234.660156,119.140625 C233.082031,112.027344 236.636719,104.765625 243.226562,101.652344 C249.816406,98.539062 257.6875,100.398438 262.179688,106.136719 L262.3125,106.347656 C264.910156,106.585938 265.652344,104.898438 266.3125,97.503906 C266.996094,88.742188 263.4375,80.183594 256.738281,74.496094 C255.648438,74.316406 254.539062,74.175781 253.417969,74.085938 L253.355469,74.066406 Z" id="Shape" fill="url(#linearGradient-10)"></path>
            <path d="M286.308594,100.546875 C286.167969,102.246094 285.6875,103.902344 284.898438,105.417969 C284.121094,106.945312 283.046875,108.304688 281.738281,109.417969 C280.429688,110.519531 278.914062,111.351562 277.285156,111.871094 C275.671875,112.382812 273.972656,112.574219 272.285156,112.429688 C267.050781,111.972656 262.609375,108.414062 261.019531,103.40625 C259.433594,98.398438 261.011719,92.925781 265.027344,89.539062 C269.039062,86.148438 274.695312,85.507812 279.367188,87.910156 C284.050781,90.324219 286.816406,95.324219 286.371094,100.574219" id="Shape" fill="#4F143F"></path>
            <path d="M351.214844,42.503906 C351.035156,44.652344 350.007812,46.640625 348.355469,48.023438 C347.542969,48.714844 346.601562,49.238281 345.582031,49.554688 C344.566406,49.882812 343.496094,50.007812 342.433594,49.914062 C339.164062,49.628906 336.386719,47.40625 335.394531,44.28125 C334.402344,41.152344 335.390625,37.734375 337.894531,35.617188 C340.402344,33.5 343.9375,33.097656 346.851562,34.601562 C347.804688,35.09375 348.648438,35.773438 349.335938,36.601562 C350.015625,37.417969 350.535156,38.359375 350.863281,39.371094 C351.183594,40.390625 351.304688,41.460938 351.214844,42.523438" id="Shape" fill="#F8AD29"></path>
            <path d="M347.144531,0.304688 C327.835938,-1.351562 309.976562,10.648438 304.210938,29.148438 C298.441406,47.648438 306.320312,67.667969 323.148438,77.277344 C339.976562,86.882812 361.222656,83.492188 374.222656,69.125 C377.707031,63.472656 376.375,56.109375 371.136719,52.035156 C365.898438,47.960938 358.433594,48.484375 353.816406,53.246094 C349.164062,57.726562 342.238281,58.882812 336.386719,56.160156 C330.53125,53.4375 326.953125,47.394531 327.386719,40.949219 C327.816406,34.507812 332.164062,28.996094 338.328125,27.074219 C344.492188,25.152344 351.203125,27.222656 355.214844,32.277344 C357.6875,36.390625 362.210938,38.820312 367.003906,38.609375 C371.796875,38.398438 376.085938,35.578125 378.183594,31.265625 C380.28125,26.949219 379.847656,21.832031 377.054688,17.933594 C376.9375,17.722656 376.808594,17.519531 376.664062,17.324219 C369.832031,7.839844 359.324219,1.667969 347.714844,0.316406 L347.101562,0.316406 L347.144531,0.304688 Z" id="Shape" fill="url(#linearGradient-11)"></path>
            <path d="M303.828125,41.8125 C302.90625,41.8125 302.347656,43.8125 301.894531,49.105469 C305.222656,67.679688 320.609375,81.703125 339.410156,83.296875 C341.777344,83.5 344.15625,83.5 346.523438,83.296875 C359.453125,81.578125 370.660156,73.5 376.386719,61.78125 C376.300781,57.695312 374.296875,53.886719 370.980469,51.5 C367.664062,49.113281 363.421875,48.421875 359.519531,49.636719 C357.847656,50.636719 356.148438,51.636719 354.394531,52.636719 L353.855469,53.195312 C351.578125,55.386719 348.691406,56.835938 345.574219,57.347656 C339.71875,60.109375 333.839844,61.980469 328.566406,61.539062 C312.558594,60.210938 306.578125,41.871094 303.828125,41.8125 Z" id="Shape" fill="url(#linearGradient-12)"></path>
            <path d="M332.449219,4.726562 C329.117188,4.445312 325.761719,4.679688 322.503906,5.429688 C312.824219,10.871094 305.714844,19.953125 302.757812,30.660156 C299.796875,41.363281 301.230469,52.804688 306.738281,62.449219 C314.910156,70.21875 326.46875,73.304688 337.421875,70.644531 C348.378906,67.984375 357.234375,59.945312 360.9375,49.296875 C358.210938,49.832031 355.726562,51.238281 353.855469,53.296875 C349.210938,57.773438 342.292969,58.933594 336.441406,56.21875 C330.589844,53.5 327.007812,47.46875 327.421875,41.03125 C327.839844,34.59375 332.167969,29.074219 338.320312,27.136719 C344.476562,25.199219 351.1875,27.242188 355.214844,32.277344 C356.910156,35.105469 359.605469,37.1875 362.769531,38.109375 C362.648438,21.105469 349.675781,6.1875 332.449219,4.726562 Z" id="Shape" fill="url(#linearGradient-13)"></path>
            <path d="M364.5,49.117188 C360.5,48.785156 356.570312,50.320312 353.855469,53.277344 C350.039062,56.972656 344.597656,58.457031 339.429688,57.21875 C335.003906,66.554688 338.191406,77.726562 346.882812,83.320312 C356.027344,82.445312 364.625,78.574219 371.34375,72.3125 C375.546875,69.027344 377.316406,63.507812 375.808594,58.390625 C374.296875,53.269531 369.816406,49.59375 364.5,49.117188 Z" id="Shape" fill="url(#linearGradient-14)"></path>
            <path d="M346.464844,0.226562 C331.433594,-1.03125 316.894531,5.925781 308.449219,18.421875 C307.476562,30.902344 315.667969,42.253906 327.816406,45.265625 C327.488281,43.75 327.390625,42.195312 327.527344,40.652344 C328.105469,34.320312 332.464844,28.976562 338.550781,27.136719 C344.632812,25.296875 351.226562,27.332031 355.214844,32.277344 L355.347656,32.488281 C357.949219,32.730469 358.6875,31.039062 359.347656,23.644531 C360.042969,14.886719 356.484375,6.324219 349.785156,0.636719 C348.695312,0.457031 347.582031,0.316406 346.464844,0.214844 L346.464844,0.226562 Z" id="Shape" fill="url(#linearGradient-15)"></path>
            <path d="M379.417969,26.707031 C379.277344,28.410156 378.796875,30.070312 378.003906,31.589844 C376.425781,34.660156 373.6875,36.972656 370.390625,38.011719 C368.777344,38.527344 367.078125,38.714844 365.390625,38.570312 C358.230469,37.964844 352.917969,31.667969 353.527344,24.503906 C354.132812,17.34375 360.429688,12.035156 367.589844,12.640625 C369.285156,12.8125 370.929688,13.308594 372.433594,14.101562 C377.113281,16.511719 379.878906,21.507812 379.4375,26.757812" id="Shape" fill="#4F143F"></path>
            <path d="M276.1875,242.390625 C276,244.535156 274.972656,246.523438 273.324219,247.914062 C272.511719,248.605469 271.570312,249.125 270.554688,249.441406 C269.535156,249.761719 268.464844,249.882812 267.402344,249.792969 C263.738281,249.480469 260.742188,246.746094 260.09375,243.128906 C259.449219,239.507812 261.3125,235.902344 264.644531,234.34375 C267.972656,232.78125 271.9375,233.65625 274.304688,236.46875 C275.695312,238.113281 276.371094,240.246094 276.1875,242.390625" id="Shape" fill="#F8AD29"></path>
            <path d="M272.183594,200.175781 C252.878906,198.535156 235.035156,210.542969 229.28125,229.042969 C223.527344,247.542969 231.414062,267.554688 248.242188,277.152344 C265.070312,286.753906 286.308594,283.359375 299.304688,268.992188 C302.785156,263.34375 301.457031,255.984375 296.222656,251.910156 C290.992188,247.832031 283.53125,248.347656 278.90625,253.105469 C274.261719,257.585938 267.335938,258.746094 261.484375,256.023438 C255.632812,253.304688 252.054688,247.261719 252.484375,240.820312 C252.917969,234.382812 257.265625,228.871094 263.429688,226.953125 C269.59375,225.035156 276.300781,227.105469 280.308594,232.167969 C282.777344,236.277344 287.300781,238.710938 292.09375,238.496094 C296.886719,238.285156 301.179688,235.464844 303.277344,231.152344 C305.375,226.835938 304.941406,221.71875 302.144531,217.820312 C302.027344,217.609375 301.898438,217.40625 301.757812,217.210938 C294.925781,207.722656 284.417969,201.550781 272.804688,200.203125 L272.183594,200.175781 Z" id="Shape" fill="url(#linearGradient-16)"></path>
            <path d="M228.828125,241.699219 C227.90625,241.699219 227.347656,243.699219 226.898438,248.984375 C230.214844,267.566406 245.601562,281.601562 264.410156,283.207031 C266.777344,283.40625 269.15625,283.40625 271.523438,283.207031 C284.453125,281.484375 295.660156,273.40625 301.386719,261.6875 C301.304688,257.597656 299.304688,253.785156 295.984375,251.394531 C292.664062,249.003906 288.414062,248.316406 284.507812,249.53125 C282.847656,250.539062 281.144531,251.558594 279.398438,252.585938 L278.855469,253.132812 C276.585938,255.332031 273.695312,256.785156 270.574219,257.296875 C264.710938,260.058594 258.839844,261.929688 253.566406,261.476562 C237.5625,260.085938 231.578125,241.761719 228.828125,241.699219 Z" id="Shape" fill="url(#linearGradient-17)"></path>
            <path d="M257.449219,204.605469 C254.117188,204.320312 250.761719,204.558594 247.503906,205.316406 C237.824219,210.757812 230.714844,219.839844 227.753906,230.546875 C224.792969,241.25 226.226562,252.695312 231.738281,262.339844 C239.90625,270.109375 251.464844,273.199219 262.421875,270.542969 C273.382812,267.886719 282.238281,259.84375 285.941406,249.191406 C283.214844,249.738281 280.734375,251.140625 278.855469,253.195312 C274.210938,257.675781 267.285156,258.835938 261.433594,256.113281 C255.582031,253.394531 252.003906,247.351562 252.4375,240.910156 C252.867188,234.472656 257.214844,228.960938 263.378906,227.042969 C269.542969,225.125 276.25,227.195312 280.257812,232.257812 C281.945312,235.070312 284.625,237.152344 287.769531,238.089844 C287.652344,220.980469 274.675781,206.078125 257.449219,204.605469 Z" id="Shape" fill="url(#linearGradient-18)"></path>
            <path d="M289.5,248.960938 C285.503906,248.628906 281.574219,250.164062 278.855469,253.113281 C275.042969,256.816406 269.597656,258.304688 264.429688,257.066406 C260,266.398438 263.191406,277.570312 271.882812,283.15625 C281.027344,282.289062 289.628906,278.421875 296.34375,272.152344 C300.539062,268.863281 302.304688,263.347656 300.796875,258.234375 C299.289062,253.121094 294.8125,249.445312 289.5,248.960938 Z" id="Shape" fill="url(#linearGradient-19)"></path>
            <path d="M271.464844,200.113281 C256.414062,198.832031 241.847656,205.792969 233.390625,218.3125 C232.394531,230.808594 240.597656,242.183594 252.765625,245.191406 C252.4375,243.679688 252.339844,242.128906 252.476562,240.589844 C253.007812,234.207031 257.382812,228.796875 263.511719,226.945312 C269.640625,225.089844 276.277344,227.167969 280.257812,232.1875 L280.386719,232.394531 C282.980469,232.625 283.730469,230.9375 284.390625,223.554688 C285.085938,214.792969 281.527344,206.230469 274.824219,200.542969 C273.734375,200.355469 272.625,200.214844 271.503906,200.125 L271.464844,200.113281 Z" id="Shape" fill="url(#linearGradient-20)"></path>
            <path d="M304.417969,226.59375 C304.277344,228.300781 303.796875,229.957031 303.007812,231.476562 C300.003906,237.265625 293.175781,239.9375 287.039062,237.71875 C280.90625,235.5 277.363281,229.078125 278.757812,222.707031 C280.152344,216.335938 286.050781,211.980469 292.550781,212.527344 C294.257812,212.671875 295.917969,213.148438 297.433594,213.9375 C302.113281,216.351562 304.878906,221.347656 304.4375,226.59375" id="Shape" fill="#4F143F"></path>
            <path d="M332.699219,682.722656 C318.605469,682.757812 307.144531,671.382812 307.078125,657.289062 L307.078125,638.914062 C287.832031,641.066406 221.933594,640.566406 203.039062,637.535156 L203.039062,656.539062 C203.039062,670.691406 191.566406,682.160156 177.417969,682.160156 C163.269531,682.160156 151.796875,670.691406 151.796875,656.539062 L151.796875,619.195312 C99.695312,590.253906 67.328125,535.390625 67.195312,475.789062 C67.195312,425.601562 89.933594,378.753906 129.597656,347.339844 C155.382812,326.828125 186.707031,314.492188 219.554688,311.917969 C224.015625,311.566406 228.507812,311.386719 232.890625,311.386719 C248.355469,311.386719 318.113281,313.777344 335.617188,318.808594 L375.535156,279.203125 C376.734375,277.996094 378.542969,277.632812 380.117188,278.285156 C381.703125,278.917969 382.734375,280.457031 382.71875,282.164062 L382.71875,288.457031 L390.492188,280.765625 C391.6875,279.554688 393.5,279.191406 395.070312,279.84375 C396.65625,280.476562 397.691406,282.019531 397.671875,283.726562 L397.671875,354.082031 C438.347656,390.753906 458.023438,445.308594 450.121094,499.5 C442.21875,553.6875 407.78125,600.351562 358.328125,623.878906 L358.328125,657.28125 C358.265625,671.378906 346.796875,682.765625 332.699219,682.722656 Z" id="Shape" fill="#F8AD29"></path>
            <path d="M333.097656,681.101562 C319.007812,681.140625 307.542969,669.761719 307.476562,655.671875 L307.476562,637.285156 C288.230469,639.445312 222.324219,638.945312 203.4375,635.914062 L203.4375,654.921875 C203.4375,669.070312 191.96875,680.539062 177.816406,680.539062 C163.667969,680.539062 152.199219,669.070312 152.199219,654.921875 L152.199219,617.574219 C100.097656,588.632812 67.726562,533.769531 67.59375,474.171875 C67.59375,423.980469 90.335938,377.132812 130,345.71875 C155.78125,325.203125 187.105469,312.867188 219.953125,310.296875 C224.414062,309.945312 228.898438,309.765625 233.289062,309.765625 C248.753906,309.765625 318.511719,312.15625 336.019531,317.1875 L375.933594,277.59375 C377.132812,276.386719 378.945312,276.023438 380.515625,276.671875 C382.101562,277.304688 383.136719,278.847656 383.117188,280.554688 L383.117188,286.847656 L390.890625,279.15625 C392.089844,277.945312 393.898438,277.582031 395.472656,278.234375 C397.058594,278.867188 398.089844,280.410156 398.074219,282.117188 L398.074219,352.472656 C438.746094,389.140625 458.425781,443.699219 450.523438,497.886719 C442.621094,552.078125 408.179688,598.742188 358.726562,622.265625 L358.726562,655.671875 C358.660156,669.765625 347.195312,681.144531 333.097656,681.101562 Z M309.488281,635.003906 L309.488281,655.671875 C309.488281,668.710938 320.058594,679.28125 333.097656,679.28125 C346.136719,679.28125 356.707031,668.710938 356.707031,655.671875 L356.707031,620.988281 L357.289062,620.71875 C384.617188,607.753906 407.820312,587.46875 424.3125,562.113281 C467.730469,495.269531 455.878906,406.746094 396.414062,353.671875 L396.082031,353.375 L396.082031,282.117188 C396.089844,281.234375 395.554688,280.4375 394.730469,280.113281 C393.910156,279.761719 392.957031,279.945312 392.332031,280.585938 L381.125,291.6875 L381.125,280.554688 C381.132812,279.671875 380.597656,278.878906 379.777344,278.554688 C378.949219,278.203125 377.992188,278.394531 377.367188,279.035156 L336.597656,319.480469 L336.019531,319.300781 C319.753906,314.207031 248.894531,311.796875 233.308594,311.796875 C228.976562,311.796875 224.546875,311.96875 220.132812,312.316406 C187.683594,314.863281 156.734375,327.054688 131.269531,347.332031 C92.09375,378.34375 69.625,424.632812 69.625,474.199219 C69.765625,533.28125 101.960938,587.628906 153.707031,616.136719 L154.230469,616.425781 L154.230469,654.960938 C154.230469,668 164.800781,678.570312 177.839844,678.570312 C190.875,678.570312 201.445312,668 201.445312,654.960938 L201.445312,633.492188 L202.636719,633.722656 C219.644531,636.914062 291.101562,637.421875 308.378906,635.152344 L309.488281,635.003906 Z" id="Shape" fill="#F8AD29"></path>
            <path d="M331.46875,612.214844 C326.316406,604.992188 319.332031,599.699219 310.550781,597.726562 C302.894531,595.996094 295.023438,596.296875 287.242188,596.355469 L188.851562,597.109375 C180.429688,597.175781 172.347656,604.480469 172.734375,613.222656 C173.125,621.96875 179.820312,629.410156 188.851562,629.339844 L275.316406,628.667969 C282.109375,628.621094 288.910156,628.5 295.703125,628.519531 C297.234375,628.519531 298.753906,628.609375 300.273438,628.621094 L301.246094,628.621094 C302.046875,628.839844 302.855469,628.988281 303.65625,629.199219 C303.375,629.199219 304.175781,629.699219 304.578125,629.871094 C304.636719,629.980469 304.757812,630.171875 304.945312,630.46875 C305.226562,630.992188 306.039062,632.550781 306.066406,632.472656 C307.28125,635.550781 308.285156,638.710938 309.070312,641.925781 C310.941406,649.027344 311.351562,650.507812 311.621094,657.171875 C311.960938,665.585938 318.792969,673.6875 327.734375,673.289062 C336.167969,672.90625 344.210938,666.195312 343.851562,657.171875 C343.210938,642.035156 340.570312,624.957031 331.46875,612.214844 Z" id="Shape" fill="url(#linearGradient-21)"></path>
            <path d="M194.632812,648.578125 C192.785156,637.375 190.972656,626.167969 189.09375,614.972656 C187.179688,603.621094 183.269531,593.226562 174.4375,585.773438 C172.074219,583.773438 169.625,581.921875 167.171875,580.070312 C166.304688,579.410156 165.441406,578.761719 164.59375,578.070312 L164.460938,577.96875 L164.101562,577.660156 C160.421875,574.550781 156.859375,571.289062 153.46875,567.828125 C150.460938,564.757812 147.582031,561.554688 144.835938,558.210938 C144.144531,557.382812 143.476562,556.542969 142.835938,555.691406 C142.714844,555.550781 142.09375,554.75 141.695312,554.222656 C141.292969,553.691406 140.613281,552.761719 140.503906,552.589844 C139.714844,551.488281 138.953125,550.371094 138.191406,549.25 C133.0625,541.558594 128.617188,533.429688 124.917969,524.960938 C124.546875,524.121094 124.1875,523.277344 123.835938,522.429688 L123.46875,521.429688 C122.714844,519.425781 121.964844,517.328125 121.285156,515.246094 C119.839844,510.832031 118.589844,506.351562 117.542969,501.8125 C117.035156,499.570312 116.542969,497.320312 116.152344,495.046875 C115.945312,493.886719 115.742188,492.71875 115.554688,491.546875 C115.554688,491.355469 115.34375,490.097656 115.242188,489.375 C115.144531,488.65625 115.011719,487.375 114.992188,487.195312 C114.875,486.015625 114.773438,484.835938 114.683594,483.652344 C114.472656,481.003906 114.332031,478.332031 114.261719,475.652344 C114.136719,470.910156 114.21875,466.167969 114.511719,461.425781 C114.683594,458.765625 114.921875,456.101562 115.214844,453.421875 C115.214844,453.261719 115.214844,453.132812 115.265625,453.011719 C115.3125,452.890625 115.265625,452.761719 115.324219,452.589844 C115.542969,451.132812 115.765625,449.660156 116.023438,448.199219 C116.988281,442.660156 118.242188,437.179688 119.785156,431.773438 C120.515625,429.210938 121.316406,426.683594 122.167969,424.160156 C122.546875,423.050781 122.945312,421.941406 123.347656,420.828125 C123.347656,420.898438 124.539062,417.828125 124.558594,417.6875 C129.390625,406.273438 137.28125,395.871094 137.292969,382.914062 C137.292969,374.132812 129.878906,365.726562 121.175781,366.136719 C112.160156,366.472656 105.035156,373.894531 105.070312,382.914062 L105.070312,383.433594 C105.070312,383.59375 104.929688,383.945312 104.859375,384.144531 C103.917969,386.144531 102.769531,388.148438 101.738281,390.148438 C98.90625,395.609375 96.488281,401.25 94.195312,406.972656 C90.4375,416.296875 87.558594,425.953125 85.601562,435.816406 C81.339844,457.414062 81,479.601562 84.601562,501.320312 C90.84375,539.40625 111.453125,575.859375 140.09375,600.359375 C142.585938,602.488281 145.09375,604.539062 147.695312,606.550781 C148.765625,607.390625 149.835938,608.210938 150.917969,609.023438 C151.425781,609.402344 153.539062,611.023438 152.609375,610.261719 C154.609375,611.964844 155.4375,612.824219 155.960938,614.074219 C156.03125,614.363281 156.128906,614.765625 156.269531,615.292969 C156.628906,616.714844 156.96875,618.125 157.269531,619.554688 C159.761719,632.101562 161.492188,644.855469 163.574219,657.472656 C165.011719,666.144531 175.6875,671.785156 183.398438,669.195312 C192.363281,666.183594 196.15625,657.871094 194.632812,648.578125 Z" id="Shape" fill="url(#linearGradient-22)"></path>
            <path d="M74.539062,423.820312 C60.488281,421.742188 47.050781,416.664062 35.144531,408.925781 C29.242188,405.089844 23.777344,400.621094 18.847656,395.601562 C13.984375,390.597656 9.332031,385.003906 6.921875,378.394531 C4.609375,372.28125 4.730469,365.519531 7.261719,359.496094 C9.746094,353.488281 14.519531,348.714844 20.527344,346.230469 C26.53125,343.828125 33.84375,343.570312 39.714844,346.230469 C42.511719,347.453125 44.929688,349.402344 46.71875,351.871094 C47.554688,353.007812 48.171875,354.292969 48.539062,355.652344 C48.886719,356.890625 48.921875,358.191406 48.636719,359.445312 C47.9375,361.96875 46.183594,364.070312 43.824219,365.207031 C41.257812,366.519531 38.476562,367.367188 35.613281,367.707031 C32.730469,368.097656 28.609375,368.460938 26.277344,366.148438 C25.804688,365.691406 25.429688,365.140625 25.179688,364.527344 C25.007812,364.058594 24.949219,363.554688 25.007812,363.058594 C25.007812,363.277344 25.148438,362.585938 25.140625,362.605469 C25.128906,362.625 24.9375,362.96875 25.140625,362.605469 C25.207031,362.480469 25.285156,362.363281 25.367188,362.246094 C25.300781,362.335938 25.128906,362.507812 25.429688,362.246094 C25.675781,361.976562 25.996094,361.777344 26.347656,361.675781 L26.769531,361.566406 C27.121094,361.464844 26.410156,361.566406 26.769531,361.566406 L27.191406,361.566406 C27.550781,361.566406 26.839844,361.476562 27.191406,361.566406 L27.578125,361.675781 C27.871094,361.765625 27.378906,361.464844 27.578125,361.675781 C27.78125,361.886719 27.339844,361.425781 27.578125,361.675781 L27.941406,362.078125 C28.863281,362.988281 30.347656,362.988281 31.269531,362.078125 C32.171875,361.144531 32.171875,359.667969 31.269531,358.734375 C28.949219,355.855469 24.347656,356.566406 21.996094,359.003906 C18.996094,362.117188 20.175781,367.007812 23.097656,369.757812 C26.410156,372.832031 31.101562,373.039062 35.34375,372.53125 C38.9375,372.179688 42.441406,371.191406 45.6875,369.609375 C48.90625,368.023438 51.425781,365.300781 52.757812,361.964844 C53.976562,358.367188 53.59375,354.417969 51.699219,351.121094 C47.949219,344.058594 40.164062,340.4375 32.480469,339.808594 C24.476562,339.171875 16.546875,341.769531 10.472656,347.019531 C4.667969,352.226562 1.085938,359.464844 0.46875,367.238281 C-0.199219,375.292969 2.929688,383.113281 7.472656,389.617188 C12.242188,396.21875 17.933594,402.101562 24.367188,407.09375 C36.960938,417.144531 51.730469,424.109375 67.496094,427.433594 C69.367188,427.8125 71.246094,428.152344 73.148438,428.433594 C74.398438,428.734375 75.667969,428.011719 76.046875,426.78125 C76.386719,425.527344 75.652344,424.230469 74.398438,423.878906 L74.539062,423.820312 Z" id="Shape" fill="#F8AD29"></path>
            <path d="M299.523438,321.222656 C278.9375,320.925781 258.414062,321.449219 237.960938,322.792969 C230.957031,323.25 224.957031,325.722656 224.957031,329.875 C224.957031,333.34375 230.957031,337.417969 237.960938,336.957031 C258.410156,335.621094 278.929688,335.097656 299.523438,335.386719 C316.320312,335.617188 316.3125,321.449219 299.523438,321.222656 Z" id="Shape" fill="#FAF9F8"></path>
            <path d="M269.09375,334.675781 C266.871094,334.675781 214.601562,334.597656 214.601562,327.375 C214.601562,320.148438 266.871094,320.070312 269.09375,320.070312 C271.3125,320.070312 323.59375,320.148438 323.59375,327.375 C323.59375,334.597656 271.324219,334.675781 269.09375,334.675781 Z M216.652344,327.375 C218.074219,329.5625 237.289062,332.664062 269.09375,332.664062 C300.894531,332.664062 320.113281,329.5625 321.542969,327.375 C320.113281,325.183594 300.90625,322.089844 269.09375,322.089844 C237.28125,322.089844 218.074219,325.183594 216.652344,327.375 Z" id="Shape" fill="#FAF9F8"></path>
            <path d="M434.925781,524.480469 C446.503906,524.160156 460.9375,523.757812 471.992188,515.65625 C478.683594,510.574219 482.785156,502.789062 483.195312,494.398438 C483.425781,487.996094 481.117188,482.394531 476.683594,478.671875 C470.890625,473.769531 462.429688,472.667969 453.316406,475.308594 L462.757812,406.285156 L455.824219,405.332031 L444.722656,486.503906 L450.511719,483.84375 C457.226562,480.761719 466.441406,479.191406 472.171875,484.035156 C475.007812,486.609375 476.484375,490.351562 476.171875,494.167969 C475.828125,500.410156 472.785156,506.191406 467.839844,510.015625 C459.207031,516.328125 447.722656,517.136719 434.707031,517.496094 L434.925781,524.480469 Z" id="Shape" fill="url(#linearGradient-23)"></path>
            <polygon id="Shape" fill="#FAF9F8" points="378.054688 412.214844 415.761719 412.214844 415.761719 419.21875 378.054688 419.21875"></polygon>
        </g>
    </g>
</svg>